<?xml version="1.0" encoding="UTF-8" standalone="no"?>
<svg
   viewBox="0 0 24 24"
   width="24"
   height="24"
   version="1.1"
   id="svg2"
   sodipodi:docname="network-bluetooth.svg"
   xml:space="preserve"
   inkscape:version="1.4.3 (1:1.4.3+202512261035+0d15f75042)"
   xmlns:inkscape="http://www.inkscape.org/namespaces/inkscape"
   xmlns:sodipodi="http://sodipodi.sourceforge.net/DTD/sodipodi-0.dtd"
   xmlns="http://www.w3.org/2000/svg"
   xmlns:svg="http://www.w3.org/2000/svg"><sodipodi:namedview
     id="namedview2"
     pagecolor="#ffffff"
     bordercolor="#000000"
     borderopacity="0.25"
     inkscape:showpageshadow="2"
     inkscape:pageopacity="0.0"
     inkscape:pagecheckerboard="0"
     inkscape:deskcolor="#d1d1d1"
     inkscape:zoom="12.020815"
     inkscape:cx="2.9948052"
     inkscape:cy="28.949783"
     inkscape:window-width="1920"
     inkscape:window-height="1015"
     inkscape:window-x="0"
     inkscape:window-y="0"
     inkscape:window-maximized="1"
     inkscape:current-layer="svg2" /><defs
     id="defs3051"><style
       type="text/css"
       id="current-color-scheme">
      .ColorScheme-Text {
        color:#232629;
      }
      </style></defs><path
     fill="currentColor"
     d="m 11.101983,3.4874186 a 0.59375,0.59375 0 0 1 0.629375,0.074812 l 4.75,3.859375 a 0.59375,0.59375 0 0 1 0,0.9215 l -4.182375,3.3986254 4.182374,3.398624 a 0.59375,0.59375 0 0 1 0,0.9215 l -4.749999,3.859375 a 0.59375,0.59375 0 0 1 -0.967813,-0.46075 v -6.471874 l -3.7821868,3.07325 a 0.59375,0.59375 0 0 1 -0.748125,-0.9215 L 10.415608,11.741731 6.2332332,8.3431061 a 0.59375,0.59375 0 1 1 0.748125,-0.9215 L 10.763545,10.494856 V 4.0229811 a 0.59375,0.59375 0 0 1 0.338438,-0.5355625 m 0.849062,9.5011874 v 5.225 l 3.214563,-2.6125 z m 0,-2.49375 3.214563,-2.6124999 -3.214563,-2.6125 z"
     id="path1-3"
     style="stroke-width:1.1875;fill:#232629;fill-opacity:1" /><style
     id="current-color-scheme-53"
     type="text/css">.ColorScheme-Text { color: #fcfcfc; } </style><style
     id="current-color-scheme-5"
     type="text/css">.ColorScheme-Text { color: #fcfcfc; } </style><style
     id="current-color-scheme-2"
     type="text/css">.ColorScheme-NegativeText { color: #da4453; } .ColorScheme-Text { color: #fcfcfc; } </style><style
     id="current-color-scheme-6"
     type="text/css">.ColorScheme-Text { color: #fcfcfc; } </style><style
     id="current-color-scheme-9"
     type="text/css">
        .ColorScheme-Text {
            color:#232629;
        }
    </style><style
     id="current-color-scheme-0"
     type="text/css">.ColorScheme-Text { color: #fcfcfc; } </style><style
     id="current-color-scheme-5-9"
     type="text/css">.ColorScheme-Text { color: #fcfcfc; } </style><style
     id="current-color-scheme-2-3"
     type="text/css">.ColorScheme-NegativeText { color: #da4453; } .ColorScheme-Text { color: #fcfcfc; } </style><style
     id="current-color-scheme-6-6"
     type="text/css">.ColorScheme-Text { color: #fcfcfc; } </style><style
     id="current-color-scheme-9-0"
     type="text/css">
        .ColorScheme-Text {
            color:#232629;
        }
    </style></svg>
