<?xml version="1.0" encoding="UTF-8" standalone="no"?>
<svg
   viewBox="0 0 64 64"
   version="1.1"
   id="svg5"
   sodipodi:docname="folder-favorites.svg"
   xml:space="preserve"
   inkscape:version="1.4.3 (1:1.4.3+202512261035+0d15f75042)"
   xmlns:inkscape="http://www.inkscape.org/namespaces/inkscape"
   xmlns:sodipodi="http://sodipodi.sourceforge.net/DTD/sodipodi-0.dtd"
   xmlns="http://www.w3.org/2000/svg"
   xmlns:svg="http://www.w3.org/2000/svg"><sodipodi:namedview
     id="namedview5"
     pagecolor="#ffffff"
     bordercolor="#000000"
     borderopacity="0.25"
     inkscape:showpageshadow="2"
     inkscape:pageopacity="0.0"
     inkscape:pagecheckerboard="0"
     inkscape:deskcolor="#d1d1d1"
     inkscape:zoom="12.75"
     inkscape:cx="32"
     inkscape:cy="32"
     inkscape:window-width="1920"
     inkscape:window-height="1015"
     inkscape:window-x="0"
     inkscape:window-y="0"
     inkscape:window-maximized="1"
     inkscape:current-layer="svg5" /><defs
     id="defs3051"><style
       type="text/css"
       id="current-color-scheme">
      .ColorScheme-Text {
        color:#232629;
      }
      .ColorScheme-Accent {
        color:#3daee9;
      }
      </style><style
       type="text/css"
       id="style1" /><style
       type="text/css"
       id="style2" /><style
       type="text/css"
       id="style3" /><style
       type="text/css"
       id="style4" /><style
       type="text/css"
       id="style5" /><linearGradient
       id="linearGradient1118"
       x1="20.108"
       x2="20.108"
       y1="6.3499"
       y2="13.493"
       gradientTransform="translate(-11.906,-0.26458)"
       gradientUnits="userSpaceOnUse"><stop
         stop-color="#be900d"
         offset="0"
         id="stop5" /><stop
         stop-color="#a57001"
         offset="1"
         id="stop6" /></linearGradient><linearGradient
       id="linearGradient1911"
       x1="25.085"
       x2="25.085"
       y1="24.031"
       y2="26.412"
       gradientTransform="translate(-24.247,-18.739)"
       gradientUnits="userSpaceOnUse"><stop
         stop-color="#fcbc19"
         stop-opacity=".99608"
         offset="0"
         id="stop7" /><stop
         stop-color="#f4b61f"
         offset="1"
         id="stop8" /></linearGradient><linearGradient
       id="linearGradient4625"
       x1=".52918"
       x2="16.404"
       y1="5.0665"
       y2="5.0665"
       gradientTransform="translate(-6.3499,2.6458)"
       gradientUnits="userSpaceOnUse"><stop
         stop-color="#b78815"
         offset="0"
         id="stop9" /><stop
         stop-color="#e2b24b"
         stop-opacity="0"
         offset="1"
         id="stop10" /></linearGradient><linearGradient
       id="linearGradient1951"
       x1="100"
       x2="133.19"
       y1="17.453"
       y2="51.606"
       gradientTransform="matrix(0.26458,0,0,0.26458,-26.458,2.5104)"
       gradientUnits="userSpaceOnUse"><stop
         stop-color="#fce798"
         offset="0"
         id="stop11" /><stop
         stop-color="#ffc937"
         offset="1"
         id="stop12" /></linearGradient><linearGradient
       id="linearGradient11110"
       x1=".52917"
       x2="16.404"
       y1="5.3815"
       y2="5.3815"
       gradientTransform="translate(-6.3499,2.6458)"
       gradientUnits="userSpaceOnUse"><stop
         stop-color="#fff"
         offset="0"
         id="stop13" /><stop
         stop-color="#fff"
         stop-opacity="0"
         offset="1"
         id="stop14" /></linearGradient></defs><g
     id="g5"
     transform="matrix(3.6471503,0,0,3.6471503,1.1289459,1.9762576)"><g
       transform="translate(6.3499,-2.778)"
       id="g18"><path
         d="m -5.1524,4.8947 c -0.3653,0 -0.66145,0.32575 -0.66145,0.72759 v 2.9636 c -0.0026,0.02629 -0.0072,0.052 -0.0072,0.07906 v 7.9373 c 0,0.40184 0.29614,0.72759 0.66144,0.72759 h 14.552 c 0.36531,0 0.66144,-0.32575 0.66144,-0.72759 v -9.393 c 0,-0.40184 -0.29614,-0.72759 -0.66144,-0.72759 v 5.16e-4 h -8.1993 l -0.89864,-1.1095 c 0,0 -0.36607,-0.478 -1.0583,-0.478 h -1.3229 z"
         color="#000000"
         color-rendering="auto"
         dominant-baseline="auto"
         fill="url(#linearGradient1911)"
         image-rendering="auto"
         shape-rendering="auto"
         solid-color="#000000"
         stop-color="#000000"
         style="font-variant-ligatures:normal;font-variant-position:normal;font-variant-caps:normal;font-variant-numeric:normal;font-variant-alternates:normal;font-variant-east-asian:normal;font-feature-settings:normal;font-variation-settings:normal;text-indent:0;text-decoration-line:none;text-decoration-style:solid;text-decoration-color:#000000;text-transform:none;text-orientation:mixed;white-space:normal;shape-padding:0;shape-margin:0;inline-size:0;isolation:auto;mix-blend-mode:normal;fill:url(#linearGradient1911)"
         id="path14" /><path
         d="M 2.0107,6.4822 C 1.89758,6.484 1.70222,6.46678 1.49084,6.57728 0.75437,6.95674 0.71858,7.17094 -0.06616,7.29143 h -4.9608 c -0.21986,0 -0.41824,0.08855 -0.56171,0.23202 -0.13937,0.13936 -0.22041,0.33333 -0.2253,0.54569 v 0.2775 c 0.0049,-0.21236 0.08593,-0.40633 0.2253,-0.54569 0.14347,-0.14347 0.34185,-0.23202 0.56171,-0.23202 h 4.9608 C 0.71856,7.44843 0.75435,7.23424 1.49084,6.85478 1.70222,6.74428 1.89757,6.7615 2.0107,6.7597 h 7.3828 c 0.18216,3.65e-4 0.3472,0.08101 0.46663,0.21239 0.1197,0.13167 0.19378,0.31377 0.19378,0.51469 V 7.20928 C 10.05391,7.00836 9.97983,6.82626 9.86013,6.69459 9.7407,6.56322 9.57566,6.48257 9.3935,6.4822 H 8.2283 Z M -5.814,8.5859 c -0.0026,0.02629 -0.0067,0.05201 -0.0067,0.07906 v 0.2775 c 0,-0.02705 0.0041,-0.05277 0.0067,-0.07906 z"
         fill="url(#linearGradient4625)"
         opacity="0.00100002"
         stroke-width="0.26458"
         id="path15"
         style="fill:url(#linearGradient4625)" /><path
         d="m -5.8207,16.32 v 0.28215 c 0,0.20092 0.07357,0.3825 0.19327,0.51417 0.1197,0.13167 0.28553,0.21342 0.46818,0.21342 h 14.552 c 0.18265,0 0.34796,-0.08175 0.46766,-0.21342 0.1197,-0.13167 0.19378,-0.31325 0.19378,-0.51417 V 16.32 c 0,0.20092 -0.07409,0.3825 -0.19378,0.51417 -0.1197,0.13167 -0.28501,0.21342 -0.46766,0.21342 h -14.552 c -0.18265,0 -0.34848,-0.08176 -0.46818,-0.21342 C -5.74713,16.70251 -5.8207,16.52092 -5.8207,16.32 Z"
         fill="#e4a729"
         fill-opacity="0.99608"
         stroke-width="0.26458"
         id="path16" /><path
         d="m 1.1921,6.7436 c 0,0 -0.35919,0.47868 -1.1575,0.79218 -0.03271,0.00587 -0.06509,0.011575 -0.10077,0.017052 h -4.9608 c -0.21986,0 -0.41824,0.088552 -0.56171,0.23202 -0.13937,0.13936 -0.22042,0.33333 -0.2253,0.54569 v 0.51675 c -0.0026,0.026291 -0.0067,0.052014 -0.0067,0.079064 v 7.3953 c 0,0.20092 0.07357,0.3825 0.19327,0.51417 0.1197,0.13167 0.28553,0.21342 0.46818,0.21342 h 14.552 c 0.18265,0 0.34796,-0.08175 0.46766,-0.21342 0.1197,-0.13167 0.19378,-0.31325 0.19378,-0.51417 v -8.851 c 0,-0.20092 -0.07408,-0.38302 -0.19378,-0.51469 C 9.74098,6.824596 9.57594,6.743946 9.39378,6.743576 h -7.4821 z"
         fill="url(#linearGradient1951)"
         id="path17"
         style="fill:url(#linearGradient1951)" /><path
         d="m 1.1921,6.7436 c 0,0 -0.35919,0.47868 -1.1575,0.79218 -0.03271,0.00587 -0.06509,0.011575 -0.10077,0.017052 h -4.9608 c -0.21986,0 -0.41824,0.088552 -0.56171,0.23202 -0.13937,0.13936 -0.22041,0.33333 -0.2253,0.54569 v 0.38446 c 0.0049,-0.21236 0.08593,-0.40633 0.2253,-0.54569 0.14347,-0.14347 0.34185,-0.23202 0.56171,-0.23202 h 4.9608 C -0.03049,7.931812 0.00189,7.926108 0.0346,7.92024 0.79371,7.65721 1.3229,7.12806 1.3229,7.12806 h 8.0707 c 0.18216,3.704e-4 0.34718,0.081016 0.46663,0.21239 0.1197,0.13167 0.19378,0.31377 0.19378,0.51469 V 7.47068 C 10.05401,7.26976 9.97993,7.08766 9.86023,6.95599 9.74078,6.82462 9.57576,6.74397 9.3936,6.7436 H 1.9115 Z m -7.0062,2.1037 c -0.0026,0.026291 -0.0067,0.052013 -0.0067,0.079063 v 0.38447 c 0,-0.02705 0.0041,-0.052773 0.0067,-0.079063 z"
         fill="url(#linearGradient11110)"
         opacity="0.3"
         id="path18"
         style="fill:url(#linearGradient11110)" /></g><g
       fill="#5e4aa6"
       id="g38"><g
         stroke-width="0.26458"
         id="g22"><circle
           cx="-330.35001"
           cy="-328.38"
           r="0"
           id="circle18" /><circle
           cx="-312.10999"
           cy="-326.25"
           r="0"
           id="circle19" /><circle
           cx="-306.01999"
           cy="-333.07001"
           r="0"
           id="circle20" /><circle
           cx="-308.84"
           cy="-326.01001"
           r="0"
           id="circle21" /><circle
           cx="-328.79999"
           cy="-330.45001"
           r="0"
           id="circle22" /></g><g
         transform="translate(2.95e-4,-3.2978e-4)"
         stroke-width="0.26458"
         id="g27"><circle
           cx="-330.35001"
           cy="-328.38"
           r="0"
           id="circle23" /><circle
           cx="-312.10999"
           cy="-326.25"
           r="0"
           id="circle24" /><circle
           cx="-306.01999"
           cy="-333.07001"
           r="0"
           id="circle25" /><circle
           cx="-308.84"
           cy="-326.01001"
           r="0"
           id="circle26" /><circle
           cx="-328.79999"
           cy="-330.45001"
           r="0"
           id="circle27" /></g><g
         stroke-width="0.26458"
         id="g32"><circle
           cx="-330.35001"
           cy="-328.38"
           r="0"
           id="circle28" /><circle
           cx="-312.10999"
           cy="-326.25"
           r="0"
           id="circle29" /><circle
           cx="-306.01999"
           cy="-333.07001"
           r="0"
           id="circle30" /><circle
           cx="-308.84"
           cy="-326.01001"
           r="0"
           id="circle31" /><circle
           cx="-328.79999"
           cy="-330.45001"
           r="0"
           id="circle32" /></g><g
         transform="translate(2.95e-4,-3.2978e-4)"
         stroke-width="0.26458"
         id="g37"><circle
           cx="-330.35001"
           cy="-328.38"
           r="0"
           id="circle33" /><circle
           cx="-312.10999"
           cy="-326.25"
           r="0"
           id="circle34" /><circle
           cx="-306.01999"
           cy="-333.07001"
           r="0"
           id="circle35" /><circle
           cx="-308.84"
           cy="-326.01001"
           r="0"
           id="circle36" /><circle
           cx="-328.79999"
           cy="-330.45001"
           r="0"
           id="circle37" /></g></g><path
       d="m 11.953,9.2515 c -0.50622,0.61669 -1.3698,1.5962 -1.3698,1.5962 0,0 0.11446,1.1566 0.19649,1.9205 0.03562,0.38894 -0.24466,0.55696 -0.56236,0.40549 -0.6041,-0.30367 -1.5439,-0.89728 -1.7508,-1.0031 -0.21048,0.10506 -1.1193,0.69076 -1.7295,0.99371 -0.3213,0.15111 -0.60481,-0.01691 -0.56884,-0.40513 0.08311,-0.7624 0.18175,-1.9115 0.18175,-1.9115 0,0 -0.85637,-0.98415 -1.3687,-1.6001 C 4.80027,9.02377 4.91649,8.70572 5.2734,8.64743 6.00162,8.50963 7.1296,8.46649 7.1296,8.46649 c 0,0 0.61704,-1.3137 1.0074,-2.0106 0.21479,-0.42384 0.36339,-0.37491 0.38893,-0.36231 0.06621,0.02267 0.17091,0.10506 0.30727,0.36267 0.38606,0.69764 0.95626,2.0102 0.95626,2.0102 0,0 1.155,0.046012 1.8746,0.18381 0.3526,0.059005 0.46773,0.37743 0.28891,0.60122 z"
       fill="url(#linearGradient1118)"
       stroke-width="0.0070318"
       p-id="13941"
       id="path38"
       style="fill:url(#linearGradient1118)" /></g></svg>
