<?xml version="1.0" encoding="UTF-8" standalone="no"?>
<!-- Created with Inkscape (http://www.inkscape.org/) -->

<svg
   width="64"
   height="64"
   viewBox="0 0 64 64"
   version="1.1"
   id="svg1"
   inkscape:version="1.4-dev (1:1.4.0-dev+202403210151+2fe0648968)"
   sodipodi:docname="binance.svg"
   xmlns:inkscape="http://www.inkscape.org/namespaces/inkscape"
   xmlns:sodipodi="http://sodipodi.sourceforge.net/DTD/sodipodi-0.dtd"
   xmlns="http://www.w3.org/2000/svg"
   xmlns:svg="http://www.w3.org/2000/svg">
  <sodipodi:namedview
     id="namedview1"
     pagecolor="#ffffff"
     bordercolor="#000000"
     borderopacity="0.25"
     inkscape:showpageshadow="2"
     inkscape:pageopacity="0.0"
     inkscape:pagecheckerboard="0"
     inkscape:deskcolor="#d1d1d1"
     inkscape:document-units="px"
     inkscape:zoom="8.8940775"
     inkscape:cx="25.691254"
     inkscape:cy="35.473044"
     inkscape:window-width="1920"
     inkscape:window-height="1010"
     inkscape:window-x="0"
     inkscape:window-y="0"
     inkscape:window-maximized="1"
     inkscape:current-layer="svg1" />
  <defs
     id="defs1">
    <linearGradient
       id="linear0"
       gradientUnits="userSpaceOnUse"
       x1="2.3059001"
       y1="1.7146"
       x2="29.694901"
       y2="29.104601"
       gradientTransform="scale(2)">
      <stop
         offset="0"
         style="stop-color:rgb(15.686275%,68.627451%,91.764706%);stop-opacity:1;"
         id="stop1" />
      <stop
         offset="1"
         style="stop-color:rgb(51.372549%,54.509804%,89.411765%);stop-opacity:1;"
         id="stop2" />
    </linearGradient>
  </defs>
  <rect
     style="opacity:0.2;stroke-width:0.96552"
     width="56"
     height="56"
     x="4"
     y="4.9655175"
     rx="28"
     ry="28"
     id="rect1-5"
     inkscape:label="rect1" />
  <rect
     style="fill:#ffc71a;fill-opacity:1;stroke-width:0.96552"
     width="56"
     height="56"
     x="4"
     y="4"
     rx="28"
     ry="28"
     id="rect2-6"
     inkscape:label="shadow" />
  <path
     style="opacity:0.2;stroke-width:0.96552"
     d="m 21.39344,32.965517 -4.329285,4.337288 -4.374499,-4.337288 4.370731,-4.375 z m 10.587721,-10.59806 7.460387,7.467673 4.370731,-4.375001 -11.831118,-11.804956 -11.831119,11.842672 4.370731,4.374999 z m 14.920777,6.22306 -4.333056,4.375 4.370731,4.375001 4.370732,-4.375001 z m -14.920777,14.973058 -7.460388,-7.50538 -4.370731,4.375 11.831119,11.842667 11.831118,-11.842667 -4.370731,-4.375 z m 0,-6.26077 4.370732,-4.375003 -4.370732,-4.337285 -4.370732,4.375 z"
     id="path3" />
  <path
     style="fill:#131415;fill-opacity:1;stroke-width:0.96552"
     d="M 21.39344,32 17.064155,36.337287 12.689656,32 17.060387,27.625 Z m 10.587721,-10.59806 7.460387,7.467672 4.370731,-4.375001 -11.831118,-11.804956 -11.831119,11.842672 4.370731,4.375 z M 46.901938,27.625 42.568882,32 46.939613,36.375 51.310345,32 Z M 31.981161,42.598058 24.520773,35.092677 20.150042,39.467678 31.981161,51.310344 43.812279,39.467678 39.441548,35.092677 Z m 0,-6.260771 4.370732,-4.375002 L 31.981161,27.625 27.610429,32 Z"
     id="path4" />
  <rect
     style="fill:#f3ba2f;fill-opacity:1;stroke-width:0.678698"
     id="rect3"
     width="4.6390781"
     height="4.7821016"
     x="70.045708"
     y="4.9277105"
     rx="0"
     ry="2.3910508"
     transform="matrix(0.90778902,0,0,0.90778902,2.6430397,3.4296308)" />
  <g
     inkscape:label="binance"
     inkscape:groupmode="layer"
     id="layer1" />
</svg>
