<?xml version="1.0" encoding="UTF-8" standalone="no"?>
<!-- Created with Inkscape (http://www.inkscape.org/) -->

<svg
   width="64mm"
   height="64mm"
   viewBox="0 0 64 64"
   version="1.1"
   id="svg1"
   xml:space="preserve"
   inkscape:version="1.4.2 (1:1.4.2+202505120737+ebf0e940d0)"
   sodipodi:docname="binance.svg"
   xmlns:inkscape="http://www.inkscape.org/namespaces/inkscape"
   xmlns:sodipodi="http://sodipodi.sourceforge.net/DTD/sodipodi-0.dtd"
   xmlns:xlink="http://www.w3.org/1999/xlink"
   xmlns="http://www.w3.org/2000/svg"
   xmlns:svg="http://www.w3.org/2000/svg"><sodipodi:namedview
     id="namedview1"
     pagecolor="#ffffff"
     bordercolor="#000000"
     borderopacity="0.25"
     inkscape:showpageshadow="2"
     inkscape:pageopacity="0.0"
     inkscape:pagecheckerboard="0"
     inkscape:deskcolor="#d1d1d1"
     inkscape:document-units="mm"
     inkscape:zoom="2.0560856"
     inkscape:cx="32.829372"
     inkscape:cy="139.09926"
     inkscape:window-width="1920"
     inkscape:window-height="1015"
     inkscape:window-x="0"
     inkscape:window-y="0"
     inkscape:window-maximized="1"
     inkscape:current-layer="layer1" /><defs
     id="defs1"><linearGradient
       id="linearGradient7"
       inkscape:collect="always"><stop
         style="stop-color:#000000;stop-opacity:1;"
         offset="0"
         id="stop7" /><stop
         style="stop-color:#000000;stop-opacity:1;"
         offset="1"
         id="stop8" /></linearGradient><linearGradient
       inkscape:collect="always"
       xlink:href="#linearGradient5"
       id="linearGradient6"
       x1="26.532696"
       y1="20.288628"
       x2="37.991215"
       y2="45.288212"
       gradientUnits="userSpaceOnUse"
       gradientTransform="translate(-0.2484131,0.02472301)" /><linearGradient
       id="linearGradient5"
       inkscape:collect="always"><stop
         style="stop-color:#ececec;stop-opacity:1;"
         offset="0"
         id="stop5" /><stop
         style="stop-color:#ececec;stop-opacity:1;"
         offset="1"
         id="stop6" /></linearGradient><linearGradient
       inkscape:collect="always"
       xlink:href="#linearGradient7"
       id="linearGradient8"
       x1="4.9136009"
       y1="32.345585"
       x2="59.413601"
       y2="32.345585"
       gradientUnits="userSpaceOnUse" /></defs><g
     inkscape:label="Layer 1"
     inkscape:groupmode="layer"
     id="layer1"><rect
       style="opacity:0.2;stroke-width:0.935113"
       width="54.236374"
       height="54.236374"
       x="4.9136009"
       y="5.7985368"
       rx="27.118187"
       ry="27.118187"
       id="rect1-5"
       inkscape:label="rect1" /><circle
       style="fill:url(#linearGradient8);fill-opacity:1;stroke-width:0.191052;stroke-linecap:round;stroke-linejoin:round"
       id="path1"
       cx="32.163601"
       cy="32.345585"
       r="27.25" /><path
       style="opacity:0.2;stroke-width:0.935113"
       d="m 21.759264,33.280696 -4.192942,4.200692 -4.236732,-4.200692 4.233083,-4.237217 z m 10.254279,-10.264293 7.225434,7.232492 4.233083,-4.237218 -11.458517,-11.433179 -11.458519,11.469707 4.233083,4.237216 z m 14.450872,6.027076 -4.196594,4.237217 4.233083,4.237217 4.233083,-4.237217 z M 32.013543,43.544986 24.788107,36.275975 20.555024,40.513192 32.013543,51.982894 43.47206,40.513192 39.238977,36.275975 Z m 0,-6.063598 4.233083,-4.23722 -4.233083,-4.200689 -4.233084,4.237217 z"
       id="path3" /><path
       style="fill:url(#linearGradient6);fill-opacity:1;stroke-width:0.935113"
       d="m 21.759264,32.345586 -4.192942,4.200691 -4.236732,-4.200691 4.233083,-4.237217 z m 10.254279,-10.264292 7.225434,7.23249 4.233083,-4.237218 -11.458517,-11.433179 -11.458519,11.469707 4.233083,4.237217 z m 14.450872,6.027075 -4.196594,4.237217 4.233083,4.237217 4.233083,-4.237217 z M 32.013543,42.609876 24.788107,35.340864 20.555024,39.578082 32.013543,51.047784 43.47206,39.578082 39.238977,35.340864 Z m 0,-6.063599 4.233083,-4.237218 -4.233083,-4.20069 -4.233084,4.237217 z"
       id="path4" /></g></svg>
