<?xml version="1.0" encoding="UTF-8" standalone="no"?>
<!-- Created with Inkscape (http://www.inkscape.org/) -->

<svg
   width="64"
   height="64"
   viewBox="0 0 64 64"
   version="1.1"
   id="svg1"
   inkscape:version="1.4.2 (1:1.4.2+202505120737+ebf0e940d0)"
   sodipodi:docname="crunchyroll.svg"
   xml:space="preserve"
   xmlns:inkscape="http://www.inkscape.org/namespaces/inkscape"
   xmlns:sodipodi="http://sodipodi.sourceforge.net/DTD/sodipodi-0.dtd"
   xmlns:xlink="http://www.w3.org/1999/xlink"
   xmlns="http://www.w3.org/2000/svg"
   xmlns:svg="http://www.w3.org/2000/svg"><sodipodi:namedview
     id="namedview1"
     pagecolor="#ffffff"
     bordercolor="#000000"
     borderopacity="0.25"
     inkscape:showpageshadow="2"
     inkscape:pageopacity="0.0"
     inkscape:pagecheckerboard="0"
     inkscape:deskcolor="#d1d1d1"
     inkscape:document-units="px"
     inkscape:zoom="8.8940776"
     inkscape:cx="71.28339"
     inkscape:cy="36.203867"
     inkscape:window-width="1920"
     inkscape:window-height="1017"
     inkscape:window-x="0"
     inkscape:window-y="0"
     inkscape:window-maximized="1"
     inkscape:current-layer="layer1"
     showguides="false" /><defs
     id="defs1"><linearGradient
       id="linearGradient9"
       inkscape:collect="always"><stop
         style="stop-color:#000000;stop-opacity:1;"
         offset="0"
         id="stop9" /><stop
         style="stop-color:#000000;stop-opacity:0;"
         offset="1"
         id="stop10" /></linearGradient><linearGradient
       id="linearGradient2"
       inkscape:collect="always"><stop
         style="stop-color:#000000;stop-opacity:1;"
         offset="0"
         id="stop3" /><stop
         style="stop-color:#000000;stop-opacity:0;"
         offset="1"
         id="stop8" /></linearGradient><linearGradient
       id="linearGradient6"
       inkscape:collect="always"><stop
         style="stop-color:#ff5e05;stop-opacity:1;"
         offset="0"
         id="stop6" /><stop
         style="stop-color:#ff5e05;stop-opacity:1;"
         offset="1"
         id="stop7" /></linearGradient><linearGradient
       id="linearGradient4"
       inkscape:collect="always"><stop
         style="stop-color:#ff5e05;stop-opacity:1;"
         offset="0"
         id="stop4" /><stop
         style="stop-color:#ff5e05;stop-opacity:1;"
         offset="1"
         id="stop5" /></linearGradient><linearGradient
       id="linear0"
       gradientUnits="userSpaceOnUse"
       x1="2.3059001"
       y1="1.7146"
       x2="29.694901"
       y2="29.104601"
       gradientTransform="scale(2)"><stop
         offset="0"
         style="stop-color:rgb(15.686275%,68.627451%,91.764706%);stop-opacity:1;"
         id="stop1" /><stop
         offset="1"
         style="stop-color:rgb(51.372549%,54.509804%,89.411765%);stop-opacity:1;"
         id="stop2" /></linearGradient><linearGradient
       id="rL2wppHyxHVbobwndsT6Ca"
       x1="24.237274"
       x2="13.445683"
       y1="34.089581"
       y2="14.513655"
       gradientUnits="userSpaceOnUse"
       gradientTransform="matrix(1.405606,0,0,1.405606,-1.7345361,-1.7346055)"><stop
         offset="0"
         stop-color="#4c4c4c"
         id="stop1-7"
         style="stop-color:#4e237d;stop-opacity:1;" /><stop
         offset="1"
         stop-color="#343434"
         id="stop2-3"
         style="stop-color:#9f41ac;stop-opacity:1;" /></linearGradient><style
       id="style1">.cls-1{fill:#606060;}.cls-2{fill:#f84d10;}.cls-3{fill:#444;}.cls-4{fill:#f78b24;}</style><linearGradient
       inkscape:collect="always"
       xlink:href="#linearGradient4"
       id="linearGradient5"
       x1="16.857707"
       y1="36.405813"
       x2="57.775844"
       y2="36.405813"
       gradientUnits="userSpaceOnUse"
       gradientTransform="matrix(0.96746463,0,0,0.96746463,1.2177378,1.3281775)" /><filter
       inkscape:collect="always"
       style="color-interpolation-filters:sRGB"
       id="filter8"
       x="-0.0010755666"
       y="-0.0010844702"
       width="1.0021511"
       height="1.0021689"><feGaussianBlur
         inkscape:collect="always"
         stdDeviation="0.026075154"
         id="feGaussianBlur8" /></filter><linearGradient
       inkscape:collect="always"
       xlink:href="#linearGradient6"
       id="linearGradient1"
       gradientUnits="userSpaceOnUse"
       x1="3.2178602"
       y1="31.455748"
       x2="61.401518"
       y2="31.455748"
       gradientTransform="matrix(0.96746463,0,0,0.96746463,1.2177378,1.3281775)" /><linearGradient
       xlink:href="#linearGradient1022"
       gradientUnits="userSpaceOnUse"
       gradientTransform="matrix(0.21335596,0,0,0.14223909,49.275522,-4.291479)"
       y2="340.31"
       y1="340.31"
       x2="79.111"
       x1="287.63"
       id="linearGradient1038" /><linearGradient
       id="linearGradient1022"><stop
         id="stop2-7"
         offset="0" /><stop
         id="stop4-5"
         offset="1"
         stop-opacity="0" /></linearGradient><linearGradient
       inkscape:collect="always"
       xlink:href="#linearGradient2"
       id="linearGradient8"
       x1="58.238377"
       y1="36.405811"
       x2="17.19508"
       y2="36.405811"
       gradientUnits="userSpaceOnUse"
       gradientTransform="matrix(0.96746463,0,0,0.96746463,1.1053031,1.7779146)" /><linearGradient
       inkscape:collect="always"
       xlink:href="#linearGradient9"
       id="linearGradient10"
       x1="3.5552328"
       y1="31.455747"
       x2="61.864025"
       y2="31.455747"
       gradientUnits="userSpaceOnUse" /></defs><g
     inkscape:label="crunchyroll"
     inkscape:groupmode="layer"
     id="layer1"><path
       class="cls-4"
       d="m 49.868089,36.93817 c -4.979627,0 -9.014274,-4.002256 -9.014274,-8.939206 a 8.9421501,8.9421501 0 0 1 5.867237,-8.376918 19.871445,19.871445 0 0 0 -9.126151,-2.207937 c -10.930765,0 -19.793422,8.768458 -19.793422,19.585884 0,10.817425 8.862657,19.584413 19.793422,19.584413 10.930763,0 19.793426,-8.76846 19.793426,-19.577054 a 19.476959,19.476959 0 0 0 -0.335604,-3.600411 9.0216359,9.0216359 0 0 1 -7.184634,3.531229 z"
       id="path2"
       style="opacity:0.15;fill:url(#linearGradient8);fill-opacity:1;stroke-width:0.147195" /><path
       class="cls-4"
       d="m 10.686474,34.917069 c 0,-13.967003 11.441371,-25.289709 25.560517,-25.289709 13.540994,0 24.626354,10.42961 25.498154,23.616104 q 0.0548,-0.887012 0.0563,-1.787716 C 61.795875,15.521497 48.773225,2.6027786 32.708127,2.6027786 c -16.065095,0 -29.0903138,12.9187184 -29.0903138,28.8529694 0,15.934252 13.0236908,28.85297 29.0872738,28.85297 q 1.332791,0 2.633646,-0.118669 C 21.64559,59.72144 10.686515,48.585874 10.686515,34.917076 Z"
       id="path3"
       style="opacity:0.15;fill:url(#linearGradient10);stroke-width:0.152145;filter:url(#filter8)"
       transform="matrix(0.96746463,0,0,0.96746463,2.0047789,1.6654806)" /><path
       class="cls-4"
       d="m 11.169583,35.109207 c 0,-13.512582 11.069122,-24.466899 24.728896,-24.466899 13.100436,0 23.825128,10.090278 24.668559,22.847745 q 0.05301,-0.858153 0.0545,-1.729552 C 60.616117,16.344677 48.017166,3.8462737 32.474753,3.8462737 c -15.542411,0 -28.1438493,12.4984033 -28.1438493,27.9142273 0,15.415825 12.5999603,27.914228 28.1409083,27.914228 q 1.289429,0 2.54796,-0.114808 C 21.77214,59.106558 11.169623,48.333292 11.169623,35.109213 Z"
       id="path62"
       style="fill:url(#linearGradient1);fill-opacity:1;stroke-width:0.147195" /><path
       class="cls-4"
       d="m 49.593586,36.488433 c -4.979633,0 -9.014273,-4.002256 -9.014273,-8.939206 a 8.9421501,8.9421501 0 0 1 5.867236,-8.376918 19.871445,19.871445 0 0 0 -9.126154,-2.207937 c -10.930765,0 -19.793422,8.768458 -19.793422,19.585884 0,10.817425 8.862657,19.584413 19.793422,19.584413 10.930765,0 19.793428,-8.76846 19.793428,-19.577055 a 19.476959,19.476959 0 0 0 -0.335609,-3.600411 9.021636,9.021636 0 0 1 -7.184628,3.53123 z"
       id="path63"
       style="fill:url(#linearGradient5);fill-opacity:1;stroke-width:0.147195" /></g></svg>
