<?xml version="1.0" encoding="UTF-8" standalone="no"?>
<!-- Created with Inkscape (http://www.inkscape.org/) -->

<svg
   width="64"
   height="64"
   viewBox="0 0 64 64"
   version="1.1"
   id="svg1"
   inkscape:version="1.4 (e7c3feb, 2024-10-09)"
   sodipodi:docname="crunchyroll.svg"
   xml:space="preserve"
   xmlns:inkscape="http://www.inkscape.org/namespaces/inkscape"
   xmlns:sodipodi="http://sodipodi.sourceforge.net/DTD/sodipodi-0.dtd"
   xmlns:xlink="http://www.w3.org/1999/xlink"
   xmlns="http://www.w3.org/2000/svg"
   xmlns:svg="http://www.w3.org/2000/svg"><sodipodi:namedview
     id="namedview1"
     pagecolor="#ffffff"
     bordercolor="#000000"
     borderopacity="0.25"
     inkscape:showpageshadow="2"
     inkscape:pageopacity="0.0"
     inkscape:pagecheckerboard="0"
     inkscape:deskcolor="#d1d1d1"
     inkscape:document-units="px"
     inkscape:zoom="2.2235194"
     inkscape:cx="91.971314"
     inkscape:cy="127.50057"
     inkscape:window-width="1920"
     inkscape:window-height="1011"
     inkscape:window-x="0"
     inkscape:window-y="0"
     inkscape:window-maximized="1"
     inkscape:current-layer="layer1" /><defs
     id="defs1"><linearGradient
       id="linearGradient1"
       inkscape:collect="always"><stop
         style="stop-color:#ea7e01;stop-opacity:1;"
         offset="0"
         id="stop3" /><stop
         style="stop-color:#e36201;stop-opacity:1;"
         offset="1"
         id="stop4" /></linearGradient><linearGradient
       id="linear0"
       gradientUnits="userSpaceOnUse"
       x1="2.3059001"
       y1="1.7146"
       x2="29.694901"
       y2="29.104601"
       gradientTransform="scale(2)"><stop
         offset="0"
         style="stop-color:rgb(15.686275%,68.627451%,91.764706%);stop-opacity:1;"
         id="stop1" /><stop
         offset="1"
         style="stop-color:rgb(51.372549%,54.509804%,89.411765%);stop-opacity:1;"
         id="stop2" /></linearGradient><linearGradient
       id="rL2wppHyxHVbobwndsT6Ca"
       x1="24.237274"
       x2="13.445683"
       y1="34.089581"
       y2="14.513655"
       gradientUnits="userSpaceOnUse"
       gradientTransform="matrix(1.405606,0,0,1.405606,-1.7345361,-1.7346055)"><stop
         offset="0"
         stop-color="#4c4c4c"
         id="stop1-7"
         style="stop-color:#4e237d;stop-opacity:1;" /><stop
         offset="1"
         stop-color="#343434"
         id="stop2-3"
         style="stop-color:#9f41ac;stop-opacity:1;" /></linearGradient><linearGradient
       inkscape:collect="always"
       xlink:href="#linearGradient1"
       id="linearGradient4"
       x1="3.6310554"
       y1="30.846654"
       x2="58.757436"
       y2="30.846654"
       gradientUnits="userSpaceOnUse" /></defs><g
     inkscape:label="crunchyroll"
     inkscape:groupmode="layer"
     id="layer1"><path
       d="m 31.791055,3.3354041 c -15.552,0 -28.1599996,12.6079999 -28.1599996,28.1599999 0,19.44064 13.2962196,25.00942 22.2574996,26.8475 0.0499,0.0102 0.0989,0.015 0.145,0.015 0.6464,0 0.90158,-0.93578 0.2475,-1.2225 -9.4848,-4.14848 -16.2114,-13.70126 -14.765,-25.0075 1.40288,-10.97472 10.34852,-19.744 21.345,-20.96 0.93312,-0.10368 1.85736,-0.1525 2.77,-0.1525 9.65248,0 17.97686,5.62646 21.8975,13.7775 0.12672,0.2624 0.35222,0.3775 0.5775,0.3775 0.3776,0 0.75038,-0.3214 0.6275,-0.795 -2.23488,-8.61056 -9.0225,-21.0399999 -26.9425,-21.0399999 z m 5.12,14.0799999 c -10.90432,0 -19.68688,9.08932 -19.18,20.105 0.44928,9.77792 8.49586,17.82322 18.2725,18.2725 0.30336,0.0154 0.60798,0.0225 0.9075,0.0225 10.6048,0 19.2,-8.5952 19.2,-19.2 0,-1.51168 -0.17848,-2.98194 -0.51,-4.3925 -0.0755,-0.31872 -0.34474,-0.4925 -0.6225,-0.4925 -0.19712,0 -0.39548,0.0869 -0.535,0.2725 -1.5168,2.0224 -3.92994,3.3325 -6.6525,3.3325 -0.13184,0 -0.26438,-0.004 -0.3975,-0.01 -4.04224,-0.18816 -7.4768,-3.42312 -7.88,-7.45 -0.3456,-3.44832 1.41964,-6.51462 4.155,-8.0775 0.48256,-0.2752 0.44218,-0.97416 -0.0775,-1.17 -2.08,-0.77698 -4.32736,-1.21252 -6.68,-1.21252 z m 19.58,16.1225 h 0.005 z"
       id="path1"
       style="stroke-width:1.28;fill:url(#linearGradient4)" /></g></svg>
