<?xml version="1.0" encoding="UTF-8" standalone="no"?>
<!-- Created with Inkscape (http://www.inkscape.org/) -->

<svg
   width="64"
   height="64"
   viewBox="0 0 64 64"
   version="1.1"
   id="svg1"
   inkscape:version="1.4-dev (1:1.4.0-dev+202403210151+2fe0648968)"
   sodipodi:docname="firefox-nightly.svg"
   xmlns:inkscape="http://www.inkscape.org/namespaces/inkscape"
   xmlns:sodipodi="http://sodipodi.sourceforge.net/DTD/sodipodi-0.dtd"
   xmlns="http://www.w3.org/2000/svg"
   xmlns:svg="http://www.w3.org/2000/svg">
  <sodipodi:namedview
     id="namedview1"
     pagecolor="#ffffff"
     bordercolor="#000000"
     borderopacity="0.25"
     inkscape:showpageshadow="2"
     inkscape:pageopacity="0.0"
     inkscape:pagecheckerboard="0"
     inkscape:deskcolor="#d1d1d1"
     inkscape:document-units="px"
     inkscape:zoom="8.8940775"
     inkscape:cx="38.621206"
     inkscape:cy="26.703163"
     inkscape:window-width="1920"
     inkscape:window-height="1010"
     inkscape:window-x="0"
     inkscape:window-y="0"
     inkscape:window-maximized="1"
     inkscape:current-layer="layer1" />
  <defs
     id="defs1">
    <linearGradient
       id="a"
       x1="74.800003"
       x2="7.7399998"
       y1="20.5"
       y2="62.799999"
       gradientTransform="matrix(0.71846538,0,0,0.72461849,3.088986,2.1614632)"
       gradientUnits="userSpaceOnUse">
      <stop
         stop-color="#3fe1b0"
         offset="0"
         id="stop4" />
      <stop
         stop-color="#00b3f4"
         offset=".406"
         id="stop6" />
      <stop
         stop-color="#03b0f4"
         offset=".421"
         id="stop8" />
      <stop
         stop-color="#5561e9"
         offset=".818"
         id="stop10" />
      <stop
         stop-color="#7542e5"
         offset="1"
         id="stop12" />
    </linearGradient>
    <radialGradient
       id="b"
       cx="-7907"
       cy="-8515"
       r="80.800003"
       gradientTransform="matrix(0.71846538,0,0,0.72461849,5733.066,6178.8124)"
       gradientUnits="userSpaceOnUse">
      <stop
         stop-color="#3fe1b0"
         offset=".108"
         id="stop15" />
      <stop
         stop-color="#3bdcb3"
         offset=".122"
         id="stop17" />
      <stop
         stop-color="#1bb3d3"
         offset=".254"
         id="stop19" />
      <stop
         stop-color="#0799e6"
         offset=".358"
         id="stop21" />
      <stop
         stop-color="#0090ed"
         offset=".42"
         id="stop23" />
      <stop
         stop-color="#2482f1"
         offset=".487"
         id="stop25" />
      <stop
         stop-color="#7165fb"
         offset=".64"
         id="stop27" />
      <stop
         stop-color="#9059ff"
         offset=".71"
         id="stop29" />
      <stop
         stop-color="#7d49ed"
         offset=".795"
         id="stop31" />
      <stop
         stop-color="#7542e5"
         offset=".86"
         id="stop33" />
    </radialGradient>
    <radialGradient
       id="c"
       cx="-7937"
       cy="-8482"
       r="80.800003"
       gradientTransform="matrix(0.71846538,0,0,0.72461849,5733.066,6178.8124)"
       gradientUnits="userSpaceOnUse">
      <stop
         stop-color="#45278d"
         offset=".3"
         id="stop36" />
      <stop
         stop-color="#562896"
         stop-opacity=".787"
         offset=".341"
         id="stop38" />
      <stop
         stop-color="#782aa9"
         stop-opacity=".364"
         offset=".43"
         id="stop40" />
      <stop
         stop-color="#8d2bb5"
         stop-opacity=".1"
         offset=".495"
         id="stop42" />
      <stop
         stop-color="#952bb9"
         stop-opacity="0"
         offset=".53"
         id="stop44" />
    </radialGradient>
    <radialGradient
       id="d"
       cx="-7927"
       cy="-8533"
       r="58.5"
       gradientTransform="matrix(0.71846538,0,0,0.72461849,5733.066,6178.8124)"
       gradientUnits="userSpaceOnUse">
      <stop
         stop-color="#3fe1b0"
         offset=".132"
         id="stop47" />
      <stop
         stop-color="#28d0c8"
         offset=".289"
         id="stop49" />
      <stop
         stop-color="#00b3f4"
         offset=".526"
         id="stop51" />
    </radialGradient>
    <radialGradient
       id="e"
       cx="-7946"
       cy="-8461"
       r="38.5"
       gradientTransform="matrix(0.71846538,0,0,0.72461849,5733.066,6178.8124)"
       gradientUnits="userSpaceOnUse">
      <stop
         stop-color="#0060df"
         offset=".287"
         id="stop54" />
      <stop
         stop-color="#2357e1"
         offset=".417"
         id="stop56" />
      <stop
         stop-color="#4f4ce3"
         offset=".604"
         id="stop58" />
      <stop
         stop-color="#6b45e4"
         offset=".748"
         id="stop60" />
      <stop
         stop-color="#7542e5"
         offset=".833"
         id="stop62" />
    </radialGradient>
    <radialGradient
       id="f"
       cx="-7936"
       cy="-8492"
       r="20.4"
       gradientTransform="matrix(0.69834835,-0.17028534,0.19757798,0.82606508,7253.3388,5678.8256)"
       gradientUnits="userSpaceOnUse">
      <stop
         stop-color="#45278d"
         stop-opacity="0"
         offset=".206"
         id="stop65" />
      <stop
         stop-color="#44268a"
         stop-opacity=".055"
         offset=".251"
         id="stop67" />
      <stop
         stop-color="#371f6f"
         stop-opacity=".591"
         offset=".725"
         id="stop69" />
      <stop
         stop-color="#321c64"
         stop-opacity=".8"
         offset=".956"
         id="stop71" />
    </radialGradient>
    <radialGradient
       id="g"
       cx="-7944"
       cy="-8467"
       r="0.62599999"
       gradientTransform="matrix(0.71846538,0,0,0.72461849,5733.066,6178.8124)"
       gradientUnits="userSpaceOnUse">
      <stop
         stop-color="#3a8ee6"
         offset=".353"
         id="stop74" />
      <stop
         stop-color="#5c79f0"
         offset=".472"
         id="stop76" />
      <stop
         stop-color="#9059ff"
         offset=".669"
         id="stop78" />
      <stop
         stop-color="#c139e6"
         offset="1"
         id="stop80" />
    </radialGradient>
    <radialGradient
       id="h"
       cx="-7943"
       cy="-8467"
       r="0.22400001"
       gradientTransform="matrix(0.69834835,-0.17028534,0.19757798,0.82606508,7248.3095,5675.2025)"
       gradientUnits="userSpaceOnUse">
      <stop
         stop-color="#9059ff"
         stop-opacity="0"
         offset=".206"
         id="stop83" />
      <stop
         stop-color="#8c4ff3"
         stop-opacity=".064"
         offset=".278"
         id="stop85" />
      <stop
         stop-color="#7716a8"
         stop-opacity=".45"
         offset=".747"
         id="stop87" />
      <stop
         stop-color="#6e008b"
         stop-opacity=".6"
         offset=".975"
         id="stop89" />
    </radialGradient>
    <radialGradient
       id="i"
       cx="-7938"
       cy="-8518"
       r="27.700001"
       gradientTransform="matrix(0.71846538,0,0,0.72461849,5733.066,6178.8124)"
       gradientUnits="userSpaceOnUse">
      <stop
         stop-color="#0df"
         offset="0"
         id="stop92" />
      <stop
         stop-color="#00d6fd"
         offset=".235"
         id="stop94" />
      <stop
         stop-color="#00c3f8"
         offset=".572"
         id="stop96" />
      <stop
         stop-color="#00b3f4"
         offset=".792"
         id="stop98" />
    </radialGradient>
    <radialGradient
       id="j"
       cx="-7916"
       cy="-8536"
       r="118"
       gradientTransform="matrix(0.71846538,0,0,0.72461849,5733.066,6178.8124)"
       gradientUnits="userSpaceOnUse">
      <stop
         stop-color="#3fe1b0"
         offset=".126"
         id="stop101" />
      <stop
         stop-color="#0df"
         offset=".429"
         id="stop103" />
      <stop
         stop-color="#1ec1ff"
         offset=".479"
         id="stop105" />
      <stop
         stop-color="#7077ff"
         offset=".624"
         id="stop107" />
      <stop
         stop-color="#9059ff"
         offset=".69"
         id="stop109" />
      <stop
         stop-color="#b833e1"
         offset=".904"
         id="stop111" />
    </radialGradient>
    <radialGradient
       id="k"
       cx="-7927"
       cy="-8523"
       r="86.5"
       gradientTransform="matrix(0.07543886,0.7209954,-0.4691579,0.04999868,-3361.9874,6139.6831)"
       gradientUnits="userSpaceOnUse">
      <stop
         stop-color="#54ffbd"
         offset="0"
         id="stop114" />
      <stop
         stop-color="#4cf3b8"
         offset=".095"
         id="stop116" />
      <stop
         stop-color="#3fe1b0"
         offset=".197"
         id="stop118" />
      <stop
         stop-color="#33d8bd"
         offset=".257"
         id="stop120" />
      <stop
         stop-color="#12c0e1"
         offset=".369"
         id="stop122" />
      <stop
         stop-color="#00b3f4"
         offset=".423"
         id="stop124" />
      <stop
         stop-color="#0060df"
         offset=".737"
         id="stop126" />
    </radialGradient>
    <radialGradient
       id="l"
       cx="-7938"
       cy="-8508"
       r="73.699997"
       gradientTransform="matrix(0.71846538,0,0,0.72461849,5733.066,6178.8124)"
       gradientUnits="userSpaceOnUse">
      <stop
         stop-color="#3fe1b0"
         offset=".137"
         id="stop129" />
      <stop
         stop-color="#0df"
         offset=".435"
         id="stop131" />
      <stop
         stop-color="#1ec1ff"
         offset=".484"
         id="stop133" />
      <stop
         stop-color="#7077ff"
         offset=".622"
         id="stop135" />
      <stop
         stop-color="#9059ff"
         offset=".685"
         id="stop137" />
    </radialGradient>
    <radialGradient
       id="m"
       cx="-7919"
       cy="-8504"
       r="80.699997"
       gradientTransform="matrix(0.71846538,0,0,0.72461849,5733.066,6178.8124)"
       gradientUnits="userSpaceOnUse">
      <stop
         stop-color="#54ffbd"
         offset=".094"
         id="stop140" />
      <stop
         stop-color="#41f7cc"
         offset=".242"
         id="stop142" />
      <stop
         stop-color="#0fe3f3"
         offset=".543"
         id="stop144" />
      <stop
         stop-color="#0df"
         offset=".626"
         id="stop146" />
    </radialGradient>
    <linearGradient
       id="n"
       x1="70"
       x2="15.3"
       y1="12.1"
       y2="66.800003"
       gradientTransform="matrix(0.71846538,0,0,0.72461849,3.088986,2.1614632)"
       gradientUnits="userSpaceOnUse">
      <stop
         stop-color="#54ffbd"
         stop-opacity=".8"
         offset=".167"
         id="stop149" />
      <stop
         stop-color="#43f8ca"
         stop-opacity=".639"
         offset=".236"
         id="stop151" />
      <stop
         stop-color="#27ede1"
         stop-opacity=".368"
         offset=".361"
         id="stop153" />
      <stop
         stop-color="#12e4f1"
         stop-opacity=".169"
         offset=".466"
         id="stop155" />
      <stop
         stop-color="#05dffb"
         stop-opacity=".046"
         offset=".545"
         id="stop157" />
      <stop
         stop-color="#0df"
         stop-opacity="0"
         offset=".589"
         id="stop159" />
    </linearGradient>
  </defs>
  <g
     inkscape:label="firefox-nightly"
     inkscape:groupmode="layer"
     id="layer1">
    <path
       d="m 57.620509,21.584202 c -1.207023,-2.934705 -3.664174,-6.108533 -5.589661,-7.108507 a 28.954155,29.202124 0 0 1 2.816385,8.550497 l 0.0051,0.0471 C 51.705383,15.174952 46.37437,11.98663 41.99173,5.030293 41.771162,4.6788529 41.550593,4.3266884 41.335772,3.9578575 41.212915,3.7455443 41.114486,3.554245 41.028988,3.3781628 a 5.0651809,5.1085602 0 0 1 -0.415274,-1.1159125 0.07184653,0.07246185 0 0 0 -0.06323,-0.072461 0.09914822,0.09999735 0 0 0 -0.05246,0 c -0.0036,0 -0.0093,0.00652 -0.01365,0.00797 -0.0043,0.00145 -0.01365,0.00797 -0.02012,0.010869 l 0.01078,-0.01884 C 33.477197,6.3201139 31.135,14.001069 30.919461,17.769086 a 13.938228,14.057598 0 0 0 -7.68758,2.978181 8.3341984,8.4055744 0 0 0 -0.718464,-0.54926 12.932377,13.043133 0 0 1 -0.07831,-6.862137 20.619957,20.796551 0 0 0 -6.703282,5.224499 h -0.01293 C 14.612456,17.147364 14.691487,12.495313 14.75615,11.524324 a 4.9789651,5.0216061 0 0 0 -0.926822,0.497812 20.260724,20.434241 0 0 0 -2.722982,2.347765 24.28413,24.492104 0 0 0 -2.6008455,3.152089 v 0.0043 -0.0051 a 23.493818,23.695024 0 0 0 -3.73602,8.478035 l -0.03736,0.185503 c -0.052449,0.247094 -0.2414044,1.485467 -0.2737353,1.753576 0,0.02102 -0.00432,0.04058 -0.00647,0.06159 A 26.511372,26.738422 0 0 0 4,31.869437 v 0.144924 a 27.876457,28.115197 0 0 0 55.321834,4.746251 c 0.0467,-0.36231 0.08477,-0.720995 0.12645,-1.086929 A 28.666769,28.912278 0 0 0 57.644936,21.543624 Z m -32.115403,21.95594 c 0.130042,0.06304 0.252181,0.131155 0.385815,0.1913 l 0.0194,0.01231 Q 25.70771,43.645922 25.505103,43.540137 Z M 31.885079,26.58407 m 22.990892,-3.572369 v -0.02681 l 0.0051,0.02971 z"
       style="fill:url(#a);stroke-width:0.721536"
       id="path164"
       inkscape:connector-curvature="0" />
    <path
       d="m 54.890341,23.105901 -0.0051,-0.02971 v 0.02681 z"
       style="fill:none;stroke-width:0.721536"
       id="path166"
       inkscape:connector-curvature="0" />
    <path
       d="m 57.620509,21.584202 c -1.207023,-2.934705 -3.664174,-6.108533 -5.589661,-7.108507 a 28.954155,29.202124 0 0 1 2.816385,8.550497 V 23.053 l 0.0051,0.02971 A 25.218136,25.434108 0 0 1 53.982964,42.067717 C 50.792932,48.973331 43.062244,56.052855 30.992026,55.690545 17.915956,55.317366 6.4205098,45.545886 4.2651138,32.72014 c -0.3915637,-2.021686 0,-3.043399 0.1968594,-4.681037 a 20.763649,20.941474 0 0 0 -0.4476038,3.876709 v 0.144925 a 27.876457,28.115197 0 0 0 55.3218346,4.746251 c 0.0467,-0.362309 0.08478,-0.720996 0.126449,-1.086928 A 28.666769,28.912278 0 0 0 57.659306,21.589999 Z"
       style="fill:url(#b);stroke-width:0.721536"
       id="path168"
       inkscape:connector-curvature="0" />
    <path
       d="m 57.620509,21.584202 c -1.207023,-2.934705 -3.664174,-6.108533 -5.589661,-7.108507 a 28.954155,29.202124 0 0 1 2.816385,8.550497 V 23.053 l 0.0051,0.02971 A 25.218136,25.434108 0 0 1 53.982964,42.067717 C 50.792932,48.973331 43.062244,56.052855 30.992026,55.690545 17.915956,55.317366 6.4205098,45.545886 4.2651138,32.72014 c -0.3915637,-2.021686 0,-3.043399 0.1968594,-4.681037 a 20.763649,20.941474 0 0 0 -0.4476038,3.876709 v 0.144925 a 27.876457,28.115197 0 0 0 55.3218346,4.746251 c 0.0467,-0.362309 0.08478,-0.720996 0.126449,-1.086928 A 28.666769,28.912278 0 0 0 57.659306,21.589999 Z"
       style="fill:url(#c);stroke-width:0.721536"
       id="path170"
       inkscape:connector-curvature="0" />
    <path
       d="m 44.113359,24.917447 c 0.06035,0.04276 0.116391,0.0855 0.17315,0.128257 A 15.15962,15.28945 0 0 0 41.700034,21.639997 C 33.078448,12.944576 39.429683,2.7274554 40.507382,2.2202225 l 0.01078,-0.015942 c -6.997851,4.1303251 -9.340048,11.8112815 -9.555586,15.5792965 0.324746,-0.02246 0.646618,-0.05 0.977112,-0.05 a 14.081921,14.202522 0 0 1 12.213911,7.188215 z"
       style="fill:url(#d);stroke-width:0.721536"
       id="path172"
       inkscape:connector-curvature="0" />
    <path
       d="m 31.899448,26.656531 c -0.04599,0.698532 -2.493076,3.108613 -3.348049,3.108613 -7.903119,0 -9.196357,4.833207 -9.196357,4.833207 0.350611,4.065109 3.161248,7.391107 6.559589,9.202653 0.155188,0.08117 0.312533,0.154344 0.469876,0.226082 q 0.408807,0.182603 0.819051,0.337671 a 12.357604,12.463438 0 0 0 3.621065,0.705055 c 13.866382,0.656505 16.59655,-16.738688 6.552405,-21.811017 a 9.6274361,9.7098877 0 0 1 6.710466,1.644884 14.081921,14.202522 0 0 0 -12.21391,-7.188215 c -0.330495,0 -0.653805,0.02754 -0.977114,0.05 a 13.938228,14.057598 0 0 0 -7.68758,2.978181 c 0.424613,0.362309 0.905266,0.847804 1.911118,1.847778 1.889564,1.876762 6.739206,3.825986 6.74639,4.050617 z"
       style="fill:url(#e);stroke-width:0.721536"
       id="path174"
       inkscape:connector-curvature="0" />
    <path
       d="m 31.899448,26.656531 c -0.04599,0.698532 -2.493076,3.108613 -3.348049,3.108613 -7.903119,0 -9.196357,4.833207 -9.196357,4.833207 0.350611,4.065109 3.161248,7.391107 6.559589,9.202653 0.155188,0.08117 0.312533,0.154344 0.469876,0.226082 q 0.408807,0.182603 0.819051,0.337671 a 12.357604,12.463438 0 0 0 3.621065,0.705055 c 13.866382,0.656505 16.59655,-16.738688 6.552405,-21.811017 a 9.6274361,9.7098877 0 0 1 6.710466,1.644884 14.081921,14.202522 0 0 0 -12.21391,-7.188215 c -0.330495,0 -0.653805,0.02754 -0.977114,0.05 a 13.938228,14.057598 0 0 0 -7.68758,2.978181 c 0.424613,0.362309 0.905266,0.847804 1.911118,1.847778 1.889564,1.876762 6.739206,3.825986 6.74639,4.050617 z"
       style="fill:url(#f);stroke-width:0.721536"
       id="path176"
       inkscape:connector-curvature="0" />
    <path
       d="m 25.505106,43.612604 q 0.202607,0.105069 0.405214,0.203618 l -0.0194,-0.01231 c -0.131479,-0.06015 -0.255773,-0.128258 -0.385815,-0.191299 z"
       style="fill:url(#g);stroke-width:0.721536"
       id="path178"
       inkscape:connector-curvature="0" />
    <path
       d="m 25.505106,43.612604 q 0.202607,0.105069 0.405214,0.203618 l -0.0194,-0.01231 c -0.131479,-0.06015 -0.255773,-0.128258 -0.385815,-0.191299 z"
       style="fill:url(#h);stroke-width:0.721536"
       id="path180"
       inkscape:connector-curvature="0" />
    <path
       d="m 21.984625,19.845118 c 0.225598,0.144924 0.411681,0.271006 0.574773,0.384772 a 12.932377,13.043133 0 0 1 -0.07831,-6.862137 20.619957,20.796551 0 0 0 -6.703282,5.2245 c 0.13579,-0.0036 4.174284,-0.07681 6.207541,1.253589 z"
       style="fill:url(#i);stroke-width:0.721536"
       id="path182"
       inkscape:connector-curvature="0" />
    <path
       d="M 4.2773277,32.743327 C 6.4255391,45.569074 17.928169,55.351424 31.00424,55.713732 43.074458,56.058651 50.833884,48.982027 53.995132,42.090905 a 25.218136,25.434108 0 0 0 0.869343,-18.985004 v -0.02681 c 0,-0.02102 -0.0043,-0.03333 0,-0.02681 l 0.0051,0.0471 c 0.991482,6.507075 -2.291905,12.825748 -7.400195,17.100996 l -0.01581,0.03624 C 37.466901,48.424806 27.911311,45.185761 25.971454,43.85971 Q 25.768847,43.76188 25.56624,43.656091 C 19.739437,40.844558 17.30384,35.467889 17.878612,30.902792 A 7.1487305,7.2099539 0 0 1 11.2831,26.714498 10.489594,10.57943 0 0 1 21.485308,26.300016 13.866382,13.985137 0 0 0 31.974903,26.714498 C 31.964113,26.486246 27.11806,24.540646 25.228497,22.663884 24.222645,21.66391 23.741273,21.178416 23.317378,20.816107 A 8.3341984,8.4055744 0 0 0 22.598913,20.266846 C 22.433666,20.153081 22.247584,20.029896 22.024142,19.882074 19.990885,18.548775 15.953109,18.621237 15.8166,18.628483 h -0.01293 c -1.106437,-1.413006 -1.027405,-6.065057 -0.962743,-7.036044 a 4.9789651,5.0216061 0 0 0 -0.926822,0.497812 20.260724,20.434241 0 0 0 -2.722983,2.347763 24.28413,24.492104 0 0 0 -2.615214,3.144845 v 0.0043 -0.0051 a 23.493818,23.695024 0 0 0 -3.7360199,8.478037 c -0.013651,0.05724 -1.0058516,4.420173 -0.5151398,6.680981 z"
       style="fill:url(#j);stroke-width:0.721536"
       id="path184"
       inkscape:connector-curvature="0" />
    <path
       d="M 31.899448,26.656531 H 31.89873 Z"
       style="fill:#ff4aa2;stroke-width:0.721536"
       id="path186"
       inkscape:connector-curvature="0" />
    <path
       d="m 41.670577,21.656664 a 15.15962,15.28945 0 0 1 2.586476,3.405707 c 0.153032,0.116664 0.296007,0.232603 0.417428,0.344918 6.315311,5.86941 3.003184,14.202523 2.758906,14.782217 5.129844,-4.260757 8.406045,-10.57943 7.400194,-17.100996 C 51.686703,15.190168 46.35569,12.001848 41.973051,5.0455099 41.752483,4.6940699 41.531914,4.3419054 41.317092,3.9730746 41.194235,3.7607613 41.095804,3.569462 41.010307,3.3933798 a 5.0651809,5.1085602 0 0 1 -0.415273,-1.1159125 0.07184653,0.07246185 0 0 0 -0.06322,-0.072462 0.09914822,0.09999735 0 0 0 -0.05245,0 c -0.0036,0 -0.0093,0.00652 -0.01365,0.00797 -0.0043,0.00145 -0.01365,0.00797 -0.02012,0.010869 C 39.367895,2.739049 32.973553,12.9482 41.638246,21.643621 Z"
       style="fill:url(#k);stroke-width:0.721536"
       id="path188"
       inkscape:connector-curvature="0" />
    <path
       d="m 44.688132,25.352218 c -0.121421,-0.112316 -0.264396,-0.228255 -0.417428,-0.344917 -0.05676,-0.04276 -0.1128,-0.0855 -0.173151,-0.128259 a 9.6274361,9.7098877 0 0 0 -6.710466,-1.644884 c 9.986668,5.05059 7.328346,22.463173 -6.552405,21.811017 a 12.357604,12.463438 0 0 1 -3.621065,-0.705054 q -0.408808,-0.154344 -0.819052,-0.337672 c -0.157343,-0.07246 -0.314686,-0.144925 -0.469875,-0.226082 l 0.0194,0.01231 c 1.932671,1.333298 11.495445,4.586835 21.482115,-3.623093 l 0.01581,-0.03623 c 0.249306,-0.586942 3.556403,-8.912807 -2.758908,-14.782218 z"
       style="fill:url(#l);stroke-width:0.721536"
       id="path190"
       inkscape:connector-curvature="0" />
    <path
       d="m 19.39815,34.554873 c 0,0 1.286053,-4.833205 9.196357,-4.833205 0.854973,0 3.304941,-2.405734 3.348048,-3.108613 a 13.866382,13.985137 0 0 1 -10.489594,-0.414483 10.489594,10.57943 0 0 0 -10.202208,0.414483 7.1487305,7.2099539 0 0 0 6.595512,4.188294 c -0.515859,4.594082 1.889564,9.927273 7.68758,12.753285 0.130042,0.06304 0.252181,0.131156 0.385815,0.1913 -3.398341,-1.768069 -6.20754,-5.123053 -6.559589,-9.202655 z"
       style="fill:url(#m);stroke-width:0.721536"
       id="path192"
       inkscape:connector-curvature="0" />
    <path
       d="m 38.653022,30.062238 -7.18e-4,7.25e-4 z"
       style="fill:#ff4aa2;stroke-width:0.721536"
       id="path194"
       inkscape:connector-curvature="0" />
    <path
       d="m 57.620509,21.584202 c -1.207023,-2.934705 -3.664174,-6.108533 -5.589661,-7.108507 a 28.954155,29.202124 0 0 1 2.816385,8.550497 l 0.0051,0.0471 C 51.705383,15.174952 46.37437,11.98663 41.99173,5.030293 41.771162,4.6788529 41.550593,4.3266884 41.335772,3.9578575 41.212915,3.7455443 41.114486,3.554245 41.028988,3.3781628 a 5.0651809,5.1085602 0 0 1 -0.415274,-1.1159125 0.07184653,0.07246185 0 0 0 -0.06323,-0.072461 0.09914822,0.09999735 0 0 0 -0.05246,0 c -0.0036,0 -0.0093,0.00652 -0.01365,0.00797 -0.0043,0.00145 -0.01365,0.00797 -0.02012,0.010869 l 0.01078,-0.01884 c -6.997849,4.130321 -9.340046,11.8112767 -9.555585,15.5792927 0.324747,-0.02246 0.646619,-0.05 0.977113,-0.05 a 14.081921,14.202522 0 0 1 12.213911,7.188214 9.6274361,9.7098877 0 0 0 -6.710467,-1.644883 c 9.986669,5.05059 7.328348,22.463172 -6.552404,21.811015 A 12.357604,12.463438 0 0 1 27.226535,44.36838 q -0.408806,-0.154343 -0.81905,-0.337671 c -0.157344,-0.07246 -0.314688,-0.144924 -0.469876,-0.226081 l 0.0194,0.01231 q -0.202607,-0.09782 -0.405214,-0.203618 c 0.130043,0.06304 0.252182,0.131155 0.385816,0.191299 -3.398341,-1.775315 -6.207541,-5.123053 -6.559589,-9.202655 0,0 1.286053,-4.833205 9.196357,-4.833205 0.854973,0 3.304941,-2.405734 3.348048,-3.108614 -0.01078,-0.228254 -4.856826,-2.173855 -6.74639,-4.050618 -1.005851,-0.999972 -1.487223,-1.485466 -1.911117,-1.847775 a 8.3341984,8.4055744 0 0 0 -0.718466,-0.549261 12.932377,13.043133 0 0 1 -0.07831,-6.862138 20.619957,20.796551 0 0 0 -6.703282,5.2245 h -0.01293 c -1.106438,-1.413007 -1.027406,-6.065057 -0.962745,-7.036046 a 4.9789651,5.0216061 0 0 0 -0.926821,0.497813 20.260724,20.434241 0 0 0 -2.722983,2.347763 24.28413,24.492104 0 0 0 -2.6008444,3.152091 v 0.0043 -0.0051 a 23.493818,23.695024 0 0 0 -3.73602,8.478036 l -0.03736,0.185503 c -0.052449,0.247094 -0.2873863,1.49996 -0.321154,1.768069 a 32.402789,32.680293 0 0 0 -0.4109622,3.91294 v 0.144924 a 27.876457,28.115197 0 0 0 55.3218336,4.746251 c 0.0467,-0.362309 0.08477,-0.720995 0.12645,-1.086928 A 28.666769,28.912278 0 0 0 57.677973,21.554493 Z m -2.758907,1.44199 0.0051,0.02971 z"
       style="fill:url(#n);stroke-width:0.721536"
       id="path196"
       inkscape:connector-curvature="0" />
  </g>
</svg>
