<?xml version="1.0" encoding="UTF-8" standalone="no"?>
<!-- Created with Inkscape (http://www.inkscape.org/) -->

<svg
   width="64"
   height="64"
   viewBox="0 0 64 64"
   version="1.1"
   id="svg1"
   inkscape:version="1.4-dev (1:1.4.0-dev+202403210151+2fe0648968)"
   sodipodi:docname="github.svg"
   xmlns:inkscape="http://www.inkscape.org/namespaces/inkscape"
   xmlns:sodipodi="http://sodipodi.sourceforge.net/DTD/sodipodi-0.dtd"
   xmlns="http://www.w3.org/2000/svg"
   xmlns:svg="http://www.w3.org/2000/svg">
  <sodipodi:namedview
     id="namedview1"
     pagecolor="#ffffff"
     bordercolor="#000000"
     borderopacity="0.25"
     inkscape:showpageshadow="2"
     inkscape:pageopacity="0.0"
     inkscape:pagecheckerboard="0"
     inkscape:deskcolor="#d1d1d1"
     inkscape:document-units="px"
     inkscape:zoom="8.8940775"
     inkscape:cx="39.183378"
     inkscape:cy="34.123831"
     inkscape:window-width="1920"
     inkscape:window-height="1010"
     inkscape:window-x="0"
     inkscape:window-y="0"
     inkscape:window-maximized="1"
     inkscape:current-layer="layer1" />
  <defs
     id="defs1">
    <linearGradient
       id="linear0"
       gradientUnits="userSpaceOnUse"
       x1="2.3059001"
       y1="1.7146"
       x2="29.694901"
       y2="29.104601"
       gradientTransform="scale(2)">
      <stop
         offset="0"
         style="stop-color:rgb(15.686275%,68.627451%,91.764706%);stop-opacity:1;"
         id="stop1" />
      <stop
         offset="1"
         style="stop-color:rgb(51.372549%,54.509804%,89.411765%);stop-opacity:1;"
         id="stop2" />
    </linearGradient>
    <linearGradient
       id="rL2wppHyxHVbobwndsT6Ca"
       x1="24.237274"
       x2="13.445683"
       y1="34.089581"
       y2="14.513655"
       gradientUnits="userSpaceOnUse"
       gradientTransform="matrix(1.405606,0,0,1.405606,-1.7345361,-1.7346055)">
      <stop
         offset="0"
         stop-color="#4c4c4c"
         id="stop1-7"
         style="stop-color:#4e237d;stop-opacity:1;" />
      <stop
         offset="1"
         stop-color="#343434"
         id="stop2-3"
         style="stop-color:#9f41ac;stop-opacity:1;" />
    </linearGradient>
  </defs>
  <g
     inkscape:label="github"
     inkscape:groupmode="layer"
     id="layer1">
    <path
       fill="url(#rL2wppHyxHVbobwndsT6Ca)"
       d="m 32.000008,3.8878185 c -15.526325,0 -28.11212,12.5857965 -28.11212,28.1121215 0,12.491622 8.153919,23.067402 19.425475,26.729005 H 40.686654 C 51.958209,55.067342 60.112133,44.491562 60.112133,31.99994 c 0,-15.526325 -12.5858,-28.1121215 -28.112125,-28.1121215 z"
       id="path2-6"
       style="fill:url(#rL2wppHyxHVbobwndsT6Ca);stroke-width:1.4056"
       inkscape:label="path1" />
    <path
       d="m 40.447698,57.295228 -0.01402,-8.149706 c 0,-1.319864 -0.309231,-2.608805 -0.902401,-3.776863 7.929032,-1.592552 11.78742,-6.280248 11.78742,-14.304855 0,-3.169638 -0.93473,-5.968201 -2.777482,-8.321186 0.140558,-0.445577 0.244577,-0.906615 0.309232,-1.378901 0.264256,-1.924273 -0.03236,-3.18229 -0.271279,-4.194326 l -0.03796,-0.163051 c -0.261433,-1.118862 -0.57488,-1.917248 -0.58753,-1.950982 l -0.156024,-0.396381 -0.156019,-0.396379 -0.424498,-0.04499 -0.425901,-0.04498 c 0,0 -0.279711,-0.02953 -0.704206,-0.02953 -0.588954,0 -1.461835,0.05903 -2.286919,0.33875 l -0.275506,0.09277 c -1.040141,0.349996 -2.02266,0.681719 -3.397342,1.502594 -0.40201,0.240358 -0.841961,0.514452 -1.312844,0.820875 -2.12808,-0.527105 -4.417812,-0.795574 -6.814378,-0.795574 -2.420453,0 -4.729861,0.269876 -6.872005,0.802601 C 24.65154,16.595895 24.208775,16.31899 23.80396,16.077226 22.429278,15.256351 21.446759,14.926034 20.40661,14.574632 l -0.275498,-0.09277 c -0.822281,-0.279716 -1.696569,-0.338751 -2.285516,-0.338751 -0.424494,0 -0.704209,0.02953 -0.704209,0.02953 l -0.424493,0.04498 -0.421682,0.04358 -0.157427,0.394975 -0.158834,0.397787 c -0.01406,0.03654 -0.327507,0.834928 -0.588951,1.955198 l -0.03795,0.161644 c -0.238952,1.010632 -0.535536,2.270054 -0.271283,4.192921 0.06747,0.486342 0.175702,0.962841 0.323291,1.421068 -1.806205,2.341741 -2.721254,5.12484 -2.721254,8.27902 0,8.004927 3.862606,12.689812 11.802874,14.295015 -0.272686,0.545375 -0.484934,1.121674 -0.635333,1.720461 -0.276906,0.09418 -0.531318,0.157429 -0.756217,0.19257 -0.334533,0.0506 -0.684529,0.0759 -1.038742,0.0759 -0.964247,0 -1.721868,-0.188352 -2.017047,-0.364052 -0.439953,-0.261444 -1.225686,-1.021877 -1.987526,-2.133711 -0.650797,-0.948783 -1.665642,-2.189933 -2.799968,-2.708603 -0.981111,-0.448387 -2.019853,-0.705613 -2.851973,-0.705613 -0.193974,0 -0.372487,0.01406 -0.528508,0.03936 -0.726698,0.115259 -1.33392,0.514451 -1.664238,1.096371 -0.2853366,0.501802 -0.3303161,1.086535 -0.123693,1.603798 0.307828,0.770273 1.19617,1.384524 1.887729,1.764035 0.340155,0.186946 1.075289,0.870071 1.503998,1.558817 0.321884,0.517262 0.470879,0.885532 0.677504,1.394362 0.122287,0.302204 0.257225,0.631116 0.439953,1.028902 0.660635,1.436531 2.72266,2.704386 2.95599,2.843541 1.132918,0.678908 3.037514,0.896778 4.437499,0.96003 l 0.172888,0.0042 c 0,0 0.0013,0 0.0013,0 0.337343,0 0.801194,-0.03233 1.411226,-0.0998 v 3.672852 c 0.0028,0.743564 -0.754809,0.912236 -1.757006,0.896775 l 0.768866,0.25863 c 2.944791,1.052859 6.107408,1.654458 9.417612,1.654458 3.310202,0 6.472816,-0.601599 9.421774,-1.652993 L 42.40991,58.09085 c -0.999387,-0.03373 -1.953788,-0.196784 -1.962222,-0.795572 z"
       opacity="0.05"
       id="path3"
       style="stroke-width:1.4056" />
    <path
       d="m 41.531419,58.421117 c -0.570672,0.06606 -1.80058,-0.153211 -1.80058,-1.117458 v -8.158137 c 0,-1.537733 -0.461035,-3.023457 -1.31565,-4.289909 8.314165,-1.345165 12.199256,-5.753146 12.199256,-13.791809 0,-3.144338 -0.964238,-5.89511 -2.866024,-8.183436 0.192562,-0.513047 0.3275,-1.054204 0.404815,-1.612231 0.245978,-1.793554 -0.02246,-2.932094 -0.258638,-3.937102 l -0.03795,-0.163051 c -0.2502,-1.069664 -0.545377,-1.82307 -0.558027,-1.853992 l -0.156023,-0.396381 -0.425897,-0.04498 c 0,0 -0.250195,-0.0267 -0.631122,-0.0267 -0.535535,0 -1.326885,0.052 -2.06061,0.302205 l -0.275507,0.09279 c -1.003602,0.33875 -1.952386,0.657822 -3.262405,1.439341 -0.466663,0.278309 -0.986734,0.605816 -1.547572,0.97549 -2.154794,-0.56365 -4.486694,-0.850393 -6.93948,-0.850393 -2.476675,0 -4.828256,0.28815 -6.998511,0.857421 -0.566466,-0.372498 -1.089348,-0.701408 -1.558823,-0.98253 -1.310025,-0.781517 -2.258809,-1.101995 -3.262411,-1.439339 l -0.275499,-0.09277 c -0.73232,-0.248792 -1.525081,-0.302206 -2.060617,-0.302206 -0.380921,0 -0.631119,0.02671 -0.631119,0.02671 l -0.424493,0.04498 -0.158832,0.397786 c -0.01264,0.03092 -0.307829,0.784327 -0.558026,1.853994 l -0.03795,0.163051 c -0.237546,1.00501 -0.506017,2.142143 -0.25863,3.935697 0.07873,0.572081 0.219273,1.125889 0.41887,1.650181 -1.865241,2.277082 -2.809806,5.013799 -2.809806,8.145486 0,8.016174 3.887905,12.422749 12.209093,13.783374 -0.555213,0.829307 -0.943162,1.764035 -1.142758,2.76061 -0.46385,0.182729 -0.884126,0.303612 -1.252395,0.359835 -0.369675,0.05622 -0.75481,0.08434 -1.144163,0.08434 -0.969868,0 -1.901784,-0.181323 -2.375475,-0.462443 -0.618465,-0.366863 -1.485724,-1.284724 -2.209612,-2.340334 -0.49196,-0.71686 -1.471671,-1.991744 -2.513224,-2.46684 -0.89256,-0.407625 -1.824475,-0.642361 -2.559609,-0.642361 -0.154616,0 -0.295178,0.01124 -0.41887,0.03092 -0.514452,0.08152 -0.938945,0.354212 -1.163841,0.750594 -0.179917,0.314858 -0.209436,0.678908 -0.08295,0.99517 0.251603,0.62971 1.18352,1.194764 1.572873,1.408417 0.470877,0.25863 1.291751,1.04577 1.762629,1.804798 0.352809,0.567863 0.520076,0.979707 0.732322,1.499781 0.119476,0.293773 0.250196,0.614251 0.427303,1.000792 0.465258,1.01063 1.901785,2.069052 2.67768,2.534308 1.059827,0.635333 3.027676,0.81244 4.10718,0.860231 l 0.156023,0.0028 c 0.420276,0 1.124484,-0.06326 2.101382,-0.189757 v 4.46561 c 0,1.094968 -1.392956,1.138542 -1.734519,1.138542 -0.04358,0 0.707021,0.258632 0.707021,0.258632 2.759204,0.905208 5.698329,1.411227 8.75974,1.411227 3.061409,0 6.000531,-0.506019 8.758331,-1.409823 0,0 0.81665,-0.286743 0.77308,-0.281121 z"
       opacity="0.07"
       id="path4"
       style="stroke-width:1.4056" />
    <path
       fill="#ffffff"
       d="m 49.913052,31.063804 c 0,-3.246948 -1.099186,-5.940089 -2.975672,-8.05131 0.203821,-0.456821 0.416063,-1.069666 0.521484,-1.839937 0.24176,-1.757009 -0.04354,-2.811213 -0.285343,-3.842927 -0.241761,-1.031715 -0.527102,-1.757009 -0.527102,-1.757009 0,0 -1.295964,-0.132126 -2.39374,0.241764 -1.097785,0.373892 -2.042352,0.65923 -3.404385,1.471671 -0.636739,0.379514 -1.277696,0.795572 -1.785117,1.132918 -2.168846,-0.6016 -4.554163,-0.910833 -7.063169,-0.910833 -2.531494,0 -4.937893,0.310639 -7.122206,0.916455 -0.508829,-0.33875 -1.154002,-0.757621 -1.794958,-1.139947 -1.362032,-0.812441 -2.3066,-1.097777 -3.404379,-1.471668 -1.097778,-0.373892 -2.393746,-0.241764 -2.393746,-0.241764 0,0 -0.285338,0.725292 -0.527103,1.757007 -0.241765,1.031714 -0.527101,2.08592 -0.285338,3.842927 0.108233,0.78995 0.327507,1.41404 0.536941,1.873672 -1.841342,2.098571 -2.920848,4.774845 -2.920848,8.017577 0,8.409743 4.542918,12.248453 12.820531,13.261893 -0.965651,1.020471 -1.613635,2.327685 -1.831505,3.782486 -0.543967,0.238953 -1.170867,0.463849 -1.773873,0.55381 -1.55179,0.234734 -3.192131,0 -3.982083,-0.468067 -0.789951,-0.468067 -1.727489,-1.522271 -2.430292,-2.548363 -0.593166,-0.865854 -1.44918,-1.870861 -2.225074,-2.225074 -1.024687,-0.468068 -2.021262,-0.643769 -2.576475,-0.556622 -0.556621,0.08856 -0.819469,0.497586 -0.702805,0.791357 0.116667,0.292366 0.673285,0.73232 1.259424,1.054205 0.586139,0.321882 1.494159,1.200387 2.021261,2.049373 0.587543,0.947378 0.702803,1.494159 1.200387,2.576476 0.349998,0.761837 1.547573,1.713434 2.400776,2.225075 0.732321,0.439953 2.195555,0.690153 3.778269,0.761839 0.546782,0.0253 1.838533,-0.134939 2.927878,-0.289555 v 5.271022 c 0,0.898181 -0.82228,1.581307 -1.674077,1.423878 2.733904,0.919267 5.653349,1.385928 8.699295,1.385928 3.044543,0 5.963982,-0.466661 8.700697,-1.383116 -0.850384,0.156022 -1.672664,-0.527104 -1.672664,-1.425286 v -8.158137 c 0,-1.86805 -0.740758,-3.556183 -1.9299,-4.814201 8.217175,-0.986734 12.814911,-4.734079 12.814911,-13.267517 z M 14.063069,44.266663 c -0.216464,-0.111042 -0.333127,-0.31626 -0.260036,-0.461038 0.0731,-0.144777 0.309232,-0.171483 0.525695,-0.06044 0.216465,0.111043 0.33313,0.316262 0.260038,0.46104 -0.0731,0.144777 -0.309233,0.171483 -0.525697,0.06043 z m 1.703596,1.061235 c -0.113855,0.123692 -0.35843,0.08433 -0.546781,-0.08714 -0.188352,-0.171487 -0.248793,-0.411844 -0.134939,-0.535537 0.113854,-0.123693 0.358429,-0.08434 0.546783,0.08714 0.188348,0.171482 0.24879,0.411842 0.134937,0.535538 z m 1.059826,1.757007 c -0.143373,0.101206 -0.386542,0.0071 -0.542564,-0.210841 -0.156023,-0.217868 -0.165861,-0.477906 -0.02249,-0.57911 0.143371,-0.101207 0.38654,-0.0071 0.542565,0.210841 0.154613,0.217869 0.16586,0.477906 0.02248,0.57911 z m 1.522271,1.322674 c -0.09697,0.157428 -0.372485,0.164456 -0.61425,0.01687 -0.241764,-0.147588 -0.359834,-0.394976 -0.262848,-0.552404 0.09697,-0.157427 0.372487,-0.164454 0.614251,-0.01687 0.241764,0.147589 0.359835,0.394974 0.262847,0.552404 z m 1.43934,1.294564 c -0.299394,-0.03654 -0.521478,-0.223491 -0.496178,-0.417465 0.0239,-0.193975 0.286744,-0.320478 0.584732,-0.283933 0.299393,0.03654 0.52148,0.223491 0.496179,0.417466 -0.0239,0.192566 -0.285338,0.320477 -0.584733,0.283932 z m 2.320656,0.335938 c -0.319073,-0.01828 -0.567865,-0.201 -0.555213,-0.406219 0.01267,-0.205219 0.281121,-0.35843 0.600194,-0.340158 0.319072,0.01827 0.567863,0.201004 0.555214,0.406222 -0.01265,0.206624 -0.281121,0.35843 -0.600195,0.340155 z m 2.189935,-0.219272 c -0.340157,0 -0.615657,-0.177108 -0.615657,-0.394976 0,-0.217868 0.2755,-0.394975 0.615657,-0.394975 0.340157,0 0.615656,0.177107 0.615656,0.394975 0,0.217868 -0.276905,0.394976 -0.615656,0.394976 z"
       id="path5"
       style="stroke-width:1.4056" />
  </g>
</svg>
