<?xml version="1.0" encoding="UTF-8" standalone="no"?>
<!-- Created with Inkscape (http://www.inkscape.org/) -->

<svg
   width="64mm"
   height="64mm"
   viewBox="0 0 64 64"
   version="1.1"
   id="svg1"
   xml:space="preserve"
   inkscape:version="1.4.2 (1:1.4.2+202505120737+ebf0e940d0)"
   sodipodi:docname="instagram.svg"
   xmlns:inkscape="http://www.inkscape.org/namespaces/inkscape"
   xmlns:sodipodi="http://sodipodi.sourceforge.net/DTD/sodipodi-0.dtd"
   xmlns="http://www.w3.org/2000/svg"
   xmlns:svg="http://www.w3.org/2000/svg"><sodipodi:namedview
     id="namedview1"
     pagecolor="#ffffff"
     bordercolor="#000000"
     borderopacity="0.25"
     inkscape:showpageshadow="2"
     inkscape:pageopacity="0.0"
     inkscape:pagecheckerboard="0"
     inkscape:deskcolor="#d1d1d1"
     inkscape:document-units="mm"
     inkscape:zoom="2.0560856"
     inkscape:cx="107.72898"
     inkscape:cy="115.75394"
     inkscape:window-width="1920"
     inkscape:window-height="1015"
     inkscape:window-x="0"
     inkscape:window-y="0"
     inkscape:window-maximized="1"
     inkscape:current-layer="layer1" /><defs
     id="defs1"><linearGradient
       id="linear2-2"
       gradientUnits="userSpaceOnUse"
       x1="-13.9403"
       y1="28.222099"
       x2="-9.1443996"
       y2="25.453199"
       gradientTransform="matrix(6.6031605,0,0,-6.6031605,106.79222,226.59517)"><stop
         offset="0"
         style="stop-color:#0e70d2;stop-opacity:1;"
         id="stop12-9" /><stop
         offset="1"
         style="stop-color:#0c5ab1;stop-opacity:1;"
         id="stop14-1" /></linearGradient><linearGradient
       id="linear0"
       gradientUnits="userSpaceOnUse"
       x1="2.3059001"
       y1="1.7146"
       x2="29.694901"
       y2="29.104601"
       gradientTransform="scale(2)"><stop
         offset="0"
         style="stop-color:rgb(15.686275%,68.627451%,91.764706%);stop-opacity:1;"
         id="stop1" /><stop
         offset="1"
         style="stop-color:rgb(51.372549%,54.509804%,89.411765%);stop-opacity:1;"
         id="stop2" /></linearGradient><linearGradient
       id="linear0-7"
       gradientUnits="userSpaceOnUse"
       x1="2.3055999"
       y1="1.7148"
       x2="29.695101"
       y2="29.1043"
       gradientTransform="scale(2)"><stop
         offset="0"
         style="stop-color:rgb(35.294118%,35.294118%,35.294118%);stop-opacity:1;"
         id="stop1-5" /><stop
         offset="1"
         style="stop-color:rgb(7.843137%,7.843137%,7.843137%);stop-opacity:1;"
         id="stop2-3" /></linearGradient><linearGradient
       id="linear1"
       gradientUnits="userSpaceOnUse"
       x1="13.1592"
       y1="21.840799"
       x2="25.251101"
       y2="33.932701"
       gradientTransform="scale(2)"><stop
         offset="0"
         style="stop-color:rgb(1.176471%,46.27451%,82.352941%);stop-opacity:1;"
         id="stop3" /><stop
         offset="1"
         style="stop-color:rgb(24.705882%,30.196078%,60.392157%);stop-opacity:1;"
         id="stop4" /></linearGradient><linearGradient
       id="linear2"
       gradientUnits="userSpaceOnUse"
       x1="5.2323999"
       y1="18.291"
       x2="23.089399"
       y2="36.148102"
       gradientTransform="scale(2)"><stop
         offset="0"
         style="stop-color:rgb(16.470588%,68.235294%,91.764706%);stop-opacity:1;"
         id="stop5" /><stop
         offset="1"
         style="stop-color:rgb(64.705882%,50.980392%,89.019608%);stop-opacity:1;"
         id="stop6" /></linearGradient><radialGradient
       id="TGwjmZMm2W~B4yrgup6jdb"
       cx="18.51"
       cy="66.292999"
       r="69.648003"
       gradientTransform="matrix(0.75694229,-0.90033198,0.59473197,0.50004067,-37.156666,53.595608)"
       gradientUnits="userSpaceOnUse"><stop
         offset=".073"
         stop-color="#eacc7b"
         id="stop7" /><stop
         offset=".184"
         stop-color="#ecaa59"
         id="stop8" /><stop
         offset=".307"
         stop-color="#ef802e"
         id="stop9" /><stop
         offset=".358"
         stop-color="#ef6d3a"
         id="stop10" /><stop
         offset=".46"
         stop-color="#f04b50"
         id="stop11" /><stop
         offset=".516"
         stop-color="#f03e58"
         id="stop12" /><stop
         offset=".689"
         stop-color="#db359e"
         id="stop13" /><stop
         offset=".724"
         stop-color="#ce37a4"
         id="stop14" /><stop
         offset=".789"
         stop-color="#ac3cb4"
         id="stop15" /><stop
         offset=".877"
         stop-color="#7544cf"
         id="stop16" /><stop
         offset=".98"
         stop-color="#2b4ff2"
         id="stop17" /></radialGradient></defs><g
     inkscape:label="Layer 1"
     inkscape:groupmode="layer"
     id="layer1"><g
       inkscape:label="instagram"
       id="layer1-6"
       transform="matrix(0.98873915,0,0,0.98873915,0.2117293,0.27068508)"><path
         fill="url(#TGwjmZMm2W~B4yrgup6jdb)"
         d="m 47.442073,59.145342 h -30.58353 c -6.469589,0 -11.7628909,-5.293303 -11.7628909,-11.762895 V 16.79892 c 0,-6.469592 5.2933019,-11.7628951 11.7628909,-11.7628951 h 30.58353 c 6.46959,0 11.7629,5.2933031 11.7629,11.7628951 v 30.583527 c 0,6.469592 -5.29331,11.762895 -11.7629,11.762895 z"
         id="path17"
         style="fill:url(#TGwjmZMm2W~B4yrgup6jdb);stroke-width:1.17629" /><path
         fill="#ffffff"
         d="m 32.150313,15.622631 c 5.41093,0 5.99907,0 8.1164,0.117628 1.99969,0.117629 3.05835,0.470516 3.76412,0.705774 0.94103,0.352887 1.64681,0.823403 2.35258,1.529176 0.70577,0.705774 1.17629,1.411548 1.52918,2.352579 0.23526,0.705774 0.58814,1.764435 0.70577,3.764127 0,1.999692 0,2.587837 0,7.998768 0,5.410932 0,5.999077 -0.11763,8.116398 -0.11763,1.999692 -0.47051,3.058353 -0.70577,3.764126 -0.35289,0.941032 -0.8234,1.646806 -1.52918,2.352579 -0.70577,0.705774 -1.41155,1.17629 -2.35258,1.529177 -0.70577,0.235258 -1.76443,0.588144 -3.76412,0.705773 -1.9997,0 -2.58784,0 -7.99877,0 -5.41093,0 -5.99908,0 -8.1164,-0.117629 -1.99969,-0.117629 -3.05835,-0.470515 -3.76413,-0.705773 -0.94103,-0.352887 -1.6468,-0.823403 -2.35257,-1.529177 -0.70578,-0.705773 -1.17629,-1.411547 -1.52918,-2.352579 -0.23526,-0.705773 -0.588147,-1.764434 -0.705775,-3.764126 0,-1.999692 0,-2.587837 0,-7.998769 0,-5.410931 0,-5.999076 0.117628,-8.116397 0.117629,-1.999692 0.470516,-3.058353 0.705777,-3.764126 0.35288,-0.941032 0.8234,-1.646806 1.52917,-2.352579 0.70578,-0.705774 1.41155,-1.17629 2.35258,-1.529177 0.70578,-0.235258 1.76444,-0.588145 3.76413,-0.705773 1.99969,0 2.58784,0 7.99877,0 m 0,-3.528869 c -5.41093,0 -6.11671,0 -8.23403,0.117629 -2.11732,0.117629 -3.52887,0.470516 -4.82279,0.941032 -1.29391,0.470515 -2.4702,1.176289 -3.528864,2.352579 -1.058661,1.176289 -1.764435,2.23495 -2.352579,3.528868 -0.470516,1.293918 -0.823403,2.705466 -0.941032,4.822787 -0.117629,2.117321 -0.117629,2.823095 -0.117629,8.234026 0,5.410932 0,6.116706 0.117629,8.234027 0.117629,2.117321 0.470516,3.528868 0.941032,4.822787 0.470515,1.293918 1.176289,2.470208 2.352579,3.528868 1.058664,1.058661 2.234954,1.764435 3.528864,2.352579 1.29392,0.470516 2.70547,0.823403 4.82279,0.941032 2.11732,0.117629 2.8231,0.117629 8.23403,0.117629 5.41093,0 6.1167,0 8.23402,-0.117629 2.11733,-0.117629 3.52887,-0.470516 4.82279,-0.941032 1.29392,-0.470516 2.47021,-1.176289 3.52887,-2.352579 1.05866,-1.05866 1.76443,-2.23495 2.35258,-3.528868 0.47051,-1.293919 0.8234,-2.705466 0.94103,-4.822787 0.11763,-2.117321 0.11763,-2.823095 0.11763,-8.234027 0,-5.410931 0,-6.116705 -0.11763,-8.234026 -0.11763,-2.117321 -0.47052,-3.528869 -0.94103,-4.822787 -0.47052,-1.293918 -1.17629,-2.470208 -2.35258,-3.528868 -1.17629,-1.058661 -2.23495,-1.764435 -3.52887,-2.352579 -1.29392,-0.470516 -2.70546,-0.823403 -4.82279,-0.941032 -2.11732,-0.117629 -2.82309,-0.117629 -8.23402,-0.117629 z"
         id="path18"
         style="stroke-width:1.17629" /><path
         fill="#ffffff"
         d="m 32.150313,21.504078 c -5.88145,0 -10.58661,4.705158 -10.58661,10.586605 0,5.881448 4.70516,10.586606 10.58661,10.586606 5.88145,0 10.5866,-4.705158 10.5866,-10.586606 0,-5.881447 -4.70515,-10.586605 -10.5866,-10.586605 z m 0,17.644342 c -3.88176,0 -7.05774,-3.175981 -7.05774,-7.057737 0,-3.881755 3.17598,-7.057737 7.05774,-7.057737 3.88175,0 7.05773,3.175982 7.05773,7.057737 0,3.881756 -3.17598,7.057737 -7.05773,7.057737 z"
         id="path19"
         style="stroke-width:1.17629" /><circle
         cx="42.736916"
         cy="21.50408"
         r="2.3525789"
         fill="#ffffff"
         id="circle19"
         style="stroke-width:1.17629" /></g></g></svg>
