<?xml version="1.0" encoding="UTF-8" standalone="no"?>
<!-- Created with Inkscape (http://www.inkscape.org/) -->

<svg
   width="64"
   height="64"
   viewBox="0 0 64 64"
   version="1.1"
   id="svg1"
   inkscape:version="1.4-dev (1:1.4.0-dev+202403210151+2fe0648968)"
   sodipodi:docname="kget.svg"
   xmlns:inkscape="http://www.inkscape.org/namespaces/inkscape"
   xmlns:sodipodi="http://sodipodi.sourceforge.net/DTD/sodipodi-0.dtd"
   xmlns:xlink="http://www.w3.org/1999/xlink"
   xmlns="http://www.w3.org/2000/svg"
   xmlns:svg="http://www.w3.org/2000/svg">
  <sodipodi:namedview
     id="namedview1"
     pagecolor="#ffffff"
     bordercolor="#000000"
     borderopacity="0.25"
     inkscape:showpageshadow="2"
     inkscape:pageopacity="0.0"
     inkscape:pagecheckerboard="0"
     inkscape:deskcolor="#d1d1d1"
     inkscape:document-units="px"
     inkscape:zoom="8.8940775"
     inkscape:cx="39.970419"
     inkscape:cy="35.473044"
     inkscape:window-width="1920"
     inkscape:window-height="1010"
     inkscape:window-x="0"
     inkscape:window-y="0"
     inkscape:window-maximized="1"
     inkscape:current-layer="layer1" />
  <defs
     id="defs1">
    <linearGradient
       id="linear0"
       gradientUnits="userSpaceOnUse"
       x1="2.3059001"
       y1="1.7146"
       x2="29.694901"
       y2="29.104601"
       gradientTransform="scale(2)">
      <stop
         offset="0"
         style="stop-color:rgb(15.686275%,68.627451%,91.764706%);stop-opacity:1;"
         id="stop1" />
      <stop
         offset="1"
         style="stop-color:rgb(51.372549%,54.509804%,89.411765%);stop-opacity:1;"
         id="stop2" />
    </linearGradient>
    <linearGradient
       inkscape:collect="always"
       xlink:href="#linearGradient1"
       id="linearGradient79"
       x1="65.22908"
       y1="13.549362"
       x2="84.640114"
       y2="38.905628"
       gradientUnits="userSpaceOnUse"
       gradientTransform="matrix(1.3444697,0,0,1.3444697,-70.332907,-1.0835449)" />
    <linearGradient
       id="linearGradient1"
       inkscape:collect="always">
      <stop
         style="stop-color:#a829e3;stop-opacity:1;"
         offset="0"
         id="stop78" />
      <stop
         style="stop-color:#7e1cb6;stop-opacity:1;"
         offset="1"
         id="stop79" />
    </linearGradient>
  </defs>
  <g
     inkscape:label="kget"
     inkscape:groupmode="layer"
     id="layer1">
    <ellipse
       style="opacity:1;fill:url(#linearGradient79);stroke-width:3.31714;stroke-linecap:round;stroke-linejoin:round"
       id="path1"
       cx="32"
       cy="31.720821"
       rx="28.112112"
       ry="27.831816" />
    <path
       d="m 30.645822,22.330627 c -4.849365,1.307551 -8.848179,4.347916 -11.260165,8.562545 -5.06518,8.854537 -2.373904,19.664044 6.398102,25.70036 6.742283,5.921424 18.371026,0.845956 21.024783,-1.353211 -0.222158,0.05706 -7.181241,5.745738 -18.631838,-2.118609 C 21.251767,48.36122 19.09368,39.893865 23.048059,32.98797 c 1.853424,-3.230796 4.938225,-5.572959 8.695855,-6.582179 3.852832,-1.040968 7.83895,-0.533175 11.228426,1.421796 l 2.107322,-3.656058 C 40.712694,21.65163 35.584049,20.997855 30.645822,22.330801"
       id="path7"
       style="fill:#ffffff;fill-opacity:0.851852;stroke-width:1.24857"
       inkscape:label="path3" />
    <path
       d="m 18.056182,23.09264 c -4.551033,4.563731 -7.051891,10.650827 -7.039193,17.150501 0.01899,13.557893 10.172037,19.734911 22.63942,19.103447 l 0.14949,-0.135032 c -11.044362,0 -18.555251,-7.891764 -18.574292,-18.980553 -0.0062,-5.369843 2.050187,-10.397467 5.807804,-14.161438 3.77667,-3.783013 8.841838,-5.871281 14.262461,-5.871281 v -4.214632 c -6.550439,0 -12.669274,2.526229 -17.245702,7.109013"
       id="path6"
       style="fill:#ffffff;fill-opacity:0.851852;stroke-width:1.24857"
       inkscape:label="path2" />
    <path
       d="m 29.53321,29.341976 c -4.208275,2.431025 -6.563137,6.855129 -6.563137,11.399818 0,2.107309 0.526834,4.233671 1.586831,6.20134 l -0.01274,0.01273 c 0,0.0062 0.03809,0.0698 0.05081,0.09527 h -0.0062 c 0,0 0.02535,0.03809 0.04446,0.0698 0.02534,0.05081 0.0889,0.165035 0.09527,0.171379 0.660119,1.136172 3.205399,4.963608 8.784703,6.994768 6.762384,2.468207 9.038813,2.282833 12.196879,1.718118 3.437559,-1.964274 5.278436,-3.71468 5.278436,-3.71468 -3.616816,0.391652 -8.743501,0.694392 -16.034466,-1.964197 -4.392365,-1.59953 -6.226736,-4.519306 -6.563151,-5.122302 -0.336415,-0.602997 -0.01273,-0.01911 -0.01273,-0.02534 -0.806114,-1.402754 -1.193307,-2.932463 -1.193307,-4.443131 0,-3.0848 1.599528,-6.087095 4.455828,-7.743746 2.062885,-1.186953 4.468528,-1.504314 6.772611,-0.888619 2.297728,0.615681 4.220973,2.094611 5.414268,4.157497 l 3.719535,-1.980368 -0.0698,-0.126942 c -1.751852,-3.040388 -4.582767,-5.211174 -7.972245,-6.12519 -3.389476,-0.907671 -6.93129,-0.437972 -9.971667,1.313894"
       id="path8"
       style="fill:#ffffff;fill-opacity:0.851852;stroke-width:1.24857"
       inkscape:label="path1" />
  </g>
</svg>
