<?xml version="1.0" encoding="UTF-8" standalone="no"?>
<!-- Created with Inkscape (http://www.inkscape.org/) -->

<svg
   width="64mm"
   height="64mm"
   viewBox="0 0 64 64"
   version="1.1"
   id="svg1"
   xml:space="preserve"
   inkscape:version="1.4.2 (1:1.4.2+202505120737+ebf0e940d0)"
   sodipodi:docname="kindle.svg"
   xmlns:inkscape="http://www.inkscape.org/namespaces/inkscape"
   xmlns:sodipodi="http://sodipodi.sourceforge.net/DTD/sodipodi-0.dtd"
   xmlns="http://www.w3.org/2000/svg"
   xmlns:svg="http://www.w3.org/2000/svg"><sodipodi:namedview
     id="namedview1"
     pagecolor="#ffffff"
     bordercolor="#000000"
     borderopacity="0.25"
     inkscape:showpageshadow="2"
     inkscape:pageopacity="0.0"
     inkscape:pagecheckerboard="0"
     inkscape:deskcolor="#d1d1d1"
     inkscape:document-units="mm"
     inkscape:zoom="1.0280428"
     inkscape:cx="79.763216"
     inkscape:cy="140.55835"
     inkscape:window-width="960"
     inkscape:window-height="1014"
     inkscape:window-x="0"
     inkscape:window-y="0"
     inkscape:window-maximized="0"
     inkscape:current-layer="layer1" /><defs
     id="defs1" /><g
     inkscape:label="Layer 1"
     inkscape:groupmode="layer"
     id="layer1"><g
       id="g1"
       transform="matrix(1.507806,0,0,1.507806,-3.796836,-3.796836)"><path
         fill="#1565c0"
         d="M 42,26.655 V 10 C 42,7.791 40.209,6 38,6 H 10 C 7.791,6 6,7.791 6,10 v 4.823 C 9.618,13.02 13.691,12 18,12 c 10.441,0 19.51,5.961 24,14.655 z"
         id="path1" /><path
         fill="#1976d2"
         d="m 18,14.656 c 12.041,0 22.063,8.79 24,20.289 v -8.29 C 37.51,17.961 28.441,12 18,12 13.691,12 9.618,13.02 6,14.823 v 3.009 c 3.544,-2.017 7.638,-3.176 12,-3.176 z"
         id="path2" /><path
         fill="#1e88e5"
         d="m 18,14.656 c -4.362,0 -8.456,1.159 -12,3.176 v 3.113 c 3.439,-2.293 7.565,-3.633 12,-3.633 11.959,0 21.689,9.729 21.689,21.689 0,0.914 -0.651,0.615 -0.762,1.5 1.457,-0.597 2.36,-0.738 2.36,-2.41 L 42,37.197 V 34.945 C 40.063,23.445 30.041,14.656 18,14.656 Z"
         id="path3" /><path
         fill="#42a5f5"
         d="m 18,19.967 c 10.495,0 19.033,8.538 19.033,19.033 0,1.023 -0.781,0.486 -0.937,1.466 l 1.787,0.371 c 0.537,0 0.544,0.327 1.011,0.135 0.11,-0.885 0.795,-1.057 0.795,-1.972 0,-11.959 -9.729,-21.689 -21.689,-21.689 -4.435,0 -8.561,1.34 -12,3.633 v 3.299 c 3.277,-2.669 7.453,-4.276 12,-4.276 z"
         id="path4" /><path
         fill="#64b5f6"
         d="m 18,19.967 c -4.547,0 -8.723,1.607 -12,4.277 v 3.648 c 2.993,-3.232 7.258,-5.27 12,-5.27 9.031,0 16.377,7.346 16.377,16.377 0,1.026 -0.864,1.116 -1.046,2.09 l 2.478,-0.118 c 0.156,-0.98 1.224,-0.949 1.224,-1.972 C 37.033,28.505 28.495,19.967 18,19.967 Z"
         id="path5" /><path
         fill="#90caf9"
         d="m 18,22.623 c -4.742,0 -9.007,2.038 -12,5.27 v 4.469 3.251 c 0,0 1.608,3.736 1.697,4.298 0.73,0.783 5.245,0.086 5.781,0.961 l 17.916,0.329 C 31.44,40.994 34.378,40.027 34.378,39.002 34.377,29.969 27.031,22.623 18,22.623 Z"
         id="path6" /><path
         fill="#90caf9"
         d="m 6.934,39.007 c -0.002,0.143 0,0.224 0,0 z"
         id="path7" /><path
         fill="#212121"
         d="m 42,37.174 c -3.835,1.792 -8.421,1.731 -8.424,1.699 0.185,-0.138 0.366,-0.27 0.367,-0.508 0.001,-0.695 -0.386,0.078 -2.228,-0.82 -0.557,-0.272 -1.272,-0.734 -1.805,-1.09 -1.504,-1.005 -1.525,-1.553 -2.248,-2.804 L 27.309,33.16 c 0.358,-0.174 0.419,-0.164 0.239,-0.627 -0.429,-1.094 -0.641,-0.768 -0.954,-1.437 l -2.101,-3.873 c 1.043,-0.976 1.263,-1.357 2.402,-1.687 l 0.194,-0.151 c 1.029,-0.672 0.778,-0.412 1.077,-1.297 0.092,-0.273 0.118,-0.288 0.194,-0.602 1.233,-1.504 2.357,-3.132 2.741,-4.048 l -2.267,-0.025 c -1.003,1.234 -2.632,2.868 -3.401,4.093 0.443,0.338 0.216,-0.109 0.38,0.349 -0.552,1.049 -2.86,2.13 -4.007,2.419 -0.215,-0.211 -0.257,-0.358 -0.667,-0.398 0.446,-0.612 0.187,-0.689 -0.307,-1.086 l -1.366,-1.737 c -0.649,-1.016 -0.967,-2.067 -1.21,-2.504 -0.268,-0.482 -0.442,-0.251 -0.414,-0.582 0.258,-0.299 0.285,-0.145 0.698,0.088 2.053,1.154 1.683,-0.402 2.197,-0.333 0.268,-0.531 0.359,-0.253 0.449,-0.961 l 0.631,-0.171 c -0.019,-0.831 -0.425,-1.376 0.281,-1.905 -0.268,-0.047 0.397,-0.149 0.004,-0.003 -0.002,0.001 -0.002,0.002 -0.004,0.003 0.034,0.007 0.078,0.012 0.146,0.015 0.061,0.003 0.087,0.008 0.095,0.014 0.013,-0.004 0.025,-0.008 0.047,-0.016 0.213,-0.061 0.049,-0.039 0.256,-0.21 0.265,-0.65 0.536,-1.075 0.266,-1.83 -0.208,-0.582 -0.626,-0.981 -0.736,-1.399 -1.165,-0.507 -0.024,-1.366 -2.685,-1.573 -0.485,-0.038 -0.079,-0.042 -0.521,-0.209 -0.358,-0.135 -1.167,-0.043 -1.542,0.039 -0.534,0.117 -1.736,1.251 -1.895,1.489 -0.452,0.68 -0.746,1.675 -0.749,2.658 0.067,1.063 -0.035,1.477 0.313,1.953 l 0.342,0.281 c 0.01,-0.022 0.052,0.022 0.075,0.038 -0.217,0.515 -0.113,0.413 -0.392,0.638 -0.234,-0.18 -0.534,-0.241 -0.856,-0.232 -0.866,1.199 0.161,0.443 -2.053,2.202 -0.725,1.344 -1.552,1.818 -1.995,4.185 l -0.211,0.669 -0.049,2.55 0.418,3.919 c 0.041,0.519 -0.081,1.055 -0.03,1.517 l 1.156,0.041 c -0.324,0.279 -0.556,0.313 0.514,1.469 -2.114,0 -4.206,0.304 -6.01,0.735 V 38 c 0,1.054 0.416,2.005 1.082,2.72 0.718,0.771 1.731,1.259 2.864,1.274 H 38.06 c 0.515,-0.008 1.006,-0.111 1.457,-0.295 C 40.972,41.101 42,39.672 42,38 Z M 17.978,26.899 c 0.471,0.111 0.375,0.34 0.766,0.703 0.595,0.552 0.402,-0.13 0.858,0.241 -0.302,0.194 -1.635,1.1 -1.971,1.073 -0.111,-0.554 0.102,-1.579 0.347,-2.017 z m 8.837,10.92 c -2.186,-0.374 -5.037,-1.786 -9.382,-2.423 l 2.55,-1.933 c 0.349,-0.35 2.351,-1.622 2.665,-1.768 0.271,0.982 1.064,1.117 1.271,1.959 0.115,0.47 0.309,0.836 0.559,1.118 0.385,0.434 0.573,0.205 0.93,0.02 1.697,2.062 1.512,1.688 1.407,3.027 z"
         id="path8" /></g></g></svg>
