<?xml version="1.0" encoding="UTF-8" standalone="no"?>
<!-- Created with Inkscape (http://www.inkscape.org/) -->

<svg
   width="64"
   height="64"
   viewBox="0 0 64 64"
   version="1.1"
   id="svg1"
   inkscape:version="1.4-dev (1:1.4.0-dev+202403210151+2fe0648968)"
   sodipodi:docname="linkedin.svg"
   xmlns:inkscape="http://www.inkscape.org/namespaces/inkscape"
   xmlns:sodipodi="http://sodipodi.sourceforge.net/DTD/sodipodi-0.dtd"
   xmlns="http://www.w3.org/2000/svg"
   xmlns:svg="http://www.w3.org/2000/svg">
  <sodipodi:namedview
     id="namedview1"
     pagecolor="#ffffff"
     bordercolor="#000000"
     borderopacity="0.25"
     inkscape:showpageshadow="2"
     inkscape:pageopacity="0.0"
     inkscape:pagecheckerboard="0"
     inkscape:deskcolor="#d1d1d1"
     inkscape:document-units="px"
     inkscape:zoom="8.8940775"
     inkscape:cx="32.212447"
     inkscape:cy="35.135741"
     inkscape:window-width="1920"
     inkscape:window-height="1010"
     inkscape:window-x="0"
     inkscape:window-y="0"
     inkscape:window-maximized="1"
     inkscape:current-layer="layer1" />
  <defs
     id="defs1">
    <linearGradient
       id="linear0"
       gradientUnits="userSpaceOnUse"
       x1="2.3059001"
       y1="1.7146"
       x2="29.694901"
       y2="29.104601"
       gradientTransform="scale(2)">
      <stop
         offset="0"
         style="stop-color:rgb(15.686275%,68.627451%,91.764706%);stop-opacity:1;"
         id="stop1" />
      <stop
         offset="1"
         style="stop-color:rgb(51.372549%,54.509804%,89.411765%);stop-opacity:1;"
         id="stop2" />
    </linearGradient>
  </defs>
  <g
     inkscape:label="linkedin"
     inkscape:groupmode="layer"
     id="layer1">
    <path
       fill="#0078d4"
       d="M 60,52.222222 C 60,56.518667 56.518667,60 52.222222,60 H 11.777778 C 7.4828889,60 4,56.518667 4,52.222222 V 11.777778 C 4,7.4813333 7.4828889,4 11.777778,4 H 52.222222 C 56.518667,4 60,7.4813333 60,11.777778 Z"
       id="path1"
       style="stroke-width:1.55556" />
    <path
       d="M 41.333333,52.222222 V 36.512667 c 0,-2.627334 -1.274,-4.196889 -3.409777,-4.196889 -1.267778,0 -2.199556,0.714 -2.767334,2.121778 -0.02644,0.09956 -0.06378,0.505555 -0.04822,1.732888 l 0.0031,16.051778 H 24.222222 V 22.666667 h 10.888889 v 1.650444 c 1.589778,-1.096667 3.538889,-1.650444 5.814667,-1.650444 7.073111,0 11.294889,4.811333 11.294889,12.870666 l 0.0016,16.684889 z m -29.555555,0 V 22.666667 h 5.377555 c -3.115777,0 -5.377555,-2.289778 -5.377555,-5.446 0,-3.153111 2.299111,-5.442889 5.466222,-5.442889 3.129778,0 5.358889,2.226 5.422667,5.411778 0,3.179555 -2.300667,5.477111 -5.467778,5.477111 h 5.467778 v 29.555555 z"
       opacity="0.05"
       id="path2-3"
       inkscape:label="path2"
       style="stroke-width:1.55556" />
    <path
       d="M 42.111111,51.444444 V 36.512667 c 0,-3.069111 -1.603778,-4.974667 -4.187555,-4.974667 -2.014445,0 -3.01,1.418667 -3.489112,2.608667 -0.127555,0.309555 -0.110444,1.538444 -0.104222,2.062666 l 0.0031,15.235111 H 25 v -28 h 9.333333 v 2.548 c 1.236667,-1.280222 3.227778,-2.548 6.592445,-2.548 6.584666,0 10.517111,4.520445 10.517111,12.092889 l 0.0016,15.907111 z m -29.555555,0 v -28 h 9.333333 v 28 z m 4.599777,-29.555555 c -2.664666,0 -4.599777,-1.963111 -4.599777,-4.668222 0,-2.703556 1.972444,-4.665111 4.688444,-4.665111 2.681778,0 4.590444,1.911777 4.644889,4.649555 0,2.720667 -1.972445,4.683778 -4.69,4.683778 z"
       opacity="0.07"
       id="path3"
       style="stroke-width:1.55556" />
    <path
       fill="#ffffff"
       d="m 13.333333,24.222222 h 7.777778 v 26.444445 h -7.777778 z m 3.865556,-3.111111 h -0.04356 c -2.320889,0 -3.822,-1.729778 -3.822,-3.890444 0,-2.207334 1.547778,-3.887334 3.910667,-3.887334 2.366,0 3.823556,1.68 3.867111,3.887334 0,2.159111 -1.501111,3.890444 -3.912222,3.890444 z m 33.467778,29.555556 h -7.777778 v -14.154 c 0,-3.419111 -1.905556,-5.752445 -4.965333,-5.752445 -2.334889,0 -3.598,1.574222 -4.210889,3.095556 -0.224,0.544444 -0.157111,2.050222 -0.157111,2.810889 v 14 H 25.777778 V 24.222222 h 7.777778 v 4.069334 c 1.121555,-1.736 2.877777,-4.069334 7.370222,-4.069334 5.565778,0 9.739333,3.5 9.739333,11.315111 z"
       id="path4"
       style="stroke-width:1.55556" />
  </g>
</svg>
