<?xml version="1.0" encoding="UTF-8" standalone="no"?>
<!-- Created with Inkscape (http://www.inkscape.org/) -->

<svg
   width="64"
   height="64"
   viewBox="0 0 64 64"
   version="1.1"
   id="svg1"
   inkscape:version="1.4 (e7c3feb, 2024-10-09)"
   sodipodi:docname="mercadolibre.svg"
   xmlns:inkscape="http://www.inkscape.org/namespaces/inkscape"
   xmlns:sodipodi="http://sodipodi.sourceforge.net/DTD/sodipodi-0.dtd"
   xmlns="http://www.w3.org/2000/svg"
   xmlns:svg="http://www.w3.org/2000/svg">
  <sodipodi:namedview
     id="namedview1"
     pagecolor="#ffffff"
     bordercolor="#000000"
     borderopacity="0.25"
     inkscape:showpageshadow="2"
     inkscape:pageopacity="0.0"
     inkscape:pagecheckerboard="0"
     inkscape:deskcolor="#d1d1d1"
     inkscape:document-units="px"
     inkscape:zoom="8.8940776"
     inkscape:cx="-11.074785"
     inkscape:cy="35.13574"
     inkscape:window-width="1920"
     inkscape:window-height="1009"
     inkscape:window-x="0"
     inkscape:window-y="0"
     inkscape:window-maximized="1"
     inkscape:current-layer="svg1" />
  <defs
     id="defs1">
    <linearGradient
       id="linear0"
       gradientUnits="userSpaceOnUse"
       x1="2.3059001"
       y1="1.7146"
       x2="29.694901"
       y2="29.104601"
       gradientTransform="scale(2)">
      <stop
         offset="0"
         style="stop-color:rgb(15.686275%,68.627451%,91.764706%);stop-opacity:1;"
         id="stop1" />
      <stop
         offset="1"
         style="stop-color:rgb(51.372549%,54.509804%,89.411765%);stop-opacity:1;"
         id="stop2" />
    </linearGradient>
  </defs>
  <g
     inkscape:label="Layer 1"
     inkscape:groupmode="layer"
     id="layer1">
    <g
       id="g1"
       transform="matrix(0.96428571,0,0,0.96428571,1.1428572,0.74441932)">
      <g
         id="surface1" />
    </g>
  </g>
  <path
     class="cls-1"
     d="M 64.290448,29.550378 C 64.290448,15.532834 49.897895,4.1036285 32.145219,4.1036285 14.39253,4.1036285 0,15.532834 0,29.550378 v 1.488821 c 0,14.872432 12.579886,26.917153 32.145219,26.917153 19.684871,0 32.149555,-12.04209 32.149555,-26.914524 v -1.49145 z"
     id="path1"
     style="fill:#060e9f;stroke-width:0.239104" />
  <ellipse
     cx="31.926014"
     cy="29.795027"
     rx="29.651442"
     ry="22.958288"
     style="fill:#00aeef;stroke-width:0.22938"
     id="ellipse1" />
  <path
     class="cls-3"
     d="m 19.964177,24.899876 c -0.02204,0.03861 -0.410872,0.443951 -0.157176,0.769335 0.617671,0.791388 2.528582,1.243616 4.464331,0.810693 1.149859,-0.259199 2.625101,-1.433881 4.056229,-2.5672 1.549688,-1.229827 3.085596,-2.462414 4.629773,-2.953237 1.635178,-0.521162 2.683021,-0.29781 3.375135,-0.08825 0.761064,0.226108 1.65448,0.725209 3.07734,1.795101 2.683005,2.018465 13.472952,11.435204 15.337002,13.062104 5.551697,-2.40438 0.680124,-0.265718 6.592365,-1.549385 0.454472,-4.949164 0.469345,-9.108427 -2.622764,-14.294391 -7.178883,1.122147 -8.030966,0.255906 -16.154834,-2.234151 -0.03863,-0.01654 -4.058978,-1.930224 -8.024222,-1.825435 -5.892696,0.13787 -8.446101,2.688522 -11.148423,5.38808 z"
     id="path2-3"
     style="fill:#ffffff;stroke-width:0.275746"
     sodipodi:nodetypes="cccccccccccccc" />
  <path
     class="cls-3"
     d="M 54.305606,36.756966 C 54.178829,36.643903 41.621289,25.655418 38.772825,23.521148 c -1.654481,-1.235345 -2.561688,-1.549697 -3.52404,-1.673783 -0.563899,-0.04579 -1.131454,0.0084 -1.676529,0.159932 -1.323589,0.361231 -3.055276,1.516606 -4.591184,2.735404 -1.591051,1.265676 -3.091117,2.459656 -4.48363,2.771251 -1.77856,0.399833 -3.951438,-0.0717 -4.941375,-0.74176 -0.355456,-0.215088 -0.642363,-0.526871 -0.827239,-0.898934 -0.366733,-0.849296 0.30884,-1.527634 0.419142,-1.654475 l 3.466119,-3.750147 c 0.402589,-0.399833 0.807938,-0.80518 1.22432,-1.199501 -1.068103,0.161254 -2.123256,0.399009 -3.157294,0.711428 -1.254651,0.352961 -2.465178,0.689364 -3.686722,0.689364 -1.260486,-0.12535 -2.513271,-0.318649 -3.752912,-0.579064 C 9.8009347,19.20471 9.6215005,19.740598 6.4094908,18.222151 1.9427523,22.182836 1.9901855,29.054171 2.5470809,33.51931 c 0.7086655,0.187507 0.1622475,-0.03079 0.642043,0.07399 11.1511831,2.481718 7.8188121,1.85112 8.4585441,2.386067 1.584505,-1.789086 4.425854,-1.622664 5.790665,0.339169 0.752419,-0.607624 1.691072,-0.93771 2.658197,-0.934781 0.542768,0.0041 1.081194,0.09729 1.593812,0.27575 1.005245,0.320649 1.823322,1.059328 2.244576,2.026732 0.487547,-0.221044 1.017159,-0.33393 1.552461,-0.330897 0.639033,0.0083 1.269612,0.147179 1.853006,0.408103 2.057068,0.882392 2.376928,2.90085 2.189421,4.411942 0.147386,-0.01677 0.295617,-0.02507 0.443964,-0.02485 2.433498,0.0075 4.404362,1.978438 4.411932,4.411941 -7.7e-5,0.72901 -0.182051,1.446479 -0.529429,2.087399 0.664542,0.372259 2.354864,1.21604 3.83839,1.028535 1.185702,-0.148906 1.635164,-0.551495 1.797861,-0.783118 0.110314,-0.157176 0.226111,-0.33917 0.118609,-0.471527 L 36.46762,44.963144 c 0,0 -0.518398,-0.490823 -0.347431,-0.678327 0.170954,-0.18751 0.496336,0.08548 0.725209,0.275746 1.602084,1.33736 3.554359,3.355823 3.554359,3.355823 0,0 0.162698,0.27575 0.885159,0.408105 0.87152,0.150808 1.766946,-0.05813 2.481718,-0.579063 0.202404,-0.164267 0.387215,-0.349089 0.551481,-0.551492 -0.01033,0.0108 -0.02281,0.01998 -0.0359,0.02757 0.805177,-1.028531 -0.08827,-2.070857 -0.08827,-2.070857 l -3.672949,-4.136193 c 0,0 -0.526669,-0.485316 -0.347431,-0.681093 0.179239,-0.195784 0.496335,0.08549 0.727969,0.275748 1.163653,0.973381 2.807101,2.622344 4.381599,4.163763 0.308842,0.226116 1.690335,1.080927 3.524039,-0.121332 1.102987,-0.730724 1.334621,-1.624145 1.304287,-2.302475 -0.07921,-0.583425 -0.35211,-1.123338 -0.774855,-1.533155 l -5.018575,-5.04339 c 0,0 -0.529443,-0.452221 -0.341935,-0.681093 0.187508,-0.228868 0.496348,0.08549 0.72246,0.275747 1.599322,1.337369 5.925791,5.305361 5.925791,5.305361 0.06338,0.04409 1.557958,1.102981 3.405468,-0.06895 0.646394,-0.378439 1.065082,-1.050815 1.119513,-1.797862 0.03034,-0.773188 -0.27773,-1.521224 -0.84378,-2.048794 z"
     id="path3-5"
     style="fill:#ffffff;stroke-width:0.275746"
     sodipodi:nodetypes="ccccccccccccccccccccccccccccccccsccccccccsccccccscccccc" />
  <path
     class="cls-3"
     d="m 29.968248,43.151519 c -0.777605,0 -1.629668,0.452229 -1.739956,0.386049 -0.06067,-0.0414 0.04693,-0.352959 0.121332,-0.53219 0.0744,-0.179236 1.102986,-3.26208 -1.398022,-4.33198 -1.910936,-0.827235 -3.080099,0.10203 -3.479926,0.518407 -0.104738,0.110302 -0.151667,0.102019 -0.165445,-0.03861 -0.03863,-0.551496 -0.275747,-2.057068 -1.930227,-2.558925 -2.357625,-0.722454 -3.860439,0.923744 -4.257518,1.516599 a 2.7271303,2.7271303 0 1 0 -0.810699,2.31903 0.10202611,0.10202611 0 0 1 0,0.09375 c -0.115759,0.675581 -0.328143,3.135236 2.247337,4.136195 1.031289,0.399832 1.910911,0.10202 2.638894,-0.408104 0.217829,-0.15442 0.250923,-0.08825 0.220591,0.115811 -0.09372,0.631463 0.02489,1.985374 1.930226,2.757464 1.444907,0.58734 2.29972,0 2.859482,-0.529432 0.242653,-0.223355 0.311603,-0.187508 0.322621,0.157173 a 3.4413133,3.4413133 0 1 0 3.44131,-3.601247 z"
     id="path4-6"
     style="fill:#ffffff;stroke-width:0.275746" />
  <path
     class="cls-1"
     d="M 54.790924,35.441659 C 50.930484,32.06652 41.979752,24.293237 39.558699,22.481588 38.179966,21.439262 37.231407,20.890525 36.404167,20.645115 35.902698,20.486922 35.380281,20.40512 34.854466,20.402458 c -0.669365,0.0088 -1.3334,0.120284 -1.968829,0.330892 -1.566228,0.496342 -3.124199,1.734445 -4.632534,2.933944 l -0.07726,0.06066 c -1.403545,1.102983 -2.856737,2.272141 -3.954201,2.517557 -0.48056,0.108089 -0.971594,0.162645 -1.464159,0.162696 -1.229827,0 -2.335575,-0.355718 -2.757465,-0.885151 -0.06898,-0.08826 -0.02489,-0.228866 0.135126,-0.432922 l 0.02204,-0.02757 3.402706,-3.667419 c 2.666455,-2.66647 5.184028,-5.181276 10.980202,-5.316389 h 0.275747 c 3.606769,0 7.213524,1.618629 7.618875,1.806137 2.306421,1.150636 4.733663,2.015165 7.247491,2.423102 2.800957,0.454532 2.298231,0.331034 4.8499,0.197682 1.104187,-0.0577 2.56695,0.02128 4.302963,-0.868127 -0.01738,0.0046 -0.427428,-0.935002 -0.901714,-1.301747 C 52.8653,20.533031 45.285087,17.559461 43.110287,16.47031 42.942093,16.39035 38.9741,14.512521 34.8186,14.509762 h -0.328125 c -4.869694,0.11581 -7.610605,1.841984 -9.455341,3.358584 -1.792353,0.04409 -3.342052,0.477045 -4.718024,0.860329 -1.227068,0.341927 -2.28869,0.636972 -3.322739,0.636972 -0.427412,0 -1.193985,-0.03861 -1.26291,-0.0414 -1.191236,-0.03588 -4.077004,-0.433356 -8.844665,-2.236728 -0.4880657,0.344684 -0.7553237,1.097909 -0.9745602,1.461898 4.9827412,2.043281 7.4974292,2.153562 9.4138752,2.274891 0.532194,0.03588 1.102974,0.09375 1.654468,0.09651 1.265683,0 2.528592,-0.35571 3.752911,-0.697638 0.722449,-0.20129 1.519354,-0.421895 2.357626,-0.584583 l -0.670065,0.66731 -3.457851,3.741875 c -0.275746,0.275749 -0.863082,1.006473 -0.474286,1.91092 0.200757,0.416382 0.516507,0.76659 0.909955,1.009235 0.827241,0.551487 2.299734,0.92926 3.670184,0.932022 0.492292,0.003 0.983392,-0.0488 1.464223,-0.154418 1.450418,-0.325382 2.969785,-1.535911 4.580139,-2.818128 1.282224,-1.020265 3.107658,-2.313512 4.502945,-2.694037 0.409536,-0.108651 0.83096,-0.166077 1.25464,-0.170968 0.108759,-5.86e-4 0.217451,0.0058 0.32538,0.01933 0.920987,0.115809 1.814415,0.430158 3.405469,1.6269 2.83742,2.131515 15.400418,13.120005 15.52175,13.23582 0.505085,0.478817 0.779406,1.152031 0.752793,1.847497 -0.04654,0.668705 -0.42281,1.27039 -1.00373,1.604848 -0.490398,0.327128 -1.065018,0.505262 -1.654465,0.512884 -0.515495,2.36e-4 -1.02044,-0.146079 -1.455941,-0.421888 -0.04693,-0.03861 -4.348517,-3.984534 -5.934061,-5.310875 -0.198447,-0.209714 -0.459793,-0.349098 -0.744509,-0.397076 -0.127297,-0.0018 -0.248357,0.05518 -0.328143,0.154416 -0.248174,0.30608 0.03034,0.733488 0.358476,1.011992 l 5.065443,5.051671 c 0.375015,0.365371 0.619237,0.844105 0.694888,1.362188 0.03863,0.827234 -0.361223,1.53866 -1.193987,2.084643 -0.522493,0.368253 -1.142314,0.57358 -1.781321,0.590098 -0.51053,-2.18e-4 -1.009521,-0.151836 -1.433874,-0.43568 l -0.722456,-0.711414 c -1.318067,-1.296011 -2.677497,-2.636136 -3.675704,-3.468886 -0.201315,-0.207397 -0.464513,-0.343837 -0.75002,-0.388807 -0.120038,-0.0018 -0.235264,0.04728 -0.317112,0.135117 -0.113037,0.126841 -0.19303,0.352959 0.091,0.730731 0.07739,0.09826 0.162206,0.190445 0.253683,0.275746 l 3.667423,4.119647 c 0.03034,0.03588 0.755554,0.898933 0.0827,1.759257 l -0.129628,0.165452 c -0.106943,0.116407 -0.221212,0.226005 -0.341924,0.328135 -0.518955,0.380843 -1.148755,0.580444 -1.792352,0.568043 -0.166352,8.81e-4 -0.332445,-0.01298 -0.496348,-0.04141 -0.267164,-0.02082 -0.520499,-0.127178 -0.722447,-0.303315 l -0.04407,-0.04691 c -0.201292,-0.206805 -2.048802,-2.095661 -3.584697,-3.372366 -0.19001,-0.201586 -0.440894,-0.335266 -0.714191,-0.380537 -0.126646,-8.41e-4 -0.247486,0.05353 -0.33089,0.148902 -0.303332,0.3309 0.151653,0.827243 0.344683,1.009239 l 3.129721,3.44958 c -0.02735,0.07607 -0.06755,0.146928 -0.11861,0.209568 -0.110314,0.154419 -0.490827,0.534948 -1.626907,0.675581 -0.138107,0.01736 -0.277199,0.02565 -0.416381,0.02485 -1.17191,0 -2.418292,-0.568042 -3.063534,-0.909968 1.460116,-3.094598 -0.797165,-6.656067 -4.218927,-6.656511 h -0.168193 c 0.0827,-1.17468 -0.0827,-3.402712 -2.368658,-4.381606 -0.614388,-0.275726 -1.278918,-0.422148 -1.952288,-0.430168 -0.488921,-0.0023 -0.974071,0.08556 -1.431116,0.2592 -0.477397,-0.919862 -1.299089,-1.613692 -2.285941,-1.930218 -0.537583,-0.190953 -1.10331,-0.290677 -1.673781,-0.295051 -0.93522,-0.0076 -1.848703,0.28198 -2.608561,0.827242 C 16.01748,34.131928 13.282492,33.977409 11.622801,35.6374 10.649405,34.892879 15.590949,35.127759 5.261502,32.78116 4.7596374,32.665351 3.0504984,32.217955 2.3501055,32.0139 c -0.12119,0.560131 0.3432874,1.245428 0.2807752,1.815099 0,0 1.9054047,0.454977 2.2804186,0.551488 10.5638397,2.346604 5.2583097,2.097933 5.8401367,2.55016 -1.0999012,2.613639 0.823506,5.502388 3.659151,5.495621 0.243236,-4e-5 0.485979,-0.02217 0.72521,-0.06616 0.318732,1.594802 1.453191,2.904197 2.986338,3.44683 0.448788,0.177611 0.926431,0.271084 1.409065,0.27574 0.304123,3.65e-4 0.607066,-0.03762 0.901686,-0.113049 0.297809,0.752785 0.962353,1.693077 2.454148,2.296967 0.493107,0.205324 1.021099,0.313917 1.555209,0.319864 0.412104,-1.3e-4 0.820952,-0.07294 1.207766,-0.215084 1.273499,3.108875 5.31844,3.889604 7.657475,1.477997 0.752783,0.419138 2.343833,1.177437 3.951441,1.177437 0.205863,-0.0046 0.411221,-0.02221 0.614906,-0.05241 1.593827,-0.201291 2.338324,-0.827236 2.68026,-1.312551 0.0626,-0.08721 0.117962,-0.179432 0.165445,-0.275748 0.410209,0.126427 0.836456,0.19329 1.265671,0.198542 0.927792,-0.01822 1.824305,-0.338674 2.553417,-0.912715 0.827239,-0.598377 1.422845,-1.458702 1.508335,-2.189433 v -0.03308 c 0.28123,0.05819 0.567619,0.08777 0.854813,0.08826 0.936567,-0.01101 1.848947,-0.298894 2.62234,-0.827241 1.626907,-1.067138 1.908163,-2.459657 1.883352,-3.372376 0.28473,0.05994 0.574879,0.09043 0.865843,0.091 0.874736,-0.0094 1.728044,-0.271779 2.456895,-0.755543 0.983001,-0.598373 1.618948,-1.632301 1.709637,-2.77952 0.05665,-0.787564 -0.136292,-1.572966 -0.551506,-2.244581 1.025795,-0.850632 1.540904,-1.621342 4.77264,-1.754753 1.275108,-0.05263 1.421966,-1.531927 0.543016,-1.55537 -2.419381,-0.06453 -3.076766,0.647136 -6.413122,2.10235 z m -24.817154,14.3388 c -1.712514,0.01167 -3.124912,-1.338455 -3.190399,-3.049752 0,-0.146142 -0.01932,-0.534948 -0.350194,-0.534948 -0.150538,0.01707 -0.289227,0.08988 -0.388809,0.204056 -0.407345,0.434708 -0.970791,0.68965 -1.566227,0.708662 -0.354937,-0.0074 -0.705103,-0.0832 -1.031288,-0.223352 -1.819926,-0.73624 -1.847498,-1.988132 -1.773051,-2.481719 0.03512,-0.130384 0.01033,-0.269649 -0.06612,-0.380529 l -0.113034,-0.102019 h -0.113037 c -0.116795,0.0084 -0.227849,0.05383 -0.317111,0.129603 -0.443836,0.341792 -0.984233,0.53479 -1.544178,0.551495 -0.295606,-0.0025 -0.588217,-0.05943 -0.863093,-0.16821 -2.396244,-0.932026 -2.205974,-3.195903 -2.090165,-3.876998 0.02619,-0.116924 -0.01412,-0.238747 -0.104738,-0.317106 l -0.168207,-0.140634 -0.157174,0.151661 c -0.461674,0.446423 -1.078435,0.696489 -1.720655,0.697643 -2.134794,0.0032 -3.276993,-2.511463 -1.870338,-4.117045 1.406667,-1.605581 4.04971,-0.803981 4.327245,1.312698 l 0.08542,0.66731 0.366734,-0.565279 c 0.04135,-0.06616 1.047842,-1.58554 2.895339,-1.58554 0.366681,0.0018 0.731042,0.05845 1.080924,0.168201 1.475241,0.449471 1.723415,1.78684 1.762019,2.343841 -0.01595,0.179497 0.123147,0.335095 0.303318,0.33917 0.107978,-0.01129 0.207108,-0.06479 0.275748,-0.148899 0.477604,-0.499363 1.139982,-0.779678 1.830956,-0.774849 0.475737,0.0087 0.944786,0.11366 1.378732,0.308839 2.343846,1.003715 1.279463,3.981776 1.268431,4.0121 -0.201287,0.493588 -0.20957,0.711427 -0.01932,0.827242 l 0.09372,0.06898 h 0.06895 c 0.156709,-0.01831 0.309956,-0.05919 0.454972,-0.121332 0.399919,-0.158097 0.822573,-0.251188 1.251906,-0.275741 4.51159,-0.263616 4.508789,6.648046 -0.0027,6.380762 z"
     id="path5-2"
     style="fill:#060e9f;stroke-width:0.275746"
     sodipodi:nodetypes="ccccccccccccccscsscccccccscccccccccccccccccccccccccccccccccccccccccccccccccccccccscccccccccccccccccccccccccccccccccccccssccccccccccccccccccccscccccccccccccccccc" />
</svg>
