<?xml version="1.0" encoding="UTF-8" standalone="no"?>
<!-- Created with Inkscape (http://www.inkscape.org/) -->

<svg
   width="64"
   height="64"
   viewBox="0 0 64 64"
   version="1.1"
   id="svg1"
   inkscape:version="1.4 (e7c3feb, 2024-10-09)"
   sodipodi:docname="minecraft.svg"
   xml:space="preserve"
   xmlns:inkscape="http://www.inkscape.org/namespaces/inkscape"
   xmlns:sodipodi="http://sodipodi.sourceforge.net/DTD/sodipodi-0.dtd"
   xmlns:xlink="http://www.w3.org/1999/xlink"
   xmlns="http://www.w3.org/2000/svg"
   xmlns:svg="http://www.w3.org/2000/svg"><sodipodi:namedview
     id="namedview1"
     pagecolor="#ffffff"
     bordercolor="#000000"
     borderopacity="0.25"
     inkscape:showpageshadow="2"
     inkscape:pageopacity="0.0"
     inkscape:pagecheckerboard="0"
     inkscape:deskcolor="#d1d1d1"
     inkscape:document-units="px"
     inkscape:zoom="6.2890625"
     inkscape:cx="74.414907"
     inkscape:cy="29.972671"
     inkscape:window-width="1920"
     inkscape:window-height="1009"
     inkscape:window-x="0"
     inkscape:window-y="0"
     inkscape:window-maximized="1"
     inkscape:current-layer="layer1" /><defs
     id="defs1"><linearGradient
       id="linearGradient5"
       inkscape:collect="always"><stop
         style="stop-color:#0d0b06;stop-opacity:1;"
         offset="0"
         id="stop5" /><stop
         style="stop-color:#10361d;stop-opacity:1;"
         offset="1"
         id="stop6" /></linearGradient><linearGradient
       id="linearGradient1"
       inkscape:collect="always"><stop
         style="stop-color:#6bb43e;stop-opacity:1;"
         offset="0"
         id="stop3" /><stop
         style="stop-color:#108345;stop-opacity:1;"
         offset="1"
         id="stop4" /></linearGradient><linearGradient
       id="linear0"
       gradientUnits="userSpaceOnUse"
       x1="2.3059001"
       y1="1.7146"
       x2="29.694901"
       y2="29.104601"
       gradientTransform="scale(2)"><stop
         offset="0"
         style="stop-color:rgb(15.686275%,68.627451%,91.764706%);stop-opacity:1;"
         id="stop1" /><stop
         offset="1"
         style="stop-color:rgb(51.372549%,54.509804%,89.411765%);stop-opacity:1;"
         id="stop2" /></linearGradient><linearGradient
       inkscape:collect="always"
       xlink:href="#linearGradient1"
       id="linearGradient4"
       x1="29.66708"
       y1="17.812424"
       x2="33.657143"
       y2="54.38385"
       gradientUnits="userSpaceOnUse" /><linearGradient
       inkscape:collect="always"
       xlink:href="#linearGradient5"
       id="linearGradient6"
       x1="32.786583"
       y1="18.76646"
       x2="33.399754"
       y2="44.048447"
       gradientUnits="userSpaceOnUse" /></defs><g
     inkscape:label="x"
     inkscape:groupmode="layer"
     id="layer1"><path
       d="m 14.051587,15.129971 c -0.01526,0.02288 1.219641,1.707497 2.736571,3.735153 1.516929,2.027655 4.741359,6.342139 7.165396,9.581813 l 4.405957,5.892393 -0.282042,0.320161 c -0.160078,0.17532 -3.399752,3.674169 -7.195888,7.775213 -3.796137,4.108668 -6.913845,7.493176 -6.921466,7.531289 -0.01526,0.03811 0.647932,0.0686 1.600779,0.06098 l 1.623649,-0.0075 0.533592,-0.586952 c 0.29729,-0.32015 3.056727,-3.30065 6.136324,-6.631799 3.079596,-3.331147 5.686578,-6.151564 5.7933,-6.273535 l 0.19057,-0.221056 1.524551,2.042899 c 0.838505,1.120545 3.148199,4.215385 5.13012,6.868107 l 3.613183,4.817587 h 5.526507 c 4.596528,0 5.518879,-0.01525 5.48839,-0.09912 -0.02285,-0.06098 -1.425459,-1.951427 -3.117713,-4.215388 -1.692255,-2.256336 -3.628431,-4.848076 -4.299238,-5.747565 -0.678424,-0.899482 -2.667966,-3.575074 -4.436448,-5.930506 -1.768479,-2.363055 -3.216803,-4.32973 -3.216803,-4.360219 0,-0.05338 9.345506,-10.199256 12.524195,-13.591386 l 0.90711,-0.968121 H 47.8128 l -1.661764,0.0075 -1.943803,2.103883 c -1.067188,1.158659 -3.681793,3.994326 -5.816168,6.288776 l -3.86474,4.177281 -4.687996,-6.265912 -4.695624,-6.273534 -5.526504,-0.03812 c -3.041481,-0.02286 -5.549368,-0.01525 -5.564614,0.0075 z m 13.095905,6.753767 c 1.806592,2.424037 4.596526,6.15157 6.197305,8.293566 1.600778,2.134375 5.152987,6.890977 7.89718,10.557527 2.744196,3.674168 5.015782,6.715648 5.053892,6.76901 0.04574,0.0686 -0.495478,0.09149 -2.469774,0.09149 H 41.302957 L 36.302429,40.902537 C 24.761568,25.481681 18.937778,17.691219 18.869171,17.576877 c -0.04574,-0.06859 0.472612,-0.09147 2.462152,-0.09147 h 2.523136 z"
       id="path1"
       style="fill:#e0e0e0;fill-opacity:1;stroke:none;stroke-width:0.00762278" /><path
       fill="#52a535"
       d="M 58.780125,6.0385095 H 6.6111803 V 58.207454 H 58.780125 Z"
       id="path1-3"
       style="stroke-width:1.86318;fill:url(#linearGradient4)" /><path
       fill="#86d562"
       d="M 48.346336,26.906087 H 37.912547 V 27.78178 H 48.346336 Z M 37.912547,42.556771 H 27.478759 v 0.875693 h 10.433788 z m 5.216896,5.216894 h -5.216896 v 0.875693 h 5.216896 z m -15.650684,0 h -5.216894 v 0.875693 h 5.216894 z m 0,-20.867578 H 17.04497 v 0.875693 h 10.433789 z"
       id="path2"
       style="stroke-width:1.86318" /><path
       d="M 48.346336,26.906087 V 16.472298 H 37.912547 V 26.906087 H 27.478759 v 5.216895 h -5.216894 v 15.650683 h 5.216894 v -5.216894 h 10.433788 v 5.216894 h 5.216896 V 32.122982 H 37.912547 V 26.906087 Z M 27.478759,16.472298 H 17.04497 v 10.433789 h 10.433789 z"
       id="path3"
       style="stroke-width:1.86318;fill:url(#linearGradient6);fill-opacity:1" /><path
       fill="#2a641c"
       d="M 48.346336,16.472298 H 37.912547 v 0.875694 H 48.346336 Z M 37.912547,26.906087 H 27.478759 V 27.78178 H 37.912547 Z M 27.478759,16.472298 H 17.04497 v 0.875694 h 10.433789 z m 0,15.650684 h -5.216894 v 0.875693 h 5.216894 z m 15.650684,0 h -5.216896 v 0.875693 h 5.216896 z"
       id="path4"
       style="stroke-width:1.86318" /></g></svg>
