<?xml version="1.0" encoding="UTF-8" standalone="no"?>
<!-- Created with Inkscape (http://www.inkscape.org/) -->

<svg
   width="64"
   height="64"
   viewBox="0 0 64 64"
   version="1.1"
   id="svg1"
   inkscape:version="1.4-dev (1:1.4.0-dev+202403210151+2fe0648968)"
   sodipodi:docname="icon copy.svg"
   xmlns:inkscape="http://www.inkscape.org/namespaces/inkscape"
   xmlns:sodipodi="http://sodipodi.sourceforge.net/DTD/sodipodi-0.dtd"
   xmlns:xlink="http://www.w3.org/1999/xlink"
   xmlns="http://www.w3.org/2000/svg"
   xmlns:svg="http://www.w3.org/2000/svg">
  <sodipodi:namedview
     id="namedview1"
     pagecolor="#ffffff"
     bordercolor="#000000"
     borderopacity="0.25"
     inkscape:showpageshadow="2"
     inkscape:pageopacity="0.0"
     inkscape:pagecheckerboard="0"
     inkscape:deskcolor="#d1d1d1"
     inkscape:document-units="px"
     inkscape:zoom="6.2890625"
     inkscape:cx="42.931677"
     inkscape:cy="38.002484"
     inkscape:window-width="1920"
     inkscape:window-height="1011"
     inkscape:window-x="0"
     inkscape:window-y="0"
     inkscape:window-maximized="1"
     inkscape:current-layer="layer1" />
  <defs
     id="defs1">
    <linearGradient
       id="linear0"
       gradientUnits="userSpaceOnUse"
       x1="2.3059001"
       y1="1.7146"
       x2="29.694901"
       y2="29.104601"
       gradientTransform="scale(2)">
      <stop
         offset="0"
         style="stop-color:rgb(15.686275%,68.627451%,91.764706%);stop-opacity:1;"
         id="stop1" />
      <stop
         offset="1"
         style="stop-color:rgb(51.372549%,54.509804%,89.411765%);stop-opacity:1;"
         id="stop2" />
    </linearGradient>
    <linearGradient
       inkscape:collect="always"
       xlink:href="#linearGradient13"
       id="linearGradient12"
       x1="15.060826"
       y1="127.54347"
       x2="240.44658"
       y2="127.54347"
       gradientUnits="userSpaceOnUse"
       gradientTransform="matrix(0.23163992,0,0,0.23163992,2.5171727,1.9058263)" />
    <linearGradient
       id="linearGradient13"
       inkscape:collect="always">
      <stop
         style="stop-color:#78bbe0;stop-opacity:1;"
         offset="0"
         id="stop8" />
      <stop
         style="stop-color:#0097d7;stop-opacity:1;"
         offset="1"
         id="stop13" />
    </linearGradient>
    <linearGradient
       inkscape:collect="always"
       xlink:href="#linearGradient3"
       id="linearGradient5"
       x1="51.92054"
       y1="100.02872"
       x2="200.78362"
       y2="100.02872"
       gradientUnits="userSpaceOnUse"
       gradientTransform="matrix(0.26874239,0,0,0.26874239,-1.84613,4.5680275)" />
    <linearGradient
       id="linearGradient3"
       inkscape:collect="always">
      <stop
         style="stop-color:#f99502;stop-opacity:0.90196079;"
         offset="0"
         id="stop3" />
      <stop
         style="stop-color:#ffbc1d;stop-opacity:0.90196079;"
         offset="1"
         id="stop5" />
    </linearGradient>
  </defs>
  <g
     inkscape:label="icon"
     inkscape:groupmode="layer"
     id="layer1">
    <rect
       style="fill:#79c3ed;fill-opacity:1;stroke:#009bd1;stroke-width:3.44636;stroke-linecap:round;stroke-linejoin:round;stroke-opacity:0.898039"
       id="rect1-5"
       width="52.208344"
       height="51.380386"
       x="6.0058565"
       y="5.7597928"
       ry="4.9063501" />
    <rect
       style="fill:url(#linearGradient12);stroke:none;stroke-width:3.44636;stroke-linecap:round;stroke-linejoin:round;stroke-opacity:0.898039"
       id="rect8"
       width="52.208344"
       height="51.380386"
       x="6.0058565"
       y="5.7597928"
       ry="4.9063501" />
    <circle
       style="fill:url(#linearGradient5);stroke:none;stroke-width:3.21166;stroke-linecap:round;stroke-linejoin:round;stroke-opacity:0.901961"
       id="path3"
       cx="32.110031"
       cy="31.449978"
       r="20.002913" />
    <g
       style="fill:#ffffff;fill-opacity:1;stroke:none"
       id="g8"
       transform="matrix(0,1.1770142,-1.1770142,0,47.114364,17.087924)">
      <g
         id="g12">
        <path
           id="path8"
           d="m 4.37891,15.1999 c -0.90944,1.5751 -1.36402,2.3635 -1.2961,3.0098 0.05925,0.5637 0.35511,1.0754 0.81367,1.4085 0.52556,0.3819 1.43442,0.3819 3.25205,0.3819 h 9.70297 c 1.8176,0 2.7263,0 3.2519,-0.3819 0.4585,-0.3331 0.7545,-0.8448 0.8138,-1.4085 0.0679,-0.6463 -0.3865,-1.4347 -1.296,-3.0098 L 14.7715,6.79986 c -0.9094,-1.57518 -1.3644,-2.36264 -1.958,-2.62695 -0.5178,-0.23055 -1.1095,-0.23055 -1.6273,0 -0.5934,0.2642 -1.0481,1.05167 -1.95674,2.62554 z"
           stroke="#000000"
           stroke-width="2"
           stroke-linecap="round"
           stroke-linejoin="round"
           style="fill:#ffffff;fill-opacity:0.298039;stroke:none"
           transform="translate(0.40421261,-0.50526614)" />
        <path
           id="Vector"
           d="m 4.37891,15.1999 c -0.90944,1.5751 -1.36402,2.3635 -1.2961,3.0098 0.05925,0.5637 0.35511,1.0754 0.81367,1.4085 0.52556,0.3819 1.43442,0.3819 3.25205,0.3819 h 9.70297 c 1.8176,0 2.7263,0 3.2519,-0.3819 0.4585,-0.3331 0.7545,-0.8448 0.8138,-1.4085 0.0679,-0.6463 -0.3865,-1.4347 -1.296,-3.0098 L 14.7715,6.79986 c -0.9094,-1.57518 -1.3644,-2.36264 -1.958,-2.62695 -0.5178,-0.23055 -1.1095,-0.23055 -1.6273,0 -0.5934,0.2642 -1.0481,1.05167 -1.95674,2.62554 z"
           stroke="#000000"
           stroke-width="2"
           stroke-linecap="round"
           stroke-linejoin="round"
           style="fill:#ffffff;fill-opacity:1;stroke:none" />
      </g>
    </g>
  </g>
</svg>
