<?xml version="1.0" encoding="UTF-8" standalone="no"?>
<!-- Created with Inkscape (http://www.inkscape.org/) -->

<svg
   width="64"
   height="64"
   viewBox="0 0 64 64"
   version="1.1"
   id="svg1"
   inkscape:version="1.4 (e7c3feb, 2024-10-09)"
   sodipodi:docname="qtcreator.svg"
   xml:space="preserve"
   xmlns:inkscape="http://www.inkscape.org/namespaces/inkscape"
   xmlns:sodipodi="http://sodipodi.sourceforge.net/DTD/sodipodi-0.dtd"
   xmlns="http://www.w3.org/2000/svg"
   xmlns:svg="http://www.w3.org/2000/svg"><sodipodi:namedview
     id="namedview1"
     pagecolor="#ffffff"
     bordercolor="#000000"
     borderopacity="0.25"
     inkscape:showpageshadow="2"
     inkscape:pageopacity="0.0"
     inkscape:pagecheckerboard="0"
     inkscape:deskcolor="#d1d1d1"
     inkscape:document-units="px"
     inkscape:zoom="4.4470388"
     inkscape:cx="-9.6693558"
     inkscape:cy="-1.0119093"
     inkscape:window-width="1920"
     inkscape:window-height="1009"
     inkscape:window-x="0"
     inkscape:window-y="0"
     inkscape:window-maximized="1"
     inkscape:current-layer="layer1" /><defs
     id="defs1"><linearGradient
       id="linear0"
       gradientUnits="userSpaceOnUse"
       x1="2.3059001"
       y1="1.7146"
       x2="29.694901"
       y2="29.104601"
       gradientTransform="scale(2)"><stop
         offset="0"
         style="stop-color:rgb(15.686275%,68.627451%,91.764706%);stop-opacity:1;"
         id="stop1" /><stop
         offset="1"
         style="stop-color:rgb(51.372549%,54.509804%,89.411765%);stop-opacity:1;"
         id="stop2" /></linearGradient></defs><g
     inkscape:label="qtcreator"
     inkscape:groupmode="layer"
     id="layer1"><polygon
       fill="#41cd52"
       points="0,166.59024 0,191.59118 24.60498,191.59118 33.504653,191.59118 220.48505,191.59118 255.99649,155.50786 255.99649,34.842095 255.99649,25.001834 255.99649,0 231.39151,0 222.49184,0 35.511442,0 0,36.084207 0,156.7482 "
       id="polygon1"
       transform="matrix(0.21858933,0,0,0.277217,4,4.6015535)"
       inkscape:label="polygon"
       style="fill:#2cde85;fill-opacity:1" /><path
       d="m 25.122658,15.905634 c 3.642809,0 6.198495,1.04671 7.647988,3.159119 1.468568,2.093031 2.193316,5.329476 2.193316,9.709335 0,2.887413 -0.305158,5.213001 -0.896399,6.976768 -0.610504,1.782949 -1.583,3.139543 -2.956206,4.069782 l 2.956206,4.864161 -3.642809,1.725005 -3.146927,-5.252147 c -0.457735,0.135657 -1.16341,0.21337 -2.155169,0.21337 -3.680951,0 -6.255711,-1.007752 -7.705205,-3.023456 -1.449495,-2.015318 -2.174243,-5.213004 -2.174243,-9.554296 0,-4.36048 0.743821,-7.596731 2.212386,-9.70914 1.468566,-2.112606 4.024255,-3.178501 7.667062,-3.178501 z m 18.576413,1.395547 v 5.232576 h 4.882506 v 3.352532 h -4.882506 v 7.926575 c 0,1.47268 0.114434,2.441676 0.32423,2.906987 0.209603,0.484497 0.762889,0.717056 1.621143,0.717056 l 2.89899,-0.116473 0.171458,3.139739 c -1.563738,0.309885 -2.765483,0.465117 -3.604474,0.465117 -2.00259,0 -3.375793,-0.465117 -4.119805,-1.395353 -0.743627,-0.930235 -1.125074,-2.694002 -1.125074,-5.290714 v -8.372121 h -2.708266 v -3.333345 h 2.708265 v -5.232576 z m -18.50656,1.841839 c -2.207535,0 -3.729972,0.749244 -4.567312,2.267451 -0.81831,1.518207 -1.236982,3.923676 -1.236982,7.255843 0,3.312449 0.399641,5.698202 1.19892,7.117823 0.799278,1.41962 2.340747,2.149147 4.605373,2.149147 2.264625,0 3.787063,-0.709809 4.586341,-2.109714 0.780252,-1.399902 1.179892,-3.785655 1.179892,-7.117824 0,-3.351883 -0.39964,-5.777068 -1.217952,-7.295275 -0.818309,-1.518207 -2.340747,-2.267451 -4.54828,-2.267451 z"
       fill="#ffffff"
       id="path1"
       style="stroke-width:0.218589;fill:#00414a;fill-opacity:1"
       inkscape:label="path" /></g></svg>
