<?xml version="1.0" encoding="UTF-8" standalone="no"?>
<!-- Created with Inkscape (http://www.inkscape.org/) -->

<svg
   width="64"
   height="64"
   viewBox="0 0 64 64"
   version="1.1"
   id="svg1"
   inkscape:version="1.4.2 (1:1.4.2+202505120737+ebf0e940d0)"
   sodipodi:docname="waydroid.svg"
   xml:space="preserve"
   xmlns:inkscape="http://www.inkscape.org/namespaces/inkscape"
   xmlns:sodipodi="http://sodipodi.sourceforge.net/DTD/sodipodi-0.dtd"
   xmlns:xlink="http://www.w3.org/1999/xlink"
   xmlns="http://www.w3.org/2000/svg"
   xmlns:svg="http://www.w3.org/2000/svg"><sodipodi:namedview
     id="namedview1"
     pagecolor="#ffffff"
     bordercolor="#000000"
     borderopacity="0.25"
     inkscape:showpageshadow="2"
     inkscape:pageopacity="0.0"
     inkscape:pagecheckerboard="0"
     inkscape:deskcolor="#d1d1d1"
     inkscape:document-units="px"
     inkscape:zoom="4.4470388"
     inkscape:cx="-15.628377"
     inkscape:cy="35.52926"
     inkscape:window-width="1920"
     inkscape:window-height="1015"
     inkscape:window-x="0"
     inkscape:window-y="0"
     inkscape:window-maximized="1"
     inkscape:current-layer="layer1" /><defs
     id="defs1"><linearGradient
       id="linearGradient5"
       inkscape:collect="always"><stop
         style="stop-color:#ffc400;stop-opacity:1;"
         offset="0"
         id="stop5" /><stop
         style="stop-color:#f48502;stop-opacity:1;"
         offset="1"
         id="stop6" /></linearGradient><linearGradient
       id="linearGradient1"
       inkscape:collect="always"><stop
         style="stop-color:#3cdc85;stop-opacity:0.99607843;"
         offset="0"
         id="stop3" /><stop
         style="stop-color:#32c29c;stop-opacity:1;"
         offset="1"
         id="stop4" /></linearGradient><linearGradient
       id="linear0"
       gradientUnits="userSpaceOnUse"
       x1="2.3059001"
       y1="1.7146"
       x2="29.694901"
       y2="29.104601"
       gradientTransform="scale(2)"><stop
         offset="0"
         style="stop-color:rgb(15.686275%,68.627451%,91.764706%);stop-opacity:1;"
         id="stop1" /><stop
         offset="1"
         style="stop-color:rgb(51.372549%,54.509804%,89.411765%);stop-opacity:1;"
         id="stop2" /></linearGradient><linearGradient
       id="rL2wppHyxHVbobwndsT6Ca"
       x1="24.237274"
       x2="13.445683"
       y1="34.089581"
       y2="14.513655"
       gradientUnits="userSpaceOnUse"
       gradientTransform="matrix(1.405606,0,0,1.405606,-1.7345361,-1.7346055)"><stop
         offset="0"
         stop-color="#4c4c4c"
         id="stop1-7"
         style="stop-color:#4e237d;stop-opacity:1;" /><stop
         offset="1"
         stop-color="#343434"
         id="stop2-3"
         style="stop-color:#9f41ac;stop-opacity:1;" /></linearGradient><linearGradient
       inkscape:collect="always"
       xlink:href="#linearGradient1"
       id="linearGradient4"
       x1="18.763975"
       y1="12.436398"
       x2="33.786335"
       y2="37.241367"
       gradientUnits="userSpaceOnUse" /><linearGradient
       inkscape:collect="always"
       xlink:href="#linearGradient5"
       id="linearGradient6"
       x1="17.173931"
       y1="41.143044"
       x2="35.694393"
       y2="76.760437"
       gradientUnits="userSpaceOnUse" /></defs><g
     inkscape:label="github"
     inkscape:groupmode="layer"
     id="layer1"><path
       d="m 47.807173,13.089239 c 6.545177,4.884225 10.784132,12.696179 10.784132,21.499714 0,14.797799 -11.976724,26.793666 -26.750929,26.793666 -14.774211,0 -26.7509348,-11.995867 -26.7509348,-26.793666 0,-8.810881 4.2461321,-16.628477 10.8007118,-21.512019 L 11.017211,6.5781462 C 10.257243,5.5734085 10.470052,4.1424128 11.47326,3.3812484 12.476286,2.6200719 13.905112,2.8332069 14.665079,3.8379447 l 5.118402,6.8266203 c 3.623083,-1.8353048 7.719309,-2.8692777 12.056895,-2.8692777 4.33758,0 8.433806,1.0339729 12.05689,2.8692777 l 5.118402,-6.8266203 c 0.759967,-1.0047378 2.188792,-1.2178728 3.191824,-0.4566963 1.003202,0.7611644 1.216011,2.1921601 0.456043,3.1968978 z"
       fill="#3ddb85"
       id="path4"
       style="stroke-width:0.170932;fill:url(#linearGradient4)" /><path
       d="m 58.261919,30.443841 c 0.604927,3.819656 0.374681,7.725126 -0.675013,11.447179 -1.049525,3.722053 -2.893542,7.172326 -5.404888,10.113049 -2.511509,2.940723 -5.630339,5.301981 -9.142148,6.921055 -3.511639,1.619074 -7.332662,2.457495 -11.199494,2.457495 -3.866838,0 -7.687861,-0.838421 -11.1995,-2.457495 C 17.129068,57.30605 14.010237,54.944792 11.498728,52.004069 8.9873886,49.063346 7.1433649,45.613073 6.0938403,41.89102 5.0441464,38.168967 4.8138997,34.263497 5.4188272,30.443841 l 20.9660638,3.321045 c 3.614539,0.572458 7.296425,0.572458 10.910964,0 z"
       fill="#ffc400"
       id="path6"
       style="stroke-width:0.170932;fill:url(#linearGradient6)" /><path
       fill-rule="evenodd"
       clip-rule="evenodd"
       d="m 54.423458,31.023131 -7.88221,23.672955 c -0.247509,0.74355 -1.203705,0.945935 -1.731376,0.366644 L 31.878149,40.860469 18.946426,55.06273 c -0.527501,0.579291 -1.483867,0.376906 -1.731376,-0.366644 l -7.8820404,-23.672955 8.9490034,1.417373 2.460228,9.751695 7.219676,-8.253643 c 2.602618,0.294177 5.230021,0.294177 7.832464,0 l 7.219676,8.253643 2.460234,-9.751695 z"
       fill="#ffffff"
       id="path8"
       style="stroke-width:0.170932" /></g></svg>
