<?xml version="1.0" encoding="UTF-8" standalone="no"?>
<svg
   width="48"
   height="48"
   version="1.1"
   id="svg54"
   sodipodi:docname="email.svg"
   inkscape:version="1.4.3 (1:1.4.3+202512261035+0d15f75042)"
   xml:space="preserve"
   xmlns:inkscape="http://www.inkscape.org/namespaces/inkscape"
   xmlns:sodipodi="http://sodipodi.sourceforge.net/DTD/sodipodi-0.dtd"
   xmlns:xlink="http://www.w3.org/1999/xlink"
   xmlns="http://www.w3.org/2000/svg"
   xmlns:svg="http://www.w3.org/2000/svg"><sodipodi:namedview
     id="namedview54"
     pagecolor="#ffffff"
     bordercolor="#000000"
     borderopacity="0.25"
     inkscape:showpageshadow="2"
     inkscape:pageopacity="0.0"
     inkscape:pagecheckerboard="0"
     inkscape:deskcolor="#d1d1d1"
     inkscape:zoom="12.006084"
     inkscape:cx="26.486571"
     inkscape:cy="30.817709"
     inkscape:window-width="1920"
     inkscape:window-height="1015"
     inkscape:window-x="0"
     inkscape:window-y="0"
     inkscape:window-maximized="1"
     inkscape:current-layer="svg54" /><defs
     id="defs37"><linearGradient
       id="a"
       y1="543.8"
       y2="503.8"
       x2="0"
       gradientUnits="userSpaceOnUse"><stop
         stop-color="#363a3e"
         id="stop1" /><stop
         offset="1"
         stop-color="#44484c"
         id="stop2" /></linearGradient><linearGradient
       id="b"
       y1="24"
       x1="8"
       y2="8"
       x2="24"
       gradientUnits="userSpaceOnUse"><stop
         stop-color="#e81877"
         id="stop3" /><stop
         offset=".312"
         stop-color="#dd1d8c"
         id="stop4" /><stop
         offset=".562"
         stop-color="#6d57b1"
         id="stop5" /><stop
         offset=".75"
         stop-color="#2a78c1"
         id="stop6" /><stop
         offset="1"
         stop-color="#018dcb"
         id="stop7" /></linearGradient><linearGradient
       id="c"
       y1="24"
       x1="8"
       y2="8"
       gradientUnits="userSpaceOnUse"
       x2="24"
       gradientTransform="matrix(1 0 0-1 384.57 547.8)"><stop
         stop-color="#e51561"
         id="stop8" /><stop
         offset=".312"
         stop-color="#e4156c"
         id="stop9" /><stop
         offset=".562"
         stop-color="#e71e2c"
         id="stop10" /><stop
         offset=".75"
         stop-color="#e8301e"
         id="stop11" /><stop
         offset="1"
         stop-color="#e6320e"
         id="stop12" /></linearGradient><linearGradient
       id="d"
       y1="24"
       x1="8"
       y2="8"
       gradientUnits="userSpaceOnUse"
       x2="24"
       gradientTransform="matrix(-1 0 0 1 432.57 499.8)"><stop
         stop-color="#bec900"
         id="stop13" /><stop
         offset=".312"
         stop-color="#9ec80a"
         id="stop14" /><stop
         offset=".562"
         stop-color="#71b93d"
         id="stop15" /><stop
         offset=".75"
         stop-color="#35a48f"
         id="stop16" /><stop
         offset="1"
         stop-color="#018fca"
         id="stop17" /></linearGradient><linearGradient
       id="e"
       y1="24"
       x1="8"
       y2="8"
       gradientUnits="userSpaceOnUse"
       x2="24"
       gradientTransform="matrix(-1 0 0-1 432.57 547.8)"><stop
         stop-color="#c1cc00"
         id="stop18" /><stop
         offset=".312"
         stop-color="#dfcd00"
         id="stop19" /><stop
         offset=".562"
         stop-color="#f0cc00"
         id="stop20" /><stop
         offset=".75"
         stop-color="#fd8c08"
         id="stop21" /><stop
         offset="1"
         stop-color="#f25c13"
         id="stop22" /></linearGradient><linearGradient
       id="f"
       y1="-516.8"
       y2="-530.8"
       gradientUnits="userSpaceOnUse"
       x2="0"><stop
         stop-color="#2a2c2f"
         id="stop23" /><stop
         offset="1"
         stop-color="#424649"
         id="stop24" /></linearGradient><filter
       width="1.12"
       x="-0.060000001"
       y="-0.060000001"
       height="1.12"
       color-interpolation-filters="sRGB"
       id="g"><feGaussianBlur
         stdDeviation=".4"
         id="feGaussianBlur24" /></filter><clipPath
       id="h"><use
         xlink:href="#x"
         id="use24" /></clipPath><linearGradient
       xlink:href="#f"
       id="i"
       y1="40"
       y2="8"
       gradientUnits="userSpaceOnUse"
       x2="0" /><clipPath
       id="j"><use
         xlink:href="#x"
         id="use25" /></clipPath><clipPath
       id="k"><use
         xlink:href="#y"
         id="use26" /></clipPath><linearGradient
       xlink:href="#f"
       id="l"
       y1="539.8"
       y2="507.8"
       gradientUnits="userSpaceOnUse"
       x2="0" /><clipPath
       id="m"><use
         xlink:href="#y"
         id="use27" /></clipPath><clipPath
       id="n"><use
         xlink:href="#y"
         id="use28" /></clipPath><clipPath
       id="o"><use
         xlink:href="#y"
         id="use29" /></clipPath><clipPath
       id="p"><use
         xlink:href="#y"
         id="use30" /></clipPath><clipPath
       id="q"><use
         xlink:href="#y"
         id="use31" /></clipPath><linearGradient
       id="r"
       y1="525.8"
       y2="521.8"
       x2="0"
       gradientUnits="userSpaceOnUse"><stop
         stop-color="#989a9b"
         id="stop31" /><stop
         offset="1"
         stop-color="#f6f6f7"
         id="stop32" /></linearGradient><linearGradient
       id="s"
       y1="520.8"
       y2="535.8"
       x1="401.57"
       gradientUnits="userSpaceOnUse"
       x2="416.57"><stop
         stop-color="#292c2f"
         id="stop33" /><stop
         offset="1"
         stop-opacity="0"
         id="stop34" /></linearGradient><clipPath
       id="t"><use
         xlink:href="#x"
         id="use34" /></clipPath><clipPath
       id="u"><use
         xlink:href="#y"
         id="use35" /></clipPath><clipPath
       id="v"><use
         xlink:href="#y"
         id="use36" /></clipPath><clipPath
       id="w"><use
         xlink:href="#y"
         id="use37" /></clipPath><rect
       width="32"
       x="8"
       y="8"
       fill="url(#i)"
       rx="16"
       height="32"
       id="x" /><rect
       width="32"
       x="392.57"
       y="507.8"
       fill="url(#l)"
       rx="16"
       height="32"
       id="y" /><path
       stroke-opacity=".55"
       fill="url(#b)"
       id="z"
       stroke-width="2.8"
       d="m24 8c-8.864 0-16 7.136-16 16h16z" /><path
       stroke-opacity=".55"
       fill="url(#c)"
       id="A"
       stroke-width="2.8"
       d="m408.57 539.8c-8.864 0-16-7.136-16-16h16z" /><path
       stroke-opacity=".55"
       fill="url(#d)"
       id="B"
       stroke-width="2.8"
       d="m408.57 507.8c8.864 0 16 7.136 16 16h-16z" /><path
       stroke-opacity=".55"
       fill="url(#e)"
       id="C"
       stroke-width="2.8"
       d="m408.57 539.8c8.864 0 16-7.136 16-16h-16z" /><linearGradient
       id="linearGradient4"
       inkscape:collect="always"><stop
         style="stop-color:#bd4ff4;stop-opacity:1;"
         offset="0"
         id="stop3-3" /><stop
         style="stop-color:#8c20e5;stop-opacity:1;"
         offset="1"
         id="stop4-6" /></linearGradient><linearGradient
       id="linear0"
       gradientUnits="userSpaceOnUse"
       x1="2.3059001"
       y1="1.7146"
       x2="29.694901"
       y2="29.104601"
       gradientTransform="scale(2)"><stop
         offset="0"
         style="stop-color:rgb(15.686275%,68.627451%,91.764706%);stop-opacity:1;"
         id="stop1-3" /><stop
         offset="1"
         style="stop-color:rgb(51.372549%,54.509804%,89.411765%);stop-opacity:1;"
         id="stop2-5" /></linearGradient><linearGradient
       id="a-6"
       x2="1"
       gradientTransform="matrix(0,-55.620259,55.620259,0,31.699225,60.110904)"
       gradientUnits="userSpaceOnUse"><stop
         stop-color="#0b378c"
         offset="0"
         id="stop256" /><stop
         stop-color="#2f67ba"
         offset="1"
         id="stop258" /></linearGradient><linearGradient
       inkscape:collect="always"
       xlink:href="#linearGradient4"
       id="linearGradient6"
       x1="0"
       y1="32"
       x2="64"
       y2="32"
       gradientUnits="userSpaceOnUse" /><linearGradient
       inkscape:collect="always"
       xlink:href="#linearGradient4"
       id="linearGradient7"
       gradientUnits="userSpaceOnUse"
       x1="0"
       y1="-8.8817842e-16"
       x2="54"
       y2="54" /><linearGradient
       inkscape:collect="always"
       xlink:href="#linearGradient4"
       id="linearGradient12"
       gradientUnits="userSpaceOnUse"
       x1="0"
       y1="32"
       x2="64"
       y2="32" /><filter
       inkscape:collect="always"
       style="color-interpolation-filters:sRGB"
       id="filter12"
       x="-0.012"
       y="-0.012"
       width="1.024"
       height="1.024"><feGaussianBlur
         inkscape:collect="always"
         stdDeviation="0.32"
         id="feGaussianBlur12" /></filter></defs><style
     type="text/css"
     id="style1">
	.st0{fill:#77B3D4;}
	.st1{opacity:0.2;}
	.st2{fill:#231F20;}
	.st3{fill:#FFFFFF;}
</style><g
     id="g12"
     transform="matrix(0.63102435,0,0,0.63102435,2.7613881,0.89042821)"
     style="opacity:0.3;mix-blend-mode:normal;fill:url(#linearGradient12);fill-opacity:1;filter:url(#filter12)"
     inkscape:label="email"><g
       id="g10"
       style="fill:url(#linearGradient9);fill-opacity:1">
	<g
   id="g6"
   style="fill:url(#linearGradient1);fill-opacity:1">
		
	<circle
   class="st0"
   cx="34.395176"
   cy="37.588749"
   r="32"
   id="circle2"
   style="fill:#000000;fill-opacity:1" /></g>
	<g
   class="st1"
   id="g7"
   style="fill:url(#linearGradient3);fill-opacity:1">
		<path
   class="st2"
   d="m 32,12 c -12.1,0 -22,9.9 -22,22 0,12.1 9.9,22 22,22 3.5,0 7,-0.8 10.1,-2.4 1,-0.5 1.4,-1.7 0.9,-2.7 -0.5,-1 -1.7,-1.4 -2.7,-0.9 -2.6,1.3 -5.3,2 -8.2,2 -9.9,0 -18,-8.1 -18,-18 0,-9.9 8.1,-18 18,-18 9.9,0 18,8.1 18,18 0,3 -0.8,6 -2.2,8.6 -1.8,-1.4 -4.4,-4.2 -4.4,-8.5 v -8.8 c 0,-1.1 -0.9,-2 -2,-2 -1.1,0 -2,0.9 -2,2 v 0.1 c -2,-1.7 -4.6,-2.8 -7.4,-2.8 -6.3,0 -11.4,5.1 -11.4,11.4 0,6.3 5,11.4 11.3,11.4 3.7,0 7,-1.8 9.1,-4.6 2.3,4.2 6.2,6.3 6.4,6.4 0.9,0.5 2,0.2 2.6,-0.6 C 52.7,42.9 54,38.6 54,34 54,21.9 44.1,12 32,12 Z m 0,29.4 c -4.1,0 -7.4,-3.3 -7.4,-7.4 0,-4.1 3.3,-7.4 7.4,-7.4 4.1,0 7.4,3.3 7.4,7.4 0,4.1 -3.3,7.4 -7.4,7.4 z"
   id="path6"
   style="fill:url(#linearGradient2);fill-opacity:1" />
	</g>
	<g
   id="g8"
   style="fill:url(#linearGradient5);fill-opacity:1">
		<path
   class="st3"
   d="M 32,54 C 19.9,54 10,44.1 10,32 10,19.9 19.9,10 32,10 c 12.1,0 22,9.9 22,22 0,4.5 -1.4,8.9 -3.9,12.6 -0.6,0.8 -1.7,1.1 -2.6,0.6 C 47.2,45 39.4,41 39.4,32.1 v -8.8 c 0,-1.1 0.9,-2 2,-2 1.1,0 2,0.9 2,2 v 8.8 c 0,4.3 2.6,7.1 4.4,8.5 C 49.2,38 50,35 50,32 50,22.1 41.9,14 32,14 c -9.9,0 -18,8.1 -18,18 0,9.9 8.1,18 18,18 2.9,0 5.7,-0.7 8.2,-2 1,-0.5 2.2,-0.1 2.7,0.9 0.5,1 0.1,2.2 -0.9,2.7 -3,1.6 -6.5,2.4 -10,2.4 z"
   id="path7"
   style="fill:#ffffff;fill-opacity:1" />
	</g>
	<g
   id="g9"
   style="fill:url(#linearGradient8);fill-opacity:1">
		<path
   class="st3"
   d="m 32,24.6 c 4.1,0 7.4,3.3 7.4,7.4 0,4.1 -3.3,7.4 -7.4,7.4 -4.1,0 -7.4,-3.3 -7.4,-7.4 0,-4.1 3.3,-7.4 7.4,-7.4 m 0,-4 c -6.3,0 -11.4,5.1 -11.4,11.4 0,6.3 5.1,11.4 11.4,11.4 6.3,0 11.4,-5.1 11.4,-11.4 0,-6.3 -5.1,-11.4 -11.4,-11.4 z"
   id="path8"
   style="fill:#ffffff;fill-opacity:1;stroke:none;stroke-opacity:1" />
	</g>
</g><g
       id="g11"
       style="fill:url(#linearGradient10);fill-opacity:1">
</g></g><g
     id="g5"
     transform="matrix(0.63102435,0,0,0.63102435,3.8529666,3.9972283)"
     style="fill:url(#linearGradient6);fill-opacity:1"
     inkscape:label="email"><g
       id="Layer_1"
       style="fill:url(#linearGradient9);fill-opacity:1">
	<g
   id="g1"
   style="fill:url(#linearGradient1);fill-opacity:1">
		<circle
   class="st0"
   cx="32"
   cy="32"
   r="32"
   id="circle1"
   style="fill:url(#linearGradient7);fill-opacity:1" />
	</g>
	<g
   class="st1"
   id="g2"
   style="fill:url(#linearGradient3);fill-opacity:1">
		<path
   class="st2"
   d="m 32,12 c -12.1,0 -22,9.9 -22,22 0,12.1 9.9,22 22,22 3.5,0 7,-0.8 10.1,-2.4 1,-0.5 1.4,-1.7 0.9,-2.7 -0.5,-1 -1.7,-1.4 -2.7,-0.9 -2.6,1.3 -5.3,2 -8.2,2 -9.9,0 -18,-8.1 -18,-18 0,-9.9 8.1,-18 18,-18 9.9,0 18,8.1 18,18 0,3 -0.8,6 -2.2,8.6 -1.8,-1.4 -4.4,-4.2 -4.4,-8.5 v -8.8 c 0,-1.1 -0.9,-2 -2,-2 -1.1,0 -2,0.9 -2,2 v 0.1 c -2,-1.7 -4.6,-2.8 -7.4,-2.8 -6.3,0 -11.4,5.1 -11.4,11.4 0,6.3 5,11.4 11.3,11.4 3.7,0 7,-1.8 9.1,-4.6 2.3,4.2 6.2,6.3 6.4,6.4 0.9,0.5 2,0.2 2.6,-0.6 C 52.7,42.9 54,38.6 54,34 54,21.9 44.1,12 32,12 Z m 0,29.4 c -4.1,0 -7.4,-3.3 -7.4,-7.4 0,-4.1 3.3,-7.4 7.4,-7.4 4.1,0 7.4,3.3 7.4,7.4 0,4.1 -3.3,7.4 -7.4,7.4 z"
   id="path1"
   style="fill:url(#linearGradient2);fill-opacity:1" />
	</g>
	<g
   id="g3"
   style="fill:url(#linearGradient5);fill-opacity:1">
		
	</g>
	<g
   id="g4"
   style="fill:url(#linearGradient8);fill-opacity:1">
		<g
   id="g14"><path
     class="st3"
     d="M 32,54 C 19.9,54 10,44.1 10,32 10,19.9 19.9,10 32,10 c 12.1,0 22,9.9 22,22 0,4.5 -1.4,8.9 -3.9,12.6 -0.6,0.8 -1.7,1.1 -2.6,0.6 C 47.2,45 39.4,41 39.4,32.1 v -8.8 c 0,-1.1 0.9,-2 2,-2 1.1,0 2,0.9 2,2 v 8.8 c 0,4.3 2.6,7.1 4.4,8.5 C 49.2,38 50,35 50,32 50,22.1 41.9,14 32,14 c -9.9,0 -18,8.1 -18,18 0,9.9 8.1,18 18,18 2.9,0 5.7,-0.7 8.2,-2 1,-0.5 2.2,-0.1 2.7,0.9 0.5,1 0.1,2.2 -0.9,2.7 -3,1.6 -6.5,2.4 -10,2.4 z"
     id="path2"
     style="fill:#ffffff;fill-opacity:1" /><path
     class="st3"
     d="m 32,24.6 c 4.1,0 7.4,3.3 7.4,7.4 0,4.1 -3.3,7.4 -7.4,7.4 -4.1,0 -7.4,-3.3 -7.4,-7.4 0,-4.1 3.3,-7.4 7.4,-7.4 m 0,-4 c -6.3,0 -11.4,5.1 -11.4,11.4 0,6.3 5.1,11.4 11.4,11.4 6.3,0 11.4,-5.1 11.4,-11.4 0,-6.3 -5.1,-11.4 -11.4,-11.4 z"
     id="path3"
     style="fill:#ffffff;fill-opacity:1;stroke:none;stroke-opacity:1" /></g>
	<g
   id="g13" /></g>
</g><g
       id="Layer_2"
       style="fill:url(#linearGradient10);fill-opacity:1">
</g></g></svg>
