<?xml version="1.0" encoding="UTF-8" standalone="no"?>
<svg
   width="48"
   height="48"
   version="1.1"
   id="svg54"
   sodipodi:docname="firefox.svg"
   inkscape:version="1.4.3 (1:1.4.3+202512261035+0d15f75042)"
   xml:space="preserve"
   xmlns:inkscape="http://www.inkscape.org/namespaces/inkscape"
   xmlns:sodipodi="http://sodipodi.sourceforge.net/DTD/sodipodi-0.dtd"
   xmlns:xlink="http://www.w3.org/1999/xlink"
   xmlns="http://www.w3.org/2000/svg"
   xmlns:svg="http://www.w3.org/2000/svg"><sodipodi:namedview
     id="namedview54"
     pagecolor="#ffffff"
     bordercolor="#000000"
     borderopacity="0.25"
     inkscape:showpageshadow="2"
     inkscape:pageopacity="0.0"
     inkscape:pagecheckerboard="0"
     inkscape:deskcolor="#d1d1d1"
     inkscape:zoom="12.006084"
     inkscape:cx="34.482518"
     inkscape:cy="24.279357"
     inkscape:window-width="1920"
     inkscape:window-height="1014"
     inkscape:window-x="0"
     inkscape:window-y="0"
     inkscape:window-maximized="1"
     inkscape:current-layer="svg54" /><defs
     id="defs37"><linearGradient
       id="a"
       y1="543.8"
       y2="503.8"
       x2="0"
       gradientUnits="userSpaceOnUse"><stop
         stop-color="#363a3e"
         id="stop1" /><stop
         offset="1"
         stop-color="#44484c"
         id="stop2" /></linearGradient><linearGradient
       id="b"
       y1="24"
       x1="8"
       y2="8"
       x2="24"
       gradientUnits="userSpaceOnUse"><stop
         stop-color="#e81877"
         id="stop3" /><stop
         offset=".312"
         stop-color="#dd1d8c"
         id="stop4" /><stop
         offset=".562"
         stop-color="#6d57b1"
         id="stop5" /><stop
         offset=".75"
         stop-color="#2a78c1"
         id="stop6" /><stop
         offset="1"
         stop-color="#018dcb"
         id="stop7" /></linearGradient><linearGradient
       id="c"
       y1="24"
       x1="8"
       y2="8"
       gradientUnits="userSpaceOnUse"
       x2="24"
       gradientTransform="matrix(1 0 0-1 384.57 547.8)"><stop
         stop-color="#e51561"
         id="stop8" /><stop
         offset=".312"
         stop-color="#e4156c"
         id="stop9" /><stop
         offset=".562"
         stop-color="#e71e2c"
         id="stop10" /><stop
         offset=".75"
         stop-color="#e8301e"
         id="stop11" /><stop
         offset="1"
         stop-color="#e6320e"
         id="stop12" /></linearGradient><linearGradient
       id="d"
       y1="24"
       x1="8"
       y2="8"
       gradientUnits="userSpaceOnUse"
       x2="24"
       gradientTransform="matrix(-1 0 0 1 432.57 499.8)"><stop
         stop-color="#bec900"
         id="stop13" /><stop
         offset=".312"
         stop-color="#9ec80a"
         id="stop14" /><stop
         offset=".562"
         stop-color="#71b93d"
         id="stop15" /><stop
         offset=".75"
         stop-color="#35a48f"
         id="stop16" /><stop
         offset="1"
         stop-color="#018fca"
         id="stop17" /></linearGradient><linearGradient
       id="e"
       y1="24"
       x1="8"
       y2="8"
       gradientUnits="userSpaceOnUse"
       x2="24"
       gradientTransform="matrix(-1 0 0-1 432.57 547.8)"><stop
         stop-color="#c1cc00"
         id="stop18" /><stop
         offset=".312"
         stop-color="#dfcd00"
         id="stop19" /><stop
         offset=".562"
         stop-color="#f0cc00"
         id="stop20" /><stop
         offset=".75"
         stop-color="#fd8c08"
         id="stop21" /><stop
         offset="1"
         stop-color="#f25c13"
         id="stop22" /></linearGradient><linearGradient
       id="f"
       y1="-516.8"
       y2="-530.8"
       gradientUnits="userSpaceOnUse"
       x2="0"><stop
         stop-color="#2a2c2f"
         id="stop23" /><stop
         offset="1"
         stop-color="#424649"
         id="stop24" /></linearGradient><filter
       width="1.12"
       x="-0.060000001"
       y="-0.060000001"
       height="1.12"
       color-interpolation-filters="sRGB"
       id="g"><feGaussianBlur
         stdDeviation=".4"
         id="feGaussianBlur24" /></filter><clipPath
       id="h"><use
         xlink:href="#x"
         id="use24" /></clipPath><linearGradient
       xlink:href="#f"
       id="i"
       y1="40"
       y2="8"
       gradientUnits="userSpaceOnUse"
       x2="0" /><clipPath
       id="j"><use
         xlink:href="#x"
         id="use25" /></clipPath><clipPath
       id="k"><use
         xlink:href="#y"
         id="use26" /></clipPath><linearGradient
       xlink:href="#f"
       id="l"
       y1="539.8"
       y2="507.8"
       gradientUnits="userSpaceOnUse"
       x2="0" /><clipPath
       id="m"><use
         xlink:href="#y"
         id="use27" /></clipPath><clipPath
       id="n"><use
         xlink:href="#y"
         id="use28" /></clipPath><clipPath
       id="o"><use
         xlink:href="#y"
         id="use29" /></clipPath><clipPath
       id="p"><use
         xlink:href="#y"
         id="use30" /></clipPath><clipPath
       id="q"><use
         xlink:href="#y"
         id="use31" /></clipPath><linearGradient
       id="r"
       y1="525.8"
       y2="521.8"
       x2="0"
       gradientUnits="userSpaceOnUse"><stop
         stop-color="#989a9b"
         id="stop31" /><stop
         offset="1"
         stop-color="#f6f6f7"
         id="stop32" /></linearGradient><linearGradient
       id="s"
       y1="520.8"
       y2="535.8"
       x1="401.57"
       gradientUnits="userSpaceOnUse"
       x2="416.57"><stop
         stop-color="#292c2f"
         id="stop33" /><stop
         offset="1"
         stop-opacity="0"
         id="stop34" /></linearGradient><clipPath
       id="t"><use
         xlink:href="#x"
         id="use34" /></clipPath><clipPath
       id="u"><use
         xlink:href="#y"
         id="use35" /></clipPath><clipPath
       id="v"><use
         xlink:href="#y"
         id="use36" /></clipPath><clipPath
       id="w"><use
         xlink:href="#y"
         id="use37" /></clipPath><rect
       width="32"
       x="8"
       y="8"
       fill="url(#i)"
       rx="16"
       height="32"
       id="x" /><rect
       width="32"
       x="392.57"
       y="507.8"
       fill="url(#l)"
       rx="16"
       height="32"
       id="y" /><path
       stroke-opacity=".55"
       fill="url(#b)"
       id="z"
       stroke-width="2.8"
       d="m24 8c-8.864 0-16 7.136-16 16h16z" /><path
       stroke-opacity=".55"
       fill="url(#c)"
       id="A"
       stroke-width="2.8"
       d="m408.57 539.8c-8.864 0-16-7.136-16-16h16z" /><path
       stroke-opacity=".55"
       fill="url(#d)"
       id="B"
       stroke-width="2.8"
       d="m408.57 507.8c8.864 0 16 7.136 16 16h-16z" /><path
       stroke-opacity=".55"
       fill="url(#e)"
       id="C"
       stroke-width="2.8"
       d="m408.57 539.8c8.864 0 16-7.136 16-16h-16z" /><linearGradient
       id="l-3"
       x1="164.52"
       x2="91.329"
       y1="16.533"
       y2="99.167"
       gradientTransform="matrix(0.26029,0,0,0.26894,-45.527,-9.2917)"
       gradientUnits="userSpaceOnUse"><stop
         stop-color="#fff44f"
         stop-opacity=".8"
         offset=".17"
         id="stop1-6" /><stop
         stop-color="#fff44f"
         stop-opacity="0"
         offset=".6"
         id="stop2-7" /></linearGradient><radialGradient
       id="k-5"
       cx="144.54"
       cy="31.934"
       r="127.95"
       gradientTransform="matrix(0.2797,0,0,0.25027,-45.527,-9.2917)"
       gradientUnits="userSpaceOnUse"><stop
         stop-color="#fff44f"
         offset=".09"
         id="stop3-3" /><stop
         stop-color="#ff980e"
         offset=".63"
         id="stop4-5" /></radialGradient><radialGradient
       id="j-6"
       cx="122.52"
       cy="23.951"
       r="111.56"
       gradientTransform="matrix(0.26691,0,0,0.26227,-45.527,-9.2917)"
       gradientUnits="userSpaceOnUse"><stop
         stop-color="#fff44f"
         offset=".14"
         id="stop5-2" /><stop
         stop-color="#ff980e"
         offset=".48"
         id="stop6-9" /><stop
         stop-color="#ff3647"
         offset=".66"
         id="stop7-1" /><stop
         stop-color="#e31587"
         offset=".9"
         id="stop8-2" /></radialGradient><radialGradient
       id="i-7"
       cx="209.6"
       cy="-10.062"
       r="188.69"
       gradientTransform="matrix(0.18208,0,0,0.38445,-45.527,-9.2917)"
       gradientUnits="userSpaceOnUse"><stop
         stop-color="#fff44f"
         offset="0"
         id="stop9-0" /><stop
         stop-color="#ff980e"
         offset=".3"
         id="stop10-9" /><stop
         stop-color="#ff3647"
         offset=".57"
         id="stop11-3" /><stop
         stop-color="#e31587"
         offset=".74"
         id="stop12-6" /></radialGradient><radialGradient
       id="h-0"
       cx="147.21"
       cy="-19.75"
       r="179.59"
       gradientTransform="matrix(0.28877,0,0,0.24241,-45.527,-9.2917)"
       gradientUnits="userSpaceOnUse"><stop
         stop-color="#fff44f"
         offset=".11"
         id="stop13-6" /><stop
         stop-color="#ff980e"
         offset=".46"
         id="stop14-2" /><stop
         stop-color="#ff3647"
         offset=".72"
         id="stop15-6" /><stop
         stop-color="#e31587"
         offset=".9"
         id="stop16-1" /></radialGradient><radialGradient
       id="g-8"
       cx="123.41"
       cy="8.906"
       r="41.128"
       gradientTransform="matrix(0.26407,0,0,0.26508,-45.527,-9.2917)"
       gradientUnits="userSpaceOnUse"><stop
         stop-color="#ffe226"
         offset=".1"
         id="stop17-7" /><stop
         stop-color="#ff7139"
         offset=".79"
         id="stop18-9" /></radialGradient><radialGradient
       id="f-2"
       cx="133.84"
       cy="48.602"
       r="31.901"
       gradientTransform="matrix(0.2527,0,0,0.27701,-45.527,-9.2917)"
       gradientUnits="userSpaceOnUse"><stop
         stop-color="#9059ff"
         stop-opacity="0"
         offset=".21"
         id="stop19-0" /><stop
         stop-color="#6e008b"
         stop-opacity=".6"
         offset=".97"
         id="stop20-2" /></radialGradient><radialGradient
       id="e-3"
       cx="118.03"
       cy="90.295"
       r="54.069"
       gradientTransform="matrix(0.2527,0,0,0.27701,-45.527,-9.2917)"
       gradientUnits="userSpaceOnUse"><stop
         stop-color="#3a8ee6"
         offset=".35"
         id="stop21-7" /><stop
         stop-color="#9059ff"
         offset=".67"
         id="stop22-5" /><stop
         stop-color="#c139e6"
         offset="1"
         id="stop23-9" /></radialGradient><radialGradient
       id="d-2"
       cx="180.47"
       cy="-4.3479"
       r="50.851"
       gradientTransform="matrix(0.20303,0,0,0.34478,-45.527,-9.2917)"
       gradientUnits="userSpaceOnUse"><stop
         stop-color="#fff44f"
         offset=".13"
         id="stop24-2" /><stop
         stop-color="#ff980e"
         offset=".53"
         id="stop25" /></radialGradient><radialGradient
       id="c-8"
       cx="113.51"
       cy="70.206"
       r="134.07"
       gradientTransform="matrix(0.29335,0,0,0.23863,-45.527,-9.2917)"
       gradientUnits="userSpaceOnUse"><stop
         stop-color="#960e18"
         offset=".3"
         id="stop26" /><stop
         stop-color="#b11927"
         stop-opacity=".74"
         offset=".35"
         id="stop27" /><stop
         stop-color="#db293d"
         stop-opacity=".34"
         offset=".43"
         id="stop28" /><stop
         stop-color="#f5334b"
         stop-opacity=".09"
         offset=".5"
         id="stop29" /><stop
         stop-color="#ff3750"
         stop-opacity="0"
         offset=".53"
         id="stop30" /></radialGradient><radialGradient
       id="b-9"
       cx="153.73"
       cy="14.797"
       r="134.07"
       gradientTransform="matrix(0.29335,0,0,0.23863,-45.527,-9.2917)"
       gradientUnits="userSpaceOnUse"><stop
         stop-color="#ffbd4f"
         offset=".13"
         id="stop31-7" /><stop
         stop-color="#ff980e"
         offset=".28"
         id="stop32-3" /><stop
         stop-color="#ff3750"
         offset=".47"
         id="stop33-6" /><stop
         stop-color="#eb0878"
         offset=".78"
         id="stop34-1" /><stop
         stop-color="#e50080"
         offset=".86"
         id="stop35" /></radialGradient><linearGradient
       id="a-2"
       x1="173.08"
       x2="81.177"
       y1="18.304"
       y2="109.91"
       gradientTransform="matrix(0.26029,0,0,0.26894,-45.527,-9.2917)"
       gradientUnits="userSpaceOnUse"><stop
         stop-color="#fff44f"
         offset=".05"
         id="stop36" /><stop
         stop-color="#ff980e"
         offset=".37"
         id="stop37" /><stop
         stop-color="#ff3647"
         offset=".53"
         id="stop38" /><stop
         stop-color="#e31587"
         offset=".7"
         id="stop39" /></linearGradient></defs><g
     transform="matrix(1.3443596,0,0,1.3443596,39.89922,14.108744)"
     stroke-width="0.26458"
     id="g39"
     inkscape:label="firefox"><path
       id="shape-base"
       d="M 2.3282,1.3567 C 1.65961,-0.2517 0.3058,-1.9878 -0.7576,-2.5366 a 15.956,15.956 0 0 1 1.5581,4.6687 c 0,0.0024 0,0.0087 0.0032,0.02646 -1.7394,-4.3354 -4.6886,-6.0837 -7.0971,-9.8905 a 18.883,18.883 0 0 1 -0.36221,-0.58895 4.9116,4.9116 0 0 1 -0.16933,-0.31749 2.7998,2.7998 0 0 1 -0.22939,-0.60853 0.040216,0.040216 0 0 0 -0.03492,-0.041274 0.052916,0.052916 0 0 0 -0.0291,0 c -0.0021,0 -0.0053,0.00317 -0.0077,0.00423 l -0.01111,0.00609 0.0064,-0.00873 c -3.8629,2.2632 -5.1747,6.4499 -5.295,8.5446 a 7.695,7.695 0 0 0 -4.2332,1.6314 4.6328,4.6328 0 0 0 -0.39846,-0.30083 7.1275,7.1275 0 0 1 -0.04313,-3.7594 11.396,11.396 0 0 0 -3.703,2.8598 h -0.0071 c -0.60985,-0.7723 -0.56673,-3.3205 -0.5318,-3.8523 a 2.7516,2.7516 0 0 0 -0.51355,0.27225 11.203,11.203 0 0 0 -1.5033,1.288 13.469,13.469 0 0 0 -1.4364,1.7227 v 0.00238 -0.00238 a 12.982,12.982 0 0 0 -2.0637,4.6603 c -0.0074,0.03334 -0.01376,0.068 -0.0209,0.1016 -0.02884,0.13546 -0.13229,0.81305 -0.15134,0.96042 0,0.01138 -0.0021,0.02222 -0.0034,0.0336 a 14.639,14.639 0 0 0 -0.24923,2.1222 c 0,0.026458 -0.0016,0.052916 -0.0016,0.079374 a 15.382,15.382 0 0 0 30.542,2.6013 C 3.28259,9.48157 3.30322,9.28367 3.32624,9.08524 A 15.818,15.818 0 0 0 2.32852,1.35664 Z m -17.727,12.04 c 0.07197,0.03439 0.13943,0.07197 0.21325,0.10583 l 0.01058,0.0066 a 7.7588,7.7588 0 0 1 -0.22516,-0.11245 z m 3.5221,-9.2769 M 0.8043,2.1619 0.8024,2.14682 0.805,2.16349 Z"
       fill="url(#a)"
       style="fill:url(#a-2)" /><path
       id="body-outer-ring"
       d="M 2.3282,1.3567 C 1.65961,-0.2517 0.3058,-1.9878 -0.7576,-2.5366 a 15.956,15.956 0 0 1 1.5581,4.6687 c 0,-0.0037 0,0.0029 0.0024,0.01429 l 0.0026,0.01667 c 1.4512,3.9348 0.66145,7.9373 -0.47889,10.381 -1.7624,3.7835 -6.0297,7.6601 -12.709,7.4712 -7.2161,-0.20346 -13.575,-5.5598 -14.762,-12.574 -0.21616,-1.1059 0,-1.6668 0.10874,-2.5664 a 11.448,11.448 0 0 0 -0.24923,2.1222 c 0,0.026458 -0.0016,0.052916 -0.0016,0.079374 a 15.382,15.382 0 0 0 30.542,2.6021 c 0.02646,-0.19685 0.04709,-0.39475 0.07011,-0.59318 a 15.818,15.818 0 0 0 -0.99772,-7.7286 z"
       fill="url(#b)"
       style="fill:url(#b-9)" /><path
       id="body-outer-ring-shadow"
       d="M 2.3282,1.3567 C 1.65961,-0.2517 0.3058,-1.9878 -0.7576,-2.5366 a 15.956,15.956 0 0 1 1.5581,4.6687 c 0,-0.0037 0,0.0029 0.0024,0.01429 l 0.0026,0.01667 c 1.4512,3.9348 0.66145,7.9373 -0.47889,10.381 -1.7624,3.7835 -6.0297,7.6601 -12.709,7.4712 -7.2161,-0.20346 -13.575,-5.5598 -14.762,-12.574 -0.21616,-1.1059 0,-1.6668 0.10874,-2.5664 a 11.448,11.448 0 0 0 -0.24923,2.1222 c 0,0.026458 -0.0016,0.052916 -0.0016,0.079374 a 15.382,15.382 0 0 0 30.542,2.6021 c 0.02646,-0.19685 0.04709,-0.39475 0.07011,-0.59318 a 15.818,15.818 0 0 0 -0.99772,-7.7286 z"
       fill="url(#c)"
       style="fill:url(#c-8)" /><path
       id="tail-tip"
       d="m -5.1464,3.1646 c 0.03334,0.02355 0.06403,0.0471 0.09551,0.07064 a 8.3638,8.3638 0 0 0 -1.4287,-1.8637 c -4.7804,-4.7812 -1.253,-10.367 -0.65721,-10.651 l 0.0064,-0.00873 c -3.8629,2.2632 -5.1747,6.4499 -5.2951,8.5446 0.17912,-0.012435 0.35771,-0.026458 0.54027,-0.026458 a 7.7627,7.7627 0 0 1 6.7388,3.9345 z"
       fill="url(#d)"
       style="fill:url(#d-2)" /><path
       id="globe-base"
       d="m -11.876,4.1195 c -0.02514,0.38258 -1.3758,1.7023 -1.8497,1.7023 -4.374,0 -5.0839,2.6458 -5.0839,2.6458 0.19367,2.2283 1.7446,4.0631 3.6231,5.0341 a 6.0964,6.0964 0 0 0 0.25929,0.12382 8.8687,8.8687 0 0 0 0.45164,0.1852 6.8243,6.8243 0 0 0 2.0015,0.38602 c 7.6662,0.35983 9.1512,-9.1658 3.6189,-11.932 1.4168,-0.24659 2.8876,0.32331 3.7089,0.89957 a 7.7627,7.7627 0 0 0 -6.7396,-3.9348 c -0.18256,0 -0.36115,0.015081 -0.54027,0.026458 a 7.695,7.695 0 0 0 -4.2332,1.6314 c 0.23442,0.1987 0.49926,0.46381 1.057,1.0131 1.0435,1.0295 3.7205,2.0947 3.7263,2.2195 z"
       fill="url(#e)"
       style="fill:url(#e-3)" /><path
       id="globe-shadow"
       d="m -11.876,4.1195 c -0.02514,0.38258 -1.3758,1.7023 -1.8497,1.7023 -4.374,0 -5.0839,2.6458 -5.0839,2.6458 0.19367,2.2283 1.7446,4.0631 3.6231,5.0341 a 6.0964,6.0964 0 0 0 0.25929,0.12382 8.8687,8.8687 0 0 0 0.45164,0.1852 6.8243,6.8243 0 0 0 2.0015,0.38602 c 7.6662,0.35983 9.1512,-9.1658 3.6189,-11.932 1.4168,-0.24659 2.8876,0.32331 3.7089,0.89957 a 7.7627,7.7627 0 0 0 -6.7396,-3.9348 c -0.18256,0 -0.36115,0.015081 -0.54027,0.026458 a 7.695,7.695 0 0 0 -4.2332,1.6314 c 0.23442,0.1987 0.49926,0.46381 1.057,1.0131 1.0435,1.0295 3.7205,2.0947 3.7263,2.2195 z"
       fill="url(#f)"
       style="fill:url(#f-2)" /><path
       id="ear"
       d="m -17.376,0.37622 a 11.338,11.338 0 0 1 0.31749,0.21166 7.1275,7.1275 0 0 1 -0.04313,-3.7594 11.396,11.396 0 0 0 -3.702,2.8606 c 0.07382,-0.00185 2.305,-0.042068 3.4276,0.68711 z"
       fill="url(#g)"
       style="fill:url(#g-8)" /><path
       id="body"
       d="m -27.144,7.4413 c 1.1869,7.0142 7.5455,12.371 14.761,12.574 6.6793,0.18891 10.947,-3.6885 12.709,-7.4712 1.1393,-2.445 1.9314,-6.4462 0.47889,-10.381 V 2.1615 L 0.80299,2.14642 C 0.80139,2.13504 0.80039,2.12843 0.80059,2.13213 c 2.65e-4,0.0037 0,0.0087 0.0032,0.02646 0.54529,3.5631 -1.2668,7.0148 -4.101,9.3483 l -0.0085,0.02011 c -5.5196,4.4952 -10.802,2.7122 -11.871,1.9822 a 8.8091,8.8091 0 0 1 -0.22376,-0.11164 c -3.2183,-1.538 -4.5476,-4.4714 -4.2626,-6.9849 a 3.9509,3.9509 0 0 1 -3.644,-2.292 c 0,0 2.4399,-1.7399 5.6551,-0.22674 a 7.6587,7.6587 0 0 0 5.7752,0.22674 c -0.0058,-0.12488 -2.6828,-1.1906 -3.7263,-2.2185 -0.55773,-0.54926 -0.82257,-0.81437 -1.057,-1.0131 a 4.6328,4.6328 0 0 0 -0.39846,-0.30082 c -0.09128,-0.062176 -0.1942,-0.12991 -0.31749,-0.21166 -1.1218,-0.72918 -3.353,-0.6879 -3.4268,-0.6879 h -0.0071 c -0.60986,-0.7723 -0.56673,-3.3205 -0.5318,-3.8523 a 2.7516,2.7516 0 0 0 -0.51355,0.27225 11.203,11.203 0 0 0 -1.5033,1.288 13.469,13.469 0 0 0 -1.4364,1.7227 v 0.00238 -0.00238 a 12.982,12.982 0 0 0 -2.0637,4.6603 c -0.0082,0.0336 -0.55456,2.4225 -0.28522,3.6615 z"
       fill="url(#h)"
       style="fill:url(#h-0)" /><path
       id="tail-flame"
       d="m -6.4788,1.3708 a 8.3638,8.3638 0 0 1 1.4287,1.8637 3.018,3.018 0 0 1 0.23098,0.18891 c 3.4869,3.2133 1.66,7.7582 1.5234,8.0818 2.8328,-2.3336 4.6449,-5.7853 4.101,-9.3483 -1.7393,-4.3354 -4.6886,-6.0837 -7.097,-9.8905 a 18.883,18.883 0 0 1 -0.36221,-0.58895 4.9116,4.9116 0 0 1 -0.16933,-0.31749 2.7998,2.7998 0 0 1 -0.22939,-0.60853 0.040216,0.040216 0 0 0 -0.03493,-0.041274 0.052916,0.052916 0 0 0 -0.0291,0 c -0.0021,0 -0.0053,0.00318 -0.0077,0.00423 l -0.01111,0.00609 c -0.59713,0.28389 -4.1245,5.8699 0.65671,10.65 z"
       fill="url(#i)"
       style="fill:url(#i-7)" /><path
       id="tail-small"
       d="M -4.8199,3.4242 A 3.018,3.018 0 0 0 -5.05088,3.23529 c -0.03148,-0.02355 -0.06218,-0.0471 -0.09551,-0.07064 -0.82019,-0.57704 -2.292,-1.1469 -3.7089,-0.89956 5.5323,2.7662 4.048,12.292 -3.6189,11.932 a 6.8243,6.8243 0 0 1 -2.0015,-0.38602 7.995,7.995 0 0 1 -0.45164,-0.1852 c -0.08678,-0.03969 -0.17356,-0.07937 -0.25929,-0.12382 l 0.01058,0.0066 c 1.0694,0.72997 6.3515,2.5135 11.871,-1.9822 l 0.0085,-0.02011 c 0.13652,-0.32437 1.9634,-4.8693 -1.5234,-8.0826 z"
       fill="url(#j)"
       style="fill:url(#j-6)" /><path
       id="cheek-tufts"
       d="m -18.81,8.4676 c 0,0 0.70986,-2.6458 5.0839,-2.6458 0.4728,0 1.8256,-1.3197 1.8497,-1.7023 a 7.6587,7.6587 0 0 1 -5.7752,-0.22674 c -3.2152,-1.5131 -5.6551,0.22674 -5.6551,0.22674 a 3.9509,3.9509 0 0 0 3.644,2.292 c -0.28495,2.5148 1.0443,5.4471 4.2626,6.9849 0.07197,0.0344 0.13943,0.07197 0.21325,0.10583 -1.8785,-0.97153 -3.4295,-2.8064 -3.6231,-5.0347 z"
       fill="url(#k)"
       style="fill:url(#k-5)" /><path
       id="overlay-yellow"
       d="M 2.3282,1.3567 C 1.65961,-0.2517 0.3058,-1.9878 -0.7576,-2.5366 a 15.956,15.956 0 0 1 1.5581,4.6687 c 0,0.0024 0,0.0087 0.0032,0.02646 -1.7394,-4.3354 -4.6886,-6.0837 -7.0971,-9.8905 a 18.883,18.883 0 0 1 -0.36221,-0.58895 4.9116,4.9116 0 0 1 -0.16933,-0.31749 2.7998,2.7998 0 0 1 -0.22939,-0.60853 0.040216,0.040216 0 0 0 -0.03492,-0.041274 0.052916,0.052916 0 0 0 -0.0291,0 c -0.0021,0 -0.0053,0.00317 -0.0077,0.00423 l -0.01111,0.00609 0.0064,-0.00873 c -3.8629,2.2632 -5.1747,6.4499 -5.295,8.5446 0.17912,-0.012435 0.35771,-0.026458 0.54027,-0.026458 a 7.7627,7.7627 0 0 1 6.7391,3.933 c -0.82019,-0.57704 -2.292,-1.1469 -3.7089,-0.89956 5.5323,2.7662 4.048,12.292 -3.6189,11.932 a 6.8243,6.8243 0 0 1 -2.0015,-0.38602 7.995,7.995 0 0 1 -0.45164,-0.1852 c -0.08678,-0.03969 -0.17356,-0.07937 -0.25929,-0.12382 l 0.01058,0.0066 a 8.8091,8.8091 0 0 1 -0.22383,-0.11164 c 0.07197,0.03439 0.13943,0.07196 0.21325,0.10583 -1.8785,-0.971 -3.4295,-2.8059 -3.6231,-5.0341 0,0 0.70986,-2.6458 5.0839,-2.6458 0.4728,0 1.8256,-1.3197 1.8497,-1.7023 -0.0058,-0.12488 -2.6828,-1.1906 -3.7263,-2.2185 -0.55773,-0.54926 -0.82257,-0.81437 -1.057,-1.0131 a 4.6328,4.6328 0 0 0 -0.39846,-0.30083 7.1275,7.1275 0 0 1 -0.04313,-3.7594 11.396,11.396 0 0 0 -3.7025,2.8598 h -0.0071 c -0.60985,-0.7723 -0.56673,-3.3205 -0.5318,-3.8523 a 2.7516,2.7516 0 0 0 -0.51355,0.27225 11.203,11.203 0 0 0 -1.5033,1.288 13.469,13.469 0 0 0 -1.4364,1.7227 v 0.00238 -0.00238 a 12.982,12.982 0 0 0 -2.0637,4.6603 c -0.0074,0.03334 -0.01376,0.068 -0.0209,0.1016 -0.02884,0.13546 -0.15875,0.82257 -0.17727,0.96994 a 17.905,17.905 0 0 0 -0.22674,2.1463 c 0,0.026458 -0.0016,0.052916 -0.0016,0.079374 a 15.382,15.382 0 0 0 30.542,2.6013 C 3.28259,9.481122 3.30322,9.283222 3.32624,9.084792 A 15.818,15.818 0 0 0 2.32852,1.356192 Z M 0.8024,2.14647 0.805,2.16314 v -0.0016 z"
       fill="url(#l)"
       style="fill:url(#l-3)" /></g></svg>
