<?xml version="1.0" encoding="UTF-8" standalone="no"?>
<svg
   width="48"
   height="48"
   version="1.1"
   id="svg54"
   sodipodi:docname="kget.svg"
   inkscape:version="1.4.3 (1:1.4.3+202512261035+0d15f75042)"
   xml:space="preserve"
   xmlns:inkscape="http://www.inkscape.org/namespaces/inkscape"
   xmlns:sodipodi="http://sodipodi.sourceforge.net/DTD/sodipodi-0.dtd"
   xmlns:xlink="http://www.w3.org/1999/xlink"
   xmlns="http://www.w3.org/2000/svg"
   xmlns:svg="http://www.w3.org/2000/svg"><sodipodi:namedview
     id="namedview54"
     pagecolor="#ffffff"
     bordercolor="#000000"
     borderopacity="0.25"
     inkscape:showpageshadow="2"
     inkscape:pageopacity="0.0"
     inkscape:pagecheckerboard="0"
     inkscape:deskcolor="#d1d1d1"
     inkscape:zoom="12.006084"
     inkscape:cx="31.317456"
     inkscape:cy="31.109228"
     inkscape:window-width="1920"
     inkscape:window-height="1014"
     inkscape:window-x="0"
     inkscape:window-y="0"
     inkscape:window-maximized="1"
     inkscape:current-layer="svg54" /><defs
     id="defs37"><linearGradient
       id="a"
       y1="543.8"
       y2="503.8"
       x2="0"
       gradientUnits="userSpaceOnUse"><stop
         stop-color="#363a3e"
         id="stop1" /><stop
         offset="1"
         stop-color="#44484c"
         id="stop2" /></linearGradient><linearGradient
       id="b"
       y1="24"
       x1="8"
       y2="8"
       x2="24"
       gradientUnits="userSpaceOnUse"><stop
         stop-color="#e81877"
         id="stop3" /><stop
         offset=".312"
         stop-color="#dd1d8c"
         id="stop4" /><stop
         offset=".562"
         stop-color="#6d57b1"
         id="stop5" /><stop
         offset=".75"
         stop-color="#2a78c1"
         id="stop6" /><stop
         offset="1"
         stop-color="#018dcb"
         id="stop7" /></linearGradient><linearGradient
       id="c"
       y1="24"
       x1="8"
       y2="8"
       gradientUnits="userSpaceOnUse"
       x2="24"
       gradientTransform="matrix(1 0 0-1 384.57 547.8)"><stop
         stop-color="#e51561"
         id="stop8" /><stop
         offset=".312"
         stop-color="#e4156c"
         id="stop9" /><stop
         offset=".562"
         stop-color="#e71e2c"
         id="stop10" /><stop
         offset=".75"
         stop-color="#e8301e"
         id="stop11" /><stop
         offset="1"
         stop-color="#e6320e"
         id="stop12" /></linearGradient><linearGradient
       id="d"
       y1="24"
       x1="8"
       y2="8"
       gradientUnits="userSpaceOnUse"
       x2="24"
       gradientTransform="matrix(-1 0 0 1 432.57 499.8)"><stop
         stop-color="#bec900"
         id="stop13" /><stop
         offset=".312"
         stop-color="#9ec80a"
         id="stop14" /><stop
         offset=".562"
         stop-color="#71b93d"
         id="stop15" /><stop
         offset=".75"
         stop-color="#35a48f"
         id="stop16" /><stop
         offset="1"
         stop-color="#018fca"
         id="stop17" /></linearGradient><linearGradient
       id="e"
       y1="24"
       x1="8"
       y2="8"
       gradientUnits="userSpaceOnUse"
       x2="24"
       gradientTransform="matrix(-1 0 0-1 432.57 547.8)"><stop
         stop-color="#c1cc00"
         id="stop18" /><stop
         offset=".312"
         stop-color="#dfcd00"
         id="stop19" /><stop
         offset=".562"
         stop-color="#f0cc00"
         id="stop20" /><stop
         offset=".75"
         stop-color="#fd8c08"
         id="stop21" /><stop
         offset="1"
         stop-color="#f25c13"
         id="stop22" /></linearGradient><linearGradient
       id="f"
       y1="-516.8"
       y2="-530.8"
       gradientUnits="userSpaceOnUse"
       x2="0"><stop
         stop-color="#2a2c2f"
         id="stop23" /><stop
         offset="1"
         stop-color="#424649"
         id="stop24" /></linearGradient><filter
       width="1.12"
       x="-0.060000001"
       y="-0.060000001"
       height="1.12"
       color-interpolation-filters="sRGB"
       id="g"><feGaussianBlur
         stdDeviation=".4"
         id="feGaussianBlur24" /></filter><clipPath
       id="h"><use
         xlink:href="#x"
         id="use24" /></clipPath><linearGradient
       xlink:href="#f"
       id="i"
       y1="40"
       y2="8"
       gradientUnits="userSpaceOnUse"
       x2="0" /><clipPath
       id="j"><use
         xlink:href="#x"
         id="use25" /></clipPath><clipPath
       id="k"><use
         xlink:href="#y"
         id="use26" /></clipPath><linearGradient
       xlink:href="#f"
       id="l"
       y1="539.8"
       y2="507.8"
       gradientUnits="userSpaceOnUse"
       x2="0" /><clipPath
       id="m"><use
         xlink:href="#y"
         id="use27" /></clipPath><clipPath
       id="n"><use
         xlink:href="#y"
         id="use28" /></clipPath><clipPath
       id="o"><use
         xlink:href="#y"
         id="use29" /></clipPath><clipPath
       id="p"><use
         xlink:href="#y"
         id="use30" /></clipPath><clipPath
       id="q"><use
         xlink:href="#y"
         id="use31" /></clipPath><linearGradient
       id="r"
       y1="525.8"
       y2="521.8"
       x2="0"
       gradientUnits="userSpaceOnUse"><stop
         stop-color="#989a9b"
         id="stop31" /><stop
         offset="1"
         stop-color="#f6f6f7"
         id="stop32" /></linearGradient><linearGradient
       id="s"
       y1="520.8"
       y2="535.8"
       x1="401.57"
       gradientUnits="userSpaceOnUse"
       x2="416.57"><stop
         stop-color="#292c2f"
         id="stop33" /><stop
         offset="1"
         stop-opacity="0"
         id="stop34" /></linearGradient><clipPath
       id="t"><use
         xlink:href="#x"
         id="use34" /></clipPath><clipPath
       id="u"><use
         xlink:href="#y"
         id="use35" /></clipPath><clipPath
       id="v"><use
         xlink:href="#y"
         id="use36" /></clipPath><clipPath
       id="w"><use
         xlink:href="#y"
         id="use37" /></clipPath><rect
       width="32"
       x="8"
       y="8"
       fill="url(#i)"
       rx="16"
       height="32"
       id="x" /><rect
       width="32"
       x="392.57"
       y="507.8"
       fill="url(#l)"
       rx="16"
       height="32"
       id="y" /><path
       stroke-opacity=".55"
       fill="url(#b)"
       id="z"
       stroke-width="2.8"
       d="m24 8c-8.864 0-16 7.136-16 16h16z" /><path
       stroke-opacity=".55"
       fill="url(#c)"
       id="A"
       stroke-width="2.8"
       d="m408.57 539.8c-8.864 0-16-7.136-16-16h16z" /><path
       stroke-opacity=".55"
       fill="url(#d)"
       id="B"
       stroke-width="2.8"
       d="m408.57 507.8c8.864 0 16 7.136 16 16h-16z" /><path
       stroke-opacity=".55"
       fill="url(#e)"
       id="C"
       stroke-width="2.8"
       d="m408.57 539.8c8.864 0 16-7.136 16-16h-16z" /><linearGradient
       id="linear0"
       gradientUnits="userSpaceOnUse"
       x1="2.3059001"
       y1="1.7146"
       x2="29.694901"
       y2="29.104601"
       gradientTransform="scale(2)"><stop
         offset="0"
         style="stop-color:rgb(15.686275%,68.627451%,91.764706%);stop-opacity:1;"
         id="stop1-3" /><stop
         offset="1"
         style="stop-color:rgb(51.372549%,54.509804%,89.411765%);stop-opacity:1;"
         id="stop2-6" /></linearGradient><linearGradient
       id="a-7"
       x2="1"
       gradientTransform="matrix(0,-55.620259,55.620259,0,31.699225,60.110904)"
       gradientUnits="userSpaceOnUse"><stop
         stop-color="#0b378c"
         offset="0"
         id="stop256" /><stop
         stop-color="#2f67ba"
         offset="1"
         id="stop258" /></linearGradient><linearGradient
       inkscape:collect="always"
       xlink:href="#linearGradient1"
       id="linearGradient79"
       x1="65.22908"
       y1="13.549362"
       x2="84.640114"
       y2="38.905628"
       gradientUnits="userSpaceOnUse"
       gradientTransform="matrix(1.3444697,0,0,1.3444697,-70.332907,-1.0835449)" /><linearGradient
       id="linearGradient1"
       inkscape:collect="always"><stop
         style="stop-color:#a829e3;stop-opacity:1;"
         offset="0"
         id="stop78" /><stop
         style="stop-color:#7e1cb6;stop-opacity:1;"
         offset="1"
         id="stop79" /></linearGradient></defs><g
     inkscape:label="kget"
     id="layer1-1"
     transform="matrix(0.71737671,0,0,0.71737671,0.84588057,1.2269831)"><ellipse
       style="opacity:1;fill:url(#linearGradient79);stroke-width:3.31714;stroke-linecap:round;stroke-linejoin:round"
       id="path1-2"
       cx="32"
       cy="31.720821"
       rx="28.112112"
       ry="27.831816" /><path
       d="m 30.645822,22.330627 c -4.849365,1.307551 -8.848179,4.347916 -11.260165,8.562545 -5.06518,8.854537 -2.373904,19.664044 6.398102,25.70036 6.742283,5.921424 18.371026,0.845956 21.024783,-1.353211 -0.222158,0.05706 -7.181241,5.745738 -18.631838,-2.118609 C 21.251767,48.36122 19.09368,39.893865 23.048059,32.98797 c 1.853424,-3.230796 4.938225,-5.572959 8.695855,-6.582179 3.852832,-1.040968 7.83895,-0.533175 11.228426,1.421796 l 2.107322,-3.656058 C 40.712694,21.65163 35.584049,20.997855 30.645822,22.330801"
       id="path7"
       style="fill:#ffffff;fill-opacity:0.851852;stroke-width:1.24857"
       inkscape:label="path3" /><path
       d="m 18.056182,23.09264 c -4.551033,4.563731 -7.051891,10.650827 -7.039193,17.150501 0.01899,13.557893 10.172037,19.734911 22.63942,19.103447 l 0.14949,-0.135032 c -11.044362,0 -18.555251,-7.891764 -18.574292,-18.980553 -0.0062,-5.369843 2.050187,-10.397467 5.807804,-14.161438 3.77667,-3.783013 8.841838,-5.871281 14.262461,-5.871281 v -4.214632 c -6.550439,0 -12.669274,2.526229 -17.245702,7.109013"
       id="path6"
       style="fill:#ffffff;fill-opacity:0.851852;stroke-width:1.24857"
       inkscape:label="path2" /><path
       d="m 29.53321,29.341976 c -4.208275,2.431025 -6.563137,6.855129 -6.563137,11.399818 0,2.107309 0.526834,4.233671 1.586831,6.20134 l -0.01274,0.01273 c 0,0.0062 0.03809,0.0698 0.05081,0.09527 h -0.0062 c 0,0 0.02535,0.03809 0.04446,0.0698 0.02534,0.05081 0.0889,0.165035 0.09527,0.171379 0.660119,1.136172 3.205399,4.963608 8.784703,6.994768 6.762384,2.468207 9.038813,2.282833 12.196879,1.718118 3.437559,-1.964274 5.278436,-3.71468 5.278436,-3.71468 -3.616816,0.391652 -8.743501,0.694392 -16.034466,-1.964197 -4.392365,-1.59953 -6.226736,-4.519306 -6.563151,-5.122302 -0.336415,-0.602997 -0.01273,-0.01911 -0.01273,-0.02534 -0.806114,-1.402754 -1.193307,-2.932463 -1.193307,-4.443131 0,-3.0848 1.599528,-6.087095 4.455828,-7.743746 2.062885,-1.186953 4.468528,-1.504314 6.772611,-0.888619 2.297728,0.615681 4.220973,2.094611 5.414268,4.157497 l 3.719535,-1.980368 -0.0698,-0.126942 c -1.751852,-3.040388 -4.582767,-5.211174 -7.972245,-6.12519 -3.389476,-0.907671 -6.93129,-0.437972 -9.971667,1.313894"
       id="path8"
       style="fill:#ffffff;fill-opacity:0.851852;stroke-width:1.24857"
       inkscape:label="path1" /></g></svg>
