<?xml version="1.0" encoding="UTF-8" standalone="no"?>
<svg
   width="48"
   height="48"
   version="1.1"
   id="svg54"
   sodipodi:docname="qbittorrent.svg"
   inkscape:version="1.4.3 (1:1.4.3+202512261035+0d15f75042)"
   xml:space="preserve"
   xmlns:inkscape="http://www.inkscape.org/namespaces/inkscape"
   xmlns:sodipodi="http://sodipodi.sourceforge.net/DTD/sodipodi-0.dtd"
   xmlns:xlink="http://www.w3.org/1999/xlink"
   xmlns="http://www.w3.org/2000/svg"
   xmlns:svg="http://www.w3.org/2000/svg"><sodipodi:namedview
     id="namedview54"
     pagecolor="#ffffff"
     bordercolor="#000000"
     borderopacity="0.25"
     inkscape:showpageshadow="2"
     inkscape:pageopacity="0.0"
     inkscape:pagecheckerboard="0"
     inkscape:deskcolor="#d1d1d1"
     inkscape:zoom="12.006084"
     inkscape:cx="39.230111"
     inkscape:cy="33.52467"
     inkscape:window-width="1920"
     inkscape:window-height="1014"
     inkscape:window-x="0"
     inkscape:window-y="0"
     inkscape:window-maximized="1"
     inkscape:current-layer="svg54" /><defs
     id="defs37"><linearGradient
       id="a"
       y1="543.8"
       y2="503.8"
       x2="0"
       gradientUnits="userSpaceOnUse"><stop
         stop-color="#363a3e"
         id="stop1" /><stop
         offset="1"
         stop-color="#44484c"
         id="stop2" /></linearGradient><linearGradient
       id="b"
       y1="24"
       x1="8"
       y2="8"
       x2="24"
       gradientUnits="userSpaceOnUse"><stop
         stop-color="#e81877"
         id="stop3" /><stop
         offset=".312"
         stop-color="#dd1d8c"
         id="stop4" /><stop
         offset=".562"
         stop-color="#6d57b1"
         id="stop5" /><stop
         offset=".75"
         stop-color="#2a78c1"
         id="stop6" /><stop
         offset="1"
         stop-color="#018dcb"
         id="stop7" /></linearGradient><linearGradient
       id="c"
       y1="24"
       x1="8"
       y2="8"
       gradientUnits="userSpaceOnUse"
       x2="24"
       gradientTransform="matrix(1 0 0-1 384.57 547.8)"><stop
         stop-color="#e51561"
         id="stop8" /><stop
         offset=".312"
         stop-color="#e4156c"
         id="stop9" /><stop
         offset=".562"
         stop-color="#e71e2c"
         id="stop10" /><stop
         offset=".75"
         stop-color="#e8301e"
         id="stop11" /><stop
         offset="1"
         stop-color="#e6320e"
         id="stop12" /></linearGradient><linearGradient
       id="d"
       y1="24"
       x1="8"
       y2="8"
       gradientUnits="userSpaceOnUse"
       x2="24"
       gradientTransform="matrix(-1 0 0 1 432.57 499.8)"><stop
         stop-color="#bec900"
         id="stop13" /><stop
         offset=".312"
         stop-color="#9ec80a"
         id="stop14" /><stop
         offset=".562"
         stop-color="#71b93d"
         id="stop15" /><stop
         offset=".75"
         stop-color="#35a48f"
         id="stop16" /><stop
         offset="1"
         stop-color="#018fca"
         id="stop17" /></linearGradient><linearGradient
       id="e"
       y1="24"
       x1="8"
       y2="8"
       gradientUnits="userSpaceOnUse"
       x2="24"
       gradientTransform="matrix(-1 0 0-1 432.57 547.8)"><stop
         stop-color="#c1cc00"
         id="stop18" /><stop
         offset=".312"
         stop-color="#dfcd00"
         id="stop19" /><stop
         offset=".562"
         stop-color="#f0cc00"
         id="stop20" /><stop
         offset=".75"
         stop-color="#fd8c08"
         id="stop21" /><stop
         offset="1"
         stop-color="#f25c13"
         id="stop22" /></linearGradient><linearGradient
       id="f"
       y1="-516.8"
       y2="-530.8"
       gradientUnits="userSpaceOnUse"
       x2="0"><stop
         stop-color="#2a2c2f"
         id="stop23" /><stop
         offset="1"
         stop-color="#424649"
         id="stop24" /></linearGradient><filter
       width="1.12"
       x="-0.060000001"
       y="-0.060000001"
       height="1.12"
       color-interpolation-filters="sRGB"
       id="g"><feGaussianBlur
         stdDeviation=".4"
         id="feGaussianBlur24" /></filter><clipPath
       id="h"><use
         xlink:href="#x"
         id="use24" /></clipPath><linearGradient
       xlink:href="#f"
       id="i"
       y1="40"
       y2="8"
       gradientUnits="userSpaceOnUse"
       x2="0" /><clipPath
       id="j"><use
         xlink:href="#x"
         id="use25" /></clipPath><clipPath
       id="k"><use
         xlink:href="#y"
         id="use26" /></clipPath><linearGradient
       xlink:href="#f"
       id="l"
       y1="539.8"
       y2="507.8"
       gradientUnits="userSpaceOnUse"
       x2="0" /><clipPath
       id="m"><use
         xlink:href="#y"
         id="use27" /></clipPath><clipPath
       id="n"><use
         xlink:href="#y"
         id="use28" /></clipPath><clipPath
       id="o"><use
         xlink:href="#y"
         id="use29" /></clipPath><clipPath
       id="p"><use
         xlink:href="#y"
         id="use30" /></clipPath><clipPath
       id="q"><use
         xlink:href="#y"
         id="use31" /></clipPath><linearGradient
       id="r"
       y1="525.8"
       y2="521.8"
       x2="0"
       gradientUnits="userSpaceOnUse"><stop
         stop-color="#989a9b"
         id="stop31" /><stop
         offset="1"
         stop-color="#f6f6f7"
         id="stop32" /></linearGradient><linearGradient
       id="s"
       y1="520.8"
       y2="535.8"
       x1="401.57"
       gradientUnits="userSpaceOnUse"
       x2="416.57"><stop
         stop-color="#292c2f"
         id="stop33" /><stop
         offset="1"
         stop-opacity="0"
         id="stop34" /></linearGradient><clipPath
       id="t"><use
         xlink:href="#x"
         id="use34" /></clipPath><clipPath
       id="u"><use
         xlink:href="#y"
         id="use35" /></clipPath><clipPath
       id="v"><use
         xlink:href="#y"
         id="use36" /></clipPath><clipPath
       id="w"><use
         xlink:href="#y"
         id="use37" /></clipPath><rect
       width="32"
       x="8"
       y="8"
       fill="url(#i)"
       rx="16"
       height="32"
       id="x" /><rect
       width="32"
       x="392.57"
       y="507.8"
       fill="url(#l)"
       rx="16"
       height="32"
       id="y" /><path
       stroke-opacity=".55"
       fill="url(#b)"
       id="z"
       stroke-width="2.8"
       d="m24 8c-8.864 0-16 7.136-16 16h16z" /><path
       stroke-opacity=".55"
       fill="url(#c)"
       id="A"
       stroke-width="2.8"
       d="m408.57 539.8c-8.864 0-16-7.136-16-16h16z" /><path
       stroke-opacity=".55"
       fill="url(#d)"
       id="B"
       stroke-width="2.8"
       d="m408.57 507.8c8.864 0 16 7.136 16 16h-16z" /><path
       stroke-opacity=".55"
       fill="url(#e)"
       id="C"
       stroke-width="2.8"
       d="m408.57 539.8c8.864 0 16-7.136 16-16h-16z" /><linearGradient
       id="linear0"
       gradientUnits="userSpaceOnUse"
       x1="2.3059001"
       y1="1.7146"
       x2="29.694901"
       y2="29.104601"
       gradientTransform="scale(2)"><stop
         offset="0"
         style="stop-color:rgb(15.686275%,68.627451%,91.764706%);stop-opacity:1;"
         id="stop1-3" /><stop
         offset="1"
         style="stop-color:rgb(51.372549%,54.509804%,89.411765%);stop-opacity:1;"
         id="stop2-6" /></linearGradient><linearGradient
       id="a-7"
       x2="1"
       gradientTransform="matrix(0,-55.620259,55.620259,0,31.699225,60.110904)"
       gradientUnits="userSpaceOnUse"><stop
         stop-color="#0b378c"
         offset="0"
         id="stop256" /><stop
         stop-color="#2f67ba"
         offset="1"
         id="stop258" /></linearGradient></defs><g
     inkscape:label="qbittorrent"
     id="layer1-5"
     transform="matrix(0.72159221,0,0,0.72159221,0.98721862,0.56599697)"><circle
       cx="31.699223"
       cy="32.300777"
       r="27.810131"
       fill="url(#a)"
       id="circle261"
       style="fill:url(#a-7);stroke-width:1.22167"
       inkscape:label="circle" /><path
       d="m 19.184423,21.176236 c -6.143786,0 -11.1233188,4.980754 -11.1233188,11.124541 0,6.143786 4.9795328,11.124541 11.1233188,11.124541 1.953454,-0.0037 3.872699,-0.521655 5.562272,-1.502657 v 9.845452 c 0,1.525869 1.255877,2.780524 2.780524,2.780524 1.525867,0 2.781747,-1.254655 2.781747,-2.780524 V 21.176236 h -5.562271 v 1.507543 c -1.689573,-0.982224 -3.607596,-1.501435 -5.562272,-1.507543 z m 0,5.562271 c 3.072505,0 5.562272,2.490988 5.562272,5.56227 0,3.071282 -2.489767,5.56227 -5.562272,5.56227 -3.071282,0 -5.56227,-2.490988 -5.56227,-5.56227 0,-3.071282 2.490988,-5.56227 5.56227,-5.56227 z"
       fill="#64d4f9"
       id="path263"
       inkscape:label="path2"
       style="stroke-width:1.22167" /><path
       d="m 35.871235,10.052916 c -1.525867,0 -2.781746,1.254656 -2.781746,2.780525 v 30.591877 h 5.562272 v -1.507543 c 1.689571,0.982224 3.607595,1.501434 5.56227,1.507543 6.143786,0 11.123319,-4.980755 11.123319,-11.124541 0,-6.143787 -4.979533,-11.124541 -11.123319,-11.124541 -1.953453,0.0037 -3.872699,0.521654 -5.56227,1.502656 v -9.845451 c 0,-1.525869 -1.255879,-2.780525 -2.780526,-2.780525 z m 8.342796,16.685591 c 3.071282,0 5.56227,2.490988 5.56227,5.56227 0,3.071282 -2.490988,5.56227 -5.56227,5.56227 -3.072504,0 -5.56227,-2.490988 -5.56227,-5.56227 0,-3.071282 2.489766,-5.56227 5.56227,-5.56227 z"
       fill="#ffffff"
       id="path265"
       inkscape:label="path1"
       style="stroke-width:1.22167" /></g></svg>
