<?xml version="1.0" encoding="UTF-8" standalone="no"?>
<svg
   width="48"
   height="48"
   version="1.1"
   id="svg54"
   sodipodi:docname="spotify.svg"
   inkscape:version="1.4.3 (1:1.4.3+202512261035+0d15f75042)"
   xml:space="preserve"
   xmlns:inkscape="http://www.inkscape.org/namespaces/inkscape"
   xmlns:sodipodi="http://sodipodi.sourceforge.net/DTD/sodipodi-0.dtd"
   xmlns:xlink="http://www.w3.org/1999/xlink"
   xmlns="http://www.w3.org/2000/svg"
   xmlns:svg="http://www.w3.org/2000/svg"><sodipodi:namedview
     id="namedview54"
     pagecolor="#ffffff"
     bordercolor="#000000"
     borderopacity="0.25"
     inkscape:showpageshadow="2"
     inkscape:pageopacity="0.0"
     inkscape:pagecheckerboard="0"
     inkscape:deskcolor="#d1d1d1"
     inkscape:zoom="12.006084"
     inkscape:cx="39.729857"
     inkscape:cy="29.693279"
     inkscape:window-width="1920"
     inkscape:window-height="1014"
     inkscape:window-x="0"
     inkscape:window-y="0"
     inkscape:window-maximized="1"
     inkscape:current-layer="svg54" /><defs
     id="defs37"><linearGradient
       id="a"
       y1="543.8"
       y2="503.8"
       x2="0"
       gradientUnits="userSpaceOnUse"><stop
         stop-color="#363a3e"
         id="stop1" /><stop
         offset="1"
         stop-color="#44484c"
         id="stop2" /></linearGradient><linearGradient
       id="b"
       y1="24"
       x1="8"
       y2="8"
       x2="24"
       gradientUnits="userSpaceOnUse"><stop
         stop-color="#e81877"
         id="stop3" /><stop
         offset=".312"
         stop-color="#dd1d8c"
         id="stop4" /><stop
         offset=".562"
         stop-color="#6d57b1"
         id="stop5" /><stop
         offset=".75"
         stop-color="#2a78c1"
         id="stop6" /><stop
         offset="1"
         stop-color="#018dcb"
         id="stop7" /></linearGradient><linearGradient
       id="c"
       y1="24"
       x1="8"
       y2="8"
       gradientUnits="userSpaceOnUse"
       x2="24"
       gradientTransform="matrix(1 0 0-1 384.57 547.8)"><stop
         stop-color="#e51561"
         id="stop8" /><stop
         offset=".312"
         stop-color="#e4156c"
         id="stop9" /><stop
         offset=".562"
         stop-color="#e71e2c"
         id="stop10" /><stop
         offset=".75"
         stop-color="#e8301e"
         id="stop11" /><stop
         offset="1"
         stop-color="#e6320e"
         id="stop12" /></linearGradient><linearGradient
       id="d"
       y1="24"
       x1="8"
       y2="8"
       gradientUnits="userSpaceOnUse"
       x2="24"
       gradientTransform="matrix(-1 0 0 1 432.57 499.8)"><stop
         stop-color="#bec900"
         id="stop13" /><stop
         offset=".312"
         stop-color="#9ec80a"
         id="stop14" /><stop
         offset=".562"
         stop-color="#71b93d"
         id="stop15" /><stop
         offset=".75"
         stop-color="#35a48f"
         id="stop16" /><stop
         offset="1"
         stop-color="#018fca"
         id="stop17" /></linearGradient><linearGradient
       id="e"
       y1="24"
       x1="8"
       y2="8"
       gradientUnits="userSpaceOnUse"
       x2="24"
       gradientTransform="matrix(-1 0 0-1 432.57 547.8)"><stop
         stop-color="#c1cc00"
         id="stop18" /><stop
         offset=".312"
         stop-color="#dfcd00"
         id="stop19" /><stop
         offset=".562"
         stop-color="#f0cc00"
         id="stop20" /><stop
         offset=".75"
         stop-color="#fd8c08"
         id="stop21" /><stop
         offset="1"
         stop-color="#f25c13"
         id="stop22" /></linearGradient><linearGradient
       id="f"
       y1="-516.8"
       y2="-530.8"
       gradientUnits="userSpaceOnUse"
       x2="0"><stop
         stop-color="#2a2c2f"
         id="stop23" /><stop
         offset="1"
         stop-color="#424649"
         id="stop24" /></linearGradient><filter
       width="1.12"
       x="-0.060000001"
       y="-0.060000001"
       height="1.12"
       color-interpolation-filters="sRGB"
       id="g"><feGaussianBlur
         stdDeviation=".4"
         id="feGaussianBlur24" /></filter><clipPath
       id="h"><use
         xlink:href="#x"
         id="use24" /></clipPath><linearGradient
       xlink:href="#f"
       id="i"
       y1="40"
       y2="8"
       gradientUnits="userSpaceOnUse"
       x2="0" /><clipPath
       id="j"><use
         xlink:href="#x"
         id="use25" /></clipPath><clipPath
       id="k"><use
         xlink:href="#y"
         id="use26" /></clipPath><linearGradient
       xlink:href="#f"
       id="l"
       y1="539.8"
       y2="507.8"
       gradientUnits="userSpaceOnUse"
       x2="0" /><clipPath
       id="m"><use
         xlink:href="#y"
         id="use27" /></clipPath><clipPath
       id="n"><use
         xlink:href="#y"
         id="use28" /></clipPath><clipPath
       id="o"><use
         xlink:href="#y"
         id="use29" /></clipPath><clipPath
       id="p"><use
         xlink:href="#y"
         id="use30" /></clipPath><clipPath
       id="q"><use
         xlink:href="#y"
         id="use31" /></clipPath><linearGradient
       id="r"
       y1="525.8"
       y2="521.8"
       x2="0"
       gradientUnits="userSpaceOnUse"><stop
         stop-color="#989a9b"
         id="stop31" /><stop
         offset="1"
         stop-color="#f6f6f7"
         id="stop32" /></linearGradient><linearGradient
       id="s"
       y1="520.8"
       y2="535.8"
       x1="401.57"
       gradientUnits="userSpaceOnUse"
       x2="416.57"><stop
         stop-color="#292c2f"
         id="stop33" /><stop
         offset="1"
         stop-opacity="0"
         id="stop34" /></linearGradient><clipPath
       id="t"><use
         xlink:href="#x"
         id="use34" /></clipPath><clipPath
       id="u"><use
         xlink:href="#y"
         id="use35" /></clipPath><clipPath
       id="v"><use
         xlink:href="#y"
         id="use36" /></clipPath><clipPath
       id="w"><use
         xlink:href="#y"
         id="use37" /></clipPath><rect
       width="32"
       x="8"
       y="8"
       fill="url(#i)"
       rx="16"
       height="32"
       id="x" /><rect
       width="32"
       x="392.57"
       y="507.8"
       fill="url(#l)"
       rx="16"
       height="32"
       id="y" /><path
       stroke-opacity=".55"
       fill="url(#b)"
       id="z"
       stroke-width="2.8"
       d="m24 8c-8.864 0-16 7.136-16 16h16z" /><path
       stroke-opacity=".55"
       fill="url(#c)"
       id="A"
       stroke-width="2.8"
       d="m408.57 539.8c-8.864 0-16-7.136-16-16h16z" /><path
       stroke-opacity=".55"
       fill="url(#d)"
       id="B"
       stroke-width="2.8"
       d="m408.57 507.8c8.864 0 16 7.136 16 16h-16z" /><path
       stroke-opacity=".55"
       fill="url(#e)"
       id="C"
       stroke-width="2.8"
       d="m408.57 539.8c8.864 0 16-7.136 16-16h-16z" /><linearGradient
       id="linear0"
       gradientUnits="userSpaceOnUse"
       x1="2.3059001"
       y1="1.7146"
       x2="29.694901"
       y2="29.104601"
       gradientTransform="scale(2)"><stop
         offset="0"
         style="stop-color:rgb(15.686275%,68.627451%,91.764706%);stop-opacity:1;"
         id="stop1-3" /><stop
         offset="1"
         style="stop-color:rgb(51.372549%,54.509804%,89.411765%);stop-opacity:1;"
         id="stop2-6" /></linearGradient></defs><g
     inkscape:label="spotify"
     id="layer1-6"
     transform="matrix(0.72527589,0,0,0.72527589,0.81454362,1.0302605)"><path
       opacity="0.2"
       d="m 4.2719619,31.579004 c -0.098577,0.295735 -0.098577,0.690043 -0.098577,0.985778 -7e-7,15.279537 12.3222081,27.601745 27.6017461,27.601745 15.279539,0 27.601748,-12.322208 27.601748,-27.601745 0,-0.295735 0,-0.690043 -0.09857,-0.985778 -0.492893,14.78665 -12.617946,26.615972 -27.60175,26.615972 -14.885229,0 -26.9117048,-11.829322 -27.404594,-26.615972 z"
       id="path1-1"
       style="stroke-width:0.985777" /><path
       fill="#1ed760"
       d="m 59.376879,31.579004 v 0 c 0,-15.279537 -12.322209,-27.6017469 -27.601748,-27.6017469 v 0 c -15.279538,0 -27.6017468,12.3222099 -27.6017468,27.6017469 v 0 c 0,15.279537 12.3222088,27.601748 27.6017468,27.601748 v 0 c 15.279539,0 27.601748,-12.322211 27.601748,-27.601748 z"
       id="path2"
       style="stroke-width:0.985777" /><path
       fill="#ffffff"
       opacity="0.2"
       d="m 31.775131,3.9772571 c -15.279538,0 -27.6017468,12.3222099 -27.6017468,27.6017469 0,0.09857 0,0.197155 0,0.295735 C 4.567695,16.890931 16.692749,4.9630337 31.775131,4.9630337 v 0 c 15.082384,0 27.207437,11.9278973 27.601748,26.9117053 0,-0.09857 0,-0.197159 0,-0.295735 0,-15.279537 -12.322209,-27.6017469 -27.601748,-27.6017469 z"
       id="path3"
       style="stroke-width:0.985777" /><path
       style="opacity:0.2;fill:none;stroke:#000000;stroke-width:4.92888;stroke-linecap:round"
       d="m 15.509817,24.185679 c 7.393326,-2.957331 23.165752,-2.957331 33.516408,2.957331"
       id="path4" /><path
       style="fill:none;stroke:#000000;stroke-width:4.92888;stroke-linecap:round;stroke-opacity:1"
       d="m 15.509817,23.199903 c 7.393326,-2.957331 23.165752,-2.957331 33.516408,2.957331"
       id="path5" /><path
       style="opacity:0.2;fill:none;stroke:#000000;stroke-width:3.94312;stroke-linecap:round"
       d="m 16.988482,32.564782 c 6.900436,-1.971555 22.672862,-0.985778 28.587524,2.95733"
       id="path6" /><path
       style="fill:none;stroke:#000000;stroke-width:3.94312;stroke-linecap:round;stroke-opacity:1"
       d="m 16.988482,31.579004 c 6.900436,-1.971554 22.672862,-0.985777 28.587524,2.95733"
       id="path7" /><path
       style="opacity:0.2;fill:none;stroke:#000000;stroke-width:3.94312;stroke-linecap:round"
       d="m 17.974257,41.436771 c 5.914661,-1.478664 17.743981,-1.478664 24.64442,1.971555"
       id="path8" /><path
       style="fill:#000000;fill-opacity:1;stroke:#000000;stroke-width:3.94312;stroke-linecap:round;stroke-opacity:1"
       d="M 17.974257,40.450993 C 23.888918,38.97233 35.718238,38.97233 42.618677,42.42255"
       id="path9" /></g></svg>
