<?xml version="1.0" encoding="UTF-8" standalone="no"?>
<svg
   width="48"
   height="48"
   version="1.1"
   id="svg54"
   sodipodi:docname="steam.svg"
   inkscape:version="1.4.3 (1:1.4.3+202512261035+0d15f75042)"
   xml:space="preserve"
   xmlns:inkscape="http://www.inkscape.org/namespaces/inkscape"
   xmlns:sodipodi="http://sodipodi.sourceforge.net/DTD/sodipodi-0.dtd"
   xmlns:xlink="http://www.w3.org/1999/xlink"
   xmlns="http://www.w3.org/2000/svg"
   xmlns:svg="http://www.w3.org/2000/svg"><sodipodi:namedview
     id="namedview54"
     pagecolor="#ffffff"
     bordercolor="#000000"
     borderopacity="0.25"
     inkscape:showpageshadow="2"
     inkscape:pageopacity="0.0"
     inkscape:pagecheckerboard="0"
     inkscape:deskcolor="#d1d1d1"
     inkscape:zoom="12.006084"
     inkscape:cx="30.567836"
     inkscape:cy="32.691759"
     inkscape:window-width="1920"
     inkscape:window-height="1014"
     inkscape:window-x="0"
     inkscape:window-y="0"
     inkscape:window-maximized="1"
     inkscape:current-layer="svg54" /><defs
     id="defs37"><linearGradient
       id="a"
       y1="543.8"
       y2="503.8"
       x2="0"
       gradientUnits="userSpaceOnUse"><stop
         stop-color="#363a3e"
         id="stop1" /><stop
         offset="1"
         stop-color="#44484c"
         id="stop2" /></linearGradient><linearGradient
       id="b"
       y1="24"
       x1="8"
       y2="8"
       x2="24"
       gradientUnits="userSpaceOnUse"><stop
         stop-color="#e81877"
         id="stop3" /><stop
         offset=".312"
         stop-color="#dd1d8c"
         id="stop4" /><stop
         offset=".562"
         stop-color="#6d57b1"
         id="stop5" /><stop
         offset=".75"
         stop-color="#2a78c1"
         id="stop6" /><stop
         offset="1"
         stop-color="#018dcb"
         id="stop7" /></linearGradient><linearGradient
       id="c"
       y1="24"
       x1="8"
       y2="8"
       gradientUnits="userSpaceOnUse"
       x2="24"
       gradientTransform="matrix(1 0 0-1 384.57 547.8)"><stop
         stop-color="#e51561"
         id="stop8" /><stop
         offset=".312"
         stop-color="#e4156c"
         id="stop9" /><stop
         offset=".562"
         stop-color="#e71e2c"
         id="stop10" /><stop
         offset=".75"
         stop-color="#e8301e"
         id="stop11" /><stop
         offset="1"
         stop-color="#e6320e"
         id="stop12" /></linearGradient><linearGradient
       id="d"
       y1="24"
       x1="8"
       y2="8"
       gradientUnits="userSpaceOnUse"
       x2="24"
       gradientTransform="matrix(-1 0 0 1 432.57 499.8)"><stop
         stop-color="#bec900"
         id="stop13" /><stop
         offset=".312"
         stop-color="#9ec80a"
         id="stop14" /><stop
         offset=".562"
         stop-color="#71b93d"
         id="stop15" /><stop
         offset=".75"
         stop-color="#35a48f"
         id="stop16" /><stop
         offset="1"
         stop-color="#018fca"
         id="stop17" /></linearGradient><linearGradient
       id="e"
       y1="24"
       x1="8"
       y2="8"
       gradientUnits="userSpaceOnUse"
       x2="24"
       gradientTransform="matrix(-1 0 0-1 432.57 547.8)"><stop
         stop-color="#c1cc00"
         id="stop18" /><stop
         offset=".312"
         stop-color="#dfcd00"
         id="stop19" /><stop
         offset=".562"
         stop-color="#f0cc00"
         id="stop20" /><stop
         offset=".75"
         stop-color="#fd8c08"
         id="stop21" /><stop
         offset="1"
         stop-color="#f25c13"
         id="stop22" /></linearGradient><linearGradient
       id="f"
       y1="-516.8"
       y2="-530.8"
       gradientUnits="userSpaceOnUse"
       x2="0"><stop
         stop-color="#2a2c2f"
         id="stop23" /><stop
         offset="1"
         stop-color="#424649"
         id="stop24" /></linearGradient><filter
       width="1.12"
       x="-0.060000001"
       y="-0.060000001"
       height="1.12"
       color-interpolation-filters="sRGB"
       id="g"><feGaussianBlur
         stdDeviation=".4"
         id="feGaussianBlur24" /></filter><clipPath
       id="h"><use
         xlink:href="#x"
         id="use24" /></clipPath><linearGradient
       xlink:href="#f"
       id="i"
       y1="40"
       y2="8"
       gradientUnits="userSpaceOnUse"
       x2="0" /><clipPath
       id="j"><use
         xlink:href="#x"
         id="use25" /></clipPath><clipPath
       id="k"><use
         xlink:href="#y"
         id="use26" /></clipPath><linearGradient
       xlink:href="#f"
       id="l"
       y1="539.8"
       y2="507.8"
       gradientUnits="userSpaceOnUse"
       x2="0" /><clipPath
       id="m"><use
         xlink:href="#y"
         id="use27" /></clipPath><clipPath
       id="n"><use
         xlink:href="#y"
         id="use28" /></clipPath><clipPath
       id="o"><use
         xlink:href="#y"
         id="use29" /></clipPath><clipPath
       id="p"><use
         xlink:href="#y"
         id="use30" /></clipPath><clipPath
       id="q"><use
         xlink:href="#y"
         id="use31" /></clipPath><linearGradient
       id="r"
       y1="525.8"
       y2="521.8"
       x2="0"
       gradientUnits="userSpaceOnUse"><stop
         stop-color="#989a9b"
         id="stop31" /><stop
         offset="1"
         stop-color="#f6f6f7"
         id="stop32" /></linearGradient><linearGradient
       id="s"
       y1="520.8"
       y2="535.8"
       x1="401.57"
       gradientUnits="userSpaceOnUse"
       x2="416.57"><stop
         stop-color="#292c2f"
         id="stop33" /><stop
         offset="1"
         stop-opacity="0"
         id="stop34" /></linearGradient><clipPath
       id="t"><use
         xlink:href="#x"
         id="use34" /></clipPath><clipPath
       id="u"><use
         xlink:href="#y"
         id="use35" /></clipPath><clipPath
       id="v"><use
         xlink:href="#y"
         id="use36" /></clipPath><clipPath
       id="w"><use
         xlink:href="#y"
         id="use37" /></clipPath><rect
       width="32"
       x="8"
       y="8"
       fill="url(#i)"
       rx="16"
       height="32"
       id="x" /><rect
       width="32"
       x="392.57"
       y="507.8"
       fill="url(#l)"
       rx="16"
       height="32"
       id="y" /><path
       stroke-opacity=".55"
       fill="url(#b)"
       id="z"
       stroke-width="2.8"
       d="m24 8c-8.864 0-16 7.136-16 16h16z" /><path
       stroke-opacity=".55"
       fill="url(#c)"
       id="A"
       stroke-width="2.8"
       d="m408.57 539.8c-8.864 0-16-7.136-16-16h16z" /><path
       stroke-opacity=".55"
       fill="url(#d)"
       id="B"
       stroke-width="2.8"
       d="m408.57 507.8c8.864 0 16 7.136 16 16h-16z" /><path
       stroke-opacity=".55"
       fill="url(#e)"
       id="C"
       stroke-width="2.8"
       d="m408.57 539.8c8.864 0 16-7.136 16-16h-16z" /><linearGradient
       id="P6EpvOlnaxRsoX5cWS9PMb"
       x1="32"
       x2="32"
       y1="437.89001"
       y2="387.89001"
       gradientTransform="matrix(1.1213894,0,0,1.1213894,-3.8843076,-430.93341)"
       gradientUnits="userSpaceOnUse"><stop
         offset="0"
         stop-color="#155cde"
         id="stop4-6" /><stop
         offset=".278"
         stop-color="#1f7fe5"
         id="stop5-2" /><stop
         offset=".569"
         stop-color="#279ceb"
         id="stop6-9" /><stop
         offset=".82"
         stop-color="#2cafef"
         id="stop7-3" /><stop
         offset="1"
         stop-color="#2eb5f0"
         id="stop8-1" /></linearGradient></defs><g
     inkscape:label="steam"
     id="layer1"
     transform="matrix(0.71598623,0,0,0.71598623,0.99891009,0.91475469)"><path
       fill="url(#P6EpvOlnaxRsoX5cWS9PMb)"
       d="m 60.03489,32.077068 c 0,15.48078 -12.553954,28.034736 -28.034736,28.034736 -15.480781,0 -28.0347354,-12.553956 -28.0347354,-28.034736 0,-15.480782 12.5539544,-28.0347359 28.0347354,-28.0347359 15.480782,0 28.034736,12.5539539 28.034736,28.0347359 z"
       id="path8"
       style="fill:url(#P6EpvOlnaxRsoX5cWS9PMb);stroke-width:1.12139"
       inkscape:label="path1" /><path
       fill="#ffffff"
       d="M 25.432175,39.061081 3.9564476,30.181918 c -0.04261,0.625736 -0.068406,1.257078 -0.068406,1.894029 0,1.923182 0.2186715,3.792538 0.5920936,5.606946 l 18.3661158,7.594049 c 1.721334,0.712082 3.696101,-0.102043 4.410425,-1.818893 0.714325,-1.715727 -0.102042,-3.684886 -1.824501,-4.396968 z"
       id="path10"
       style="stroke-width:1.12139"
       inkscape:label="path2" /><circle
       cx="41.531963"
       cy="24.788033"
       r="3.9248631"
       fill="#ffffff"
       id="circle9"
       style="stroke-width:1.12139"
       inkscape:label="circle" /><path
       fill="#ffffff"
       d="m 52.185166,24.788036 c 0,-5.88393 -4.769271,-10.653199 -10.653202,-10.653199 -5.70675,0 -10.351547,4.490044 -10.626285,10.12839 l -0.02691,-0.03587 -5.859261,9.014851 c -0.285954,-0.02691 -0.575273,-0.04374 -0.869078,-0.04374 -4.954296,0 -8.971114,4.016817 -8.971114,8.971115 0,4.954299 4.016818,8.971115 8.971114,8.971115 4.9543,0 8.971118,-4.016816 8.971118,-8.971115 0,-0.256798 -0.01681,-0.510232 -0.03814,-0.761424 l 8.457519,-5.966913 c 5.879445,-0.0056 10.644229,-4.772634 10.644229,-10.6532 z m -10.653202,-7.28903 c 4.025788,0 7.289032,3.263243 7.289032,7.28903 0,4.025789 -3.263244,7.289032 -7.289032,7.289032 -4.025788,0 -7.28903,-3.263243 -7.28903,-7.289032 0,-4.025787 3.263242,-7.28903 7.28903,-7.28903 z M 24.150428,47.776519 c -3.096155,0 -5.606946,-2.510789 -5.606946,-5.606946 0,-3.096157 2.510791,-5.606948 5.606946,-5.606948 3.096157,0 5.606947,2.510791 5.606947,5.606948 0,3.096157 -2.51079,5.606946 -5.606947,5.606946 z"
       id="path9"
       style="stroke-width:1.12139"
       inkscape:label="path3" /></g></svg>
