<?xml version="1.0" encoding="UTF-8" standalone="no"?>
<svg
   width="48"
   height="48"
   version="1.1"
   id="svg32"
   sodipodi:docname="systemsettings.svg"
   inkscape:version="1.4.3 (1:1.4.3+202512261035+0d15f75042)"
   xml:space="preserve"
   xmlns:inkscape="http://www.inkscape.org/namespaces/inkscape"
   xmlns:sodipodi="http://sodipodi.sourceforge.net/DTD/sodipodi-0.dtd"
   xmlns:xlink="http://www.w3.org/1999/xlink"
   xmlns="http://www.w3.org/2000/svg"
   xmlns:svg="http://www.w3.org/2000/svg"
   xmlns:rdf="http://www.w3.org/1999/02/22-rdf-syntax-ns#"
   xmlns:cc="http://creativecommons.org/ns#"
   xmlns:dc="http://purl.org/dc/elements/1.1/"><sodipodi:namedview
     id="namedview32"
     pagecolor="#ffffff"
     bordercolor="#000000"
     borderopacity="0.25"
     inkscape:showpageshadow="2"
     inkscape:pageopacity="0.0"
     inkscape:pagecheckerboard="0"
     inkscape:deskcolor="#d1d1d1"
     inkscape:zoom="8.4895834"
     inkscape:cx="38.046625"
     inkscape:cy="29.801227"
     inkscape:window-width="1920"
     inkscape:window-height="1015"
     inkscape:window-x="0"
     inkscape:window-y="0"
     inkscape:window-maximized="1"
     inkscape:current-layer="svg32" /><metadata
     id="metadata1"><rdf:RDF><cc:Work
         rdf:about=""><dc:format>image/svg+xml</dc:format><dc:type
           rdf:resource="http://purl.org/dc/dcmitype/StillImage" /><dc:title /></cc:Work></rdf:RDF></metadata><defs
     id="defs8"><linearGradient
       id="a"
       x1="428.81601"
       x2="388.86499"
       y1="547.63397"
       y2="499.67899"
       gradientTransform="translate(-384.57,-499.8)"
       gradientUnits="userSpaceOnUse"><stop
         stop-color="#bdc3c7"
         offset="0"
         id="stop1" /><stop
         stop-color="#eff0f1"
         offset="1"
         id="stop2" /></linearGradient><linearGradient
       id="c"
       x1="406.501"
       x2="419.974"
       y1="527.014"
       y2="539.825"
       gradientTransform="translate(-391.5697,-499.8)"
       gradientUnits="userSpaceOnUse"><stop
         stop-color="#292c2f"
         offset="0"
         id="stop3" /><stop
         stop-opacity="0"
         offset="1"
         id="stop4" /></linearGradient><linearGradient
       id="linearGradient70363"
       x1="24"
       x2="24"
       y1="37"
       y2="12"
       gradientUnits="userSpaceOnUse"><stop
         stop-color="#2c3e50"
         offset="0"
         id="stop5" /><stop
         stop-color="#34495e"
         offset="1"
         id="stop6" /></linearGradient><linearGradient
       id="linearGradient70391"
       x1="24"
       x2="24"
       y1="51"
       y2="4"
       gradientUnits="userSpaceOnUse"><stop
         stop-color="#7f8c8d"
         stop-opacity="0"
         offset="0"
         id="stop7" /><stop
         stop-color="#7f8c8d"
         offset="1"
         id="stop8" /></linearGradient><linearGradient
       id="linearGradient70552"
       x1="18.474609"
       x2="34"
       y1="13"
       y2="28.525391"
       gradientUnits="userSpaceOnUse"
       xlink:href="#c" /><linearGradient
       id="linearGradient70571"
       x1="7"
       x2="11.933349"
       y1="37"
       y2="41.93335"
       gradientTransform="translate(0,-30)"
       gradientUnits="userSpaceOnUse"
       xlink:href="#c" /><linearGradient
       id="linearGradient70575"
       x1="7"
       x2="11.933349"
       y1="37"
       y2="41.93335"
       gradientTransform="translate(32,-30)"
       gradientUnits="userSpaceOnUse"
       xlink:href="#c" /><linearGradient
       id="linearGradient70579"
       x1="7"
       x2="11.933349"
       y1="37"
       y2="41.93335"
       gradientTransform="translate(32)"
       gradientUnits="userSpaceOnUse"
       xlink:href="#c" /><linearGradient
       id="linearGradient70596"
       x1="7"
       x2="11.933349"
       y1="37"
       y2="41.93335"
       gradientUnits="userSpaceOnUse"
       xlink:href="#c" /><linearGradient
       id="linear0"
       gradientUnits="userSpaceOnUse"
       x1="22.2703"
       y1="11.7297"
       x2="9.646"
       y2="24.354"
       gradientTransform="matrix(2,0,0,-2,0,68)"><stop
         offset="0"
         style="stop-color:rgb(100%,100%,100%);stop-opacity:1;"
         id="stop1-7" /><stop
         offset="0.242"
         style="stop-color:rgb(94.901961%,94.901961%,94.901961%);stop-opacity:1;"
         id="stop2-5" /><stop
         offset="1"
         style="stop-color:rgb(80%,80%,80%);stop-opacity:1;"
         id="stop3-3" /></linearGradient><linearGradient
       id="linear1"
       gradientUnits="userSpaceOnUse"
       x1="10.3857"
       y1="23.6143"
       x2="20.2343"
       y2="13.7657"
       gradientTransform="matrix(2,0,0,-2,0,68)"><stop
         offset="0.2291"
         style="stop-color:rgb(2.352941%,41.176471%,73.72549%);stop-opacity:1;"
         id="stop4-5" /><stop
         offset="0.8045"
         style="stop-color:rgb(6.27451%,30.588235%,56.862745%);stop-opacity:1;"
         id="stop5-6" /></linearGradient><linearGradient
       id="linear2"
       gradientUnits="userSpaceOnUse"
       x1="1.1849"
       y1="32.7367"
       x2="27.1727"
       y2="6.749"
       gradientTransform="matrix(2,0,0,-2,0,68)"><stop
         offset="0.1453"
         style="stop-color:rgb(54.117647%,56.862745%,59.607843%);stop-opacity:1;"
         id="stop6-2" /><stop
         offset="0.8939"
         style="stop-color:rgb(38.823529%,43.921569%,48.235294%);stop-opacity:1;"
         id="stop7-9" /></linearGradient></defs><g
     id="surface1"
     transform="matrix(0.64294543,0,0,0.64294543,3.5129795,3.541532)"><path
       style="fill:url(#linear0);fill-rule:nonzero;stroke:none"
       d="m 50,32 c 0,9.941406 -8.058594,18 -18,18 -9.941406,0 -18,-8.058594 -18,-18 0,-9.941406 8.058594,-18 18,-18 9.941406,0 18,8.058594 18,18 z m 0,0"
       id="path7" /><path
       style="fill:url(#linear1);fill-rule:nonzero;stroke:none"
       d="m 44,32 c 0,6.628906 -5.371094,12 -12,12 -6.628906,0 -12,-5.371094 -12,-12 0,-6.628906 5.371094,-12 12,-12 6.628906,0 12,5.371094 12,12 z m 0,0"
       id="path8" /><path
       style="fill:url(#linear2);fill-rule:nonzero;stroke:none"
       d="m 63.050781,24.636719 c -3.933593,-0.02734 -7.566406,-2.117188 -9.574219,-5.5 -1.898437,-3.234375 -2,-7.21875 -0.257812,-10.542969 C 49.773438,5.570312 45.71875,3.324219 41.332031,2 39.234375,5.09375 35.738281,6.941406 32,6.929688 28.261719,6.941406 24.765625,5.09375 22.671875,2 18.28125,3.324219 14.226562,5.570312 10.78125,8.59375 c 1.742188,3.324219 1.644531,7.308594 -0.257812,10.542969 -2.007813,3.382812 -5.640626,5.472656 -9.574219,5.5 -1.128907,4.378906 -1.253907,8.960937 -0.367188,13.398437 4.066407,-0.09766 7.867188,2.007813 9.941407,5.507813 C 12.636719,47.144531 12.5,51.640625 10.167969,55.109375 13.546875,58.222656 17.550781,60.570312 21.914062,62 23.816406,58.167969 27.722656,55.746094 32,55.746094 c 4.277344,0 8.183594,2.421875 10.085938,6.253906 4.363281,-1.429688 8.367187,-3.777344 11.742187,-6.890625 -2.332031,-3.464844 -2.46875,-7.960937 -0.351563,-11.566406 2.070313,-3.5 5.875,-5.605469 9.941407,-5.507813 0.882812,-4.4375 0.757812,-9.015625 -0.367188,-13.398437 z M 32,48 c -8.835938,0 -16,-7.164062 -16,-16 0,-8.835938 7.164062,-16 16,-16 8.835938,0 16,7.164062 16,16 0,8.835938 -7.164062,16 -16,16 z m 0,0"
       id="path9" /></g></svg>
