<?xml version="1.0" encoding="UTF-8" standalone="no"?>
<svg
   version="1.1"
   viewBox="0 0 16 16"
   id="svg3"
   sodipodi:docname="drive-removable-media-usb-symbolic.svg"
   inkscape:version="1.4.2 (ebf0e94, 2025-05-08)"
   xml:space="preserve"
   xmlns:inkscape="http://www.inkscape.org/namespaces/inkscape"
   xmlns:sodipodi="http://sodipodi.sourceforge.net/DTD/sodipodi-0.dtd"
   xmlns="http://www.w3.org/2000/svg"
   xmlns:svg="http://www.w3.org/2000/svg"><defs
     id="defs3" /><sodipodi:namedview
     id="namedview3"
     pagecolor="#ffffff"
     bordercolor="#000000"
     borderopacity="0.25"
     inkscape:showpageshadow="2"
     inkscape:pageopacity="0.0"
     inkscape:pagecheckerboard="0"
     inkscape:deskcolor="#d1d1d1"
     inkscape:zoom="24.78125"
     inkscape:cx="2.3001261"
     inkscape:cy="14.143758"
     inkscape:window-width="1920"
     inkscape:window-height="1011"
     inkscape:window-x="0"
     inkscape:window-y="0"
     inkscape:window-maximized="1"
     inkscape:current-layer="svg3" /><path
     fill="currentColor"
     d="m 6.2608764,1.052459 h 4.2499996 a 0.425,0.425 0 0 1 0.425,0.425 v 2.975 h 0.06715 c 0.8993,0 1.63285,0.72505 1.63285,1.6252 v 4.3996 a 1.6286,1.6286 0 0 1 -1.63285,1.6252 h -0.91715 v 2.125 a 0.425,0.425 0 0 1 -0.8499996,0 v -2.125 h -1.7 v 2.125 a 0.425,0.425 0 0 1 -0.85,0 v -2.125 h -0.91715 a 1.6286,1.6286 0 0 1 -1.63285,-1.6252 v -4.3996 c 0,-0.901 0.73355,-1.6252 1.63285,-1.6252 h 0.06715 v -2.975 a 0.425,0.425 0 0 1 0.425,-0.425 m 4.7421496,10.2 a 0.7786,0.7786 0 0 0 0.78285,-0.7752 v -4.3996 c 0,-0.425 -0.3485,-0.7752 -0.78285,-0.7752 H 5.7678764 a 0.7786,0.7786 0 0 0 -0.782,0.7752 v 4.3996 c 0,0.425 0.3485,0.7752 0.78285,0.7752 z m -0.91715,-6.8 v -2.55 H 6.6858764 v 2.55 z"
     id="path1"
     style="stroke-width:0.85" /></svg>
