<?xml version="1.0" encoding="UTF-8" standalone="no"?>
<!-- Created with Inkscape (http://www.inkscape.org/) -->

<svg
   width="48mm"
   height="48mm"
   viewBox="0 0 48 48"
   version="1.1"
   id="svg1"
   inkscape:version="1.4.2 (ebf0e94, 2025-05-08)"
   sodipodi:docname="application-pdf.svg"
   xml:space="preserve"
   xmlns:inkscape="http://www.inkscape.org/namespaces/inkscape"
   xmlns:sodipodi="http://sodipodi.sourceforge.net/DTD/sodipodi-0.dtd"
   xmlns="http://www.w3.org/2000/svg"
   xmlns:svg="http://www.w3.org/2000/svg"><sodipodi:namedview
     id="namedview1"
     pagecolor="#ffffff"
     bordercolor="#000000"
     borderopacity="0.25"
     inkscape:showpageshadow="2"
     inkscape:pageopacity="0.0"
     inkscape:pagecheckerboard="0"
     inkscape:deskcolor="#d1d1d1"
     inkscape:document-units="mm"
     inkscape:zoom="1.4093294"
     inkscape:cx="166.03641"
     inkscape:cy="129.49421"
     inkscape:window-width="1920"
     inkscape:window-height="1011"
     inkscape:window-x="0"
     inkscape:window-y="0"
     inkscape:window-maximized="1"
     inkscape:current-layer="layer1" /><defs
     id="defs1" /><g
     inkscape:label="Layer 1"
     inkscape:groupmode="layer"
     id="layer1"><path
       fill="#ffffff"
       d="M 9.0601813,44.514992 H 39.207856 c 0.285883,0 0.519787,-0.2256 0.519787,-0.501333 V 14.434991 h -8.836387 c -0.859729,0 -1.559363,-0.674795 -1.559363,-1.504 V 4.4083242 H 9.0601813 c -0.285883,0 -0.519788,0.2256 -0.519788,0.5013333 V 44.013659 c 0,0.275733 0.233905,0.501333 0.519788,0.501333 z"
       id="path1"
       style="stroke-width:1.02095" /><path
       fill="#ffffff"
       d="M 38.992664,13.432324 30.371468,5.1172095 v 7.8137815 c 0,0.275733 0.233905,0.501333 0.519788,0.501333 z"
       id="path2"
       style="stroke-width:1.02095" /><path
       fill="#605e5c"
       fill-rule="evenodd"
       d="M 40.309805,13.285935 30.523246,3.8458282 A 1.5697582,1.5140267 0 0 0 29.421297,3.4056575 H 9.0601813 c -0.859729,0 -1.559363,0.6747947 -1.559363,1.504 V 44.013659 c 0,0.829205 0.699634,1.504 1.559363,1.504 H 39.207856 c 0.859728,0 1.559362,-0.674795 1.559362,-1.504 V 14.348762 c 0,-0.401067 -0.162173,-0.779072 -0.457413,-1.062827 z M 30.371468,5.1172095 38.992664,13.432324 H 30.891256 A 0.52082707,0.50233602 0 0 1 30.371468,12.930991 Z M 9.0601813,44.514992 H 39.207856 c 0.285883,0 0.519787,-0.2256 0.519787,-0.501333 V 14.434991 h -8.836387 c -0.859729,0 -1.559363,-0.674795 -1.559363,-1.504 V 4.4083242 H 9.0601813 c -0.285883,0 -0.519788,0.2256 -0.519788,0.5013333 V 44.013659 a 0.5197875,0.50133335 0 0 0 0.519788,0.501333 z"
       clip-rule="evenodd"
       opacity="0.64"
       id="path3"
       style="stroke-width:1.02095" /><path
       fill="#185abd"
       d="m 34.856736,30.035442 h -8.244163 v 1.347818 h 8.244163 a 0.35844208,0.673909 0 0 0 0,-1.347818 z"
       id="path5"
       style="fill:#5f5e5c;fill-opacity:0.639216;stroke-width:0.982962" /><rect
       style="fill:#ff3e39;fill-opacity:1;stroke-width:1.76415;stroke-linecap:round;stroke-linejoin:round"
       id="rect1"
       width="24.68742"
       height="18.4921"
       x="0.47865537"
       y="17.08407"
       ry="1.3102573" /><text
       xml:space="preserve"
       style="font-size:11.2889px;font-family:Hack;-inkscape-font-specification:Hack;text-align:start;letter-spacing:0px;word-spacing:0px;writing-mode:lr-tb;direction:ltr;text-anchor:start;fill:#ffffff;fill-opacity:1;stroke-width:2.02005;stroke-linecap:round;stroke-linejoin:round"
       x="2.7415924"
       y="28.185738"
       id="text1"
       transform="scale(0.91684963,1.0906914)"><tspan
         sodipodi:role="line"
         id="tspan1"
         style="font-style:normal;font-variant:normal;font-weight:800;font-stretch:normal;font-size:11.2889px;font-family:Lato;-inkscape-font-specification:'Lato Ultra-Bold';letter-spacing:0px;word-spacing:0px;fill:#ffffff;fill-opacity:1;stroke-width:2.02005"
         x="2.7415924"
         y="28.185738">PDF</tspan></text><text
       xml:space="preserve"
       style="font-size:12.7px;font-family:Hack;-inkscape-font-specification:Hack;text-align:start;letter-spacing:-1.32292px;word-spacing:0px;writing-mode:lr-tb;direction:ltr;text-anchor:start;fill:#ffffff;fill-opacity:1;stroke-width:1.85208;stroke-linecap:round;stroke-linejoin:round"
       x="1.9034828"
       y="29.944057"
       id="text23"><tspan
         sodipodi:role="line"
         id="tspan23"
         style="font-style:normal;font-variant:normal;font-weight:normal;font-stretch:normal;font-size:12.7px;font-family:FontAwesome;-inkscape-font-specification:FontAwesome;letter-spacing:-1.32292px;word-spacing:0px;fill:#ffffff;fill-opacity:1;stroke-width:1.85208"
         x="1.9034828"
         y="29.944057" /></text><path
       fill="#185abd"
       d="m 34.856736,26.04603 h -8.244163 v 1.347818 h 8.244163 a 0.35844208,0.673909 0 0 0 0,-1.347818 z"
       id="path8"
       style="fill:#5f5e5c;fill-opacity:0.639216;stroke-width:0.982962" /><path
       fill="#185abd"
       d="m 34.856736,21.962749 h -8.244163 v 1.347818 h 8.244163 a 0.35844208,0.673909 0 0 0 0,-1.347818 z"
       id="path9"
       style="fill:#5f5e5c;fill-opacity:0.639216;stroke-width:0.982962" /></g></svg>
