<?xml version="1.0" encoding="UTF-8" standalone="no"?>
<!-- Created with Inkscape (http://www.inkscape.org/) -->

<svg
   width="48mm"
   height="48mm"
   viewBox="0 0 48 48"
   version="1.1"
   id="svg1"
   inkscape:version="1.4.2 (ebf0e94, 2025-05-08)"
   sodipodi:docname="application-x-deb.svg"
   xml:space="preserve"
   xmlns:inkscape="http://www.inkscape.org/namespaces/inkscape"
   xmlns:sodipodi="http://sodipodi.sourceforge.net/DTD/sodipodi-0.dtd"
   xmlns="http://www.w3.org/2000/svg"
   xmlns:svg="http://www.w3.org/2000/svg"><sodipodi:namedview
     id="namedview1"
     pagecolor="#ffffff"
     bordercolor="#000000"
     borderopacity="0.25"
     inkscape:showpageshadow="2"
     inkscape:pageopacity="0.0"
     inkscape:pagecheckerboard="0"
     inkscape:deskcolor="#d1d1d1"
     inkscape:document-units="mm"
     inkscape:zoom="3.9861856"
     inkscape:cx="50.675011"
     inkscape:cy="89.433869"
     inkscape:window-width="1920"
     inkscape:window-height="1011"
     inkscape:window-x="0"
     inkscape:window-y="0"
     inkscape:window-maximized="1"
     inkscape:current-layer="layer1" /><defs
     id="defs1"><linearGradient
       id="linear0"
       gradientUnits="userSpaceOnUse"
       x1="4.3614"
       y1="4.4413"
       x2="29.9468"
       y2="30.0267"
       gradientTransform="matrix(0.53732772,0,0,0.53732772,30.876223,31.030324)"><stop
         offset="0"
         style="stop-color:rgb(2.352941%,41.176471%,73.72549%);stop-opacity:1;"
         id="stop1" /><stop
         offset="1"
         style="stop-color:rgb(14.117647%,22.745098%,37.254902%);stop-opacity:1;"
         id="stop2" /></linearGradient><linearGradient
       id="linear1"
       gradientUnits="userSpaceOnUse"
       x1="-26.2513"
       y1="30.3543"
       x2="-26.2513"
       y2="28.5023"
       gradientTransform="matrix(2.0308839,0,0,-2.0308839,89.025668,93.751138)"><stop
         offset="0"
         style="stop-color:rgb(18.823529%,85.490196%,100%);stop-opacity:1;"
         id="stop3" /><stop
         offset="1"
         style="stop-color:rgb(2.352941%,49.411765%,74.509804%);stop-opacity:1;"
         id="stop4" /></linearGradient><linearGradient
       id="linear2"
       gradientUnits="userSpaceOnUse"
       x1="16"
       y1="2.0002"
       x2="16"
       y2="4"
       gradientTransform="matrix(0.53732772,0,0,0.53732772,30.876223,31.030324)"><stop
         offset="0"
         style="stop-color:rgb(13.333333%,73.72549%,100%);stop-opacity:1;"
         id="stop5" /><stop
         offset="1"
         style="stop-color:rgb(2.352941%,49.411765%,74.509804%);stop-opacity:1;"
         id="stop6" /></linearGradient><linearGradient
       id="linear3"
       gradientUnits="userSpaceOnUse"
       x1="-17.2707"
       y1="30.3543"
       x2="-17.2707"
       y2="28.5023"
       gradientTransform="matrix(-2.0308839,0,0,-2.0308839,8.1599414,93.751138)"><stop
         offset="0"
         style="stop-color:rgb(18.823529%,85.490196%,100%);stop-opacity:1;"
         id="stop7" /><stop
         offset="1"
         style="stop-color:rgb(2.352941%,49.411765%,74.509804%);stop-opacity:1;"
         id="stop8" /></linearGradient></defs><g
     inkscape:label="Layer 1"
     inkscape:groupmode="layer"
     id="layer1"><path
       fill="#605e5c"
       fill-rule="evenodd"
       d="M 38.338566,12.159513 28.552007,2.7194059 C 28.25904,2.4385642 27.863112,2.2804118 27.450058,2.2792352 H 7.0889429 c -0.859729,0 -1.559363,0.6747947 -1.559363,1.504 V 42.887237 c 0,0.829205 0.699634,1.504 1.559363,1.504 H 37.236617 c 0.859728,0 1.559362,-0.674795 1.559362,-1.504 V 13.22234 c 0,-0.401067 -0.162173,-0.779072 -0.457413,-1.062827 z m -9.938337,-8.1687258 8.621196,8.3151148 h -8.101408 c -0.286834,-5.51e-4 -0.519216,-0.224683 -0.519788,-0.501333 z M 7.0889429,43.38857 H 37.236617 c 0.285883,0 0.519787,-0.2256 0.519787,-0.501333 V 13.308569 h -8.836387 c -0.859729,0 -1.559363,-0.674795 -1.559363,-1.504 V 3.2819019 H 7.0889429 c -0.285883,0 -0.519788,0.2256 -0.519788,0.5013333 V 42.887237 c 2e-7,0.276879 0.2327172,0.501333 0.519788,0.501333 z"
       clip-rule="evenodd"
       opacity="0.64"
       id="path3"
       style="stroke-width:1.02095"
       sodipodi:nodetypes="cccssssssscccccccsscsscsscc" /><path
       fill="#ffffff"
       d="M 37.021425,12.305902 28.400229,3.9907872 v 7.8137818 c 0,0.275733 0.233905,0.501333 0.519788,0.501333 z"
       id="path2"
       style="stroke-width:1.02095" /><text
       xml:space="preserve"
       style="font-size:12.7px;font-family:Hack;-inkscape-font-specification:Hack;text-align:start;letter-spacing:-1.32292px;word-spacing:0px;writing-mode:lr-tb;direction:ltr;text-anchor:start;fill:#ffffff;fill-opacity:1;stroke-width:1.85208;stroke-linecap:round;stroke-linejoin:round"
       x="1.9034828"
       y="29.944057"
       id="text23"><tspan
         sodipodi:role="line"
         id="tspan23"
         style="font-style:normal;font-variant:normal;font-weight:normal;font-stretch:normal;font-size:12.7px;font-family:FontAwesome;-inkscape-font-specification:FontAwesome;letter-spacing:-1.32292px;word-spacing:0px;fill:#ffffff;fill-opacity:1;stroke-width:1.85208"
         x="1.9034828"
         y="29.944057" /></text><g
       id="SVGRepo_bgCarrier"
       stroke-width="0"
       transform="matrix(0.75021064,0,0,0.75021064,13.093974,15.159457)"
       style="fill:#5f5e5c;fill-opacity:0.63921571" /><g
       id="SVGRepo_tracerCarrier"
       stroke-linecap="round"
       stroke-linejoin="round"
       transform="matrix(0.75021064,0,0,0.75021064,13.093974,15.159457)"
       style="fill:#5f5e5c;fill-opacity:0.63921571" /><g
       id="SVGRepo_bgCarrier-3"
       stroke-width="0"
       transform="matrix(0.03538193,0,0,0.03538193,54.689594,22.728698)" /><g
       id="SVGRepo_tracerCarrier-6"
       stroke-linecap="round"
       stroke-linejoin="round"
       transform="matrix(0.03538193,0,0,0.03538193,54.689594,22.728698)" /><path
       fill="#ffffff"
       d="M 7.0889429,43.38857 H 37.236617 c 0.285883,0 0.519787,-0.2256 0.519787,-0.501333 V 13.308569 h -8.836387 c -0.859729,0 -1.559363,-0.674795 -1.559363,-1.504 V 3.2819019 H 7.0889429 c -0.285883,0 -0.519788,0.2256 -0.519788,0.5013333 V 42.887237 c 0,0.275733 0.233905,0.501333 0.519788,0.501333 z"
       id="path1"
       style="stroke-width:1.02095" /><path
       fill="currentColor"
       d="m 31.208271,30.437414 h -2.898577 v -0.970423 h 0.964077 V 28.502914 H 14.780882 v 0.964077 h 0.967251 v 0.970423 h -2.90175 v 5.797157 H 31.208271 Z M 16.709038,29.466991 h 10.630234 v 0.970423 H 16.709038 Z m 13.535156,5.8035 H 13.810462 V 31.401492 H 30.244194 Z M 29.273771,16.90226 h 0.970423 v 11.600654 h -0.970423 z"
       id="path1-3"
       style="fill:#8c8b8a;fill-opacity:1;stroke-width:0.63402;stroke-dasharray:none" /><path
       fill="currentColor"
       d="m 26.375193,34.300069 h 0.964079 v -0.964077 h 0.970422 v -0.970423 h -4.833077 v 0.970423 h 2.898576 z m -1.934499,-14.49289 h 0.970422 v 0.964079 h -0.970422 z m -5.797154,0 h 0.964077 v 0.964079 H 18.64354 Z m 6.767576,1.928159 h -0.970422 v -0.96408 h -4.833077 v 0.96408 H 18.64354 v 0.970419 h -0.96408 v 2.898579 h 0.96408 v -1.934499 h 0.964077 v 1.934499 h 0.970422 v -0.970422 h 2.898578 v 0.970422 h 0.964077 v -1.934499 h 0.970422 v 1.934499 h 0.964077 v -2.898579 h -0.964077 z m -3.869,0.970419 h -0.964077 v -0.970419 h 0.964077 z m 1.934501,0 h -0.964079 v -0.970419 h 0.964079 z"
       id="path2-6"
       style="fill:#8c8b8a;fill-opacity:1;stroke-width:0.63402;stroke-dasharray:none" /><path
       fill="currentColor"
       d="M 15.748133,27.538836 H 28.312867 V 17.87268 H 15.748133 Z m 0.960905,-8.702077 h 10.630234 v 7.731656 H 16.709038 Z m -0.964077,13.52881 h 0.964077 v 0.970423 H 15.744961 Z M 14.780882,15.938181 H 29.273771 V 16.90226 H 14.780882 Z m -0.97042,0.964079 h 0.97042 v 11.600654 h -0.97042 z"
       id="path3-0"
       style="fill:#8c8b8a;fill-opacity:1;stroke-width:0.63402;stroke-dasharray:none" /><rect
       style="fill:#ffffff;fill-opacity:1;stroke:none;stroke-width:0.551201;stroke-linecap:round;stroke-linejoin:round;stroke-dasharray:none;stroke-opacity:1"
       id="rect5"
       width="5.6863217"
       height="3.5859683"
       x="36.628738"
       y="32.7616"
       ry="0.47651646" /><path
       style="fill:url(#linear0);fill-rule:nonzero;stroke:none;stroke-width:0.268664"
       d="M 46.260377,34.25429 H 32.686556 c -0.406145,0 -0.735678,0.329533 -0.735678,0.735677 v 7.901447 c 0,2.351858 1.906884,4.258742 4.258742,4.258742 h 6.527693 c 2.351858,0 4.258742,-1.906884 4.258742,-4.258742 v -7.901447 c 0,-0.406144 -0.329533,-0.735677 -0.735678,-0.735677 z m 0,0"
       id="path8" /><path
       style="fill:url(#linear1);fill-rule:nonzero;stroke:none;stroke-width:0.268664"
       d="m 36.236907,32.104979 c -0.273912,-0.01049 -0.541526,0.0892 -0.741975,0.278109 -0.199398,0.188905 -0.31484,0.450223 -0.320087,0.725183 v 2.378095 c -0.01364,0.195201 0.131183,0.364165 0.325335,0.379907 h 0.423985 c 0.194152,-0.01574 0.340028,-0.184706 0.325335,-0.379907 v -3.381387 c 0,0 -0.0042,0 -0.01259,0 z m 0,0"
       id="path9" /><path
       style="fill:url(#linear2);fill-rule:nonzero;stroke:none;stroke-width:0.268664"
       d="m 36.2495,32.104979 h 6.447933 v 1.074656 H 36.2495 Z m 0,0"
       id="path10" /><path
       style="fill:url(#linear3);fill-rule:nonzero;stroke:none;stroke-width:0.268664"
       d="m 42.710026,32.104979 c 0.273912,-0.01049 0.541526,0.0892 0.741975,0.278109 0.199398,0.188905 0.31484,0.450223 0.320087,0.725183 v 2.378095 c 0.01469,0.195201 -0.131183,0.364165 -0.325335,0.379907 h -0.423985 c -0.194152,-0.01574 -0.340028,-0.184706 -0.325335,-0.379907 v -3.381387 c 0,0 0.0042,0 0.01259,0 z m 0,0"
       id="path11" /><path
       fill="currentColor"
       d="m 40.391235,44.701009 q -6.398,-3.656003 -1.828001,-7.312002 4.570002,-0.913999 3.656003,3.655999 -3.656003,1.828002 -1.828002,-1.827998 -1.828001,0.913999 -0.913999,1.827998 1.827998,0.914003 1.827998,-1.827998 -2.742,-2.742 -3.655999,1.827998"
       id="path1-5"
       style="fill:#ffffff;fill-opacity:1;stroke-width:0.913999" /><ellipse
       style="fill:#ffffff;fill-opacity:1;stroke-width:0.569156;stroke-linecap:round;stroke-linejoin:round"
       id="path4"
       cx="5.5093727"
       cy="41.099934"
       rx="4.7128725"
       ry="3.8151822" /><path
       fill="currentColor"
       d="m 6.1251377,44.157492 3.179734,-3.179735 -0.741937,-0.741936 -1.90784,1.90784 v -4.345638 h -1.05991 v 4.345638 l -1.907841,-1.90784 -0.74194,0.741936 z m 0,2.119824 c -1.466211,0 -2.715843,-0.516886 -3.748906,-1.550653 -2.08136301,-2.082786 -2.08927001,-5.409968 0,-7.497812 1.034473,-1.033767 2.284109,-1.550652 3.748906,-1.550652 1.464801,0 2.71479,0.516885 3.749967,1.550652 1.0351813,1.033767 1.5517103,2.2834 1.5495903,3.748906 -0.0021,1.465506 -0.519004,2.715495 -1.5506473,3.749967 -1.031648,1.034473 -2.281286,1.551005 -3.74891,1.549592"
       id="path1-9"
       style="fill:#8c8b8a;fill-opacity:1;stroke-width:1.05991"
       sodipodi:nodetypes="cccccccccccssssssc" /></g></svg>
