<?xml version="1.0" encoding="UTF-8" standalone="no"?>
<!-- Created with Inkscape (http://www.inkscape.org/) -->

<svg
   width="48mm"
   height="48mm"
   viewBox="0 0 48 48"
   version="1.1"
   id="svg1"
   inkscape:version="1.4.2 (ebf0e94, 2025-05-08)"
   sodipodi:docname="audio-x-flac.svg"
   xml:space="preserve"
   xmlns:inkscape="http://www.inkscape.org/namespaces/inkscape"
   xmlns:sodipodi="http://sodipodi.sourceforge.net/DTD/sodipodi-0.dtd"
   xmlns="http://www.w3.org/2000/svg"
   xmlns:svg="http://www.w3.org/2000/svg"><sodipodi:namedview
     id="namedview1"
     pagecolor="#ffffff"
     bordercolor="#000000"
     borderopacity="0.25"
     inkscape:showpageshadow="2"
     inkscape:pageopacity="0.0"
     inkscape:pagecheckerboard="0"
     inkscape:deskcolor="#d1d1d1"
     inkscape:document-units="mm"
     inkscape:zoom="1.9930928"
     inkscape:cx="61.713132"
     inkscape:cy="139.23085"
     inkscape:window-width="1920"
     inkscape:window-height="1011"
     inkscape:window-x="0"
     inkscape:window-y="0"
     inkscape:window-maximized="1"
     inkscape:current-layer="layer1" /><defs
     id="defs1" /><g
     inkscape:label="Layer 1"
     inkscape:groupmode="layer"
     id="layer1"><path
       fill="#ffffff"
       d="M 9.0601813,44.514992 H 39.207856 c 0.285883,0 0.519787,-0.2256 0.519787,-0.501333 V 14.434991 h -8.836387 c -0.859729,0 -1.559363,-0.674795 -1.559363,-1.504 V 4.4083242 H 9.0601813 c -0.285883,0 -0.519788,0.2256 -0.519788,0.5013333 V 44.013659 c 0,0.275733 0.233905,0.501333 0.519788,0.501333 z"
       id="path1"
       style="stroke-width:1.02095" /><path
       fill="#ffffff"
       d="M 38.992664,13.432324 30.371468,5.1172095 v 7.8137815 c 0,0.275733 0.233905,0.501333 0.519788,0.501333 z"
       id="path2"
       style="stroke-width:1.02095" /><path
       fill="#605e5c"
       fill-rule="evenodd"
       d="M 40.309805,13.285935 30.523246,3.8458282 A 1.5697582,1.5140267 0 0 0 29.421297,3.4056575 H 9.0601813 c -0.859729,0 -1.559363,0.6747947 -1.559363,1.504 V 44.013659 c 0,0.829205 0.699634,1.504 1.559363,1.504 H 39.207856 c 0.859728,0 1.559362,-0.674795 1.559362,-1.504 V 14.348762 c 0,-0.401067 -0.162173,-0.779072 -0.457413,-1.062827 z M 30.371468,5.1172095 38.992664,13.432324 H 30.891256 A 0.52082707,0.50233602 0 0 1 30.371468,12.930991 Z M 9.0601813,44.514992 H 39.207856 c 0.285883,0 0.519787,-0.2256 0.519787,-0.501333 V 14.434991 h -8.836387 c -0.859729,0 -1.559363,-0.674795 -1.559363,-1.504 V 4.4083242 H 9.0601813 c -0.285883,0 -0.519788,0.2256 -0.519788,0.5013333 V 44.013659 a 0.5197875,0.50133335 0 0 0 0.519788,0.501333 z"
       clip-rule="evenodd"
       opacity="0.64"
       id="path3"
       style="stroke-width:1.02095" /><text
       xml:space="preserve"
       style="font-size:12.7px;font-family:Hack;-inkscape-font-specification:Hack;text-align:start;letter-spacing:-1.32292px;word-spacing:0px;writing-mode:lr-tb;direction:ltr;text-anchor:start;fill:#ffffff;fill-opacity:1;stroke-width:1.85208;stroke-linecap:round;stroke-linejoin:round"
       x="1.9034828"
       y="29.944057"
       id="text23"><tspan
         sodipodi:role="line"
         id="tspan23"
         style="font-style:normal;font-variant:normal;font-weight:normal;font-stretch:normal;font-size:12.7px;font-family:FontAwesome;-inkscape-font-specification:FontAwesome;letter-spacing:-1.32292px;word-spacing:0px;fill:#ffffff;fill-opacity:1;stroke-width:1.85208"
         x="1.9034828"
         y="29.944057" /></text><path
       fill="currentColor"
       d="m 28.765321,22.721402 -2.548819,-6.471847 -2.034981,4.387608 c -0.432306,-0.14779 -1.24086,-0.149492 -1.673167,0 l -2.034981,-4.387608 -2.548818,6.471847 c -0.718529,1.822649 -1.377603,3.71919 0,5.783896 0.507045,0.760995 5.41444,8.136521 5.420385,8.128027 l 5.420381,-8.128027 c 1.377606,-2.064706 0.718529,-3.961247 0,-5.783896 m -4.252561,6.1576 c -0.285373,-0.252246 -0.354171,-0.716832 -0.193663,-1.307961 0.161369,-0.590279 0.531677,-1.234916 1.044667,-1.813305 0.512143,-0.579239 1.106668,-1.025133 1.674868,-1.25615 0.566499,-0.230161 1.036174,-0.218283 1.321547,0.03396 0.285372,0.253946 0.354167,0.718529 0.193629,1.307961 -0.161369,0.591976 -0.531676,1.235763 -1.044667,1.815002 -0.512142,0.578393 -1.107519,1.024286 -1.674869,1.2553 -0.567345,0.231028 -1.036172,0.219117 -1.321545,-0.03396 m 0.377947,4.105632 c -0.133344,0.07644 -0.319334,0.06796 -0.415318,-0.09852 l -1.127903,-1.956842 -0.0025,-0.0042 -1.132149,1.962787 a 0.27178361,0.27178361 0 0 1 -0.238667,0.143521 0.34822275,0.34822275 0 0 1 -0.295549,-0.171576 0.27178361,0.27178361 0 0 1 0.0042,-0.281136 l 1.320698,-2.282983 a 0.39068891,0.39068891 0 0 1 0.339728,-0.193629 c 0.145222,0 0.273496,0.07303 0.344826,0.195331 l 1.313906,2.281284 c 0.101919,0.176649 0.01348,0.333787 -0.11126,0.405978 m -4.035043,-4.070854 c -0.568196,-0.231027 -1.162726,-0.676912 -1.674866,-1.2553 -0.512993,-0.578389 -0.883297,-1.223027 -1.044669,-1.814156 -0.161369,-0.590282 -0.09174,-1.054862 0.19363,-1.307957 0.149491,-0.132511 0.34992,-0.198735 0.58858,-0.198735 0.215715,0 0.463733,0.05435 0.732969,0.164773 0.568196,0.231026 1.162721,0.676911 1.674865,1.255299 0.512991,0.578389 0.883298,1.223026 1.04467,1.814156 0.160534,0.590278 0.09174,1.054858 -0.19363,1.307958 -0.285373,0.253112 -0.755901,0.264988 -1.321549,0.03396"
       id="path1-5"
       style="stroke-width:0.849322;fill:#8c8b8a;fill-opacity:1" /></g></svg>
