<?xml version="1.0" encoding="UTF-8" standalone="no"?>
<!-- Created with Inkscape (http://www.inkscape.org/) -->

<svg
   width="48mm"
   height="48mm"
   viewBox="0 0 48 48"
   version="1.1"
   id="svg1"
   inkscape:version="1.4.2 (ebf0e94, 2025-05-08)"
   sodipodi:docname="video-x-matroska.svg"
   xml:space="preserve"
   xmlns:inkscape="http://www.inkscape.org/namespaces/inkscape"
   xmlns:sodipodi="http://sodipodi.sourceforge.net/DTD/sodipodi-0.dtd"
   xmlns:xlink="http://www.w3.org/1999/xlink"
   xmlns="http://www.w3.org/2000/svg"
   xmlns:svg="http://www.w3.org/2000/svg"><sodipodi:namedview
     id="namedview1"
     pagecolor="#ffffff"
     bordercolor="#000000"
     borderopacity="0.25"
     inkscape:showpageshadow="2"
     inkscape:pageopacity="0.0"
     inkscape:pagecheckerboard="0"
     inkscape:deskcolor="#d1d1d1"
     inkscape:document-units="mm"
     inkscape:zoom="2.8186588"
     inkscape:cx="133.042"
     inkscape:cy="125.05948"
     inkscape:window-width="1920"
     inkscape:window-height="1011"
     inkscape:window-x="0"
     inkscape:window-y="0"
     inkscape:window-maximized="1"
     inkscape:current-layer="layer1" /><defs
     id="defs1"><linearGradient
       inkscape:collect="always"
       xlink:href="#linearGradient1"
       id="linearGradient2"
       x1="27.507307"
       y1="12.40783"
       x2="36.697487"
       y2="23.420361"
       gradientUnits="userSpaceOnUse"
       gradientTransform="matrix(3.3635395,0,0,3.3635395,-76.892565,-27.110759)" /><linearGradient
       id="linearGradient1"
       inkscape:collect="always"><stop
         style="stop-color:#d34acc;stop-opacity:1;"
         offset="0"
         id="stop1" /><stop
         style="stop-color:#9920e6;stop-opacity:1;"
         offset="1"
         id="stop2" /></linearGradient><linearGradient
       id="a"
       gradientUnits="userSpaceOnUse"
       x1="423.61072"
       x2="422.88239"
       y1="578.00519"
       y2="530.41589"><stop
         offset="0"
         stop-color="#981fe7"
         id="stop1-3" /><stop
         offset="1"
         stop-color="#db50c8"
         id="stop2-5" /></linearGradient></defs><g
     inkscape:label="Layer 1"
     inkscape:groupmode="layer"
     id="layer1"><path
       fill="#ffffff"
       d="M 9.0601813,44.514992 H 39.207856 c 0.285883,0 0.519787,-0.2256 0.519787,-0.501333 V 14.434991 h -8.836387 c -0.859729,0 -1.559363,-0.674795 -1.559363,-1.504 V 4.4083242 H 9.0601813 c -0.285883,0 -0.519788,0.2256 -0.519788,0.5013333 V 44.013659 c 0,0.275733 0.233905,0.501333 0.519788,0.501333 z"
       id="path1"
       style="stroke-width:1.02095" /><path
       fill="#ffffff"
       d="M 38.992664,13.432324 30.371468,5.1172095 v 7.8137815 c 0,0.275733 0.233905,0.501333 0.519788,0.501333 z"
       id="path2"
       style="stroke-width:1.02095" /><path
       fill="#605e5c"
       fill-rule="evenodd"
       d="M 40.309805,13.285935 30.523246,3.8458282 A 1.5697582,1.5140267 0 0 0 29.421297,3.4056575 H 9.0601813 c -0.859729,0 -1.559363,0.6747947 -1.559363,1.504 V 44.013659 c 0,0.829205 0.699634,1.504 1.559363,1.504 H 39.207856 c 0.859728,0 1.559362,-0.674795 1.559362,-1.504 V 14.348762 c 0,-0.401067 -0.162173,-0.779072 -0.457413,-1.062827 z M 30.371468,5.1172095 38.992664,13.432324 H 30.891256 A 0.52082707,0.50233602 0 0 1 30.371468,12.930991 Z M 9.0601813,44.514992 H 39.207856 c 0.285883,0 0.519787,-0.2256 0.519787,-0.501333 V 14.434991 h -8.836387 c -0.859729,0 -1.559363,-0.674795 -1.559363,-1.504 V 4.4083242 H 9.0601813 c -0.285883,0 -0.519788,0.2256 -0.519788,0.5013333 V 44.013659 a 0.5197875,0.50133335 0 0 0 0.519788,0.501333 z"
       clip-rule="evenodd"
       opacity="0.64"
       id="path3"
       style="stroke-width:1.02095" /><text
       xml:space="preserve"
       style="font-size:12.7px;font-family:Hack;-inkscape-font-specification:Hack;text-align:start;letter-spacing:-1.32292px;word-spacing:0px;writing-mode:lr-tb;direction:ltr;text-anchor:start;fill:#ffffff;fill-opacity:1;stroke-width:1.85208;stroke-linecap:round;stroke-linejoin:round"
       x="1.9034828"
       y="29.944057"
       id="text23"><tspan
         sodipodi:role="line"
         id="tspan23"
         style="font-style:normal;font-variant:normal;font-weight:normal;font-stretch:normal;font-size:12.7px;font-family:FontAwesome;-inkscape-font-specification:FontAwesome;letter-spacing:-1.32292px;word-spacing:0px;fill:#ffffff;fill-opacity:1;stroke-width:1.85208"
         x="1.9034828"
         y="29.944057" /></text><g
       inkscape:label="smartcode-stremio"
       id="layer1-6"
       transform="matrix(0.32759786,0,0,0.32759786,13.421679,16.20428)"><circle
         style="opacity:0.15;fill:#000000;fill-opacity:1;stroke:none;stroke-width:2.4764;stroke-linejoin:round;stroke-opacity:1;paint-order:stroke fill markers"
         id="circle1"
         cx="31.886454"
         cy="31.899513"
         r="28.21349"
         inkscape:label="shadow" /><circle
         style="fill:url(#linearGradient2);stroke:none;stroke-width:2.4764;stroke-linejoin:round;stroke-opacity:1;paint-order:stroke fill markers"
         id="path4"
         cx="31.707376"
         cy="31.430014"
         r="28.21349"
         inkscape:label="circle" /><path
         style="color:#000000;opacity:0.15;fill:#000000;fill-opacity:1;stroke-width:4.17226;stroke-linecap:round;stroke-linejoin:round"
         d="m 25.660808,18.885362 c -0.555216,0.282333 -0.904966,0.851665 -0.905256,1.473753 V 44.62317 c 0.0013,1.352871 1.539556,2.132746 2.634207,1.335336 L 43.961523,33.826469 c 0.904779,-0.661046 0.904779,-2.009617 0,-2.670656 L 27.389759,19.023794 c -0.504174,-0.367578 -1.17252,-0.421095 -1.728935,-0.138288 z"
         id="path1-1"
         sodipodi:nodetypes="cccccccc"
         inkscape:label="triangle" /><path
         style="color:#000000;fill:#f8e3f7;fill-opacity:1;stroke-width:4.17226;stroke-linecap:round;stroke-linejoin:round"
         d="m 25.472201,18.090375 c -0.555217,0.282335 -0.904968,0.851669 -0.905253,1.473758 v 24.264054 c 0.0013,1.35287 1.539548,2.132742 2.634195,1.335336 L 43.772915,33.031482 c 0.90478,-0.661043 0.90478,-2.009617 0,-2.670655 L 27.201143,18.228808 C 26.696976,17.86123 26.028628,17.807717 25.472212,18.090519 Z"
         id="path3173"
         sodipodi:nodetypes="cccccccc"
         inkscape:label="shadow_triangle" /></g></g></svg>
