<?xml version="1.0" encoding="UTF-8" standalone="no"?>
<svg
   width="16"
   height="16"
   enable-background="new"
   version="1.1"
   id="svg1"
   sodipodi:docname="adobe-cloud.svg"
   inkscape:version="1.4.3 (1:1.4.3+202512261035+0d15f75042)"
   xml:space="preserve"
   xmlns:inkscape="http://www.inkscape.org/namespaces/inkscape"
   xmlns:sodipodi="http://sodipodi.sourceforge.net/DTD/sodipodi-0.dtd"
   xmlns="http://www.w3.org/2000/svg"
   xmlns:svg="http://www.w3.org/2000/svg"><defs
     id="defs1"><style
       type="text/css"
       id="current-color-scheme">
      .ColorScheme-Text {
        color:#232629;
      }
      </style></defs><sodipodi:namedview
     id="namedview1"
     pagecolor="#ffffff"
     bordercolor="#000000"
     borderopacity="0.25"
     inkscape:showpageshadow="2"
     inkscape:pageopacity="0.0"
     inkscape:pagecheckerboard="0"
     inkscape:deskcolor="#d1d1d1"
     inkscape:zoom="17.52299"
     inkscape:cx="12.298129"
     inkscape:cy="14.809116"
     inkscape:window-width="1920"
     inkscape:window-height="1008"
     inkscape:window-x="0"
     inkscape:window-y="0"
     inkscape:window-maximized="1"
     inkscape:current-layer="svg1" /><path
     fill="none"
     stroke="currentColor"
     stroke-linecap="round"
     stroke-linejoin="round"
     d="M 6.6870595,13.086495 C 5.2867749,13.136946 4.4305741,13.216623 3.2518838,12.440573 A 3.757666,3.757666 0 0 1 5.9789023,5.6249116 C 7.3532556,5.8620641 8.3989896,7.0756442 9.5625937,8.5216618 M 7.1142169,4.9261838 A 4.6204674,4.6204674 0 0 1 8.0614127,4.3523972 4.512028,4.512028 0 0 1 14.333933,8.479229 4.4790244,4.4790244 0 0 1 14.062834,10.073762 4.1489909,4.1489909 0 0 1 13.341476,11.379751 4.4601653,4.4601653 0 0 1 9.0746151,13.02143 C 7.3787154,12.737132 6.0359508,11.169472 4.5154399,9.5098763"
     stroke-width="1"
     id="path1-2"
     style="stroke:#363636;stroke-width:1.05;stroke-dasharray:none;stroke-opacity:1" /></svg>
