<?xml version="1.0" encoding="UTF-8" standalone="no"?>
<svg
   viewBox="0 0 16 16"
   version="1.1"
   id="svg1"
   sodipodi:docname="favorites.svg"
   inkscape:version="1.4.3 (1:1.4.3+202512261035+0d15f75042)"
   xml:space="preserve"
   xmlns:inkscape="http://www.inkscape.org/namespaces/inkscape"
   xmlns:sodipodi="http://sodipodi.sourceforge.net/DTD/sodipodi-0.dtd"
   xmlns="http://www.w3.org/2000/svg"
   xmlns:svg="http://www.w3.org/2000/svg"><sodipodi:namedview
     id="namedview1"
     pagecolor="#ffffff"
     bordercolor="#000000"
     borderopacity="0.25"
     inkscape:showpageshadow="2"
     inkscape:pageopacity="0.0"
     inkscape:pagecheckerboard="0"
     inkscape:deskcolor="#d1d1d1"
     inkscape:zoom="25.5"
     inkscape:cx="9.745098"
     inkscape:cy="13.470588"
     inkscape:window-width="1920"
     inkscape:window-height="1008"
     inkscape:window-x="0"
     inkscape:window-y="0"
     inkscape:window-maximized="1"
     inkscape:current-layer="svg1" /><defs
     id="defs3051"><style
       type="text/css"
       id="current-color-scheme">
      .ColorScheme-Text {
        color:#232629;
      }
      </style></defs><path
     fill="currentColor"
     d="m 7.1921191,1.8833798 a 0.9,0.9 0 0 1 1.6139999,0 l 1.521,3.082 3.401,0.495 a 0.9,0.9 0 0 1 0.5,1.535 l -2.462,2.399 0.581,3.3870002 a 0.9,0.9 0 0 1 -1.306,0.949 l -3.0419999,-1.6 -3.042,1.6 a 0.9,0.9 0 0 1 -1.306,-0.949 l 0.58,-3.3870002 -2.46,-2.4 a 0.9,0.9 0 0 1 0.499,-1.534 l 3.4,-0.495 z m 0.806,0.625 -1.454,2.947 a 0.9,0.9 0 0 1 -0.677,0.492 l -3.253,0.473 2.354,2.294 a 0.9,0.9 0 0 1 0.258,0.797 l -0.555,3.2400002 2.91,-1.53 a 0.9,0.9 0 0 1 0.8369999,0 l 2.91,1.53 -0.556,-3.2400002 a 0.9,0.9 0 0 1 0.258,-0.797 l 2.354,-2.294 -3.253,-0.473 a 0.9,0.9 0 0 1 -0.677,-0.492 z"
     id="path1-5"
     style="fill:#363636;fill-opacity:1" /></svg>
