<?xml version="1.0" encoding="UTF-8" standalone="no"?>
<svg
   viewBox="0 0 16 16"
   version="1.1"
   id="svg1"
   sodipodi:docname="folder-sound.svg"
   inkscape:version="1.4.3 (1:1.4.3+202512261035+0d15f75042)"
   xml:space="preserve"
   xmlns:inkscape="http://www.inkscape.org/namespaces/inkscape"
   xmlns:sodipodi="http://sodipodi.sourceforge.net/DTD/sodipodi-0.dtd"
   xmlns="http://www.w3.org/2000/svg"
   xmlns:svg="http://www.w3.org/2000/svg"><sodipodi:namedview
     id="namedview1"
     pagecolor="#ffffff"
     bordercolor="#000000"
     borderopacity="0.25"
     inkscape:showpageshadow="2"
     inkscape:pageopacity="0.0"
     inkscape:pagecheckerboard="0"
     inkscape:deskcolor="#d1d1d1"
     inkscape:zoom="25.5"
     inkscape:cx="6"
     inkscape:cy="13.647059"
     inkscape:window-width="1920"
     inkscape:window-height="1015"
     inkscape:window-x="0"
     inkscape:window-y="0"
     inkscape:window-maximized="1"
     inkscape:current-layer="svg1" /><defs
     id="defs3051"><style
       type="text/css"
       id="current-color-scheme">
      .ColorScheme-Text {
        color:#232629;
      }
      </style></defs><path
     fill="currentColor"
     d="m 11.434436,5.3462738 v 4.7418752 a 1.875,1.875 0 1 0 0.9375,1.62375 V 2.2665867 a 0.75,0.75 0 0 0 -1.003125,-0.706875 l -5.9999997,2.143125 a 0.75,0.75 0 0 0 -0.496875,0.7059375 v 6.6159378 a 1.875,1.875 0 1 0 0.9375,1.624687 V 7.3534618 Z m 0,-0.9956246 -5.6249997,2.0081246 V 4.5418992 L 11.434436,2.5328367 Z m -0.9375,6.4237498 a 0.9375,0.9375 0 1 1 0,1.875 0.9375,0.9375 0 0 1 0,-1.875 m -6.5624997,0.9375 a 0.9375,0.9375 0 1 1 0,1.875 0.9375,0.9375 0 0 1 0,-1.875"
     id="path1-7"
     style="stroke-width:0.9375;fill:#363636;fill-opacity:1" /></svg>
