<?xml version="1.0" encoding="UTF-8" standalone="no"?>
<svg
   viewBox="0 0 16 16"
   version="1.1"
   id="svg1"
   sodipodi:docname="folder-remote.svg"
   inkscape:version="1.4.3 (1:1.4.3+202512261035+0d15f75042)"
   xml:space="preserve"
   xmlns:inkscape="http://www.inkscape.org/namespaces/inkscape"
   xmlns:sodipodi="http://sodipodi.sourceforge.net/DTD/sodipodi-0.dtd"
   xmlns="http://www.w3.org/2000/svg"
   xmlns:svg="http://www.w3.org/2000/svg"><sodipodi:namedview
     id="namedview1"
     pagecolor="#ffffff"
     bordercolor="#000000"
     borderopacity="0.25"
     inkscape:showpageshadow="2"
     inkscape:pageopacity="0.0"
     inkscape:pagecheckerboard="0"
     inkscape:deskcolor="#d1d1d1"
     inkscape:zoom="11.313709"
     inkscape:cx="-1.9003495"
     inkscape:cy="-2.8726213"
     inkscape:window-width="1920"
     inkscape:window-height="1012"
     inkscape:window-x="0"
     inkscape:window-y="0"
     inkscape:window-maximized="1"
     inkscape:current-layer="svg1" /><defs
     id="defs3051"><style
       type="text/css"
       id="current-color-scheme">
      .ColorScheme-Text {
        color:#232629;
      }
      </style><style
       type="text/css"
       id="current-color-scheme-5">
      .ColorScheme-Text {
        color:#232629;
      }
      </style></defs><path
     fill="currentColor"
     d="m -13.296882,8.2748468 v 2.8125002 a 0.46875,0.46875 0 1 1 -0.9375,0 V 8.2748468 a 0.46875,0.46875 0 1 1 0.9375,0 m 2.34375,-0.46875 a 0.46875,0.46875 0 0 0 -0.46875,0.46875 v 2.8125002 a 0.46875,0.46875 0 1 0 0.9375,0 V 8.2748468 a 0.46875,0.46875 0 0 0 -0.46875,-0.46875 m 2.8124998,0 a 0.46875,0.46875 0 0 0 -0.4687502,0.46875 v 2.8125002 a 0.4687501,0.4687501 0 1 0 0.9375002,0 V 8.2748468 a 0.46875,0.46875 0 0 0 -0.46875,-0.46875 m 2.8125,0 a 0.46875,0.46875 0 0 0 -0.46875,0.46875 v 2.8125002 a 0.46875,0.46875 0 0 0 0.9375,0 V 8.2748468 a 0.46875,0.46875 0 0 0 -0.46875,-0.46875 m 2.34375,-0.46875 v 4.6875002 a 1.40625,1.40625 0 0 1 -1.40625,1.40625 h -0.46875 v 1.40625 a 0.46875,0.46875 0 0 1 -0.46875,0.46875 h -5.6249998 a 0.46875,0.46875 0 0 1 -0.46875,-0.46875 v -1.40625 h -3.75 v 1.40625 a 0.46875,0.46875 0 0 1 -0.9375,0 V 4.9935968 h -0.46875 a 0.46875,0.46875 0 0 1 0,-0.9375 h 0.46875 a 0.9375,0.9375 0 0 1 0.9375,0.9375 v 0.9375 h 10.7812498 a 1.40625,1.40625 0 0 1 1.40625,1.40625 m -7.4999998,7.0312502 h 1.8749996 v -0.9375 h -1.8749996 z m 4.6874998,-0.9375 h -1.875 v 0.9375 h 1.875 z m 1.875,-6.0937502 a 0.46875,0.46875 0 0 0 -0.46875,-0.46875 H -15.171882 v 5.6250002 h 10.7812498 a 0.46875,0.46875 0 0 0 0.46875,-0.46875 z"
     id="path1-5"
     style="fill:#363636;fill-opacity:1;stroke-width:0.9375" /><path
     fill="currentColor"
     d="m -1.0664784,-8.3113705 v -1.52 h 4.0000001 c 0.733333,0 1.333333,-0.5999995 1.333333,-1.3333325 v -6 c 0,-0.733334 -0.6,-1.333334 -1.333333,-1.333334 h -9.3333341 c -0.733333,0 -1.333333,0.6 -1.333333,1.333334 v 6 c 0,0.733333 0.6,1.3333325 1.333333,1.3333325 h 4 v 1.52 c -0.2,0.113333 -0.366666,0.28 -0.48,0.48 h -5.52 v 1.333333 h 5.52 c 0.233334,0.393333 0.653334,0.666667 1.146667,0.666667 0.493333,0 0.91333304,-0.273334 1.14666704,-0.666667 H 4.9335217 v -1.333333 h -5.52000006 c -0.113334,-0.2 -0.28,-0.366667 -0.48000004,-0.48 m -5.333334,-2.8533325 v -6 h 9.3333341 v 6 z"
     id="path1"
     style="fill:#363636;fill-opacity:1;stroke-width:0.666667" /><path
     d="m 19.159456,-5.2305239 h 16 V 10.769476 h -16 z"
     fill="none"
     id="path1-53" /><path
     fill="currentColor"
     d="m 1.8907963,3.6888934 v 1.5 h 3.586 a 0.5,0.5 0 0 0 0.353,-0.146 l 1.354,-1.354 -1.354,-1.3539999 a 0.5,0.5 0 0 0 -0.353,-0.146 h -2.086 a 1.5,1.5 0 0 0 -1.5,1.4999999 m -1.00000004,0 A 2.5,2.5 0 0 1 3.3907963,1.1888935 h 2.086 a 1.5,1.5 0 0 1 1.06,0.44 l 1.561,1.56 h 4.2929997 a 2.5,2.5 0 0 1 2.5,2.5 v 0.757 a 5.5,5.5 0 0 0 -1,-0.657 v -0.1 a 1.5,1.5 0 0 0 -1.5,-1.5000001 H 8.0977963 l -1.56,1.5600001 a 1.5,1.5 0 0 1 -1.062,0.44 h -3.585 v 4.4999995 a 1.5,1.5 0 0 0 1.5,1.5 h 2.707 q 0.149,0.524 0.393,1 h -3.1 a 2.5,2.5 0 0 1 -2.50000004,-2.5 z M 15.890796,10.688893 a 4.5,4.5 0 1 1 -8.9999997,0 4.5,4.5 0 0 1 8.9999997,0 m -4,-1.9999995 a 0.5,0.5 0 0 0 -1,0 V 10.188893 H 9.3907963 a 0.5,0.5 0 0 0 0,1 h 1.4999997 v 1.5 a 0.5,0.5 0 0 0 1,0 v -1.5 h 1.5 a 0.5,0.5 0 0 0 0,-1 h -1.5 z"
     id="path2"
     style="fill:#363636;fill-opacity:1" /></svg>
