<?xml version="1.0" encoding="UTF-8" standalone="no"?>
<svg
   viewBox="0 0 16 16"
   version="1.1"
   id="svg1"
   sodipodi:docname="folder-pictures.svg"
   inkscape:version="1.4.3 (1:1.4.3+202512261035+0d15f75042)"
   xml:space="preserve"
   xmlns:inkscape="http://www.inkscape.org/namespaces/inkscape"
   xmlns:sodipodi="http://sodipodi.sourceforge.net/DTD/sodipodi-0.dtd"
   xmlns="http://www.w3.org/2000/svg"
   xmlns:svg="http://www.w3.org/2000/svg"><sodipodi:namedview
     id="namedview1"
     pagecolor="#ffffff"
     bordercolor="#000000"
     borderopacity="0.25"
     inkscape:showpageshadow="2"
     inkscape:pageopacity="0.0"
     inkscape:pagecheckerboard="0"
     inkscape:deskcolor="#d1d1d1"
     inkscape:zoom="18.031223"
     inkscape:cx="-0.16637807"
     inkscape:cy="17.303319"
     inkscape:window-width="1920"
     inkscape:window-height="1015"
     inkscape:window-x="0"
     inkscape:window-y="0"
     inkscape:window-maximized="1"
     inkscape:current-layer="svg1" /><defs
     id="defs3051"><style
       type="text/css"
       id="current-color-scheme">
      .ColorScheme-Text {
        color:#232629;
      }
      </style><style
       type="text/css"
       id="current-color-scheme-0">
      .ColorScheme-Text {
        color:#232629;
      }
      </style><style
       type="text/css"
       id="current-color-scheme-6">
      .ColorScheme-Text {
        color:#232629;
      }
      </style></defs><path
     fill="currentColor"
     d="m 11.480392,5.4235686 a 1.002,1.002 0 1 1 -2.0039998,0 1.002,1.002 0 0 1 2.0039998,0 m -9.4999998,-1.002 a 2.5,2.5 0 0 1 2.5,-2.5 h 6.9999998 a 2.5,2.5 0 0 1 2.5,2.5 v 7.0000004 a 2.5,2.5 0 0 1 -2.5,2.5 H 4.4803922 a 2.5,2.5 0 0 1 -2.5,-2.5 z m 2.5,-1.5 a 1.5,1.5 0 0 0 -1.5,1.5 v 7.0000004 c 0,0.232 0.052,0.45 0.146,0.647 l 3.652,-3.6520004 a 1.7,1.7 0 0 1 2.404,0 l 3.6519998,3.6520004 a 1.5,1.5 0 0 0 0.146,-0.647 V 4.4215686 a 1.5,1.5 0 0 0 -1.5,-1.5 z M 12.127392,12.775569 8.4753922,9.1235686 a 0.7,0.7 0 0 0 -0.99,0 l -3.652,3.6520004 c 0.196,0.094 0.415,0.146 0.647,0.146 h 6.9999998 c 0.232,0 0.45,-0.053 0.647,-0.146"
     id="path1"
     style="fill:#363636;fill-opacity:1" /></svg>
