<?xml version="1.0" encoding="UTF-8" standalone="no"?>
<svg
   viewBox="0 0 16 16"
   version="1.1"
   id="svg1"
   sodipodi:docname="folder.svg"
   inkscape:version="1.4.3 (1:1.4.3+202512261035+0d15f75042)"
   xml:space="preserve"
   xmlns:inkscape="http://www.inkscape.org/namespaces/inkscape"
   xmlns:sodipodi="http://sodipodi.sourceforge.net/DTD/sodipodi-0.dtd"
   xmlns="http://www.w3.org/2000/svg"
   xmlns:svg="http://www.w3.org/2000/svg"><sodipodi:namedview
     id="namedview1"
     pagecolor="#ffffff"
     bordercolor="#000000"
     borderopacity="0.25"
     inkscape:showpageshadow="2"
     inkscape:pageopacity="0.0"
     inkscape:pagecheckerboard="0"
     inkscape:deskcolor="#d1d1d1"
     inkscape:zoom="25.5"
     inkscape:cx="10.686275"
     inkscape:cy="14.45098"
     inkscape:window-width="1920"
     inkscape:window-height="1008"
     inkscape:window-x="0"
     inkscape:window-y="0"
     inkscape:window-maximized="1"
     inkscape:current-layer="svg1" /><defs
     id="defs3051"><style
       type="text/css"
       id="current-color-scheme">
      .ColorScheme-Text {
        color:#232629;
      }
      </style></defs><path
     fill="currentColor"
     d="m 2.5122549,4.0324755 v 1.40625 h 3.361875 a 0.46875,0.46875 0 0 0 0.330937,-0.136875 l 1.269375,-1.269375 -1.269375,-1.269375 a 0.46875,0.46875 0 0 0 -0.330937,-0.136875 h -1.955625 a 1.40625,1.40625 0 0 0 -1.40625,1.40625 m -0.9375,0 a 2.34375,2.34375 0 0 1 2.34375,-2.34375 h 1.955625 a 1.40625,1.40625 0 0 1 0.99375,0.4125 l 1.463437,1.4625 h 4.0246881 a 2.34375,2.34375 0 0 1 2.34375,2.34375 v 4.6874995 a 2.34375,2.34375 0 0 1 -2.34375,2.34375 H 3.9185049 a 2.34375,2.34375 0 0 1 -2.34375,-2.34375 z m 0.9375,2.34375 v 4.2187495 a 1.40625,1.40625 0 0 0 1.40625,1.40625 h 8.4375001 a 1.40625,1.40625 0 0 0 1.40625,-1.40625 V 5.9074755 a 1.40625,1.40625 0 0 0 -1.40625,-1.40625 H 8.3313169 l -1.462499,1.4625 a 1.40625,1.40625 0 0 1 -0.995626,0.4125 z"
     id="path1-7"
     style="stroke-width:0.9375;fill:#363636;fill-opacity:1" /></svg>
