<?xml version="1.0" encoding="UTF-8" standalone="no"?>
<svg
   viewBox="0 0 16 16"
   version="1.1"
   id="svg1"
   sodipodi:docname="folder-github.svg"
   inkscape:version="1.4.3 (1:1.4.3+202512261035+0d15f75042)"
   xml:space="preserve"
   xmlns:inkscape="http://www.inkscape.org/namespaces/inkscape"
   xmlns:sodipodi="http://sodipodi.sourceforge.net/DTD/sodipodi-0.dtd"
   xmlns="http://www.w3.org/2000/svg"
   xmlns:svg="http://www.w3.org/2000/svg"><sodipodi:namedview
     id="namedview1"
     pagecolor="#ffffff"
     bordercolor="#000000"
     borderopacity="0.25"
     inkscape:showpageshadow="2"
     inkscape:pageopacity="0.0"
     inkscape:pagecheckerboard="0"
     inkscape:deskcolor="#d1d1d1"
     inkscape:zoom="25.5"
     inkscape:cx="9.4901961"
     inkscape:cy="11.72549"
     inkscape:window-width="1920"
     inkscape:window-height="1015"
     inkscape:window-x="0"
     inkscape:window-y="0"
     inkscape:window-maximized="1"
     inkscape:current-layer="svg1" /><defs
     id="defs3051"><style
       type="text/css"
       id="current-color-scheme">
      .ColorScheme-Text {
        color:#232629;
      }
      </style><style
       id="current-color-scheme-9"
       type="text/css">
   .ColorScheme-Text { color:#363636; }
  </style><style
       type="text/css"
       id="current-color-scheme-7">
      .ColorScheme-Text {
        color:#232629;
      }
      </style></defs><path
     fill="currentColor"
     fill-rule="evenodd"
     d="m 8.1386506,1.8350372 c -3.418389,0 -6.177812,2.7594226 -6.177812,6.1778113 0,2.7182375 1.770973,5.0246205 4.242098,5.8483285 0.329483,0.04119 0.411854,-0.123556 0.411854,-0.288298 v -1.07082 c -1.729787,0.370668 -2.100456,-0.823709 -2.100456,-0.823709 -0.288298,-0.700152 -0.700152,-0.906079 -0.700152,-0.906079 -0.576596,-0.370669 0.04119,-0.370669 0.04119,-0.370669 0.617781,0.04119 0.947264,0.617782 0.947264,0.617782 0.535411,0.947264 1.44149,0.658966 1.812158,0.494225 0.04119,-0.411855 0.205927,-0.658967 0.411854,-0.823709 -1.359118,-0.164741 -2.800608,-0.700152 -2.800608,-3.0477201 0,-0.6589667 0.247113,-1.2355624 0.617782,-1.6474165 -0.08237,-0.1647417 -0.288298,-0.7825225 0.04119,-1.6474161 0,0 0.53541,-0.1647417 1.688601,0.6177811 0.494225,-0.1235561 1.029636,-0.205927 1.565046,-0.205927 0.53541,0 1.070821,0.082371 1.565046,0.205927 1.1943774,-0.7825228 1.6886024,-0.6177811 1.6886024,-0.6177811 0.329482,0.8648936 0.123556,1.4826744 0.04119,1.6474161 0.411854,0.4118541 0.617781,0.9884498 0.617781,1.6474165 0,2.3887541 -1.441489,2.8829791 -2.8006084,3.0477201 0.205927,0.205927 0.411854,0.576596 0.411854,1.153192 v 1.688602 c 0,0.164742 0.123557,0.370669 0.4118554,0.288298 2.471124,-0.823709 4.200911,-3.130092 4.200911,-5.8483289 0.04119,-3.3772033 -2.718237,-6.1366259 -6.1366264,-6.1366259"
     clip-rule="evenodd"
     id="path1"
     style="stroke-width:0.411854;fill:#363636;fill-opacity:1" /></svg>
