<?xml version="1.0" encoding="UTF-8" standalone="no"?>
<svg
   viewBox="0 0 16 16"
   version="1.1"
   id="svg1"
   sodipodi:docname="kdeconnect.svg"
   xml:space="preserve"
   inkscape:version="1.4.3 (1:1.4.3+202512261035+0d15f75042)"
   xmlns:inkscape="http://www.inkscape.org/namespaces/inkscape"
   xmlns:sodipodi="http://sodipodi.sourceforge.net/DTD/sodipodi-0.dtd"
   xmlns="http://www.w3.org/2000/svg"
   xmlns:svg="http://www.w3.org/2000/svg"><sodipodi:namedview
     id="namedview1"
     pagecolor="#ffffff"
     bordercolor="#000000"
     borderopacity="0.25"
     inkscape:showpageshadow="2"
     inkscape:pageopacity="0.0"
     inkscape:pagecheckerboard="0"
     inkscape:deskcolor="#d1d1d1"
     inkscape:zoom="25.5"
     inkscape:cx="12.352941"
     inkscape:cy="9.6666667"
     inkscape:window-width="1920"
     inkscape:window-height="1012"
     inkscape:window-x="0"
     inkscape:window-y="0"
     inkscape:window-maximized="1"
     inkscape:current-layer="svg1" /><defs
     id="defs3051"><style
       type="text/css"
       id="current-color-scheme">
      .ColorScheme-Text {
        color:#232629;
      }
      </style><style
       type="text/css"
       id="current-color-scheme-6">
      .ColorScheme-Text {
        color:#232629;
      }
      </style></defs><path
     fill="currentColor"
     d="m -1.8714902,7.854 -1.969,-4.127 V 3.72 A 1.23,1.23 0 0 0 -4.9754902,3 H -10.47549 a 1.23,1.23 0 0 0 -1.134,0.72 v 0.007 l -1.97,4.127 a 1.5,1.5 0 0 0 -0.146,0.646 v 2 a 1.5,1.5 0 0 0 1.5,1.5 h 8.9999998 a 1.5,1.5 0 0 0 1.5,-1.5 v -2 a 1.5,1.5 0 0 0 -0.146,-0.646 M -10.47549,4 h 5.4999998 a 0.24,0.24 0 0 1 0.226,0.14 l 1.363,2.86 H -12.06449 l 1.362,-2.857 A 0.24,0.24 0 0 1 -10.47549,4 m 7.7499998,6.5 a 0.5,0.5 0 0 1 -0.5,0.5 H -12.22549 a 0.5,0.5 0 0 1 -0.5,-0.5 v -2 a 0.5,0.5 0 0 1 0.5,-0.5 h 8.9999998 a 0.5,0.5 0 0 1 0.5,0.5 z m -1,-1 a 0.5,0.5 0 1 1 -1,0 0.5,0.5 0 0 1 1,0"
     id="path1"
     style="fill:#363636;fill-opacity:1" /><path
     fill="currentColor"
     d="M -0.237,9.5 C -0.237,9.102 -0.157,8.709 0,8.344 L 2.414,2.712 A 2,2 0 0 1 4.252,1.5 h 7.104 c 0.742,0 1.43,0.41 1.763,1.088 0.571,1.162 1.633,3.424 2.454,5.774 0.13,0.369 0.19,0.754 0.19,1.138 v 2 a 2,2 0 0 1 -2,2 h -12 a 2,2 0 0 1 -2,-2 z m 11.593,-7 H 4.253 A 1,1 0 0 0 3.334,3.106 L 1.44,7.526 Q 1.597,7.5 1.763,7.5 h 12 q 0.231,0 0.447,0.05 A 57,57 0 0 0 12.222,3.029 0.96,0.96 0 0 0 11.356,2.5 m 2.407,10 a 1,1 0 0 0 1,-1 v -2 a 1,1 0 0 0 -1,-1 h -12 a 1,1 0 0 0 -1,1 v 2 a 1,1 0 0 0 1,1 z m -1.25,-1.25 a 0.75,0.75 0 1 0 0,-1.5 0.75,0.75 0 0 0 0,1.5"
     id="path1-8"
     style="fill:#363636;fill-opacity:1" /><path
     fill="currentColor"
     d="M -0.237,9.5 C -0.237,9.102 -0.157,8.709 0,8.344 L 2.414,2.712 A 2,2 0 0 1 4.252,1.5 h 7.104 c 0.742,0 1.43,0.41 1.763,1.088 0.571,1.162 1.633,3.424 2.454,5.774 0.13,0.369 0.19,0.754 0.19,1.138 v 2 a 2,2 0 0 1 -2,2 h -12 a 2,2 0 0 1 -2,-2 z m 11.593,-7 H 4.253 A 1,1 0 0 0 3.334,3.106 L 1.44,7.526 Q 1.597,7.5 1.763,7.5 h 12 q 0.231,0 0.447,0.05 A 57,57 0 0 0 12.222,3.029 0.96,0.96 0 0 0 11.356,2.5 m 2.407,10 a 1,1 0 0 0 1,-1 v -2 a 1,1 0 0 0 -1,-1 h -12 a 1,1 0 0 0 -1,1 v 2 a 1,1 0 0 0 1,1 z m -1.25,-1.25 a 0.75,0.75 0 1 0 0,-1.5 0.75,0.75 0 0 0 0,1.5"
     id="path2"
     style="fill:#363636;fill-opacity:1" /><path
     fill="currentColor"
     d="M -0.237,9.5 C -0.237,9.102 -0.157,8.709 0,8.344 L 2.414,2.712 A 2,2 0 0 1 4.252,1.5 h 7.104 c 0.742,0 1.43,0.41 1.763,1.088 0.571,1.162 1.633,3.424 2.454,5.774 0.13,0.369 0.19,0.754 0.19,1.138 v 2 a 2,2 0 0 1 -2,2 h -12 a 2,2 0 0 1 -2,-2 z m 11.593,-7 H 4.253 A 1,1 0 0 0 3.334,3.106 L 1.44,7.526 Q 1.597,7.5 1.763,7.5 h 12 q 0.231,0 0.447,0.05 A 57,57 0 0 0 12.222,3.029 0.96,0.96 0 0 0 11.356,2.5 m 2.407,10 a 1,1 0 0 0 1,-1 v -2 a 1,1 0 0 0 -1,-1 h -12 a 1,1 0 0 0 -1,1 v 2 a 1,1 0 0 0 1,1 z m -1.25,-1.25 a 0.75,0.75 0 1 0 0,-1.5 0.75,0.75 0 0 0 0,1.5"
     id="path3"
     style="fill:#363636;fill-opacity:1" /></svg>
