<?xml version="1.0" encoding="UTF-8" standalone="no"?>
<svg
   viewBox="0 0 16 16"
   version="1.1"
   id="svg1"
   sodipodi:docname="user-home.svg"
   inkscape:version="1.4.3 (1:1.4.3+202512261035+0d15f75042)"
   xml:space="preserve"
   xmlns:inkscape="http://www.inkscape.org/namespaces/inkscape"
   xmlns:sodipodi="http://sodipodi.sourceforge.net/DTD/sodipodi-0.dtd"
   xmlns="http://www.w3.org/2000/svg"
   xmlns:svg="http://www.w3.org/2000/svg"><sodipodi:namedview
     id="namedview1"
     pagecolor="#ffffff"
     bordercolor="#000000"
     borderopacity="0.25"
     inkscape:showpageshadow="2"
     inkscape:pageopacity="0.0"
     inkscape:pagecheckerboard="0"
     inkscape:deskcolor="#d1d1d1"
     inkscape:zoom="25.5"
     inkscape:cx="5.0588235"
     inkscape:cy="12.745098"
     inkscape:window-width="1920"
     inkscape:window-height="1015"
     inkscape:window-x="0"
     inkscape:window-y="0"
     inkscape:window-maximized="1"
     inkscape:current-layer="svg1" /><defs
     id="defs3051"><style
       type="text/css"
       id="current-color-scheme">
      .ColorScheme-Text {
        color:#232629;
      }
      </style><style
       type="text/css"
       id="current-color-scheme-9">
      .ColorScheme-Text {
        color:#232629;
      }
      </style></defs><path
     fill="currentColor"
     d="m 7.3363302,2.1371155 a 0.9375,0.9375 0 0 1 1.288125,0 L 13.165704,6.429928 c 0.281251,0.2653125 0.439688,0.635625 0.439688,1.021875 v 5.221874 a 1.40625,1.40625 0 0 1 -1.40625,1.40625 h -1.875 A 1.40625,1.40625 0 0 1 8.9178922,12.67274 v -2.34375 a 0.46875,0.46875 0 0 0 -0.46875,-0.4687495 h -0.9375 a 0.46875,0.46875 0 0 0 -0.46875,0.4687495 v 2.34375 a 1.40625,1.40625 0 0 1 -1.40625,1.40625 h -1.875 a 1.40625,1.40625 0 0 1 -1.40625,-1.40625 V 7.4508655 c 0,-0.38625 0.159375,-0.7565625 0.440625,-1.021875 z m 0.644062,0.680625 -4.54125,4.29375 a 0.46875,0.46875 0 0 0 -0.14625,0.339375 V 12.67274 a 0.46875,0.46875 0 0 0 0.46875,0.46875 h 1.875 a 0.46875,0.46875 0 0 0 0.46875,-0.46875 v -2.34375 a 1.40625,1.40625 0 0 1 1.40625,-1.4062495 h 0.9375 a 1.40625,1.40625 0 0 1 1.40625,1.4062495 v 2.34375 a 0.46875,0.46875 0 0 0 0.4687498,0.46875 h 1.875 a 0.46875,0.46875 0 0 0 0.46875,-0.46875 V 7.4508655 A 0.46875,0.46875 0 0 0 12.521642,7.110553 Z"
     id="path1"
     style="stroke-width:0.9375;fill:#363636;fill-opacity:1" /></svg>
