<?xml version="1.0" encoding="UTF-8" standalone="no"?>
<svg
   width="16"
   height="16"
   enable-background="new"
   version="1.1"
   id="svg1"
   sodipodi:docname="adobe-cloud-symbolic .svg"
   inkscape:version="1.4.2 (ebf0e94, 2025-05-08)"
   xml:space="preserve"
   xmlns:inkscape="http://www.inkscape.org/namespaces/inkscape"
   xmlns:sodipodi="http://sodipodi.sourceforge.net/DTD/sodipodi-0.dtd"
   xmlns="http://www.w3.org/2000/svg"
   xmlns:svg="http://www.w3.org/2000/svg"><defs
     id="defs1" /><sodipodi:namedview
     id="namedview1"
     pagecolor="#ffffff"
     bordercolor="#000000"
     borderopacity="0.25"
     inkscape:showpageshadow="2"
     inkscape:pageopacity="0.0"
     inkscape:pagecheckerboard="0"
     inkscape:deskcolor="#d1d1d1"
     inkscape:zoom="12.390625"
     inkscape:cx="4.4791929"
     inkscape:cy="5.8915511"
     inkscape:window-width="1521"
     inkscape:window-height="1010"
     inkscape:window-x="0"
     inkscape:window-y="0"
     inkscape:window-maximized="0"
     inkscape:current-layer="svg1" /><path
     fill="none"
     stroke="currentColor"
     stroke-linecap="round"
     stroke-linejoin="round"
     d="m 6.7522128,13.135266 c -1.5742058,0.05672 -2.5367503,0.14629 -3.861839,-0.726149 A 4.2243839,4.2243839 0 0 1 5.9560996,4.7469222 C 7.5011533,5.0135301 8.6767718,6.377842 9.9849006,8.003461 M 7.2324251,3.9614096 A 5.1943489,5.1943489 0 0 1 8.2972665,3.3163562 5.0724409,5.0724409 0 0 1 15.348861,7.9557578 5.0353382,5.0353382 0 0 1 15.04409,9.7483384 4.6643131,4.6643131 0 0 1 14.233136,11.216537 5.0141367,5.0141367 0 0 1 9.436313,13.06212 C 7.5297753,12.74251 6.0202337,10.98014 4.3108689,9.114416"
     stroke-width="1"
     id="path1-2"
     style="stroke:#363636;stroke-width:1.1;stroke-dasharray:none;stroke-opacity:1" /></svg>
