<?xml version="1.0" encoding="UTF-8" standalone="no"?>
<svg
   width="16"
   height="16"
   version="1.1"
   id="svg1"
   sodipodi:docname="uswitcher-symbolic.svg"
   inkscape:version="1.4.2 (ebf0e94, 2025-05-08)"
   xmlns:inkscape="http://www.inkscape.org/namespaces/inkscape"
   xmlns:sodipodi="http://sodipodi.sourceforge.net/DTD/sodipodi-0.dtd"
   xmlns="http://www.w3.org/2000/svg"
   xmlns:svg="http://www.w3.org/2000/svg">
  <defs
     id="defs1" />
  <sodipodi:namedview
     id="namedview1"
     pagecolor="#ffffff"
     bordercolor="#000000"
     borderopacity="0.25"
     inkscape:showpageshadow="2"
     inkscape:pageopacity="0.0"
     inkscape:pagecheckerboard="0"
     inkscape:deskcolor="#d1d1d1"
     inkscape:zoom="24.84375"
     inkscape:cx="4.0251572"
     inkscape:cy="5.2125786"
     inkscape:window-width="1920"
     inkscape:window-height="1011"
     inkscape:window-x="0"
     inkscape:window-y="0"
     inkscape:window-maximized="1"
     inkscape:current-layer="svg1" />
  <path
     class="ColorScheme-Text"
     d="m 6.7885277,3.9787471 c -0.03269,-0.00451 -0.066232,-0.00216 -0.1002113,0.00695 -0.1359182,0.036417 -0.216003,0.1746297 -0.1795851,0.3105478 l 0.069453,0.2589586 A 3.5559375,3.5559375 0 0 0 5.9828696,4.8240831 c -0.00684,0.00318 -0.014171,0.0031 -0.020836,0.00695 -0.00682,0.00394 -0.010559,0.010439 -0.016866,0.014883 a 3.5559375,3.5559375 0 0 0 -0.530801,0.3799956 l -0.18851,-0.1885103 c -0.099501,-0.0995 -0.2596648,-0.0995 -0.3591653,0 -0.099501,0.0995 -0.099501,0.2596647 0,0.3591649 L 5.054211,5.5840858 A 3.5559375,3.5559375 0 0 0 4.6603197,6.1327669 3.5559375,3.5559375 0 0 0 4.381519,6.7478933 L 4.1255377,6.6794316 C 3.9896191,6.6430125 3.8514051,6.7230961 3.814987,6.8590168 3.7785736,6.9949378 3.8586467,7.133149 3.994572,7.169567 L 4.2515447,7.23902 a 3.5559375,3.5559375 0 0 0 -9.56e-4,1.3443984 l -0.2559813,0.068462 c -0.1359177,0.036421 -0.2160032,0.1746326 -0.179585,0.3105512 0.036423,0.1359167 0.174632,0.2160022 0.3105507,0.179584 l 0.2589582,-0.069452 a 3.5559375,3.5559375 0 0 0 0.6706624,1.1638074 l -0.18851,0.188511 c -0.099501,0.0995 -0.099501,0.259664 0,0.359164 0.099499,0.0995 0.2596647,0.0995 0.3591643,0 l 0.1875206,-0.18752 a 3.5559375,3.5559375 0 0 0 0.5486806,0.393893 3.5559375,3.5559375 0 0 0 0.6151263,0.2788 l -0.068462,0.255982 c -0.03642,0.135917 0.043665,0.274132 0.1795851,0.310549 0.135918,0.03642 0.2741323,-0.04366 0.3105502,-0.179584 l 0.069453,-0.256972 a 3.5559375,3.5559375 0 0 0 1.3443986,0.0011 l 0.068463,0.255981 c 0.036423,0.135918 0.1746321,0.216004 0.3105507,0.179586 0.1359177,-0.03641 0.2160031,-0.174633 0.1795841,-0.31055 l -0.069452,-0.258954 a 3.5559375,3.5559375 0 0 0 1.1638078,-0.6707 l 0.188511,0.18851 c 0.0995,0.0995 0.259665,0.0995 0.359164,0 0.0995,-0.0995 0.0995,-0.259665 0,-0.359166 L 10.42581,10.237433 A 3.5559375,3.5559375 0 0 0 10.819701,9.6887515 3.5559375,3.5559375 0 0 0 11.098503,9.073625 l 0.255981,0.068458 c 0.135918,0.036423 0.274131,-0.04366 0.31055,-0.179584 0.03642,-0.1359187 -0.04366,-0.2741274 -0.179585,-0.3105508 l -0.256973,-0.069456 a 3.5559375,3.5559375 0 0 0 0.06449,-0.6577978 c 2.76e-4,-0.00486 0.003,-0.00895 0.003,-0.013888 0,-0.00639 -0.0034,-0.011618 -0.004,-0.017863 A 3.5559375,3.5559375 0 0 0 11.229403,7.238092 L 11.485385,7.16963 c 0.135975,-0.036411 0.21606,-0.174624 0.179642,-0.3105421 -0.03642,-0.135918 -0.174632,-0.2160028 -0.310551,-0.179585 L 11.095524,6.748956 A 3.5559375,3.5559375 0 0 0 10.424857,5.5851119 l 0.18851,-0.1885104 c 0.0995,-0.0995 0.0995,-0.2596647 0,-0.359165 -0.0995,-0.0995 -0.259665,-0.0995 -0.359166,0 l -0.18752,0.18752 A 3.5559375,3.5559375 0 0 0 9.5180002,4.8310653 3.5559375,3.5559375 0 0 0 8.9028727,4.5522645 L 8.9713306,4.2962827 C 9.0077535,4.1603646 8.9276709,4.0221503 8.7917455,3.9857326 8.6557973,3.9492896 8.5175881,4.0293732 8.4811642,4.1652921 l -0.06945,0.2569724 A 3.5559375,3.5559375 0 0 0 7.0673155,4.4212703 L 6.9988531,4.1652891 C 6.9715422,4.0633535 6.8865858,3.9923008 6.7885181,3.9787629 Z M 7.5961321,4.8657503 A 3.0479464,3.0479464 0 0 1 9.263969,5.2715488 3.0479464,3.0479464 0 0 1 10.774074,7.6567193 H 8.7222466 A 1.0159821,1.0159821 0 0 0 7.7399952,6.8947327 1.0159821,1.0159821 0 0 0 7.4691341,6.9324353 L 6.4422303,5.1544666 A 3.0479464,3.0479464 0 0 1 7.5961321,4.8657448 Z M 6.0027164,5.4104691 7.0286043,7.1864568 A 1.0159821,1.0159821 0 0 0 6.7240077,7.9107506 1.0159821,1.0159821 0 0 0 7.0276137,8.6350442 L 6.0017258,10.411997 A 3.0479464,3.0479464 0 0 1 5.1008543,6.3867772 3.0479464,3.0479464 0 0 1 6.0027417,5.4104691 Z M 7.7399952,7.4027593 A 0.50799107,0.50799107 0 0 1 8.2479858,7.9107506 0.50799107,0.50799107 0 0 1 7.7399952,8.4187412 0.50799107,0.50799107 0 0 1 7.232004,7.9107506 0.50799107,0.50799107 0 0 1 7.7399952,7.4027593 Z m 0.983217,0.761987 h 2.0508108 a 3.0479464,3.0479464 0 0 1 -0.394882,1.269977 3.0479464,3.0479464 0 0 1 -3.9369311,1.2312697 l 1.025888,-1.7759881 a 1.0159821,1.0159821 0 0 0 0.2718567,0.03671 1.0159821,1.0159821 0 0 0 0.9832165,-0.761986 z"
     color="#363636"
     fill="#363636"
     id="path2"
     style="fill:#040809;fill-opacity:1;stroke-width:0.507992" />
</svg>
