<?xml version="1.0" encoding="UTF-8" standalone="no"?>
<svg
   width="22"
   height="22"
   viewBox="0 0 5.821 5.821"
   version="1.1"
   id="svg1"
   sodipodi:docname="emblem-shared.svg"
   xml:space="preserve"
   inkscape:version="1.4-dev (1:1.4.0-dev+202403210151+2fe0648968)"
   xmlns:inkscape="http://www.inkscape.org/namespaces/inkscape"
   xmlns:sodipodi="http://sodipodi.sourceforge.net/DTD/sodipodi-0.dtd"
   xmlns="http://www.w3.org/2000/svg"
   xmlns:svg="http://www.w3.org/2000/svg"><defs
     id="defs1" /><sodipodi:namedview
     id="namedview1"
     pagecolor="#ffffff"
     bordercolor="#000000"
     borderopacity="0.25"
     inkscape:showpageshadow="2"
     inkscape:pageopacity="0.0"
     inkscape:pagecheckerboard="0"
     inkscape:deskcolor="#d1d1d1"
     inkscape:zoom="36.636364"
     inkscape:cx="11"
     inkscape:cy="11"
     inkscape:window-width="1920"
     inkscape:window-height="1011"
     inkscape:window-x="0"
     inkscape:window-y="0"
     inkscape:window-maximized="1"
     inkscape:current-layer="svg1" /><g
     transform="translate(.53 -290.915)"
     id="g1"><rect
       transform="matrix(0 -1 -1 0 0 0)"
       width="4.233"
       height="4.233"
       x="-295.942"
       y="-4.498"
       rx="2.117"
       ry="2.117"
       fill="#673ab7"
       id="rect1"
       style="fill:#363636;fill-opacity:1" /><path
       d="M2.778 292.767a.397.397 0 0 0-.397.397c0 .03.006.058.013.086l-.426.265a.397.397 0 1 0 0 .62l.426.265a.38.38 0 0 0-.013.086.397.397 0 1 0 .15-.31l-.427-.264a.38.38 0 0 0 .013-.087.38.38 0 0 0-.013-.087l.426-.264a.397.397 0 1 0 .248-.707z"
       fill="#fff"
       id="path1" /></g><style
     id="current-color-scheme"
     type="text/css">.ColorScheme-Text { color: #fcfcfc; } </style><style
     id="current-color-scheme-5"
     type="text/css">.ColorScheme-Text { color: #fcfcfc; } </style><style
     id="current-color-scheme-2"
     type="text/css">.ColorScheme-NegativeText { color: #da4453; } .ColorScheme-Text { color: #fcfcfc; } </style><style
     id="current-color-scheme-6"
     type="text/css">.ColorScheme-Text { color: #fcfcfc; } </style></svg>
