<?xml version="1.0" encoding="UTF-8" standalone="no"?>
<svg
   viewBox="0 0 48 48"
   version="1.1"
   id="svg5"
   sodipodi:docname="folder-publicshare.svg"
   xml:space="preserve"
   inkscape:version="1.4.3 (1:1.4.3+202512261035+0d15f75042)"
   xmlns:inkscape="http://www.inkscape.org/namespaces/inkscape"
   xmlns:sodipodi="http://sodipodi.sourceforge.net/DTD/sodipodi-0.dtd"
   xmlns="http://www.w3.org/2000/svg"
   xmlns:svg="http://www.w3.org/2000/svg"><sodipodi:namedview
     id="namedview5"
     pagecolor="#ffffff"
     bordercolor="#000000"
     borderopacity="0.25"
     inkscape:showpageshadow="2"
     inkscape:pageopacity="0.0"
     inkscape:pagecheckerboard="0"
     inkscape:deskcolor="#d1d1d1"
     inkscape:zoom="8.5"
     inkscape:cx="17.764706"
     inkscape:cy="20.588235"
     inkscape:window-width="1920"
     inkscape:window-height="1015"
     inkscape:window-x="0"
     inkscape:window-y="0"
     inkscape:window-maximized="1"
     inkscape:current-layer="svg5" /><defs
     id="defs3051"><style
       type="text/css"
       id="current-color-scheme">
      .ColorScheme-Text {
        color:#31363b;
      }
      .ColorScheme-Accent {
        color:#3daee9;
      }
      </style><linearGradient
       id="linearGradient1911"
       x1="25.085"
       x2="25.085"
       y1="24.031"
       y2="26.412"
       gradientTransform="translate(-35.822,-21.385)"
       gradientUnits="userSpaceOnUse"><stop
         stop-color="#fcbc19"
         stop-opacity=".99608"
         offset="0"
         id="stop1" /><stop
         stop-color="#f4b61f"
         offset="1"
         id="stop2" /></linearGradient><linearGradient
       id="linearGradient4625"
       x1=".52918"
       x2="16.404"
       y1="5.0665"
       y2="5.0665"
       gradientTransform="translate(-17.925)"
       gradientUnits="userSpaceOnUse"><stop
         stop-color="#b78815"
         offset="0"
         id="stop3" /><stop
         stop-color="#e2b24b"
         stop-opacity="0"
         offset="1"
         id="stop4" /></linearGradient><linearGradient
       id="linearGradient1951"
       x1="100"
       x2="133.19"
       y1="17.453"
       y2="51.606"
       gradientTransform="matrix(0.26458,0,0,0.26458,-38.033,-0.13539)"
       gradientUnits="userSpaceOnUse"><stop
         stop-color="#fce798"
         offset="0"
         id="stop5" /><stop
         stop-color="#ffc937"
         offset="1"
         id="stop6" /></linearGradient><linearGradient
       id="linearGradient11110"
       x1=".52917"
       x2="16.404"
       y1="5.3815"
       y2="5.3815"
       gradientTransform="translate(-17.925)"
       gradientUnits="userSpaceOnUse"><stop
         stop-color="#fff"
         offset="0"
         id="stop7" /><stop
         stop-color="#fff"
         stop-opacity="0"
         offset="1"
         id="stop8" /></linearGradient><linearGradient
       id="linearGradient1119"
       x1="8.4665"
       x2="8.4665"
       y1="6.0853"
       y2="9.4879"
       gradientUnits="userSpaceOnUse"><stop
         stop-color="#fddb7a"
         offset="0"
         id="stop9" /><stop
         stop-color="#ffd970"
         offset="1"
         id="stop10" /></linearGradient><linearGradient
       id="linearGradient1284"
       x1="8.4665"
       x2="8.4665"
       y1="10.26"
       y2="13.229"
       gradientUnits="userSpaceOnUse"><stop
         stop-color="#ffd96e"
         offset="0"
         id="stop11" /><stop
         stop-color="#ffd561"
         offset="1"
         id="stop12" /></linearGradient><linearGradient
       id="linearGradient1272"
       x1="-3.9033"
       x2="-3.9033"
       y1="7.7839"
       y2="15.613"
       gradientTransform="translate(12.362,-2.1249)"
       gradientUnits="userSpaceOnUse"><stop
         stop-color="#c68d00"
         offset="0"
         id="stop13" /><stop
         stop-color="#a67100"
         offset="1"
         id="stop14" /></linearGradient></defs><g
     id="g5"
     transform="matrix(2.5198198,0,0,2.5198198,2.6666261,3.0096172)"><g
       transform="translate(17.925,4.2e-5)"
       id="g18"><path
         d="m -16.728,2.2489 c -0.3653,0 -0.66145,0.32575 -0.66145,0.72759 v 2.9636 c -0.0026,0.02629 -0.0072,0.052 -0.0072,0.07906 v 7.9373 c 0,0.40184 0.29614,0.72759 0.66144,0.72759 h 14.552 c 0.36531,0 0.66144,-0.32575 0.66144,-0.72759 v -9.393 c 0,-0.40184 -0.29614,-0.72759 -0.66144,-0.72759 v 5.16e-4 h -8.1993 l -0.89864,-1.1095 c 0,0 -0.36607,-0.478 -1.0583,-0.478 h -1.3229 z"
         color="#000000"
         color-rendering="auto"
         dominant-baseline="auto"
         fill="url(#linearGradient1911)"
         image-rendering="auto"
         shape-rendering="auto"
         solid-color="#000000"
         stop-color="#000000"
         style="font-variant-ligatures:normal;font-variant-position:normal;font-variant-caps:normal;font-variant-numeric:normal;font-variant-alternates:normal;font-variant-east-asian:normal;font-feature-settings:normal;font-variation-settings:normal;text-indent:0;text-decoration-line:none;text-decoration-style:solid;text-decoration-color:#000000;text-transform:none;text-orientation:mixed;white-space:normal;shape-padding:0;shape-margin:0;inline-size:0;isolation:auto;mix-blend-mode:normal;fill:url(#linearGradient1911)"
         id="path14" /><path
         d="m -9.5646,3.8364 c -0.11312,0.0018 -0.30848,-0.01542 -0.51986,0.09508 -0.73647,0.37946 -0.77226,0.59366 -1.557,0.71415 h -4.9608 c -0.21986,0 -0.41824,0.08855 -0.56171,0.23202 -0.13937,0.13936 -0.22041,0.33333 -0.2253,0.54569 v 0.2775 c 0.0049,-0.21236 0.08593,-0.40633 0.2253,-0.54569 0.14347,-0.14347 0.34185,-0.23202 0.56171,-0.23202 h 4.9608 c 0.78472,-0.1205 0.82051,-0.33469 1.557,-0.71415 0.21138,-0.1105 0.40673,-0.09328 0.51986,-0.09508 h 7.3828 c 0.18216,3.65e-4 0.3472,0.08101 0.46663,0.21239 0.1197,0.13167 0.19378,0.31377 0.19378,0.51469 v -0.2775 c 0,-0.20092 -0.07408,-0.38302 -0.19378,-0.51469 C -1.8346,3.91742 -1.99964,3.83677 -2.1818,3.8364 H -3.347 Z m -7.8247,2.1037 c -0.0026,0.02629 -0.0067,0.05201 -0.0067,0.07906 v 0.2775 c 0,-0.02705 0.0041,-0.05277 0.0067,-0.07906 z"
         fill="url(#linearGradient4625)"
         opacity="0.00100002"
         stroke-width="0.26458"
         id="path15"
         style="fill:url(#linearGradient4625)" /><path
         d="m -17.396,13.674 v 0.28215 c 0,0.20092 0.07357,0.3825 0.19327,0.51417 0.1197,0.13167 0.28553,0.21342 0.46818,0.21342 h 14.552 c 0.18265,0 0.34796,-0.08175 0.46766,-0.21342 0.1197,-0.13167 0.19378,-0.31325 0.19378,-0.51417 V 13.674 c 0,0.20092 -0.07409,0.3825 -0.19378,0.51417 -0.1197,0.13167 -0.28501,0.21342 -0.46766,0.21342 h -14.552 c -0.18265,0 -0.34848,-0.08176 -0.46818,-0.21342 -0.1197,-0.13166 -0.19327,-0.31325 -0.19327,-0.51417 z"
         fill="#e4a729"
         fill-opacity="0.99608"
         stroke-width="0.26458"
         id="path16" /><path
         d="m -10.383,4.0979 c 0,0 -0.35919,0.47868 -1.1575,0.79218 -0.03271,0.00587 -0.06509,0.011575 -0.10077,0.017052 h -4.9608 c -0.21986,0 -0.41824,0.088552 -0.56171,0.23202 -0.13937,0.13936 -0.22042,0.33333 -0.2253,0.54569 v 0.51675 c -0.0026,0.02629 -0.0067,0.05201 -0.0067,0.07906 v 7.3953 c 0,0.20092 0.07357,0.3825 0.19327,0.51417 0.1197,0.13167 0.28553,0.21342 0.46818,0.21342 h 14.552 c 0.18265,0 0.34796,-0.08175 0.46766,-0.21342 0.1197,-0.13167 0.19378,-0.31325 0.19378,-0.51417 v -8.851 c 0,-0.20092 -0.07408,-0.38302 -0.19378,-0.51469 -0.11945,-0.13137 -0.28449,-0.21202 -0.46665,-0.21239 h -7.4821 z"
         fill="url(#linearGradient1951)"
         id="path17"
         style="fill:url(#linearGradient1951)" /><path
         d="m -10.383,4.0979 c 0,0 -0.35919,0.47868 -1.1575,0.79218 -0.03271,0.00587 -0.06509,0.011575 -0.10077,0.017052 h -4.9608 c -0.21986,0 -0.41824,0.088552 -0.56171,0.23202 -0.13937,0.13936 -0.22041,0.33333 -0.2253,0.54569 v 0.38446 c 0.0049,-0.21236 0.08593,-0.40633 0.2253,-0.54569 0.14347,-0.14347 0.34185,-0.23202 0.56171,-0.23202 h 4.9608 c 0.03568,-0.00548 0.06806,-0.011184 0.10077,-0.017052 0.75911,-0.26303 1.2883,-0.79218 1.2883,-0.79218 h 8.0707 c 0.18216,3.704e-4 0.34718,0.081016 0.46663,0.21239 0.1197,0.13167 0.19378,0.31377 0.19378,0.51469 V 4.82498 c 0,-0.20092 -0.07408,-0.38302 -0.19378,-0.51469 C -1.83432,4.17892 -1.99934,4.09827 -2.1815,4.0979 h -7.4821 z m -7.0062,2.1037 c -0.0026,0.02629 -0.0067,0.05201 -0.0067,0.07906 v 0.38446 c 0,-0.02705 0.0041,-0.05277 0.0067,-0.07906 z"
         fill="url(#linearGradient11110)"
         opacity="0.3"
         id="path18"
         style="fill:url(#linearGradient11110)" /></g><circle
       cx="8.4665003"
       cy="9.5249996"
       r="3.9686999"
       fill="url(#linearGradient1272)"
       stroke-linecap="round"
       stroke-linejoin="round"
       stroke-width="0.1726"
       id="circle18"
       style="fill:url(#linearGradient1272)" /><g
       transform="matrix(0.77756,0,0,0.77756,10.567,2.0159)"
       id="g20"><g
         transform="matrix(1.0741,0,0,1.0741,-11.796,-0.7153)"
         id="g19"><circle
           cx="8.4665003"
           cy="7.8051"
           r="1.7198"
           fill="url(#linearGradient1119)"
           stroke-linecap="round"
           stroke-linejoin="round"
           stroke-width="0.34395"
           style="fill:url(#linearGradient1119);paint-order:stroke fill markers"
           id="circle19" /><path
           d="m 5.2916,11.064 5.4e-6,-0.14432 c 0,-0.43295 0.43294,-0.72158 0.72157,-0.72158 h 4.9066996 c 0.28863,0 0.72158,0.28863 0.72158,0.72158 V 11.064 c 0,1.3096 -1.416,2.1647 -3.1748996,2.1647 -1.7589,0 -3.1749,-0.85514 -3.1749,-2.1647 z"
           fill="url(#linearGradient1284)"
           stroke-width="0.14049"
           id="path19"
           style="fill:url(#linearGradient1284)" /></g></g></g></svg>
