<?xml version="1.0" encoding="UTF-8" standalone="no"?>
<!-- Created with Inkscape (http://www.inkscape.org/) -->

<svg
   width="64"
   height="64"
   viewBox="0 0 64 64"
   version="1.1"
   id="svg1"
   inkscape:version="1.4.2 (1:1.4.2+202505120737+ebf0e940d0)"
   sodipodi:docname="kde-start.svg"
   xmlns:inkscape="http://www.inkscape.org/namespaces/inkscape"
   xmlns:sodipodi="http://sodipodi.sourceforge.net/DTD/sodipodi-0.dtd"
   xmlns="http://www.w3.org/2000/svg"
   xmlns:svg="http://www.w3.org/2000/svg">
  <sodipodi:namedview
     id="namedview1"
     pagecolor="#ffffff"
     bordercolor="#000000"
     borderopacity="0.25"
     inkscape:showpageshadow="2"
     inkscape:pageopacity="0.0"
     inkscape:pagecheckerboard="0"
     inkscape:deskcolor="#d1d1d1"
     inkscape:document-units="px"
     inkscape:zoom="8.8940775"
     inkscape:cx="21.643616"
     inkscape:cy="36.091433"
     inkscape:window-width="1920"
     inkscape:window-height="1015"
     inkscape:window-x="0"
     inkscape:window-y="0"
     inkscape:window-maximized="1"
     inkscape:current-layer="layer1" />
  <defs
     id="defs1">
    <linearGradient
       id="linear0"
       gradientUnits="userSpaceOnUse"
       x1="2.3059001"
       y1="1.7146"
       x2="29.694901"
       y2="29.104601"
       gradientTransform="scale(2)">
      <stop
         offset="0"
         style="stop-color:rgb(15.686275%,68.627451%,91.764706%);stop-opacity:1;"
         id="stop1" />
      <stop
         offset="1"
         style="stop-color:rgb(51.372549%,54.509804%,89.411765%);stop-opacity:1;"
         id="stop2" />
    </linearGradient>
  </defs>
  <g
     inkscape:label="icon"
     inkscape:groupmode="layer"
     id="layer1">
    <g
       id="g1"
       transform="matrix(1.2516218,0,0,1.2421135,-8.3238418,-10.409611)">
      <rect
         style="opacity:1;fill:#577ef5;fill-opacity:1;stroke:none;stroke-width:0.104644"
         id="rect1-5"
         width="48.646603"
         height="47.799522"
         x="7.6808405"
         y="9.0165215"
         ry="7.9867563" />
      <g
         id="g21585"
         transform="matrix(0.09849674,0,0,0.09849674,-65.179494,-119.90799)">
        <path
           d="m 971.15832,1583.5102 v -192.0467 c 0,-7.0774 2.30687,-12.9746 6.9206,-17.6931 4.6138,-4.7177 10.56877,-7.0766 17.86498,-7.0766 7.2961,0 13.1975,2.1981 17.7039,6.5942 4.6138,4.3962 6.9207,10.4549 6.9207,18.1755 v 71.7357 l 81.1165,-87.1768 c 5.6867,-6.2196 12.0709,-9.3286 19.1525,-9.3286 6.5451,0 12.2318,2.2512 17.0602,6.755 4.9357,4.3962 7.4035,10.1872 7.4035,17.3715 0,4.0746 -1.2876,8.0953 -3.8627,12.0629 -2.5751,3.8606 -6.7061,8.6323 -12.3928,14.3148 l -62.2858,61.9247 76.1271,80.2609 c 4.3992,4.1823 7.779,8.2569 10.1396,12.2245 2.4678,3.8599 3.7017,8.1491 3.7017,12.8676 0,7.5059 -2.4678,13.2423 -7.4034,17.2099 -4.9357,3.86 -11.0517,5.7903 -18.3479,5.7903 -4.2918,0 -8.2082,-1.1795 -11.7489,-3.5384 -3.4336,-2.3588 -7.8328,-6.3264 -13.1976,-11.9028 l -85.462,-93.2886 v 84.7641 c 0,6.7557 -2.3069,12.439 -6.9207,17.0498 -4.6137,4.6108 -10.515,6.9159 -17.7039,6.9159 -7.18889,0 -13.14393,-2.1981 -17.86498,-6.5943 -4.61373,-4.3968 -6.9206,-10.1871 -6.9206,-17.3714 z"
           id="path829-2"
           style="font-size:24px;font-family:'VAG Rounded Black SSi';fill:#ffffff;fill-opacity:1;stroke:none" />
        <path
           d="m 850.06375,1677.0698 31.6595,33.146 51.25796,-34.6525 40.70508,18.0795 13.56829,59.3829 43.72002,-0.4003 12.0608,-60.9302 40.705,-16.1312 51.258,33.1459 24.1215,-33.1459 -58.1716,-54.8632 C 951.84905,1757.368 823.00431,1546.7305 951.07243,1458.6082 l -2.1e-4,-31.6394 -15.07575,7.5336 -46.73538,-29.6918 -32.28399,26.495 29.2688,49.9018 -16.58348,40.6795 -57.11225,9.4811 -0.1761,43.2509 58.79622,15.0664 16.20656,39.5497 -37.3129,47.8355 z"
           id="path705-0"
           style="font-size:12px;fill:#ffffff;fill-opacity:1;fill-rule:evenodd;stroke:none" />
      </g>
    </g>
  </g>
</svg>
