<?xml version="1.0" encoding="UTF-8" standalone="no"?>
<svg
   width="64"
   viewBox="0 0 64 64"
   height="64"
   version="1.1"
   id="svg6"
   sodipodi:docname="text-x-generic.svg"
   inkscape:version="1.4.3 (1:1.4.3+202512261035+0d15f75042)"
   xml:space="preserve"
   xmlns:inkscape="http://www.inkscape.org/namespaces/inkscape"
   xmlns:sodipodi="http://sodipodi.sourceforge.net/DTD/sodipodi-0.dtd"
   xmlns="http://www.w3.org/2000/svg"
   xmlns:svg="http://www.w3.org/2000/svg"><sodipodi:namedview
     id="namedview6"
     pagecolor="#ffffff"
     bordercolor="#000000"
     borderopacity="0.25"
     inkscape:showpageshadow="2"
     inkscape:pageopacity="0.0"
     inkscape:pagecheckerboard="0"
     inkscape:deskcolor="#d1d1d1"
     inkscape:zoom="6.375"
     inkscape:cx="65.254902"
     inkscape:cy="39.058823"
     inkscape:window-width="1920"
     inkscape:window-height="1015"
     inkscape:window-x="0"
     inkscape:window-y="0"
     inkscape:window-maximized="1"
     inkscape:current-layer="svg6" /><defs
     id="defs2"><linearGradient
       id="a"
       y1="392.36"
       y2="336.36"
       gradientUnits="userSpaceOnUse"
       x2="0"
       gradientTransform="translate(518 82)"><stop
         stop-color="#ffffff"
         stop-opacity="0"
         id="stop1" /><stop
         offset="1"
         stop-color="#ffffff"
         stop-opacity=".2"
         id="stop2" /></linearGradient><path
       color-rendering="auto"
       color-interpolation-filters="linearRGB"
       shape-rendering="auto"
       image-rendering="auto"
       text-rendering="auto"
       id="b"
       color-interpolation="sRGB"
       color="#000000"
       d="m542 417.36v58h44v-58h-14z" /></defs><path
     fill="#ffffff"
     d="m 12.267533,58.682642 h 39.823731 c 0.377638,0 0.686615,-0.298008 0.686615,-0.662239 V 18.948305 H 41.105407 c -1.135664,0 -2.059849,-0.891374 -2.059849,-1.986717 V 5.7035262 H 12.267533 c -0.377639,0 -0.686617,0.2980075 -0.686617,0.6622389 V 58.020403 c 0,0.364231 0.308978,0.662239 0.686617,0.662239 z"
     id="path1"
     style="stroke-width:1.34863" /><path
     fill="#ffffff"
     d="M 51.807005,17.623827 40.41879,6.639932 v 10.321656 c 0,0.364231 0.308978,0.662239 0.686617,0.662239 z"
     id="path2"
     style="stroke-width:1.34863" /><path
     fill="#605e5c"
     fill-rule="evenodd"
     d="M 53.546889,17.430453 40.619282,4.9604941 A 2.0735804,1.9999616 0 0 0 39.163657,4.3790483 H 12.267533 c -1.135664,0 -2.059849,0.8913737 -2.059849,1.9867168 V 58.020403 c 0,1.095343 0.924185,1.986717 2.059849,1.986717 h 39.823731 c 1.135662,0 2.059847,-0.891374 2.059847,-1.986717 V 18.8344 c 0,-0.529791 -0.214223,-1.029119 -0.604222,-1.403947 z M 40.41879,6.639932 51.807005,17.623827 H 41.105407 A 0.68798928,0.66356343 0 0 1 40.41879,16.961588 Z m -28.151257,52.04271 h 39.823731 c 0.377638,0 0.686615,-0.298008 0.686615,-0.662239 V 18.948305 H 41.105407 c -1.135664,0 -2.059849,-0.891374 -2.059849,-1.986717 V 5.7035262 H 12.267533 c -0.377639,0 -0.686617,0.2980075 -0.686617,0.6622389 V 58.020403 a 0.68661605,0.66223895 0 0 0 0.686617,0.662239 z"
     clip-rule="evenodd"
     opacity="0.64"
     id="path3"
     style="stroke-width:1.34863" /><text
     xml:space="preserve"
     style="font-size:16.7761px;font-family:Hack;-inkscape-font-specification:Hack;text-align:start;letter-spacing:-1.74752px;word-spacing:0px;writing-mode:lr-tb;direction:ltr;text-anchor:start;fill:#ffffff;fill-opacity:1;stroke-width:2.44651;stroke-linecap:round;stroke-linejoin:round"
     x="2.8138542"
     y="38.180187"
     id="text23"><tspan
       sodipodi:role="line"
       id="tspan23"
       style="font-style:normal;font-variant:normal;font-weight:normal;font-stretch:normal;font-size:16.7761px;font-family:FontAwesome;-inkscape-font-specification:FontAwesome;letter-spacing:-1.74752px;word-spacing:0px;fill:#ffffff;fill-opacity:1;stroke-width:2.44651"
       x="2.8138542"
       y="38.180187" /></text><rect
     style="fill:#5e5e5c;fill-opacity:0.639216;stroke:none;stroke-width:2.29079;stroke-linecap:round;stroke-linejoin:round;stroke-dasharray:none;stroke-opacity:0.639216"
     id="rect3"
     width="24.32724"
     height="2.0218616"
     x="18.87109"
     y="40.850723"
     ry="0.96178174" /><rect
     style="fill:#5e5e5c;fill-opacity:0.639216;stroke:none;stroke-width:2.03691;stroke-linecap:round;stroke-linejoin:round;stroke-dasharray:none;stroke-opacity:0.639216"
     id="rect4"
     width="19.241886"
     height="2.0218616"
     x="18.87109"
     y="33.534954"
     ry="0.96178174" /><rect
     style="fill:#5e5e5c;fill-opacity:0.639216;stroke:none;stroke-width:2.64191;stroke-linecap:round;stroke-linejoin:round;stroke-dasharray:none;stroke-opacity:0.639216"
     id="rect5"
     width="24.32724"
     height="2.0218616"
     x="18.87109"
     y="26.839163"
     ry="0.96178174" /></svg>
