<?xml version="1.0" encoding="UTF-8" standalone="no"?>
<!-- Created with Inkscape (http://www.inkscape.org/) -->

<svg
   width="16mm"
   height="16mm"
   viewBox="0 0 16 16"
   version="1.1"
   id="svg1"
   inkscape:version="1.4.2 (1:1.4.2+202505120737+ebf0e940d0)"
   sodipodi:docname="details-dolpin.svg"
   xml:space="preserve"
   xmlns:inkscape="http://www.inkscape.org/namespaces/inkscape"
   xmlns:sodipodi="http://sodipodi.sourceforge.net/DTD/sodipodi-0.dtd"
   xmlns="http://www.w3.org/2000/svg"
   xmlns:svg="http://www.w3.org/2000/svg"><sodipodi:namedview
     id="namedview1"
     pagecolor="#ffffff"
     bordercolor="#000000"
     borderopacity="0.25"
     inkscape:showpageshadow="2"
     inkscape:pageopacity="0.0"
     inkscape:pagecheckerboard="0"
     inkscape:deskcolor="#d1d1d1"
     inkscape:document-units="mm"
     inkscape:zoom="3.9962644"
     inkscape:cx="46.168116"
     inkscape:cy="19.768462"
     inkscape:window-width="1920"
     inkscape:window-height="1015"
     inkscape:window-x="0"
     inkscape:window-y="0"
     inkscape:window-maximized="1"
     inkscape:current-layer="layer1" /><defs
     id="defs1" /><g
     inkscape:label="Layer 1"
     inkscape:groupmode="layer"
     id="layer1"><path
       fill="currentColor"
       d="M 1.7720254,14.44227 V 13.51098 H 14.381663 v 0.93129 z m 0,-11.678348 V 1.8326317 H 14.381663 V 2.763922 Z m 1.2735743,8.167393 q -0.544578,0 -0.9086828,-0.430256 Q 1.7728151,10.070806 1.7720254,9.4272871 v -2.579668 q 0,-0.6425904 0.3648915,-1.0728439 Q 2.5018075,5.3445186 3.0455997,5.3435894 H 13.108878 q 0.543792,0 0.908684,0.4311858 0.36489,0.4311866 0.364101,1.073773 v 2.5787389 q 0,0.6425859 -0.364101,1.0737719 -0.364105,0.431186 -0.909471,0.430256 z m 0,-0.931289 H 13.108878 q 0.181251,0 0.333368,-0.1788077 0.15212,-0.178807 0.151316,-0.3939312 v -2.579668 q 0,-0.2141819 -0.151316,-0.3939354 Q 13.29093,6.2739262 13.108091,6.2748759 H 3.0455997 q -0.1820555,0 -0.3341569,0.1788078 -0.1521204,0.178807 -0.1513157,0.3948645 v 2.5787389 q 0,0.2141812 0.1513157,0.3939312 0.1513156,0.1797577 0.3333681,0.1788077 M 2.5601271,6.2748759 v 3.7251501 z"
       id="path1-0"
       style="fill:#363636;fill-opacity:1;stroke-width:0.856705" /></g></svg>
