<?xml version="1.0" encoding="UTF-8" standalone="no"?>
<!-- Created with Inkscape (http://www.inkscape.org/) -->

<svg
   width="16mm"
   height="16mm"
   viewBox="0 0 16 16"
   version="1.1"
   id="svg1"
   inkscape:version="1.4.2 (ebf0e94, 2025-05-08)"
   sodipodi:docname="details-dolpin.svg"
   xml:space="preserve"
   xmlns:inkscape="http://www.inkscape.org/namespaces/inkscape"
   xmlns:sodipodi="http://sodipodi.sourceforge.net/DTD/sodipodi-0.dtd"
   xmlns="http://www.w3.org/2000/svg"
   xmlns:svg="http://www.w3.org/2000/svg"><sodipodi:namedview
     id="namedview1"
     pagecolor="#ffffff"
     bordercolor="#000000"
     borderopacity="0.25"
     inkscape:showpageshadow="2"
     inkscape:pageopacity="0.0"
     inkscape:pagecheckerboard="0"
     inkscape:deskcolor="#d1d1d1"
     inkscape:document-units="mm"
     inkscape:zoom="3.9962644"
     inkscape:cx="46.293233"
     inkscape:cy="19.643345"
     inkscape:window-width="1920"
     inkscape:window-height="1011"
     inkscape:window-x="0"
     inkscape:window-y="0"
     inkscape:window-maximized="1"
     inkscape:current-layer="layer1" /><defs
     id="defs1" /><g
     inkscape:label="Layer 1"
     inkscape:groupmode="layer"
     id="layer1"><path
       fill="currentColor"
       d="M 0.91132577,14.905724 V 13.871748 H 14.911324 v 1.033976 z m 0,-12.9660235 V 0.90572445 H 14.911324 V 1.9397005 Z M 2.3253266,11.007645 q -0.6046241,0 -1.0088758,-0.477697 Q 0.91220252,10.052255 0.91132577,9.33778 V 6.4736732 q 0,-0.7134435 0.40512503,-1.1911375 Q 1.7215749,4.8048382 2.3253266,4.8038066 H 13.498199 q 0.603752,0 1.008877,0.4787291 0.405124,0.47873 0.404248,1.1921691 V 9.33778 q 0,0.713439 -0.404248,1.192168 -0.404252,0.478729 -1.00975,0.477697 z m 0,-1.0339745 H 13.498199 q 0.201236,0 0.370126,-0.1985235 0.168893,-0.1985226 0.168,-0.437367 V 6.4736732 q 0,-0.2377979 -0.168,-0.4373714 -0.168,-0.1995779 -0.370999,-0.1985235 H 2.3253266 q -0.2021293,0 -0.3710017,0.1985235 -0.1688934,0.1985226 -0.168,0.438403 V 9.33778 q 0,0.237797 0.168,0.437367 0.168,0.1995779 0.3701259,0.1985235 M 1.7863249,5.8377783 v 4.1358922 z"
       id="path1-0"
       style="stroke-width:0.951167;fill:#363636;fill-opacity:1" /></g></svg>
