<?xml version="1.0" encoding="UTF-8" standalone="no"?>
<svg
   width="16"
   height="16"
   viewBox="0 0 17.454545 17.454545"
   version="1.1"
   id="svg1"
   sodipodi:docname="eraser-dolpin.svg"
   inkscape:version="1.4.2 (1:1.4.2+202505120737+ebf0e940d0)"
   xml:space="preserve"
   xmlns:inkscape="http://www.inkscape.org/namespaces/inkscape"
   xmlns:sodipodi="http://sodipodi.sourceforge.net/DTD/sodipodi-0.dtd"
   xmlns="http://www.w3.org/2000/svg"
   xmlns:svg="http://www.w3.org/2000/svg"><defs
     id="defs1" /><sodipodi:namedview
     id="namedview1"
     pagecolor="#ffffff"
     bordercolor="#000000"
     borderopacity="0.25"
     inkscape:showpageshadow="2"
     inkscape:pageopacity="0.0"
     inkscape:pagecheckerboard="0"
     inkscape:deskcolor="#d1d1d1"
     inkscape:zoom="18.022728"
     inkscape:cx="5.6317778"
     inkscape:cy="9.8209328"
     inkscape:window-width="1920"
     inkscape:window-height="1015"
     inkscape:window-x="0"
     inkscape:window-y="0"
     inkscape:window-maximized="1"
     inkscape:current-layer="svg1" /><path
     fill="currentColor"
     d="m 8.8772764,3.0993554 a 2.0177606,2.0177606 0 0 1 2.8531126,0 l 3.913447,3.9134468 a 2.0177606,2.0177606 0 0 1 0,2.8531141 L 10.094994,15.414756 A 2.0177606,2.0177606 0 0 1 8.6684383,16.00596 H 5.8849372 A 2.0177606,2.0177606 0 0 1 4.4583805,15.414756 l -2.5222007,-2.5222 a 2.0177606,2.0177606 0 0 1 0,-2.853114 z m 2.1398346,0.7132783 a 1.0088803,1.0088803 0 0 0 -1.4265557,0 L 4.9164122,8.4867762 10.256415,13.826778 14.930557,9.1526372 a 1.0088803,1.0088803 0 0 0 0,-1.4265563 z M 9.5431373,14.540057 4.2031338,9.2000548 2.650467,10.75272 a 1.0088803,1.0088803 0 0 0 0,1.426557 l 2.5222008,2.522201 A 1.0088803,1.0088803 0 0 0 5.8859461,14.99708 H 8.6694473 A 1.0088803,1.0088803 0 0 0 9.382725,14.701478 Z"
     id="path1-5"
     style="fill:#363636;fill-opacity:1;stroke-width:1.00888" /></svg>
