<?xml version="1.0" encoding="UTF-8" standalone="no"?>
<!-- Created with Inkscape (http://www.inkscape.org/) -->

<svg
   width="16mm"
   height="16mm"
   viewBox="0 0 16 16"
   version="1.1"
   id="svg1"
   inkscape:version="1.4.2 (ebf0e94, 2025-05-08)"
   sodipodi:docname="grid-dolpin.svg"
   xml:space="preserve"
   xmlns:inkscape="http://www.inkscape.org/namespaces/inkscape"
   xmlns:sodipodi="http://sodipodi.sourceforge.net/DTD/sodipodi-0.dtd"
   xmlns="http://www.w3.org/2000/svg"
   xmlns:svg="http://www.w3.org/2000/svg"><sodipodi:namedview
     id="namedview1"
     pagecolor="#ffffff"
     bordercolor="#000000"
     borderopacity="0.25"
     inkscape:showpageshadow="2"
     inkscape:pageopacity="0.0"
     inkscape:pagecheckerboard="0"
     inkscape:deskcolor="#d1d1d1"
     inkscape:document-units="mm"
     inkscape:zoom="5.6515713"
     inkscape:cx="47.243498"
     inkscape:cy="44.147014"
     inkscape:window-width="1920"
     inkscape:window-height="1011"
     inkscape:window-x="0"
     inkscape:window-y="0"
     inkscape:window-maximized="1"
     inkscape:current-layer="layer1" /><defs
     id="defs1" /><g
     inkscape:label="Layer 1"
     inkscape:groupmode="layer"
     id="layer1"><path
       fill="none"
       stroke="currentColor"
       stroke-width="1.07751"
       d="M 9.4920375,13.981573 V 9.8152147 A 0.4310024,0.4310024 0 0 1 9.9230403,9.3842119 h 4.1663557 a 0.4310024,0.4310024 0 0 1 0.431001,0.4310028 v 4.1663583 a 0.4310024,0.4310024 0 0 1 -0.431001,0.431001 H 9.9230403 A 0.4310024,0.4310024 0 0 1 9.4920375,13.981573 Z m -7.9017116,0 V 9.8152147 A 0.4310024,0.4310024 0 0 1 2.0213287,9.3842119 H 6.1876872 A 0.4310024,0.4310024 0 0 1 6.6186887,9.8152147 V 13.981573 A 0.4310024,0.4310024 0 0 1 6.1876872,14.412574 H 2.0213287 A 0.4310024,0.4310024 0 0 1 1.5903259,13.981573 Z M 9.4920375,6.0798603 V 1.9135057 A 0.4310024,0.4310024 0 0 1 9.9230403,1.4825029 h 4.1663557 a 0.4310024,0.4310024 0 0 1 0.431001,0.4310028 V 6.0798603 A 0.4310024,0.4310024 0 0 1 14.089396,6.5108631 H 9.9230403 A 0.4310024,0.4310024 0 0 1 9.4920375,6.0798603 Z m -7.9017116,0 V 1.9135057 A 0.4310024,0.4310024 0 0 1 2.0213287,1.4825029 H 6.1876872 A 0.4310024,0.4310024 0 0 1 6.6186887,1.9135057 V 6.0798603 A 0.4310024,0.4310024 0 0 1 6.1876872,6.5108631 H 2.0213287 A 0.4310024,0.4310024 0 0 1 1.5903259,6.0798603 Z"
       id="path1"
       style="stroke:#363636;stroke-opacity:1;stroke-width:1;stroke-dasharray:none" /></g></svg>
