<?xml version="1.0" encoding="UTF-8" standalone="no"?>
<!-- Created with Inkscape (http://www.inkscape.org/) -->

<svg
   width="16mm"
   height="16mm"
   viewBox="0 0 16 16"
   version="1.1"
   id="svg1"
   inkscape:version="1.4.2 (1:1.4.2+202505120737+ebf0e940d0)"
   sodipodi:docname="grid-dolpin.svg"
   xml:space="preserve"
   xmlns:inkscape="http://www.inkscape.org/namespaces/inkscape"
   xmlns:sodipodi="http://sodipodi.sourceforge.net/DTD/sodipodi-0.dtd"
   xmlns="http://www.w3.org/2000/svg"
   xmlns:svg="http://www.w3.org/2000/svg"><sodipodi:namedview
     id="namedview1"
     pagecolor="#ffffff"
     bordercolor="#000000"
     borderopacity="0.25"
     inkscape:showpageshadow="2"
     inkscape:pageopacity="0.0"
     inkscape:pagecheckerboard="0"
     inkscape:deskcolor="#d1d1d1"
     inkscape:document-units="mm"
     inkscape:zoom="5.6515713"
     inkscape:cx="47.155027"
     inkscape:cy="44.058544"
     inkscape:window-width="1920"
     inkscape:window-height="1015"
     inkscape:window-x="0"
     inkscape:window-y="0"
     inkscape:window-maximized="1"
     inkscape:current-layer="layer1" /><defs
     id="defs1" /><g
     inkscape:label="Layer 1"
     inkscape:groupmode="layer"
     id="layer1"><path
       fill="none"
       stroke="currentColor"
       stroke-width="1.07751"
       d="M 9.4222394,13.604152 V 9.8438581 a 0.38899579,0.38899579 0 0 1 0.388996,-0.3889966 h 3.7602916 a 0.38899579,0.38899579 0 0 1 0.388994,0.3889966 v 3.7602939 a 0.38899579,0.38899579 0 0 1 -0.388994,0.388994 H 9.8112354 a 0.38899579,0.38899579 0 0 1 -0.388996,-0.388994 z m -7.1315906,0 V 9.8438581 A 0.38899579,0.38899579 0 0 1 2.6796449,9.4548615 H 6.4399394 A 0.38899579,0.38899579 0 0 1 6.8289343,9.8438581 V 13.604152 A 0.38899579,0.38899579 0 0 1 6.4399394,13.993146 H 2.6796449 A 0.38899579,0.38899579 0 0 1 2.2906488,13.604152 Z M 9.4222394,6.4725605 V 2.7122696 a 0.38899579,0.38899579 0 0 1 0.388996,-0.3889961 h 3.7602916 a 0.38899579,0.38899579 0 0 1 0.388994,0.3889961 V 6.4725605 A 0.38899579,0.38899579 0 0 1 13.571527,6.8615567 H 9.8112354 A 0.38899579,0.38899579 0 0 1 9.4222394,6.4725605 Z m -7.1315906,0 V 2.7122696 A 0.38899579,0.38899579 0 0 1 2.6796449,2.3232735 H 6.4399394 A 0.38899579,0.38899579 0 0 1 6.8289343,2.7122696 V 6.4725605 A 0.38899579,0.38899579 0 0 1 6.4399394,6.8615567 H 2.6796449 A 0.38899579,0.38899579 0 0 1 2.2906488,6.4725605 Z"
       id="path1"
       style="stroke:#363636;stroke-width:0.902537;stroke-dasharray:none;stroke-opacity:1" /></g></svg>
