<?xml version="1.0" encoding="UTF-8" standalone="no"?>
<svg
   viewBox="0 0 16 16"
   version="1.1"
   id="svg4"
   sodipodi:docname="smartcode-stremio.svg"
   xml:space="preserve"
   inkscape:version="1.4.2 (ebf0e94, 2025-05-08)"
   xmlns:inkscape="http://www.inkscape.org/namespaces/inkscape"
   xmlns:sodipodi="http://sodipodi.sourceforge.net/DTD/sodipodi-0.dtd"
   xmlns="http://www.w3.org/2000/svg"
   xmlns:svg="http://www.w3.org/2000/svg"><defs
     id="defs4">   </defs><sodipodi:namedview
     id="namedview4"
     pagecolor="#ffffff"
     bordercolor="#000000"
     borderopacity="0.25"
     inkscape:showpageshadow="2"
     inkscape:pageopacity="0.0"
     inkscape:pagecheckerboard="0"
     inkscape:deskcolor="#d1d1d1"
     inkscape:zoom="32"
     inkscape:cx="11.84375"
     inkscape:cy="5.546875"
     inkscape:window-width="1920"
     inkscape:window-height="1011"
     inkscape:window-x="0"
     inkscape:window-y="0"
     inkscape:window-maximized="1"
     inkscape:current-layer="svg4" /><style
     id="current-color-scheme"
     type="text/css">.ColorScheme-Text { color: #fcfcfc; } </style><style
     id="current-color-scheme-5"
     type="text/css">.ColorScheme-Text { color: #fcfcfc; } </style><style
     id="current-color-scheme-2"
     type="text/css">.ColorScheme-NegativeText { color: #da4453; } .ColorScheme-Text { color: #fcfcfc; } </style><style
     id="current-color-scheme-6"
     type="text/css">.ColorScheme-Text { color: #fcfcfc; } </style><path
     fill="currentColor"
     d="M 7.9378674,15.447643 A 1.1031283,1.1031283 0 0 1 7.1575884,15.124794 L 0.9065276,8.873734 a 1.1031283,1.1031283 0 0 1 0,-1.5598234 L 7.1575884,1.0628498 a 1.1031283,1.1031283 0 0 1 1.5598234,0 l 6.2510602,6.2510608 a 1.1031283,1.1031283 0 0 1 0,1.5598234 l -6.2510602,6.25106 a 1.1031283,1.1031283 0 0 1 -0.7795444,0.322849 m 0,-13.6052488 L 1.6868078,8.0934539 7.9378674,14.344514 14.188928,8.0934539 Z M 6.7435479,11.142501 A 0.82808166,0.82808166 0 0 1 5.9154659,10.315154 V 5.8717535 A 0.82808166,0.82808166 0 0 1 7.2237761,5.1981106 L 10.333862,7.419811 a 0.82734623,0.82734623 0 0 1 0,1.3465512 L 7.2237761,10.988063 A 0.83102332,0.83102332 0 0 1 6.7435479,11.142501 M 7.0185942,6.4071392 V 9.779034 L 9.378553,8.0934539 Z"
     id="path1-3"
     style="fill:#363636;fill-opacity:1;stroke-width:0.735419" /><style
     id="current-color-scheme-3"
     type="text/css">
        .ColorScheme-Text {
            color:#232629;
        }
    </style><style
     id="current-color-scheme-1"
     type="text/css">
        .ColorScheme-Text {
            color:#232629;
        }
    </style></svg>
