<?xml version="1.0" encoding="UTF-8" standalone="no"?>
<svg
   viewBox="0 0 16 16"
   version="1.1"
   id="svg4"
   sodipodi:docname="kate.svg"
   xml:space="preserve"
   inkscape:version="1.4.2 (1:1.4.2+202505120737+ebf0e940d0)"
   xmlns:inkscape="http://www.inkscape.org/namespaces/inkscape"
   xmlns:sodipodi="http://sodipodi.sourceforge.net/DTD/sodipodi-0.dtd"
   xmlns="http://www.w3.org/2000/svg"
   xmlns:svg="http://www.w3.org/2000/svg"><defs
     id="defs4">   </defs><sodipodi:namedview
     id="namedview4"
     pagecolor="#ffffff"
     bordercolor="#000000"
     borderopacity="0.25"
     inkscape:showpageshadow="2"
     inkscape:pageopacity="0.0"
     inkscape:pagecheckerboard="0"
     inkscape:deskcolor="#d1d1d1"
     inkscape:zoom="64"
     inkscape:cx="7.9453125"
     inkscape:cy="8.265625"
     inkscape:window-width="1920"
     inkscape:window-height="1015"
     inkscape:window-x="0"
     inkscape:window-y="0"
     inkscape:window-maximized="1"
     inkscape:current-layer="svg4"
     showguides="true" /><style
     id="current-color-scheme"
     type="text/css">.ColorScheme-Text { color: #fcfcfc; } </style><style
     id="current-color-scheme-5"
     type="text/css">.ColorScheme-Text { color: #fcfcfc; } </style><style
     id="current-color-scheme-2"
     type="text/css">.ColorScheme-NegativeText { color: #da4453; } .ColorScheme-Text { color: #fcfcfc; } </style><style
     id="current-color-scheme-6"
     type="text/css">.ColorScheme-Text { color: #fcfcfc; } </style><style
     id="current-color-scheme-3"
     type="text/css">
        .ColorScheme-Text {
            color:#232629;
        }
    </style><style
     id="current-color-scheme-1"
     type="text/css">
        .ColorScheme-Text {
            color:#232629;
        }
    </style><path
     id="rect849-7"
     style="fill:none;fill-opacity:1;stroke:#363636;stroke-width:1;stroke-linecap:round;stroke-linejoin:round;stroke-dasharray:none;stroke-opacity:1"
     d="m 2.9963782,1.4930303 h 9.9405808 c 0.800966,0 1.445783,0.505774 1.445783,1.1340412 v 3.1815096 4.3023419 3.19617 c 0,0.628258 -0.644817,1.134041 -1.445783,1.134041 H 2.9963782 c -0.8009663,0 -1.4457832,-0.505783 -1.4457832,-1.134041 V 10.110923 5.8085811 2.6270715 c 0,-0.6282672 0.6448169,-1.1340412 1.4457832,-1.1340412 z"
     sodipodi:nodetypes="sssccssscccss" /><path
     id="rect5395"
     style="fill:none;stroke:#363636;stroke-width:1;stroke-linecap:round;stroke-linejoin:round;stroke-dasharray:none;stroke-opacity:1"
     d="m 5.8375651,1.4930303 h 7.0993939 c 0.800966,0 1.445792,0.505774 1.445792,1.1340412 V 13.307093 c 0,0.628258 -0.644826,1.134041 -1.445792,1.134041 H 5.8375651 Z"
     sodipodi:nodetypes="ccssccc" /><path
     style="fill:#363636;fill-opacity:1;stroke:#363636;stroke-width:1;stroke-linecap:round;stroke-linejoin:round;stroke-dasharray:none;stroke-opacity:1"
     d="M 1.5467961,5.8778251 5.6875,5.912476"
     id="path2" /><path
     style="fill:#363636;fill-opacity:1;stroke:#363636;stroke-width:1;stroke-linecap:round;stroke-linejoin:round;stroke-dasharray:none;stroke-opacity:1"
     d="m 1.5688932,10.31934 3.9995727,0.0056"
     id="path3" /><path
     fill="currentColor"
     d="m 29.818833,13.438446 h 9.000004 v 1.076924 h -9.000004 z m 0,2.961542 h 9.000004 v 1.076915 h -9.000004 z m 0,2.961534 h 4.749997 v 1.076924 h -4.749997 z"
     id="path1"
     style="stroke-width:0.0324296;stroke:none;stroke-opacity:1" /><path
     fill="currentColor"
     d="m 41.318835,9.9384455 h -14 V 23.938446 h 14 z M 40.318833,22.861522 H 28.318837 V 11.01537 h 11.999996 z"
     id="path2-3"
     style="stroke-width:0.0324296;fill:#363636;fill-opacity:1" /><path
     style="fill:#363636;fill-opacity:1;stroke:none;stroke-width:1;stroke-linecap:round;stroke-linejoin:round;stroke-dasharray:none;stroke-opacity:1"
     d="M 7.5793008,10.31934 H 9.1260969 L 9.1150484,9.0377085 10.518213,10.330388 12.374369,10.341437 9.9547377,7.7118833 12.084426,5.6881043 10.982252,4.7398251 9.148194,6.4413008 9.1215204,4.7043239 7.5553081,4.6886989 Z"
     id="path4"
     sodipodi:nodetypes="cccccccccccc" /></svg>
