<?xml version="1.0" encoding="UTF-8" standalone="no"?>
<svg
   width="22"
   height="22"
   viewBox="0 0 24 24"
   version="1.1"
   id="svg1"
   sodipodi:docname="location-dolpin.svg"
   xml:space="preserve"
   inkscape:version="1.4.2 (ebf0e94, 2025-05-08)"
   xmlns:inkscape="http://www.inkscape.org/namespaces/inkscape"
   xmlns:sodipodi="http://sodipodi.sourceforge.net/DTD/sodipodi-0.dtd"
   xmlns="http://www.w3.org/2000/svg"
   xmlns:svg="http://www.w3.org/2000/svg"><defs
     id="defs1" /><sodipodi:namedview
     id="namedview1"
     pagecolor="#ffffff"
     bordercolor="#000000"
     borderopacity="0.25"
     inkscape:showpageshadow="2"
     inkscape:pageopacity="0.0"
     inkscape:pagecheckerboard="0"
     inkscape:deskcolor="#d1d1d1"
     inkscape:zoom="12.743992"
     inkscape:cx="14.124303"
     inkscape:cy="11.966423"
     inkscape:window-width="1920"
     inkscape:window-height="1011"
     inkscape:window-x="0"
     inkscape:window-y="0"
     inkscape:window-maximized="1"
     inkscape:current-layer="svg1" /><path
     fill="currentColor"
     d="M 8.8933193,5.423401 10.253378,4.0635467 a 6.7314434,6.7314434 0 0 1 9.776031,9.2498073 l -0.254279,0.267949 -1.353203,1.366711 a 0.96163479,0.96163479 0 0 1 -1.47682,-1.221353 L 17.056652,13.593431 18.412575,12.224 A 4.8081739,4.8081739 0 0 0 11.843129,5.207443 l -0.22978,0.216285 -1.360061,1.3598543 A 0.96163479,0.96163479 0 0 1 8.7819093,5.5567867 Z m 0,0 1.3600587,-1.3598543 z m -5.44024,5.439414 1.360059,-1.3598546 a 0.96163479,0.96163479 0 0 1 1.471381,1.2267936 l -0.111545,0.13323 -1.360062,1.359856 a 4.8081739,4.8081739 0 0 0 6.5694527,7.016549 l 0.229905,-0.216159 1.360062,-1.359853 a 0.96163479,0.96163479 0 0 1 1.471325,1.226738 l -0.111562,0.133229 -1.360059,1.359853 A 6.7314434,6.7314434 0 0 1 3.1987143,11.130672 Z m 0,0 1.360059,-1.3598546 z m 4.079561,4.08018 6.8030427,-6.7965242 a 0.96163479,0.96163479 0 0 1 1.471378,1.226793 L 15.695498,9.5064935 8.8924563,16.303021 a 0.96163479,0.96163479 0 0 1 -1.471378,-1.226796 z"
     id="path1"
     style="stroke-width:1.92327;fill:#363636;fill-opacity:1" /></svg>
