<?xml version="1.0" encoding="UTF-8" standalone="no"?>
<svg
   width="16"
   height="16"
   viewBox="0 0 17.454545 17.454545"
   version="1.1"
   id="svg1"
   sodipodi:docname="location-dolpin.svg"
   xml:space="preserve"
   inkscape:version="1.4.2 (1:1.4.2+202505120737+ebf0e940d0)"
   xmlns:inkscape="http://www.inkscape.org/namespaces/inkscape"
   xmlns:sodipodi="http://sodipodi.sourceforge.net/DTD/sodipodi-0.dtd"
   xmlns="http://www.w3.org/2000/svg"
   xmlns:svg="http://www.w3.org/2000/svg"><defs
     id="defs1" /><sodipodi:namedview
     id="namedview1"
     pagecolor="#ffffff"
     bordercolor="#000000"
     borderopacity="0.25"
     inkscape:showpageshadow="2"
     inkscape:pageopacity="0.0"
     inkscape:pagecheckerboard="0"
     inkscape:deskcolor="#d1d1d1"
     inkscape:zoom="12.743992"
     inkscape:cx="11.260208"
     inkscape:cy="-0.70621513"
     inkscape:window-width="1920"
     inkscape:window-height="1015"
     inkscape:window-x="0"
     inkscape:window-y="0"
     inkscape:window-maximized="1"
     inkscape:current-layer="svg1" /><path
     fill="currentColor"
     d="M 12.607998,10.891148 11.792779,10.075804 13.423216,8.4439682 C 14.774604,7.0935212 14.956789,5.0857341 13.831399,3.9590163 12.704855,2.8334534 10.697371,3.0156668 9.3459821,4.3672624 L 7.7167001,5.9979434 6.9014883,5.1826061 8.5319187,3.5519186 c 1.8022353,-1.8013575 4.5396103,-1.983571 6.1158473,-0.4082461 1.576236,1.5764796 1.392903,4.3142756 -0.408184,6.116788 l -1.63043,1.6306875 z m -1.63043,1.630681 -1.6304311,1.630681 C 7.5448953,15.953874 4.8075206,16.136087 3.2312836,14.560756 1.6550465,12.984276 1.8383868,10.246487 3.6394668,8.4439682 L 5.2699034,6.8132872 6.0851152,7.6286245 4.4546851,9.2604605 C 3.1032977,10.610907 2.9211123,12.618701 4.0465018,13.745419 c 1.1265445,1.125562 3.1340227,0.943349 4.4854169,-0.408246 l 1.6304303,-1.630688 z m 0,-6.5238856 0.815211,0.8153438 -4.8924455,4.8931978 -0.8152183,-0.815337 z"
     id="path1"
     style="fill:#363636;fill-opacity:1;stroke-width:0.0180179" /></svg>
