<?xml version="1.0" encoding="UTF-8" standalone="no"?>
<svg
   width="16"
   height="16"
   viewBox="0 0 16 16"
   version="1.1"
   id="svg1"
   sodipodi:docname="mkvtoolnix-gui.svg"
   xml:space="preserve"
   inkscape:version="1.4.2 (ebf0e94, 2025-05-08)"
   xmlns:inkscape="http://www.inkscape.org/namespaces/inkscape"
   xmlns:sodipodi="http://sodipodi.sourceforge.net/DTD/sodipodi-0.dtd"
   xmlns="http://www.w3.org/2000/svg"
   xmlns:svg="http://www.w3.org/2000/svg"><defs
     id="defs1" /><sodipodi:namedview
     id="namedview1"
     pagecolor="#ffffff"
     bordercolor="#000000"
     borderopacity="0.25"
     inkscape:showpageshadow="2"
     inkscape:pageopacity="0.0"
     inkscape:pagecheckerboard="0"
     inkscape:deskcolor="#d1d1d1"
     inkscape:zoom="24.78125"
     inkscape:cx="4.2370744"
     inkscape:cy="7.2030265"
     inkscape:window-width="1920"
     inkscape:window-height="1011"
     inkscape:window-x="0"
     inkscape:window-y="0"
     inkscape:window-maximized="1"
     inkscape:current-layer="svg1" /><path
     fill="currentColor"
     d="M13.218 4.246L7.087 6.238a.5.5 0 0 1-.24.079L4.741 7H13.5a.5.5 0 0 1 .5.5v5a2.5 2.5 0 0 1-2.5 2.5h-7A2.5 2.5 0 0 1 2 12.5v-5c0-.106.033-.205.09-.287l-.195-.602A2.5 2.5 0 0 1 3.5 3.461l6.657-2.163a2.5 2.5 0 0 1 3.15 1.605l.232.713a.5.5 0 0 1-.321.63m-3.744.165l1.285-2.226a1.5 1.5 0 0 0-.293.064l-1.245.404l-1.308 2.265zm2.295-1.979l-.02.037l-.854 1.48l1.538-.5l-.077-.237a1.5 1.5 0 0 0-.587-.78m-3.97.683l-1.56.507L4.93 5.887l1.56-.507zM2.923 6.54l.587-.19l1.307-2.266l-1.008.328a1.5 1.5 0 0 0-.963 1.89zM3 8v4.5A1.5 1.5 0 0 0 4.5 14h7a1.5 1.5 0 0 0 1.5-1.5V8z"
     id="path1"
     style="fill:#363636;fill-opacity:1" /><style
     id="current-color-scheme"
     type="text/css">.ColorScheme-Text { color: #fcfcfc; } </style><style
     id="current-color-scheme-5"
     type="text/css">.ColorScheme-Text { color: #fcfcfc; } </style><style
     id="current-color-scheme-2"
     type="text/css">.ColorScheme-NegativeText { color: #da4453; } .ColorScheme-Text { color: #fcfcfc; } </style><style
     id="current-color-scheme-6"
     type="text/css">.ColorScheme-Text { color: #fcfcfc; } </style><style
     id="current-color-scheme-3"
     type="text/css">
        .ColorScheme-Text {
            color:#232629;
        }
    </style><style
     id="current-color-scheme-1"
     type="text/css">
        .ColorScheme-Text {
            color:#232629;
        }
    </style><style
     id="current-color-scheme-36"
     type="text/css">.ColorScheme-Text { color: #fcfcfc; } </style><style
     id="current-color-scheme-5-7"
     type="text/css">.ColorScheme-Text { color: #fcfcfc; } </style><style
     id="current-color-scheme-2-5"
     type="text/css">.ColorScheme-NegativeText { color: #da4453; } .ColorScheme-Text { color: #fcfcfc; } </style><style
     id="current-color-scheme-6-3"
     type="text/css">.ColorScheme-Text { color: #fcfcfc; } </style><style
     id="current-color-scheme-3-5"
     type="text/css">
        .ColorScheme-Text {
            color:#232629;
        }
    </style><style
     id="current-color-scheme-1-6"
     type="text/css">
        .ColorScheme-Text {
            color:#232629;
        }
    </style></svg>
