<?xml version="1.0" encoding="UTF-8" standalone="no"?>
<svg
   viewBox="0 0 16 16"
   version="1.1"
   id="svg4"
   sodipodi:docname="mpv.svg"
   xml:space="preserve"
   inkscape:version="1.4.3 (1:1.4.3+202512261035+0d15f75042)"
   xmlns:inkscape="http://www.inkscape.org/namespaces/inkscape"
   xmlns:sodipodi="http://sodipodi.sourceforge.net/DTD/sodipodi-0.dtd"
   xmlns="http://www.w3.org/2000/svg"
   xmlns:svg="http://www.w3.org/2000/svg"><defs
     id="defs4">   </defs><sodipodi:namedview
     id="namedview4"
     pagecolor="#ffffff"
     bordercolor="#000000"
     borderopacity="0.25"
     inkscape:showpageshadow="2"
     inkscape:pageopacity="0.0"
     inkscape:pagecheckerboard="0"
     inkscape:deskcolor="#d1d1d1"
     inkscape:zoom="22.627417"
     inkscape:cx="9.1702911"
     inkscape:cy="6.5186406"
     inkscape:window-width="1920"
     inkscape:window-height="1008"
     inkscape:window-x="0"
     inkscape:window-y="0"
     inkscape:window-maximized="1"
     inkscape:current-layer="svg4" /><style
     id="current-color-scheme"
     type="text/css">.ColorScheme-Text { color: #fcfcfc; } </style><style
     id="current-color-scheme-5"
     type="text/css">.ColorScheme-Text { color: #fcfcfc; } </style><style
     id="current-color-scheme-2"
     type="text/css">.ColorScheme-NegativeText { color: #da4453; } .ColorScheme-Text { color: #fcfcfc; } </style><style
     id="current-color-scheme-6"
     type="text/css">.ColorScheme-Text { color: #fcfcfc; } </style><style
     id="current-color-scheme-3"
     type="text/css">
        .ColorScheme-Text {
            color:#232629;
        }
    </style><style
     id="current-color-scheme-1"
     type="text/css">
        .ColorScheme-Text {
            color:#232629;
        }
    </style><path
     fill="currentColor"
     d="m 7.3788961,5.1309957 a 0.85714286,0.85714286 0 0 0 -1.294857,0.737143 v 3.922286 a 0.85714286,0.85714286 0 0 0 1.294857,0.7371433 L 11.096039,8.3207107 a 0.57142857,0.57142857 0 0 0 0,-0.982858 z m -6.152,2.698286 c 0,-3.7868571 3.070286,-6.85714304 6.857143,-6.85714304 3.7868569,0 6.8571429,3.07028594 6.8571429,6.85714304 0,3.7868573 -3.070286,6.8571433 -6.8571429,6.8571433 -3.786857,0 -6.857143,-3.070286 -6.857143,-6.8571433 m 6.857143,-6.0000001 c -3.313714,0 -6,2.6862857 -6,6.0000001 0,3.3137143 2.686286,6.0000003 6,6.0000003 3.3137139,0 5.9999999,-2.686286 5.9999999,-6.0000003 0,-3.3137144 -2.686286,-6.0000001 -5.9999999,-6.0000001"
     id="path1-3"
     style="stroke-width:0.571429;fill:#232629;fill-opacity:1" /></svg>
