<?xml version="1.0" encoding="UTF-8" standalone="no"?>
<svg
   width="16"
   height="16"
   viewBox="0 0 17.454545 17.454545"
   version="1.1"
   id="svg1"
   sodipodi:docname="search-dolpin.svg"
   xml:space="preserve"
   inkscape:version="1.4.2 (ebf0e94, 2025-05-08)"
   xmlns:inkscape="http://www.inkscape.org/namespaces/inkscape"
   xmlns:sodipodi="http://sodipodi.sourceforge.net/DTD/sodipodi-0.dtd"
   xmlns="http://www.w3.org/2000/svg"
   xmlns:svg="http://www.w3.org/2000/svg"><defs
     id="defs1" /><sodipodi:namedview
     id="namedview1"
     pagecolor="#ffffff"
     bordercolor="#000000"
     borderopacity="0.25"
     inkscape:showpageshadow="2"
     inkscape:pageopacity="0.0"
     inkscape:pagecheckerboard="0"
     inkscape:deskcolor="#d1d1d1"
     inkscape:zoom="9.0113632"
     inkscape:cx="9.8764191"
     inkscape:cy="29.684743"
     inkscape:window-width="1920"
     inkscape:window-height="1011"
     inkscape:window-x="0"
     inkscape:window-y="0"
     inkscape:window-maximized="1"
     inkscape:current-layer="svg1" /><path
     fill="currentColor"
     d="M 7.262211,0.86796634 C 2.9766658,0.86798614 -0.00247432,5.1309672 1.4705604,9.1553612 2.943595,13.179755 7.970809,14.512199 11.243721,11.745624 c -0.01824,0.224649 0.05802,0.45593 0.230452,0.627526 l 3.183219,3.183219 c 0.750487,0.751848 1.876218,-0.373883 1.125732,-1.125732 l -3.183219,-3.18322 C 12.4347,11.082207 12.205242,10.997941 11.972379,11.016965 15.361168,7.0080132 12.511551,0.86794584 7.262211,0.86796634 M 2.28843,7.0354542 C 2.2874421,4.2878098 4.514567,2.0598839 7.26221,2.0598839 c 2.747643,0 4.97477,2.2279259 4.97378,4.9755703 -9.88e-4,2.746245 -2.227538,4.9719858 -4.97378,4.9719858 -2.746243,0 -4.9727904,-2.2257408 -4.97378,-4.9719858"
     id="path1-5"
     style="fill:#363636;fill-opacity:1;stroke:none;stroke-width:1.09091;stroke-dasharray:none;stroke-opacity:1"
     sodipodi:nodetypes="csccccccccsssc" /></svg>
