<?xml version="1.0" encoding="UTF-8" standalone="no"?>
<svg
   width="22"
   height="22"
   viewBox="0 0 24 24"
   version="1.1"
   id="svg1"
   sodipodi:docname="search-dolpin.svg"
   xml:space="preserve"
   inkscape:version="1.4.2 (ebf0e94, 2025-05-08)"
   xmlns:inkscape="http://www.inkscape.org/namespaces/inkscape"
   xmlns:sodipodi="http://sodipodi.sourceforge.net/DTD/sodipodi-0.dtd"
   xmlns="http://www.w3.org/2000/svg"
   xmlns:svg="http://www.w3.org/2000/svg"><defs
     id="defs1" /><sodipodi:namedview
     id="namedview1"
     pagecolor="#ffffff"
     bordercolor="#000000"
     borderopacity="0.25"
     inkscape:showpageshadow="2"
     inkscape:pageopacity="0.0"
     inkscape:pagecheckerboard="0"
     inkscape:deskcolor="#d1d1d1"
     inkscape:zoom="9.0113632"
     inkscape:cx="9.8764192"
     inkscape:cy="16.368223"
     inkscape:window-width="1920"
     inkscape:window-height="1011"
     inkscape:window-x="0"
     inkscape:window-y="0"
     inkscape:window-maximized="1"
     inkscape:current-layer="svg1" /><path
     fill="currentColor"
     d="m 10.302309,1.8378986 c -5.6397421,2.61e-5 -9.56026618,5.6100751 -7.6217645,10.9061444 1.9385016,5.29607 8.5542745,7.049556 12.8613995,3.408765 -0.024,0.295637 0.07636,0.6 0.303273,0.825819 l 4.189091,4.18909 c 0.987634,0.989427 2.469088,-0.492027 1.481454,-1.481454 L 17.326671,15.497172 C 17.109263,15.279757 16.807298,15.168864 16.500853,15.193899 20.960471,9.918151 17.210398,1.8378717 10.302309,1.8378986 M 3.7568542,9.954263 c -0.0013,-3.6158781 2.9295782,-6.5478104 6.5454538,-6.5478104 3.615876,0 6.546757,2.9319323 6.545454,6.5478104 -0.0013,3.614036 -2.931421,6.543093 -6.545454,6.543093 -3.6140333,0 -6.5441515,-2.929057 -6.5454538,-6.543093"
     id="path1-5"
     style="stroke-width:1.09091;stroke:none;stroke-opacity:1;fill:#363636;fill-opacity:1"
     sodipodi:nodetypes="csccccccccsssc" /></svg>
