<?xml version="1.0" encoding="UTF-8" standalone="no"?>
<svg
   width="22"
   height="22"
   viewBox="0 0 24 24"
   version="1.1"
   id="svg1"
   sodipodi:docname="split-dolpin.svg"
   xml:space="preserve"
   inkscape:version="1.4.2 (ebf0e94, 2025-05-08)"
   xmlns:inkscape="http://www.inkscape.org/namespaces/inkscape"
   xmlns:sodipodi="http://sodipodi.sourceforge.net/DTD/sodipodi-0.dtd"
   xmlns="http://www.w3.org/2000/svg"
   xmlns:svg="http://www.w3.org/2000/svg"><defs
     id="defs1" /><sodipodi:namedview
     id="namedview1"
     pagecolor="#ffffff"
     bordercolor="#000000"
     borderopacity="0.25"
     inkscape:showpageshadow="2"
     inkscape:pageopacity="0.0"
     inkscape:pagecheckerboard="0"
     inkscape:deskcolor="#d1d1d1"
     inkscape:zoom="12.743992"
     inkscape:cx="13.496556"
     inkscape:cy="22.795055"
     inkscape:window-width="1920"
     inkscape:window-height="1011"
     inkscape:window-x="0"
     inkscape:window-y="0"
     inkscape:window-maximized="1"
     inkscape:current-layer="svg1" /><path
     fill="currentColor"
     fill-rule="evenodd"
     d="m 12.946416,4.6156305 h 7.224105 a 0.65673693,0.65673693 0 0 1 0.656737,0.6567363 V 18.407107 a 0.65673693,0.65673693 0 0 1 -0.656737,0.656736 h -7.224105 z m -1.313475,0 H 4.4088344 A 0.65673693,0.65673693 0 0 0 3.7520975,5.2723668 V 18.407107 a 0.65673693,0.65673693 0 0 0 0.6567369,0.656736 H 11.632941 Z M 2.4386237,5.2723668 a 1.9702107,1.9702107 0 0 1 1.9702107,-1.97021 H 20.170521 a 1.9702107,1.9702107 0 0 1 1.97021,1.97021 V 18.407107 a 1.9702107,1.9702107 0 0 1 -1.97021,1.97021 H 4.4088344 a 1.9702107,1.9702107 0 0 1 -1.9702107,-1.97021 z"
     clip-rule="evenodd"
     id="path1"
     style="stroke-width:1.31347;fill:#363636;fill-opacity:1" /></svg>
