<?xml version="1.0" encoding="UTF-8" standalone="no"?>
<svg
   width="16"
   height="16"
   viewBox="0 0 17.454545 17.454545"
   version="1.1"
   id="svg1"
   sodipodi:docname="view-split-left-right.svg"
   xml:space="preserve"
   inkscape:version="1.4.2 (1:1.4.2+202505120737+ebf0e940d0)"
   xmlns:inkscape="http://www.inkscape.org/namespaces/inkscape"
   xmlns:sodipodi="http://sodipodi.sourceforge.net/DTD/sodipodi-0.dtd"
   xmlns="http://www.w3.org/2000/svg"
   xmlns:svg="http://www.w3.org/2000/svg"><defs
     id="defs1"><clipPath
       id="gravityUiLayoutSplitSideContentRight0"><path
         fill="currentColor"
         d="M 0,0 H 16 V 16 H 0 Z"
         id="path2" /></clipPath><clipPath
       id="gravityUiLayoutSplitSideContentRight0-7"><path
         fill="currentColor"
         d="M 0,0 H 16 V 16 H 0 Z"
         id="path2-5" /></clipPath><style
       id="style1">.cls-1{fill:none;}</style></defs><sodipodi:namedview
     id="namedview1"
     pagecolor="#ffffff"
     bordercolor="#000000"
     borderopacity="0.25"
     inkscape:showpageshadow="2"
     inkscape:pageopacity="0.0"
     inkscape:pagecheckerboard="0"
     inkscape:deskcolor="#d1d1d1"
     inkscape:zoom="18.022726"
     inkscape:cx="20.113494"
     inkscape:cy="18.199245"
     inkscape:window-width="1920"
     inkscape:window-height="1015"
     inkscape:window-x="0"
     inkscape:window-y="0"
     inkscape:window-maximized="1"
     inkscape:current-layer="svg1" /><g
     id="SVGRepo_bgCarrier"
     stroke-width="0"
     transform="matrix(0.81818182,0,0,0.81818182,2.0621346,2.7967439)" /><g
     id="SVGRepo_tracerCarrier"
     stroke-linecap="round"
     stroke-linejoin="round"
     transform="matrix(0.81818182,0,0,0.81818182,2.0621346,2.7967439)" /><path
     fill="currentColor"
     d="M 1.5889024,4.4379221 A 1.8489051,1.8489051 0 0 1 3.4378074,2.589017 H 14.531239 a 1.8489051,1.8489051 0 0 1 1.848905,1.8489051 v 9.2445259 a 1.8489051,1.8489051 0 0 1 -1.848905,1.848905 H 3.4378074 A 1.8489051,1.8489051 0 0 1 1.5889024,13.682448 Z M 6.211165,3.5134695 V 14.6069 h 8.320074 a 0.92445259,0.92445259 0 0 0 0.924452,-0.924452 V 4.4379221 A 0.92445259,0.92445259 0 0 0 14.531239,3.5134695 Z m -0.9244525,0 H 3.4378074 A 0.92445259,0.92445259 0 0 0 2.5133549,4.4379221 V 13.682448 A 0.92445259,0.92445259 0 0 0 3.4378074,14.6069 h 1.8489051 z"
     id="path1-5"
     style="fill:#363636;fill-opacity:1;stroke-width:0.924453" /></svg>
