<?xml version="1.0" encoding="UTF-8" standalone="no"?>
<svg
   viewBox="0 0 16 16"
   version="1.1"
   id="svg1"
   sodipodi:docname="view-list-icons.svg"
   inkscape:version="1.4.3 (1:1.4.3+202512261035+0d15f75042)"
   xml:space="preserve"
   xmlns:inkscape="http://www.inkscape.org/namespaces/inkscape"
   xmlns:sodipodi="http://sodipodi.sourceforge.net/DTD/sodipodi-0.dtd"
   xmlns="http://www.w3.org/2000/svg"
   xmlns:svg="http://www.w3.org/2000/svg"><sodipodi:namedview
     id="namedview1"
     pagecolor="#ffffff"
     bordercolor="#000000"
     borderopacity="0.25"
     inkscape:showpageshadow="2"
     inkscape:pageopacity="0.0"
     inkscape:pagecheckerboard="0"
     inkscape:deskcolor="#d1d1d1"
     inkscape:zoom="3.1875"
     inkscape:cx="-27.764706"
     inkscape:cy="-82.980392"
     inkscape:window-width="1920"
     inkscape:window-height="1008"
     inkscape:window-x="0"
     inkscape:window-y="0"
     inkscape:window-maximized="1"
     inkscape:current-layer="svg1" /><defs
     id="defs3051"><style
       type="text/css"
       id="current-color-scheme">
      .ColorScheme-Text {
        color:#232629;
      }
      </style></defs><path
     fill="currentColor"
     d="m 3.5588235,2.1176471 a 1.5,1.5 0 0 0 -1.5,1.5 v 2 a 1.5,1.5 0 0 0 1.5,1.5 h 2 a 1.5,1.5 0 0 0 1.5,-1.5 v -2 a 1.5,1.5 0 0 0 -1.5,-1.5 z m -0.5,1.5 a 0.5,0.5 0 0 1 0.5,-0.5 h 2 a 0.5,0.5 0 0 1 0.5,0.5 v 2 a 0.5,0.5 0 0 1 -0.5,0.5 h -2 a 0.5,0.5 0 0 1 -0.5,-0.5 z m 7.5000005,-1.5 a 1.5,1.5 0 0 0 -1.5000005,1.5 v 2 a 1.5,1.5 0 0 0 1.5000005,1.5 h 2 a 1.5,1.5 0 0 0 1.5,-1.5 v -2 a 1.5,1.5 0 0 0 -1.5,-1.5 z m -0.5,1.5 a 0.5,0.5 0 0 1 0.5,-0.5 h 2 a 0.5,0.5 0 0 1 0.5,0.5 v 2 a 0.5,0.5 0 0 1 -0.5,0.5 h -2 a 0.5,0.5 0 0 1 -0.5,-0.5 z M 2.0588235,10.617647 a 1.5,1.5 0 0 1 1.5,-1.4999999 h 2 a 1.5,1.5 0 0 1 1.5,1.4999999 v 2 a 1.5,1.5 0 0 1 -1.5,1.5 h -2 a 1.5,1.5 0 0 1 -1.5,-1.5 z m 1.5,-0.5 a 0.5,0.5 0 0 0 -0.5,0.5 v 2 a 0.5,0.5 0 0 0 0.5,0.5 h 2 a 0.5,0.5 0 0 0 0.5,-0.5 v -2 a 0.5,0.5 0 0 0 -0.5,-0.5 z M 10.558824,9.1176471 A 1.5,1.5 0 0 0 9.0588235,10.617647 v 2 a 1.5,1.5 0 0 0 1.5000005,1.5 h 2 a 1.5,1.5 0 0 0 1.5,-1.5 v -2 a 1.5,1.5 0 0 0 -1.5,-1.4999999 z m -0.5,1.4999999 a 0.5,0.5 0 0 1 0.5,-0.5 h 2 a 0.5,0.5 0 0 1 0.5,0.5 v 2 a 0.5,0.5 0 0 1 -0.5,0.5 h -2 a 0.5,0.5 0 0 1 -0.5,-0.5 z"
     id="path1-7"
     style="fill:#232629;fill-opacity:1" /></svg>
