<?xml version="1.0" encoding="UTF-8" standalone="no"?>
<svg
   height="22"
   width="22"
   version="1.1"
   id="svg1"
   sodipodi:docname="system-reboot-update.svg"
   xml:space="preserve"
   inkscape:version="1.4.3 (1:1.4.3+202512261035+0d15f75042)"
   xmlns:inkscape="http://www.inkscape.org/namespaces/inkscape"
   xmlns:sodipodi="http://sodipodi.sourceforge.net/DTD/sodipodi-0.dtd"
   xmlns="http://www.w3.org/2000/svg"
   xmlns:svg="http://www.w3.org/2000/svg"><sodipodi:namedview
     id="namedview1"
     pagecolor="#ffffff"
     bordercolor="#000000"
     borderopacity="0.25"
     inkscape:showpageshadow="2"
     inkscape:pageopacity="0.0"
     inkscape:pagecheckerboard="0"
     inkscape:deskcolor="#d1d1d1"
     inkscape:zoom="13.113616"
     inkscape:cx="6.2149142"
     inkscape:cy="12.84924"
     inkscape:window-width="1920"
     inkscape:window-height="1012"
     inkscape:window-x="0"
     inkscape:window-y="0"
     inkscape:window-maximized="1"
     inkscape:current-layer="svg1" /><defs
     id="defs4157"><style
       id="current-color-scheme"
       type="text/css">
      .ColorScheme-Text {
        color:#31363b;
      }
    </style><style
       id="current-color-scheme-1"
       type="text/css">
      .ColorScheme-Text {
        color:#31363b;
      }
    </style><style
       id="current-color-scheme-5"
       type="text/css">
      .ColorScheme-Text {
        color:#31363b;
      }
    </style></defs><style
     type="text/css"
     id="current-color-scheme-7">
        .ColorScheme-Text {
            color:#232629;
        }
        .ColorScheme-NegativeText {
            color:#da4453;
        }
    </style><path
     d="M -11,-0.70098074 H 5 V 15.299019 h -16 z"
     fill="none"
     id="path1" /><!-- Icon from Fluent UI System Icons by Microsoft Corporation - https://github.com/microsoft/fluentui-system-icons/blob/main/LICENSE --><path
     fill="currentColor"
     d="M 3.8649719,10.809236 A 6.875,6.875 0 0 1 16.110053,6.3094286 l -2.748726,0.083706 a 0.6875,0.6875 0 1 0 0.04185,1.3743619 l 4.121714,-0.1255172 a 0.6875,0.6875 0 0 0 0.666255,-0.708108 L 18.06559,2.8107837 a 0.68750006,0.68750006 0 0 0 -1.374363,0.041853 l 0.06408,2.1041496 A 8.25,8.25 0 1 0 18.972747,11.09751 0.68816327,0.68816327 0 0 0 17.598782,11.01692 6.875,6.875 0 0 1 3.8649719,10.809237"
     id="path1-9"
     style="stroke-width:1.375;fill:#232629;fill-opacity:1" /></svg>
