<?xml version="1.0" encoding="UTF-8" standalone="no"?>
<svg
   width="16"
   height="16"
   viewBox="0 0 16 16"
   version="1.1"
   id="svg1"
   sodipodi:docname="kget.svg"
   xml:space="preserve"
   inkscape:version="1.4.3 (1:1.4.3+202512261035+0d15f75042)"
   xmlns:inkscape="http://www.inkscape.org/namespaces/inkscape"
   xmlns:sodipodi="http://sodipodi.sourceforge.net/DTD/sodipodi-0.dtd"
   xmlns="http://www.w3.org/2000/svg"
   xmlns:svg="http://www.w3.org/2000/svg"><defs
     id="defs1" /><sodipodi:namedview
     id="namedview1"
     pagecolor="#ffffff"
     bordercolor="#000000"
     borderopacity="0.25"
     inkscape:showpageshadow="2"
     inkscape:pageopacity="0.0"
     inkscape:pagecheckerboard="0"
     inkscape:deskcolor="#d1d1d1"
     inkscape:zoom="17.52299"
     inkscape:cx="10.186618"
     inkscape:cy="12.298129"
     inkscape:window-width="1221"
     inkscape:window-height="1016"
     inkscape:window-x="0"
     inkscape:window-y="0"
     inkscape:window-maximized="0"
     inkscape:current-layer="svg1" /><path
     fill="currentColor"
     d="m 11.984204,13.399931 a 0.4,0.4 0 0 1 0.072,0.7936 l -0.072,0.0064 H 3.1842037 a 0.4,0.4 0 0 1 -0.072,-0.7936 l 0.072,-0.0064 z M 7.5842037,1.4015312 a 0.4,0.4 0 0 1 0.3936,0.328 l 0.0064,0.072 -0.0032,9.4351998 2.9160003,-2.9183998 a 0.4,0.4 0 0 1 0.5104,-0.0472 l 0.056,0.0464 a 0.4,0.4 0 0 1 0.0464,0.5104 l -0.0464,0.056 -3.5936003,3.5999998 a 0.4,0.4 0 0 1 -0.204,0.1088 l -0.0848,0.008 a 0.4,0.4 0 0 1 -0.316,-0.156 l -3.5656,-3.5607998 a 0.4,0.4 0 0 1 0.5096,-0.6128 l 0.056,0.0464 2.916,2.9127998 0.0032,-9.4287998 a 0.4,0.4 0 0 1 0.4,-0.4"
     id="path1"
     style="stroke-width:0.8;fill:#232629;fill-opacity:1" /></svg>
