<?xml version="1.0" encoding="UTF-8" standalone="no"?>
<svg
   height="22"
   width="22"
   version="1.1"
   id="svg1"
   sodipodi:docname="network-bluetooth-activated.svg"
   xml:space="preserve"
   inkscape:version="1.4.3 (1:1.4.3+202512261035+0d15f75042)"
   xmlns:inkscape="http://www.inkscape.org/namespaces/inkscape"
   xmlns:sodipodi="http://sodipodi.sourceforge.net/DTD/sodipodi-0.dtd"
   xmlns="http://www.w3.org/2000/svg"
   xmlns:svg="http://www.w3.org/2000/svg"><sodipodi:namedview
     id="namedview1"
     pagecolor="#ffffff"
     bordercolor="#000000"
     borderopacity="0.25"
     inkscape:showpageshadow="2"
     inkscape:pageopacity="0.0"
     inkscape:pagecheckerboard="0"
     inkscape:deskcolor="#d1d1d1"
     inkscape:zoom="18.545454"
     inkscape:cx="4.0441177"
     inkscape:cy="9.5441178"
     inkscape:window-width="1920"
     inkscape:window-height="1015"
     inkscape:window-x="0"
     inkscape:window-y="0"
     inkscape:window-maximized="1"
     inkscape:current-layer="svg1" /><defs
     id="defs4157"><style
       id="current-color-scheme"
       type="text/css">
      .ColorScheme-Text {
        color:#31363b;
      }
    </style><style
       id="current-color-scheme-1"
       type="text/css">
      .ColorScheme-Text {
        color:#31363b;
      }
    </style><style
       id="current-color-scheme-5"
       type="text/css">
      .ColorScheme-Text {
        color:#31363b;
      }
    </style></defs><path
     fill="currentColor"
     d="m 10.307161,2.4899131 a 0.59375,0.59375 0 0 1 0.629375,0.074813 l 4.75,3.859375 a 0.59375,0.59375 0 0 1 0,0.9215 l -4.182375,3.3986249 4.182374,3.398625 a 0.59375,0.59375 0 0 1 0,0.9215 l -4.749999,3.859375 a 0.59375,0.59375 0 0 1 -0.9678132,-0.46075 v -6.471875 l -3.7821866,3.07325 a 0.59375,0.59375 0 0 1 -0.748125,-0.9215 L 9.6207858,10.744226 5.4384112,7.3456011 a 0.59375,0.59375 0 1 1 0.748125,-0.9215 l 3.7821866,3.07325 V 3.0254761 A 0.59375,0.59375 0 0 1 10.307161,2.4899136 m 0.849062,9.5011874 v 5.225 l 3.214563,-2.6125 z m 0,-2.4937499 3.214563,-2.6125 -3.214563,-2.6125 z"
     id="path1"
     style="stroke-width:1.1875;fill:#232629;fill-opacity:1" /><circle
     style="fill:#232629;stroke:none;stroke-width:1.53802;stroke-linecap:round;stroke-linejoin:round;fill-opacity:1"
     id="path2"
     cx="16.052019"
     cy="10.828439"
     r="0.99133605" /><circle
     style="fill:#232629;stroke:none;stroke-width:1.53802;stroke-linecap:round;stroke-linejoin:round;fill-opacity:1"
     id="circle2"
     cx="4.0544701"
     cy="10.828439"
     r="0.99133605" /></svg>
