<?xml version="1.0" encoding="UTF-8" standalone="no"?>
<svg
   width="20"
   height="16"
   enable-background="new"
   version="1.1"
   id="svg2"
   sodipodi:docname="kdeconnect-tray.svg"
   inkscape:version="1.4.3 (1:1.4.3+202512261035+0d15f75042)"
   xml:space="preserve"
   xmlns:inkscape="http://www.inkscape.org/namespaces/inkscape"
   xmlns:sodipodi="http://sodipodi.sourceforge.net/DTD/sodipodi-0.dtd"
   xmlns="http://www.w3.org/2000/svg"
   xmlns:svg="http://www.w3.org/2000/svg"><defs
     id="defs2" /><sodipodi:namedview
     id="namedview2"
     pagecolor="#ffffff"
     bordercolor="#000000"
     borderopacity="0.25"
     inkscape:showpageshadow="2"
     inkscape:pageopacity="0.0"
     inkscape:pagecheckerboard="0"
     inkscape:deskcolor="#d1d1d1"
     inkscape:zoom="18.075417"
     inkscape:cx="10.622162"
     inkscape:cy="8.3262256"
     inkscape:window-width="1244"
     inkscape:window-height="1014"
     inkscape:window-x="0"
     inkscape:window-y="0"
     inkscape:window-maximized="0"
     inkscape:current-layer="svg2" /><style
     id="current-color-scheme"
     type="text/css">.ColorScheme-Text { color: #fcfcfc; } </style><style
     id="current-color-scheme-5"
     type="text/css">.ColorScheme-Text { color: #fcfcfc; } </style><style
     id="current-color-scheme-2"
     type="text/css">.ColorScheme-NegativeText { color: #da4453; } .ColorScheme-Text { color: #fcfcfc; } </style><style
     id="current-color-scheme-6"
     type="text/css">.ColorScheme-Text { color: #fcfcfc; } </style><style
     id="current-color-scheme-9"
     type="text/css">
        .ColorScheme-Text {
            color:#232629;
        }
    </style><path
     fill="currentColor"
     d="m 7.3440689,1.3708605 c -1.6090625,0.4928125 -2.662375,1.8346875 -2.4355625,3.325 0.2810956,1.8366088 0.9072383,3.6034274 1.845375,5.2071875 0.9292847,1.605033 2.1466499,3.02489 3.5909996,4.188313 1.178,0.946437 2.871375,0.7125 4.102812,-0.435813 0.450239,-0.419126 0.496542,-1.11626 0.105688,-1.59125 l -0.9405,-1.142375 c -0.307739,-0.373518 -0.811361,-0.522914 -1.273,-0.377625 l -1.986687,0.625813 c -0.19903,0.06263 -0.4163277,0.0162 -0.5723751,-0.122313 l -0.0475,-0.04394 -0.1151875,-0.110435 C 9.0638999,10.352588 8.5846356,9.7399289 8.1931314,9.071798 7.7843228,8.3532086 7.4804112,7.5798337 7.2906314,6.775173 l -0.01425,-0.06175 c -0.042349,-0.2048483 0.026219,-0.4168674 0.1805,-0.558125 l 1.5354375,-1.406 C 9.3485196,4.4220629 9.4706457,3.9114816 9.3010689,3.4584855 l -0.515375,-1.3775 C 8.5671991,1.5015175 7.9366414,1.1909133 7.3440689,1.3708605 m 2.4521875,4.2524375 -1.273,1.1685 c 0.1669552,0.5878705 0.4020942,1.1541968 0.700625,1.687437 0.3097927,0.5273222 0.6830781,1.0146673 1.1114996,1.451125 l 1.649438,-0.518937 c 0.923277,-0.2905776 1.930522,0.00821 2.546,0.75525 l 0.9405,1.141187 c 0.789671,0.959358 0.696555,2.367537 -0.212563,3.214563 -1.531875,1.427375 -3.89025,1.911875 -5.6572496,0.492812 C 8.0436683,13.760796 6.730504,12.229845 5.7278814,10.499173 4.7150071,8.7669155 4.0389159,6.8587105 3.7352564,4.875173 3.3944439,2.637923 4.9987564,0.84717304 6.9973189,0.23561054 8.1897717,-0.12796188 9.4595549,0.49731407 9.8983814,1.664173 10.560682,3.115763 10.811887,4.283374 9.7962564,5.623298"
     id="path1"
     style="fill:#232629;fill-opacity:1;stroke-width:1.1875"
     sodipodi:nodetypes="cccccccccccccccccccccccccccccccccc" /><style
     id="current-color-scheme-0"
     type="text/css">.ColorScheme-Text { color: #fcfcfc; } </style><style
     id="current-color-scheme-5-9"
     type="text/css">.ColorScheme-Text { color: #fcfcfc; } </style><style
     id="current-color-scheme-2-3"
     type="text/css">.ColorScheme-NegativeText { color: #da4453; } .ColorScheme-Text { color: #fcfcfc; } </style><style
     id="current-color-scheme-6-6"
     type="text/css">.ColorScheme-Text { color: #fcfcfc; } </style><style
     id="current-color-scheme-9-0"
     type="text/css">
        .ColorScheme-Text {
            color:#232629;
        }
    </style></svg>
