<?xml version="1.0" encoding="UTF-8" standalone="no"?>
<svg
   width="16"
   height="16"
   viewBox="0 0 16 16"
   version="1.1"
   id="svg1"
   sodipodi:docname="klipper-symbolic.svg"
   xml:space="preserve"
   inkscape:version="1.4.2 (1:1.4.2+202505120737+ebf0e940d0)"
   xmlns:inkscape="http://www.inkscape.org/namespaces/inkscape"
   xmlns:sodipodi="http://sodipodi.sourceforge.net/DTD/sodipodi-0.dtd"
   xmlns="http://www.w3.org/2000/svg"
   xmlns:svg="http://www.w3.org/2000/svg"><defs
     id="defs1" /><sodipodi:namedview
     id="namedview1"
     pagecolor="#ffffff"
     bordercolor="#000000"
     borderopacity="0.25"
     inkscape:showpageshadow="2"
     inkscape:pageopacity="0.0"
     inkscape:pagecheckerboard="0"
     inkscape:deskcolor="#d1d1d1"
     inkscape:zoom="17.52299"
     inkscape:cx="10.158084"
     inkscape:cy="12.241062"
     inkscape:window-width="1221"
     inkscape:window-height="1016"
     inkscape:window-x="0"
     inkscape:window-y="0"
     inkscape:window-maximized="0"
     inkscape:current-layer="svg1" /><path
     fill="currentColor"
     d="m 11.233542,4.3083153 a 2.3496667,2.3496667 0 0 0 -3.3016666,-0.01167 l -3.885,3.817333 a 0.58333333,0.58333333 0 0 1 -0.824833,-0.0047 0.57983333,0.57983333 0 0 1 0.0058,-0.8225 l 3.883833,-3.816166 a 3.5198333,3.5198333 0 0 1 4.9466666,0.01517 3.4848333,3.4848333 0 0 1 0,4.943166 L 7.0043424,13.461948 a 2.2936667,2.2936667 0 0 1 -3.234,0 2.2715,2.2715 0 0 1 0,-3.221166 l 4.713333,-4.6934997 a 0.58333333,0.58333333 0 0 1 0.823667,0 0.57983333,0.57983333 0 0 1 0,0.821333 l -4.712167,4.6934997 a 1.113,1.113 0 0 0 0,1.5785 1.1235,1.1235 0 0 0 1.586667,0 L 11.233509,7.6076153 a 2.3263333,2.3263333 0 0 0 0,-3.299333"
     id="path2"
     style="stroke-width:1.16667;fill:#232629;fill-opacity:1" /></svg>
