<?xml version="1.0" encoding="UTF-8" standalone="no"?>
<svg
   width="16"
   height="16"
   viewBox="0 0 16 16"
   version="1.1"
   id="svg1"
   sodipodi:docname="media-playback-paused.svg"
   inkscape:version="1.4.2 (ebf0e94, 2025-05-08)"
   xml:space="preserve"
   xmlns:inkscape="http://www.inkscape.org/namespaces/inkscape"
   xmlns:sodipodi="http://sodipodi.sourceforge.net/DTD/sodipodi-0.dtd"
   xmlns="http://www.w3.org/2000/svg"
   xmlns:svg="http://www.w3.org/2000/svg"><defs
     id="defs1" /><sodipodi:namedview
     id="namedview1"
     pagecolor="#ffffff"
     bordercolor="#000000"
     borderopacity="0.25"
     inkscape:showpageshadow="2"
     inkscape:pageopacity="0.0"
     inkscape:pagecheckerboard="0"
     inkscape:deskcolor="#d1d1d1"
     inkscape:zoom="17.52299"
     inkscape:cx="5.7638565"
     inkscape:cy="13.439487"
     inkscape:window-width="1920"
     inkscape:window-height="1011"
     inkscape:window-x="0"
     inkscape:window-y="0"
     inkscape:window-maximized="1"
     inkscape:current-layer="svg1" /><path
     fill="currentColor"
     d="m 8.0007745,2 c -3.3140132,-4.278e-4 -6.000772,2.685989 -6.000772,6 0,3.314011 2.6867588,6.000428 6.000772,6 3.3134085,-4.28e-4 5.9992225,-2.686594 5.9992225,-6 0,-3.313406 -2.685815,-5.9995722 -5.9992225,-6 m -5,6 c 0,-6.6666638 9.9999995,-6.6666638 9.9999995,0 0,2.761426 -2.238576,4.999998 -4.9999995,4.999998 -2.7614237,0 -5,-2.238572 -5,-4.999998"
     id="path1"
     sodipodi:nodetypes="csssccssc"
     style="fill:#363636;fill-opacity:1" /><g
     fill="currentColor"
     id="g2"
     transform="matrix(0.55001647,0,0,0.55001647,1.3998024,1.3998024)"
     style="fill:#363636;fill-opacity:1"><path
       d="m 9,9 h 2 v 6 H 9 Z m 6,6 H 13 V 9 h 2 z"
       id="path1-5"
       style="fill:#363636;fill-opacity:1" /></g><style
     id="current-color-scheme"
     type="text/css">.ColorScheme-Text { color: #fcfcfc; } </style><style
     id="current-color-scheme-5"
     type="text/css">.ColorScheme-Text { color: #fcfcfc; } </style><style
     id="current-color-scheme-2"
     type="text/css">.ColorScheme-NegativeText { color: #da4453; } .ColorScheme-Text { color: #fcfcfc; } </style><style
     id="current-color-scheme-6"
     type="text/css">.ColorScheme-Text { color: #fcfcfc; } </style><style
     id="current-color-scheme-9"
     type="text/css">
        .ColorScheme-Text {
            color:#232629;
        }
    </style></svg>
