<?xml version="1.0" encoding="UTF-8" standalone="no"?>
<svg
   width="16"
   height="16"
   viewBox="0 0 16 16"
   version="1.1"
   id="svg1"
   sodipodi:docname="media-playback-playing.svg"
   inkscape:version="1.4.2 (1:1.4.2+202505120737+ebf0e940d0)"
   xml:space="preserve"
   xmlns:inkscape="http://www.inkscape.org/namespaces/inkscape"
   xmlns:sodipodi="http://sodipodi.sourceforge.net/DTD/sodipodi-0.dtd"
   xmlns="http://www.w3.org/2000/svg"
   xmlns:svg="http://www.w3.org/2000/svg"><defs
     id="defs1" /><sodipodi:namedview
     id="namedview1"
     pagecolor="#ffffff"
     bordercolor="#000000"
     borderopacity="0.25"
     inkscape:showpageshadow="2"
     inkscape:pageopacity="0.0"
     inkscape:pagecheckerboard="0"
     inkscape:deskcolor="#d1d1d1"
     inkscape:zoom="12.390625"
     inkscape:cx="0.36317781"
     inkscape:cy="3.9546028"
     inkscape:window-width="1920"
     inkscape:window-height="1017"
     inkscape:window-x="0"
     inkscape:window-y="0"
     inkscape:window-maximized="1"
     inkscape:current-layer="svg1" /><path
     fill="currentColor"
     d="m 10.612232,7.8789407 a 0.5,0.5 0 0 1 -0.254,0.435 l -2.6259997,1.489 a 0.75,0.75 0 0 1 -1.12,-0.654 v -2.541 a 0.75,0.75 0 0 1 1.12,-0.652 l 2.6259997,1.488 a 0.5,0.5 0 0 1 0.254,0.435 m -2.4999997,-6 a 6,6 0 1 0 0,12.0000003 6,6 0 0 0 0,-12.0000003 m -5,6 a 5,5 0 1 1 9.9999997,0 5,5 0 0 1 -9.9999997,0"
     id="path2"
     style="fill:#232629;fill-opacity:1" /></svg>
