<?xml version="1.0" encoding="UTF-8" standalone="no"?>
<svg
   width="16.001"
   height="16"
   version="1.1"
   id="svg3"
   sodipodi:docname="microphone-sensitivity-muted-symbolic.svg"
   inkscape:version="1.4.3 (1:1.4.3+202512261035+0d15f75042)"
   xml:space="preserve"
   xmlns:inkscape="http://www.inkscape.org/namespaces/inkscape"
   xmlns:sodipodi="http://sodipodi.sourceforge.net/DTD/sodipodi-0.dtd"
   xmlns="http://www.w3.org/2000/svg"
   xmlns:svg="http://www.w3.org/2000/svg"><defs
     id="defs3"><style
       id="current-color-scheme"
       type="text/css">.ColorScheme-Text { color:#333333
; } .ColorScheme-Highlight { color:#5294e2; }</style></defs><sodipodi:namedview
     id="namedview3"
     pagecolor="#ffffff"
     bordercolor="#000000"
     borderopacity="0.25"
     inkscape:showpageshadow="2"
     inkscape:pageopacity="0.0"
     inkscape:pagecheckerboard="0"
     inkscape:deskcolor="#d1d1d1"
     inkscape:zoom="12.765625"
     inkscape:cx="-0.97919217"
     inkscape:cy="15.784578"
     inkscape:window-width="1920"
     inkscape:window-height="1008"
     inkscape:window-x="0"
     inkscape:window-y="0"
     inkscape:window-maximized="1"
     inkscape:current-layer="svg3" /><g
     id="g3"
     transform="matrix(0.88494492,0,0,0.88494492,-41.720932,0.0208079)"><g
       id="microphone-sensitivity-high"><rect
         id="rect3862"
         width="16"
         height="16"
         x="0"
         y="0"
         rx="0"
         ry="0"
         style="fill:none" /><g
         id="g2232"
         transform="translate(0,16)" /></g><g
       id="microphone-sensitivity-medium"><rect
         id="rect3875"
         width="16"
         height="16"
         x="16"
         y="0"
         rx="0"
         ry="0"
         style="fill:none" /><g
         id="g2240"
         transform="translate(16,16)" /></g><g
       id="microphone-sensitivity-low"><rect
         id="rect3883"
         width="16"
         height="16"
         x="32"
         y="0"
         rx="0"
         ry="0"
         style="fill:none" /><g
         id="g2248"
         transform="translate(32,16)" /></g><g
       id="microphone-sensitivity-muted"><rect
         id="rect3889"
         width="16"
         height="16"
         x="48"
         y="0"
         rx="0"
         ry="0"
         style="fill:none" /><rect
         style="fill:#232629;fill-opacity:1;fill-rule:evenodd;stroke:none;stroke-width:4.3001;stroke-linecap:round;stroke-linejoin:round;paint-order:stroke fill markers"
         id="rect3006"
         width="22"
         height="1"
         x="34.360794"
         y="-34.441128"
         ry="0.5"
         transform="rotate(45)" /><g
         id="g2256"
         transform="translate(48,16)"><path
           id="path2252"
           d="M 3.5,-8.5 C 3.2238603,-8.5 3,-8.2761397 3,-8 c 0,2.8690171 2.1967528,5.2258159 5,5.4785156 V -0.5 C 8,-0.22390028 8.2238603,0 8.5,0 8.7760997,0 9,-0.22390028 9,-0.5 V -2.5214844 C 11.803297,-2.7741841 14,-5.1309829 14,-8 14,-8.2761397 13.7761,-8.5 13.5,-8.5 13.2239,-8.5 13,-8.2761397 13,-8 13,-5.5146825 10.985298,-3.5 8.5,-3.5 6.0147225,-3.5 4,-5.5146825 4,-8 4,-8.2761397 3.7761397,-8.5 3.5,-8.5 Z"
           style="opacity:0.2;fill:#000000;fill-opacity:1" /><path
           id="path2254"
           d="m 8.5,-15 c -1.6568483,0 -3,1.343152 -3,3 v 4 c 0,1.6568183 1.3431517,3 3,3 1.656898,0 3,-1.3431817 3,-3 v -4 c 0,-1.656848 -1.343102,-3 -3,-3 z m 0,1 c 1.1045989,0 2,0.895431 2,2 v 4 c 0,1.1046189 -0.8954011,2 -2,2 -1.1045689,0 -2,-0.8953811 -2,-2 v -4 c 0,-1.104569 0.8954311,-2 2,-2 z"
           style="opacity:0.2;fill:#000000;fill-opacity:1"
           sodipodi:nodetypes="ssssssssssssss" /></g></g></g></svg>
