<?xml version="1.0" encoding="UTF-8" standalone="no"?>
<svg
   viewBox="0 0 16 16"
   version="1.1"
   id="svg1"
   sodipodi:docname="network-bluetooth.svg"
   xml:space="preserve"
   inkscape:version="1.4.3 (1:1.4.3+202512261035+0d15f75042)"
   xmlns:inkscape="http://www.inkscape.org/namespaces/inkscape"
   xmlns:sodipodi="http://sodipodi.sourceforge.net/DTD/sodipodi-0.dtd"
   xmlns="http://www.w3.org/2000/svg"
   xmlns:svg="http://www.w3.org/2000/svg"><sodipodi:namedview
     id="namedview1"
     pagecolor="#ffffff"
     bordercolor="#000000"
     borderopacity="0.25"
     inkscape:showpageshadow="2"
     inkscape:pageopacity="0.0"
     inkscape:pagecheckerboard="0"
     inkscape:deskcolor="#d1d1d1"
     inkscape:zoom="25.5"
     inkscape:cx="7.3333333"
     inkscape:cy="17.019608"
     inkscape:window-width="1920"
     inkscape:window-height="1015"
     inkscape:window-x="0"
     inkscape:window-y="0"
     inkscape:window-maximized="1"
     inkscape:current-layer="svg1" /><defs
     id="defs3051"><style
       type="text/css"
       id="current-color-scheme">
      .ColorScheme-Text {
        color:#232629;
      }
      </style><style
       id="current-color-scheme-9"
       type="text/css">
      .ColorScheme-Text {
        color:#31363b;
      }
    </style><style
       id="current-color-scheme-1"
       type="text/css">
      .ColorScheme-Text {
        color:#31363b;
      }
    </style></defs><path
     fill="currentColor"
     d="m 7.4838647,1.5060781 a 0.4375,0.4375 0 0 1 0.46375,0.055125 l 3.5000003,2.84375 a 0.4375,0.4375 0 0 1 0,0.679 l -3.0817503,2.50425 3.0817503,2.5042499 a 0.4375,0.4375 0 0 1 0,0.679 l -3.5000003,2.84375 a 0.4375,0.4375 0 0 1 -0.713125,-0.3395 V 8.5069533 L 4.4476144,10.771453 a 0.4375,0.4375 0 0 1 -0.55125,-0.679 L 6.9781147,7.5882031 3.8963644,5.0839531 a 0.4375,0.4375 0 1 1 0.55125,-0.679 l 2.7868753,2.2645 v -4.76875 a 0.4375,0.4375 0 0 1 0.249375,-0.394625 m 0.625625,7.0008752 v 3.8499997 l 2.3686253,-1.925 z m 0,-1.8375002 2.3686253,-1.925 -2.3686253,-1.925 z"
     id="path1-5"
     style="stroke-width:0.875;fill:#232629;fill-opacity:1" /></svg>
