<?xml version="1.0" encoding="UTF-8" standalone="no"?>
<svg
   viewBox="0 0 16 16"
   version="1.1"
   id="svg4"
   sodipodi:docname="plasmavault.svg"
   xml:space="preserve"
   inkscape:version="1.4.2 (1:1.4.2+202505120737+ebf0e940d0)"
   xmlns:inkscape="http://www.inkscape.org/namespaces/inkscape"
   xmlns:sodipodi="http://sodipodi.sourceforge.net/DTD/sodipodi-0.dtd"
   xmlns="http://www.w3.org/2000/svg"
   xmlns:svg="http://www.w3.org/2000/svg"><defs
     id="defs4">   <style
   id="current-color-scheme-7"
   type="text/css">.ColorScheme-Text { color:#363636; }</style></defs><sodipodi:namedview
     id="namedview4"
     pagecolor="#ffffff"
     bordercolor="#000000"
     borderopacity="0.25"
     inkscape:showpageshadow="2"
     inkscape:pageopacity="0.0"
     inkscape:pagecheckerboard="0"
     inkscape:deskcolor="#d1d1d1"
     inkscape:zoom="16"
     inkscape:cx="-2.40625"
     inkscape:cy="11.875"
     inkscape:window-width="1920"
     inkscape:window-height="1015"
     inkscape:window-x="0"
     inkscape:window-y="0"
     inkscape:window-maximized="1"
     inkscape:current-layer="svg4" /><style
     id="current-color-scheme"
     type="text/css">.ColorScheme-Text { color: #fcfcfc; } </style><style
     id="current-color-scheme-5"
     type="text/css">.ColorScheme-Text { color: #fcfcfc; } </style><style
     id="current-color-scheme-2"
     type="text/css">.ColorScheme-NegativeText { color: #da4453; } .ColorScheme-Text { color: #fcfcfc; } </style><style
     id="current-color-scheme-6"
     type="text/css">.ColorScheme-Text { color: #fcfcfc; } </style><style
     id="current-color-scheme-9"
     type="text/css">
        .ColorScheme-Text {
            color:#232629;
        }
    </style><style
     id="current-color-scheme-62"
     type="text/css">
        .ColorScheme-Text {
            color:#232629;
        }
    </style><style
     id="current-color-scheme-70"
     type="text/css">.ColorScheme-Text { color: #fcfcfc; } </style><style
     id="current-color-scheme-5-9"
     type="text/css">.ColorScheme-Text { color: #fcfcfc; } </style><style
     id="current-color-scheme-2-3"
     type="text/css">.ColorScheme-NegativeText { color: #da4453; } .ColorScheme-Text { color: #fcfcfc; } </style><style
     id="current-color-scheme-6-6"
     type="text/css">.ColorScheme-Text { color: #fcfcfc; } </style><style
     id="current-color-scheme-3"
     type="text/css">
        .ColorScheme-Text {
            color:#232629;
        }
    </style><style
     id="current-color-scheme-1"
     type="text/css">
        .ColorScheme-Text {
            color:#232629;
        }
    </style><path
     fill="currentColor"
     d="m 7.152784,0.529483 a 3.4285715,3.4285715 0 1 0 0,6.857142 3.4285715,3.4285715 0 0 0 0,-6.857142 M 4.581355,3.958054 a 2.5714286,2.5714286 0 1 1 5.142857,0 2.5714286,2.5714286 0 0 1 -5.142857,0 M 2.8747835,8.243768 a 1.7142857,1.7142857 0 0 0 -1.722,1.714286 c 0,1.449429 0.714,2.542286 1.83,3.254572 1.0988575,0.700285 2.5800005,1.031142 4.1700005,1.031142 1.59,0 3.071143,-0.330857 4.17,-1.031142 q 0.122571,-0.078 0.238286,-0.162858 v -1.14 a 3.4285714,3.4285714 0 0 1 -0.699429,0.579429 c -0.917143,0.585429 -2.221714,0.897429 -3.708857,0.897429 -1.487143,0 -2.791715,-0.312 -3.708858,-0.897429 -0.8999996,-0.574286 -1.4339996,-1.408286 -1.4339996,-2.531143 0,-0.474 0.384,-0.857143 0.8648571,-0.857143 H 9.958212 A 3.4285714,3.4285714 0 0 1 9.846784,8.243768 Z m 7.7057145,0 a 2.5714286,2.5714286 0 0 0 1.643143,2.398286 l 0.072,0.02657 v 4.310573 c 0,0.08571 0.03,0.168 0.084,0.233143 l 0.513429,0.624 c 0.138857,0.168857 0.393428,0.18 0.546,0.024 l 1.314857,-1.341429 a 0.36857143,0.36857143 0 0 0 -0.01714,-0.531428 l -1.155429,-1.029429 1.158,-1.008857 a 0.36857143,0.36857143 0 0 0 0,-0.553714 l -0.80486,-0.701143 a 2.5722857,2.5722857 0 0 0 -0.781714,-5.022 2.5714286,2.5714286 0 0 0 -2.571429,2.571428 m 3.428572,-0.857143 a 0.857143,0.857143 0 1 1 -1.714286,0 0.857143,0.857143 0 0 1 1.714286,0"
     id="path1"
     style="stroke-width:0.857143;fill:#232629;fill-opacity:1" /></svg>
