<?xml version="1.0" encoding="UTF-8" standalone="no"?>
<svg
   width="16"
   height="16"
   version="1.1"
   id="svg3"
   sodipodi:docname="steam_tray_mono.svg"
   xml:space="preserve"
   inkscape:version="1.4.2 (1:1.4.2+202505120737+ebf0e940d0)"
   xmlns:inkscape="http://www.inkscape.org/namespaces/inkscape"
   xmlns:sodipodi="http://sodipodi.sourceforge.net/DTD/sodipodi-0.dtd"
   xmlns="http://www.w3.org/2000/svg"
   xmlns:svg="http://www.w3.org/2000/svg"><sodipodi:namedview
     id="namedview3"
     pagecolor="#ffffff"
     bordercolor="#000000"
     borderopacity="0.25"
     inkscape:showpageshadow="2"
     inkscape:pageopacity="0.0"
     inkscape:pagecheckerboard="0"
     inkscape:deskcolor="#d1d1d1"
     inkscape:zoom="18.031223"
     inkscape:cx="5.5182059"
     inkscape:cy="2.9948052"
     inkscape:window-width="1920"
     inkscape:window-height="1015"
     inkscape:window-x="0"
     inkscape:window-y="0"
     inkscape:window-maximized="1"
     inkscape:current-layer="svg3" /><defs
     id="defs1"><style
       id="current-color-scheme"
       type="text/css">.ColorScheme-Text { color:#363636; }</style></defs><g
     id="SVGRepo_bgCarrier"
     stroke-width="0"
     transform="translate(-180.36931,-131.80077)"
     style="fill:none;fill-opacity:1;stroke:#000000;stroke-opacity:1;stroke-width:0;stroke-dasharray:none" /><g
     id="SVGRepo_tracerCarrier"
     stroke-linecap="round"
     stroke-linejoin="round"
     transform="translate(-180.36931,-131.80077)"
     style="fill:none;fill-opacity:1;stroke:#000000;stroke-opacity:1;stroke-width:0.5;stroke-dasharray:none" /><g
     style="fill:currentColor"
     class="ColorScheme-Text"
     id="g5"
     transform="matrix(0.90441107,0,0,0.90441107,0.81465834,0.39706953)"><path
       d="M 8,2 C 6.3582,2 5.043,2.049773 3.9883,2.26758 3.46096,2.37648 2.99054,2.52615 2.5684,2.78711 2.14624,3.04807 1.76977,3.46576 1.60942,3.97661 0.83418,6.44621 2e-5,8.62661 2e-5,11.33401 c 0,1.5304 1.3582,2.666 2.9531,2.666 1.5537,0 2.6781,-1.1205 3.1289,-2.3125 l -0.023437,0.05664 0.47266,-1.0508 c 0.4943,-0.09501 0.96892,-0.16174 1.457,-0.15625 h 0.011719 0.011719 c 0.48811,-0.0055 0.96273,0.06124 1.457,0.15625 l 0.47266,1.0508 -0.023437,-0.05664 c 0.45077,1.192 1.5752,2.3125 3.1289,2.3125 1.5949,0 2.9531,-1.1356 2.9531,-2.666 0,-2.7074 -0.83414,-4.8879 -1.6094,-7.3574 -0.16035,-0.51081 -0.53682,-0.92849 -0.95898,-1.1895 -0.42216,-0.26096 -0.89259,-0.41063 -1.4199,-0.51953 C 10.956924,2.04978 9.641724,2 7.999924,2 Z m 0,1 c 3.2352,0 5.1109,0.23489 5.4375,1.2754 C 14.2223,6.7754 15,8.834 15,11.334 15,12.16733 14.12862,13 13.0469,13 11.96518,13 11.1939,12.23412 10.8535,11.334 L 10.31053,10.127 C 10.28026,10.02378 10.18083,9.79674 9.99998,9.752 9.29959,9.58369 8.65018,9.52984 7.99998,9.53716 7.34975,9.52985 6.70038,9.583692 5.99998,9.752 5.81913,9.796742 5.7197,10.02378 5.68943,10.127 L 5.14646,11.334 C 4.80607,12.23414 4.03486,13 2.95306,13 c -1.0817,0 -1.9531,-0.83268 -1.9531,-1.666 0,-2.5 0.7777,-4.5586 1.5625,-7.0586 C 2.88909,3.2349 4.76476,3 7.99996,3 Z"
       style="fill:currentColor"
       class="ColorScheme-Text"
       id="path2" /><circle
       cx="5.5114031"
       cy="6.0704594"
       r="1.823849"
       id="circle2"
       style="stroke-width:1.82385" /><circle
       cx="10.802168"
       cy="6.0704594"
       r="1.823849"
       id="circle5"
       style="stroke-width:1.82385" /></g></svg>
